<svg width="16" height="16" viewBox="0 0 16 16" fill="none" xmlns="http://www.w3.org/2000/svg">
<path d="M12.1593 8.96C11.6971 9.88444 11.0393 10.8978 10.186 12C9.51043 12.8889 8.78155 13.7422 7.99932 14.56C7.2171 13.7422 6.48821 12.8889 5.81266 12C4.95932 10.8978 4.30155 9.88444 3.83932 8.96C3.27043 7.82222 2.98599 6.81778 2.98599 5.94667C2.98599 5.07555 3.20821 4.25778 3.65266 3.49333C4.0971 2.72889 4.71043 2.12444 5.49266 1.68C6.27488 1.23556 7.11043 1.01333 7.99932 1.01333C8.88821 1.01333 9.72377 1.23556 10.506 1.68C11.2882 2.12444 11.9015 2.72889 12.346 3.49333C12.7904 4.25778 13.0127 5.07555 13.0127 5.94667C13.0127 6.81778 12.7282 7.82222 12.1593 8.96ZM7.99932 16C8.31932 15.68 8.63932 15.36 8.95932 15.04C9.70599 14.2578 10.3815 13.4578 10.986 12.64C11.8749 11.4667 12.5682 10.3822 13.066 9.38667C13.706 8.10667 14.026 6.96889 14.026 5.97333C14.026 4.90667 13.7504 3.91111 13.1993 2.98667C12.6482 2.06222 11.9193 1.33333 11.0127 0.799999C10.106 0.266666 9.10155 0 7.99932 0C6.8971 0 5.89266 0.266666 4.98599 0.799999C4.07932 1.33333 3.35043 2.06222 2.79932 2.98667C2.24821 3.91111 1.97266 4.90667 1.97266 5.97333C1.97266 6.96889 2.29266 8.10667 2.93266 9.38667C3.43043 10.3822 4.12377 11.4667 5.01266 12.64C5.6171 13.4578 6.29266 14.2578 7.03932 15.04L7.99932 16ZM7.99932 8C7.43043 8 6.95932 7.80444 6.58599 7.41333C6.21266 7.02222 6.02599 6.55111 6.02599 6C6.02599 5.44889 6.21266 4.97778 6.58599 4.58667C6.95932 4.19556 7.43043 4 7.99932 4C8.56821 4 9.04821 4.19556 9.43932 4.58667C9.83043 4.97778 10.026 5.44889 10.026 6C10.026 6.55111 9.83043 7.02222 9.43932 7.41333C9.04821 7.80444 8.56821 8 7.99932 8ZM7.99932 9.01333C8.8171 9.01333 9.51932 8.72 10.106 8.13333C10.6927 7.54667 10.986 6.83556 10.986 6C10.986 5.16444 10.6927 4.45333 10.106 3.86667C9.51932 3.28 8.8171 2.98667 7.99932 2.98667C7.18155 2.98667 6.47932 3.28 5.89266 3.86667C5.30599 4.45333 5.01266 5.16444 5.01266 6C5.01266 6.83556 5.30599 7.54667 5.89266 8.13333C6.47932 8.72 7.18155 9.01333 7.99932 9.01333Z" fill="white"/>
</svg>
