<svg width="16" height="16" viewBox="0 0 16 16" fill="none" xmlns="http://www.w3.org/2000/svg">
<path d="M0 4.0003C0 3.43141 0.195556 2.95141 0.586667 2.5603C0.977778 2.16919 1.45778 1.97363 2.02667 1.97363H14.0267C14.56 1.97363 15.0222 2.16919 15.4133 2.5603C15.8044 2.95141 16 3.43141 16 4.0003V12.0003C16 12.5692 15.8044 13.0403 15.4133 13.4136C15.0222 13.787 14.5422 13.9736 13.9733 13.9736H2.02667C1.45778 13.9736 0.977778 13.787 0.586667 13.4136C0.195556 13.0403 0 12.5692 0 12.0003V4.0003ZM2.02667 2.98697C1.74222 2.98697 1.50222 3.08474 1.30667 3.2803C1.11111 3.47585 1.01333 3.71585 1.01333 4.0003V4.21363L8 8.42697L14.9867 4.21363V4.0003C14.9867 3.71585 14.8889 3.47585 14.6933 3.2803C14.4978 3.08474 14.2756 2.98697 14.0267 2.98697H2.02667ZM14.9867 5.38697L10.2933 8.21363L14.9867 11.0936V5.38697ZM14.9867 12.267L9.33333 8.8003L8 9.6003L6.66667 8.8003L1.01333 12.267C1.08444 12.4803 1.20889 12.6581 1.38667 12.8003C1.56444 12.9425 1.77778 13.0136 2.02667 13.0136H14.0267C14.24 13.0136 14.4356 12.9425 14.6133 12.8003C14.7911 12.6581 14.9156 12.4803 14.9867 12.267ZM1.01333 11.0936L5.70667 8.21363L1.01333 5.38697V11.0936Z" fill="white"/>
</svg>
