<svg width="16" height="16" viewBox="0 0 16 16" fill="none" xmlns="http://www.w3.org/2000/svg">
<path d="M3.68077 1.33354C3.53855 1.15576 3.36966 1.06688 3.1741 1.06688C2.97855 1.06688 2.79188 1.13799 2.6141 1.28021L1.60077 2.29354C1.35188 2.54243 1.19188 2.82687 1.12077 3.14687C1.04966 3.46688 1.06744 3.7691 1.1741 4.05354C2.06299 6.57799 3.44966 8.78243 5.3341 10.6669C7.21855 12.5513 9.42299 13.938 11.9474 14.8269C12.2319 14.9335 12.5341 14.9513 12.8541 14.8802C13.1741 14.8091 13.4585 14.6491 13.7074 14.4002L14.7208 13.3869C14.863 13.2091 14.9341 13.0224 14.9341 12.8269C14.9341 12.6313 14.8452 12.4802 14.6674 12.3735L12.3741 10.5602C12.1963 10.418 12.0008 10.3824 11.7874 10.4535L9.60077 10.9869C9.31632 11.058 9.02299 11.0491 8.72077 10.9602C8.41855 10.8713 8.16077 10.7202 7.94744 10.5069L5.4941 8.05354C5.28077 7.84021 5.12966 7.58243 5.04077 7.28021C4.95188 6.97799 4.94299 6.68465 5.0141 6.40021L5.54744 4.21354C5.61855 4.00021 5.58299 3.80465 5.44077 3.62687L3.68077 1.33354ZM1.86744 0.533543C2.25855 0.142431 2.71188 -0.035347 3.22744 0.000208855C3.74299 0.0357647 4.16077 0.266875 4.48077 0.693542L6.2941 2.98687C6.47188 3.20021 6.58744 3.44021 6.64077 3.70687C6.6941 3.97354 6.68521 4.23132 6.6141 4.48021L6.08077 6.66687C6.00966 6.91576 6.06299 7.1291 6.24077 7.30687L8.6941 9.76021C8.87188 9.93799 9.08521 9.99132 9.3341 9.92021L11.5208 9.38687C11.7697 9.31576 12.0274 9.30687 12.2941 9.36021C12.5608 9.41354 12.8008 9.5291 13.0141 9.70687L15.3074 11.5202C15.7341 11.8402 15.9652 12.258 16.0008 12.7735C16.0363 13.2891 15.8585 13.7424 15.4674 14.1335L14.4541 15.1469C14.063 15.538 13.6097 15.7958 13.0941 15.9202C12.5785 16.0447 12.0719 16.018 11.5741 15.8402C8.90744 14.9158 6.56966 13.4491 4.56077 11.4402C2.55188 9.43132 1.08521 7.09354 0.160769 4.42688C-0.0170088 3.9291 -0.0436754 3.42243 0.080769 2.90687C0.205213 2.39132 0.462991 1.93799 0.854102 1.54688L1.86744 0.533543Z" fill="white"/>
</svg>
