<svg width="87" height="86" viewBox="0 0 87 86" fill="none" xmlns="http://www.w3.org/2000/svg">
<path d="M0.594789 58.957C0.592451 58.9079 0.594789 58.8588 0.594789 58.8096V48.9631L9.27654 48.0896V51.2423L32.6017 37.7753C36.6432 35.4423 42.757 35.1886 46.257 37.2093L76.1076 54.3167L75.7895 52.6515H86.4101V62.1939C86.4768 63.782 85.3436 65.473 83.0691 66.7862L54.3985 83.3393C50.357 85.6723 44.2433 85.9261 40.7432 83.9053L2.95 62.2115C1.44145 61.3402 0.668465 60.1895 0.597131 58.9745H0.594789V58.9558V58.957Z" fill="#FFDDAB"/>
<path d="M40.4548 84.4136L2.66045 62.7198C1.2478 61.9047 0.353194 60.7984 0.0900748 59.5612H0.0117188V58.9706C0.0117188 58.9297 0.0117188 58.8841 0.0117188 58.8104V48.4353L9.86289 47.4448V50.2304L32.311 37.2697C36.5081 34.8467 42.8954 34.5941 46.5498 36.7026L59.7654 44.2851L59.5549 43.1753L86.9988 52.0675V62.1701C87.0771 64.0471 85.7534 65.9146 83.3654 67.2933L54.6948 83.8453C52.4063 85.1667 49.4675 85.8426 46.675 85.8426C44.3455 85.8426 42.1177 85.3725 40.4548 84.4124V84.4136ZM76.4998 53.2369L76.9231 55.4577L45.9675 37.7164C42.6346 35.7916 36.7712 36.0454 32.8969 38.2825L8.69348 52.2558V48.737L1.18231 49.4925V58.87V58.9414C1.24545 60.009 1.9588 60.9656 3.24399 61.7059L41.0384 83.4009C44.3724 85.3246 50.2358 85.0708 54.1089 82.8349L82.7795 66.2818C84.7769 65.1287 85.8879 63.6483 85.8271 62.1959V53.2369H76.4974H76.4998Z" fill="#F6AC1F"/>
<path d="M52.0126 84.4049C51.0431 84.7335 50.021 84.9662 48.9873 85.1077L33.4551 54.0293H36.4804L52.0126 84.4049Z" fill="#F6AC1F"/>
<path d="M32.8684 53.4448H37.0642L52.5964 84.8238L52.1988 84.9583C51.2142 85.2916 50.1605 85.5371 49.0636 85.6868L48.3994 85.778L32.8672 53.4448H32.8684ZM35.8948 54.6131H34.0389L49.5711 84.4238C50.212 84.3104 50.8329 84.1607 51.427 83.9783L35.8948 54.6131Z" fill="#F6AC1F"/>
<path d="M9.27654 51.254L32.6017 37.787C36.6432 35.4541 42.757 35.2003 46.257 37.221L30.4956 52.579L45.9401 85.2595C43.9883 85.1707 42.1524 84.7321 40.7432 83.9182L2.95 62.2243C1.44145 61.3531 0.668465 60.2024 0.597131 58.9874H0.594789V58.9687C0.592451 58.9196 0.594789 58.8704 0.594789 58.8213V48.9748L9.27654 48.1013V51.254Z" fill="#F6AC1F"/>
<path d="M45.9157 85.8444C43.7827 85.7473 41.8941 85.2562 40.4545 84.4259L2.66016 62.732C1.24165 61.9134 0.344711 60.8002 0.0862697 59.5559L0.0125958 59.0004C0.0114264 58.9537 0.0114264 58.9069 0.0125958 58.8215V48.4464L9.86376 47.456V50.2415L32.3119 37.2809C36.5078 34.859 42.894 34.604 46.5519 36.7148L47.2208 37.1008L31.0828 52.8271L46.525 85.8713L45.9157 85.8444ZM32.8954 38.2936L8.69201 52.2669V48.7482L1.18084 49.5036V58.8811H1.17851L1.18201 58.9525C1.24516 60.0202 1.95851 60.9767 3.2437 61.717L41.0381 83.4108C42.1818 84.0716 43.6658 84.4902 45.3603 84.6352L29.9146 52.3301L45.2679 37.3697C41.8602 35.8436 36.5124 36.205 32.8966 38.2924L32.8954 38.2936Z" fill="#F6AC1F"/>
<path d="M2.95097 52.5769L40.7442 74.2707C44.2443 76.2915 50.358 76.0377 54.3995 73.7047L83.0701 57.1516C87.1116 54.8186 87.5501 51.2882 84.05 49.2674L46.2568 27.5736C42.7568 25.5528 36.643 25.8066 32.6015 28.1396L3.93094 44.6927C-0.110561 47.0256 -0.549093 50.5561 2.95097 52.5769Z" fill="#FFF8EE"/>
<path d="M40.449 74.7774L2.65575 53.0835C0.943722 52.0942 0 50.6979 0 49.1519C0 47.33 1.32495 45.5197 3.63572 44.1854L32.3063 27.6323C36.5034 25.2093 42.8895 24.9555 46.5451 27.0663L84.3395 48.7602C86.0516 49.7483 86.9953 51.1446 86.9953 52.6906C86.9953 54.5125 85.6703 56.3228 83.3596 57.6571L54.689 74.2102C52.4004 75.5305 49.4628 76.2076 46.6691 76.2076C44.3396 76.2076 42.1119 75.7363 40.449 74.7774ZM32.891 28.6462L4.22043 45.1993C2.28154 46.3184 1.16942 47.7592 1.16942 49.1531C1.16942 50.2641 1.90498 51.3002 3.24046 52.0708L41.0337 73.7647C44.3665 75.6884 50.23 75.4369 54.1042 73.1987L82.7748 56.6456C84.7137 55.5264 85.8259 54.0845 85.8259 52.6918C85.8259 51.5808 85.0903 50.5447 83.756 49.7741L45.9616 28.0802C44.4589 27.2125 42.4417 26.7868 40.325 26.7868C37.7464 26.7868 35.0194 27.4171 32.891 28.6462Z" fill="#F6AC1F"/>
<path d="M4.43309 54.0718H3.26367V62.046H4.43309V54.0718Z" fill="#FFDDAB"/>
<path d="M43.0339 75.7188H41.8633V83.693H43.0339V75.7188Z" fill="#FFDDAB"/>
<path d="M8.31017 62.3238C7.3758 61.7836 6.64258 60.5147 6.64258 59.4354C6.64258 58.8027 6.89634 58.294 7.33838 58.0391C7.77925 57.7842 8.34525 57.8204 8.89488 58.135C9.83041 58.6753 10.5625 59.9441 10.5625 61.0234C10.5625 61.6561 10.3087 62.1648 9.86666 62.4197C9.67137 62.5332 9.45152 62.5893 9.21881 62.5893C8.92645 62.5893 8.61422 62.5004 8.309 62.3238H8.31017ZM7.92309 59.0518C7.88567 59.074 7.81317 59.1828 7.81317 59.4354C7.81317 60.1019 8.31952 60.9778 8.89488 61.3111C9.1159 61.4386 9.24219 61.4292 9.28312 61.4082C9.32055 61.386 9.39305 61.2772 9.39305 61.0234C9.39305 60.3569 8.88669 59.481 8.31017 59.1477C8.16399 59.0623 8.05641 59.0378 7.99092 59.0378C7.95818 59.0378 7.93595 59.0436 7.92309 59.0506V59.0518Z" fill="#FFDDAB"/>
<path d="M12.625 62.5522C12.625 63.4292 13.2413 64.4957 14.0002 64.9343C14.7604 65.3728 15.3755 65.0173 15.3755 64.1402C15.3755 63.2632 14.7592 62.1967 14.0002 61.7581C13.2401 61.3196 12.625 61.6751 12.625 62.5522Z" fill="#FFDDAB"/>
<path d="M20.1871 69.1979C19.2527 68.6576 18.5195 67.3888 18.5195 66.3094C18.5195 65.6767 18.7733 65.1669 19.2153 64.9131C19.655 64.6594 20.2245 64.6944 20.773 65.009C21.7074 65.5493 22.4406 66.8181 22.4406 67.8975C22.4406 68.5313 22.1868 69.04 21.7448 69.2949C21.5483 69.4072 21.3296 69.4633 21.0969 69.4633C20.8046 69.4633 20.4935 69.3733 20.1883 69.1979H20.1871ZM19.7989 65.9247C19.7615 65.9469 19.6889 66.0556 19.6889 66.3094C19.6889 66.976 20.1953 67.8519 20.7718 68.1851C20.9905 68.3103 21.1191 68.3033 21.1589 68.2822C21.1963 68.26 21.2688 68.1512 21.2688 67.8975C21.2688 67.2309 20.7636 66.355 20.1871 66.0217C20.0398 65.9364 19.9322 65.9118 19.8667 65.9118C19.834 65.9118 19.8117 65.9176 19.7989 65.9247Z" fill="#FFDDAB"/>
<path d="M11.7395 66.5963L11.1562 67.6099L22.6784 74.2407L23.2617 73.2272L11.7395 66.5963Z" fill="#FFDDAB"/>
<path d="M7.82303 49.5923L45.1917 71.0266C46.5541 71.8136 48.9351 71.7154 50.5091 70.8067L78.7938 54.429C80.3678 53.5204 80.5386 52.1463 79.175 51.3593L41.8063 29.9251C40.4439 29.1381 38.063 29.2363 36.489 30.1449L8.20426 46.5226C6.63022 47.4313 6.45949 48.8053 7.82303 49.5923Z" fill="#FFDDAB"/>
<path d="M44.9017 71.5331L7.533 50.0989C6.75183 49.6475 6.32031 48.9938 6.32031 48.2594C6.32031 47.4186 6.90151 46.6012 7.91306 46.0165L36.1989 29.6388C37.9601 28.6225 40.5503 28.5255 42.0998 29.4178L79.4697 50.852C80.2509 51.3034 80.6824 51.9571 80.6824 52.6915C80.6824 53.5323 80.1012 54.3497 79.0896 54.9344L50.8038 71.3121C49.8495 71.8629 48.6532 72.1436 47.5095 72.1436C46.5424 72.1436 45.6127 71.9424 44.9029 71.5331H44.9017ZM36.7848 30.6503L8.49894 47.028C7.86628 47.3929 7.48973 47.8524 7.48973 48.2582C7.48973 48.6418 7.83003 48.9189 8.11654 49.0838L45.4864 70.5181C46.6652 71.1975 48.8333 71.0981 50.2179 70.2983L78.5037 53.9206C79.1364 53.5557 79.513 53.0961 79.513 52.6903C79.513 52.3068 79.1715 52.0284 78.8861 51.8647L41.5163 30.4305C40.99 30.1264 40.2685 29.9791 39.506 29.9791C38.56 29.9791 37.5519 30.2083 36.786 30.6515L36.7848 30.6503Z" fill="#F6AC1F"/>
<path d="M79.2767 54.1821C79.2405 54.1587 79.2159 54.1318 79.1773 54.1096L41.8086 32.6753C40.4462 31.8883 38.0653 31.9877 36.4913 32.8952L8.20658 49.2729C8.02649 49.377 7.86979 49.488 7.72596 49.6038C6.4852 48.8074 6.67699 47.4895 8.20658 46.6066L36.4913 30.2289C38.0653 29.3203 40.4451 29.2221 41.8086 30.0091L79.1773 51.4433C80.3842 52.1403 80.383 53.2957 79.2767 54.1821Z" fill="#F6AC1F"/>
<path d="M66.1379 51.7567L66.1227 49.0296L63.4588 49.0156L49.4574 40.8998C47.3676 39.6883 43.7143 39.8333 41.296 41.2237L28.3821 48.6495C28.2757 48.7103 28.1763 48.7735 28.0781 48.8367L26.3789 48.8285V51.3556H26.3801C26.3964 52.1063 26.8584 52.822 27.7869 53.3599L43.0595 62.2124C45.1492 63.4239 48.8025 63.2789 51.2208 61.8885L64.1347 54.4627C65.4784 53.6897 66.1566 52.6957 66.1356 51.7567H66.1379Z" fill="#FFDDAB"/>
<path d="M46.6226 63.0897C45.2766 63.0897 43.9926 62.8172 43.0348 62.2629L27.7622 53.4105C26.8746 52.8959 26.3683 52.1884 26.3297 51.4143H26.3273V51.3581L26.3262 48.7737L28.0651 48.7831C28.1727 48.7141 28.2651 48.6568 28.3574 48.603L41.2713 41.1772C43.7002 39.7797 47.3874 39.6347 49.4888 40.8533L63.4762 48.962L66.1811 48.976L66.1963 51.8166C66.1893 52.7954 65.4525 53.7753 64.1662 54.5155L51.2523 61.9413C49.9285 62.7026 48.2329 63.0921 46.6226 63.0921V63.0897ZM26.4384 51.3242V51.3558C26.456 52.1113 26.946 52.8071 27.8183 53.3122L43.0909 62.1647C45.162 63.3645 48.7977 63.2195 51.195 61.8408L64.1089 54.415C65.3835 53.6818 66.1027 52.7135 66.0817 51.7593V51.702L66.0676 49.0871L63.4446 49.0743L63.4318 49.0673L49.4304 40.9515C47.3593 39.7517 43.7248 39.8967 41.3263 41.2754L28.4124 48.7012C28.3189 48.755 28.223 48.8147 28.1119 48.8872L28.0978 48.8965L26.4384 48.8883V51.3266V51.3242Z" fill="#F6AC1F" stroke="#F6AC1F" stroke-width="6" stroke-miterlimit="10"/>
<path d="M43.0638 59.6871L27.7913 50.8345C25.7015 49.623 25.9681 47.5146 28.3853 46.1241L41.2992 38.6983C43.7164 37.3079 47.3708 37.1629 49.4606 38.3744L64.7332 47.2269C66.8229 48.4384 66.5563 50.5469 64.1391 51.9373L51.2252 59.3631C48.808 60.7536 45.1536 60.8986 43.0638 59.6871Z" fill="#FFDDAB"/>
<path d="M64.5382 48.2416L49.4843 39.5154C47.425 38.3215 43.8232 38.4641 41.4399 39.8347L28.7108 47.154C27.6209 47.7809 26.9754 48.5562 26.793 49.3268V50.2249C26.9391 50.8143 27.3788 51.3639 28.1261 51.7966L43.18 60.5228C45.2394 61.7168 48.8412 61.5741 51.2244 60.2036L63.9535 52.8842C64.9967 52.2843 65.634 51.5475 65.8468 50.8096V49.7186C65.6784 49.1655 65.2457 48.6509 64.5382 48.2416Z" fill="#FFF7EE"/>
<path d="M46.6237 60.5626C45.2777 60.5626 43.9937 60.2901 43.036 59.7358L27.7634 50.8833C26.836 50.3454 26.325 49.6005 26.3262 48.7854C26.3273 47.8042 27.0676 46.8161 28.3575 46.0747L41.2713 38.6489C43.7002 37.2514 47.3874 37.1064 49.4888 38.3249L64.7614 47.1774C65.6888 47.7154 66.1998 48.4603 66.1986 49.2754C66.1975 50.2565 65.4572 51.2447 64.1673 51.9861L51.2535 59.4119C49.9297 60.1732 48.2329 60.5626 46.6237 60.5626ZM45.9022 37.6093C44.313 37.6093 42.6372 37.994 41.3286 38.7471L28.4148 46.1729C27.1623 46.8933 26.442 47.8452 26.4408 48.7854C26.4396 49.5584 26.9296 50.2682 27.8207 50.7851L43.0933 59.6376C45.1643 60.8374 48.7989 60.6924 51.1973 59.3136L64.1112 51.8878C65.3637 51.1675 66.084 50.2156 66.0852 49.2754C66.0864 48.5024 65.5964 47.7926 64.7053 47.2757L49.4327 38.4232C48.4913 37.8771 47.2272 37.6104 45.9022 37.6104V37.6093Z" fill="#F6AC1F" stroke="#F6AC1F" stroke-width="6" stroke-miterlimit="10"/>
<path d="M47.4609 60.45V62.9993L49.2583 62.6871L50.4722 62.2649L64.4958 54.2415L65.1004 53.7749L65.6501 53.1703L65.9822 52.5763L66.195 51.8138L66.0827 49.8398L65.6992 50.5731L65.1706 51.1823L64.4678 51.732L51.223 59.3624L50.3681 59.7811L49.3449 60.1354L48.4117 60.3482L47.4609 60.45Z" fill="#F6AC1F"/>
<path d="M46.481 60.5065V63.0348L45.6495 62.9857L45.0625 62.9038V60.3604L45.9232 60.4843L46.481 60.5065Z" fill="#F6AC1F"/>
<path d="M47.8097 48.6884L45.969 47.6126C45.5586 47.3729 44.892 47.3693 44.4804 47.6056L42.628 48.6627C42.2152 48.8978 42.214 49.2825 42.6233 49.5222L44.464 50.5981C44.8745 50.8378 45.541 50.8413 45.9527 50.6051L46.5432 50.2683L47.4425 50.7934C47.9407 51.0846 48.7546 51.0881 49.2563 50.8027L51.4653 49.5421C51.967 49.2556 51.9693 48.7867 51.4712 48.4955L47.2402 46.0245C47.0005 45.8842 46.68 45.8058 46.3386 45.8035L41.7954 45.7719C41.4563 45.7696 41.1241 45.8467 40.8832 45.9836L37.1949 48.0885C36.6932 48.375 36.6909 48.844 37.1891 49.1351L45.5153 53.9976C46.0135 54.2888 46.8274 54.2923 47.3291 54.0069L55.2577 49.4825C55.7594 49.196 55.7617 48.727 55.2636 48.4358L48.6704 44.5849C48.4283 44.4434 48.0927 44.3628 47.7501 44.3639L40.6786 44.3744C40.3418 44.3744 40.0249 44.4505 39.7852 44.5873L33.6773 48.0733C33.1756 48.3598 33.1733 48.8288 33.6715 49.1199L45.3949 55.9669C45.893 56.2581 46.7069 56.2616 47.2086 55.9762L58.6654 49.438C59.1671 49.1515 59.1694 48.6826 58.6712 48.3914L49.8047 43.2132C49.5627 43.0717 49.227 42.991 48.8832 42.9922L39.6939 43.0109C39.3572 43.0109 39.0402 43.0869 38.8017 43.2238L30.2451 48.1072C29.7434 48.3937 29.741 48.8627 30.2392 49.1539L45.3761 57.9935C45.8743 58.2847 46.6882 58.2882 47.1899 58.0028L62.2087 49.431C62.7104 49.1445 62.7128 48.6756 62.2146 48.3844L47.0519 39.5296C46.5678 39.2466 45.7773 39.243 45.2896 39.5214L43.7998 40.3715C43.4396 40.5773 43.3332 40.8849 43.5273 41.1562C43.7214 41.4275 44.174 41.6041 44.6815 41.6041L49.1557 41.6135L61.4743 48.8077C61.5667 48.8615 61.5667 48.9492 61.4743 49.003L46.4555 57.5748C46.362 57.6286 46.2099 57.6275 46.1176 57.5725L30.9806 48.7329C30.8871 48.6791 30.8882 48.5914 30.9806 48.5376L39.5372 43.6541C39.5817 43.6284 39.6413 43.6143 39.7033 43.6143L48.8926 43.5956C48.9557 43.5956 49.0189 43.6108 49.0633 43.6366L57.9298 48.8147C58.0234 48.8685 58.0222 48.9562 57.9298 49.01L46.4731 55.5482C46.3795 55.602 46.2275 55.6009 46.1351 55.5459L34.4117 48.6989C34.3181 48.6452 34.3193 48.5575 34.4117 48.5037L40.5196 45.0176C40.564 44.9919 40.6236 44.9779 40.6868 44.9779L47.7583 44.9685C47.8214 44.9685 47.8834 44.9837 47.929 45.0095L54.5222 48.8603C54.6157 48.9141 54.6145 49.0018 54.5222 49.0556L46.5935 53.5801C46.5 53.6339 46.3491 53.6327 46.2555 53.5778L37.9293 48.7153C37.8357 48.6615 37.8369 48.5738 37.9293 48.52L41.6176 46.4151C41.6621 46.3894 41.7241 46.3753 41.7872 46.3753L46.3304 46.4069C46.3947 46.4069 46.4543 46.4221 46.4988 46.4478L50.7297 48.9188C50.8233 48.9726 50.8221 49.0603 50.7297 49.1141L48.5207 50.3747C48.4272 50.4285 48.2751 50.4274 48.1828 50.3724L47.2835 49.8473L47.805 49.5503C48.2178 49.3152 48.219 48.9305 47.8097 48.6908V48.6884Z" fill="#FFDDAB"/>
<path d="M62.5963 48.6264C62.6465 48.7152 62.6723 48.8088 62.6723 48.9058C62.6723 49.1374 62.5214 49.3491 62.2501 49.5046L47.2313 58.0764C46.705 58.377 45.8514 58.3723 45.3286 58.0671L30.1917 49.2274C29.9227 49.0696 29.7742 48.8567 29.7754 48.6252C29.7754 48.3937 29.9263 48.182 30.1976 48.0264L38.7542 43.143C39.0056 42.9991 39.3389 42.9196 39.6897 42.9184L48.879 42.8997C49.238 42.8997 49.59 42.9839 49.8449 43.1336L58.7114 48.3118C58.9804 48.4697 59.1289 48.6837 59.1278 48.914C59.1278 49.1456 58.9769 49.3573 58.7056 49.5128L47.2488 56.051C46.7226 56.3515 45.8689 56.3468 45.3462 56.0416L33.6228 49.1959C33.3526 49.038 33.2053 48.824 33.2065 48.5936C33.2065 48.3621 33.3573 48.1504 33.6286 47.9949L39.7365 44.5089C39.9891 44.365 40.3224 44.2855 40.6732 44.2843L47.7447 44.2738C48.1025 44.2738 48.4545 44.358 48.7094 44.5077L55.3026 48.3586C55.5727 48.5164 55.7201 48.7304 55.7189 48.9608C55.7177 49.1923 55.5681 49.404 55.2968 49.5596L47.3681 54.084C46.8419 54.3846 45.9882 54.3799 45.4655 54.0747L37.1392 49.2122C36.8702 49.0555 36.7217 48.8415 36.7229 48.61C36.7229 48.3784 36.8738 48.1668 37.1451 48.0113L40.8334 45.9063C41.0872 45.7613 41.4357 45.6794 41.79 45.683L46.3332 45.7145C46.6898 45.7168 47.0266 45.7999 47.2792 45.9484L51.5102 48.4194C51.7803 48.5772 51.9277 48.7901 51.9265 49.0216C51.9265 49.2532 51.7756 49.4648 51.5043 49.6204L49.2953 50.881C48.7691 51.1815 47.9166 51.1769 47.3927 50.8716L46.5378 50.3723L45.9917 50.6834C45.5555 50.9325 44.848 50.929 44.4142 50.6752L42.5723 49.5993C42.3455 49.4672 42.2215 49.2871 42.2227 49.0906C42.2227 48.8953 42.3501 48.7164 42.5782 48.5854L44.4305 47.5283C44.8667 47.2792 45.5742 47.2827 46.0081 47.5365L47.8487 48.6123C48.0756 48.7445 48.1996 48.9246 48.1984 49.121C48.1984 49.3163 48.0709 49.4952 47.8429 49.6262L47.4546 49.8472L48.2218 50.2951C48.2873 50.3337 48.4054 50.3337 48.4709 50.2963L50.6799 49.0357C50.6986 49.0251 50.7045 49.0158 50.7056 49.0135C50.7056 49.0135 50.6986 49.0052 50.6799 48.9936L46.4489 46.5226C46.4174 46.5039 46.3729 46.4934 46.3238 46.4934L41.7806 46.4629C41.7327 46.4629 41.6859 46.4735 41.6555 46.491L37.9672 48.596C37.9485 48.6065 37.9426 48.6158 37.9414 48.6182C37.9414 48.617 37.9485 48.6264 37.9672 48.6369L46.2934 53.4993C46.3589 53.5379 46.477 53.5379 46.5425 53.5005L54.4711 48.976C54.4898 48.9655 54.4957 48.9561 54.4969 48.9538C54.4969 48.9538 54.4898 48.9456 54.4711 48.9351L47.878 45.0842C47.8464 45.0655 47.7996 45.055 47.7517 45.055L40.6802 45.0655C40.6334 45.0655 40.5878 45.076 40.5574 45.0936L34.4496 48.5796C34.4308 48.5901 34.425 48.5995 34.4238 48.6018C34.4238 48.6018 34.4308 48.61 34.4496 48.6217L46.173 55.4686C46.2396 55.5072 46.3554 55.5084 46.422 55.4698L57.8788 48.9316C57.8975 48.921 57.9034 48.9117 57.9046 48.9094C57.9046 48.9094 57.8975 48.9012 57.8788 48.8907L49.0123 43.7125C48.9807 43.6938 48.934 43.6832 48.886 43.6832L39.6967 43.7019C39.65 43.7019 39.6055 43.7125 39.5739 43.73L31.0173 48.6135C30.9986 48.624 30.9928 48.6334 30.9916 48.6357C30.9916 48.6357 30.9986 48.6439 31.0173 48.6544L46.1543 57.4941C46.2209 57.5327 46.3367 57.5338 46.4033 57.4952L61.4222 48.9234C61.4409 48.9129 61.4467 48.9035 61.4479 48.9012C61.4479 48.9012 61.4409 48.893 61.4222 48.8825L49.1246 41.6999L44.6738 41.6905C44.1393 41.6905 43.6587 41.4999 43.447 41.2053C43.3488 41.0673 43.3149 40.9164 43.3465 40.7691C43.3874 40.5843 43.5254 40.4194 43.7476 40.2931L45.2374 39.4429C45.7496 39.1506 46.5799 39.1553 47.0886 39.4523L62.2513 48.3071C62.4068 48.3983 62.5226 48.5083 62.5916 48.6299L62.5963 48.6264ZM30.0058 48.817C30.0596 48.9105 30.1531 48.9983 30.2806 49.0743L45.4175 57.9139C45.8911 58.191 46.6653 58.1945 47.1424 57.9221L62.1612 49.3502C62.3752 49.2286 62.4934 49.0696 62.4945 48.9047C62.4945 48.7398 62.3787 48.5808 62.1659 48.4568L47.0033 39.602C46.5437 39.333 45.7929 39.3295 45.3298 39.5938L43.84 40.444C43.6657 40.5434 43.5535 40.672 43.5242 40.8041C43.502 40.9035 43.5266 41.0029 43.5956 41.1C43.7745 41.3491 44.199 41.5105 44.6784 41.5105L49.1772 41.5198L49.1982 41.5315L61.5169 48.7258C61.5894 48.7678 61.6303 48.8322 61.6303 48.9012C61.6303 48.9702 61.5882 49.0333 61.5157 49.0743L46.4969 57.6461C46.3753 57.7151 46.1917 57.7151 46.07 57.6437L30.9331 48.8041C30.8606 48.762 30.8197 48.6977 30.8197 48.6287C30.8197 48.5597 30.8618 48.4966 30.9343 48.4545L39.4909 43.571C39.5482 43.5382 39.6231 43.5195 39.7014 43.5195L48.8907 43.5008C48.9702 43.5008 49.0474 43.5195 49.107 43.5546L57.9736 48.7328C58.0461 48.7749 58.087 48.8392 58.087 48.9082C58.087 48.9772 58.0449 49.0403 57.9724 49.0824L46.5156 55.6207C46.394 55.6897 46.2104 55.6897 46.0888 55.6183L34.3654 48.7714C34.2929 48.7293 34.2519 48.6661 34.2519 48.596C34.2519 48.527 34.294 48.4638 34.3665 48.4229L40.4744 44.9369C40.5317 44.9041 40.6065 44.8854 40.6849 44.8854L47.7564 44.876C47.837 44.876 47.9131 44.8947 47.9715 44.9298L54.5647 48.7807C54.6372 48.8228 54.6781 48.8872 54.6781 48.9562C54.6781 49.0251 54.636 49.0883 54.5635 49.1304L46.6349 53.6549C46.5133 53.7239 46.3297 53.7239 46.208 53.6525L37.8818 48.7901C37.8093 48.748 37.7684 48.6848 37.7684 48.6147C37.7684 48.5457 37.8105 48.4825 37.883 48.4416L41.5713 46.3366C41.6298 46.3027 41.7058 46.2852 41.7853 46.2852L46.3285 46.3168C46.408 46.3168 46.484 46.3366 46.5413 46.3706L50.7723 48.8416C50.8448 48.8836 50.8857 48.948 50.8857 49.017C50.8857 49.086 50.8436 49.1491 50.7711 49.19L48.5621 50.4506C48.4405 50.5208 48.2569 50.5197 48.1352 50.4483L47.1026 49.8461L47.7575 49.4719C47.9283 49.3748 48.023 49.2497 48.023 49.1199C48.023 48.9901 47.9306 48.8649 47.761 48.7655L45.9204 47.6897C45.5356 47.4651 44.9076 47.4616 44.5194 47.6826L42.667 48.7398C42.4963 48.8369 42.4016 48.962 42.4016 49.0918C42.4016 49.2204 42.494 49.3467 42.6635 49.4461L44.5054 50.522C44.8901 50.7465 45.5181 50.75 45.9063 50.529L46.5413 50.1665L47.485 50.7173C47.9587 50.9944 48.7328 50.9979 49.2099 50.7255L51.419 49.4648C51.633 49.3432 51.7511 49.1842 51.7522 49.0193C51.7522 48.8544 51.6365 48.6954 51.4236 48.5714L47.1927 46.1004C46.9658 45.9683 46.6618 45.8934 46.3343 45.8911L41.7912 45.8595C41.4672 45.8572 41.1503 45.9297 40.9234 46.0595L37.2351 48.1645C37.0211 48.2861 36.903 48.4451 36.9018 48.61C36.9018 48.7749 37.0176 48.9339 37.2304 49.0579L45.5567 53.9203C46.0315 54.1975 46.8044 54.201 47.2816 53.9285L55.2102 49.404C55.4242 49.2824 55.5423 49.1234 55.5435 48.9585C55.5435 48.7936 55.4277 48.6346 55.2149 48.5106L48.6217 44.6597C48.3925 44.5264 48.0733 44.4504 47.7458 44.4504L40.6744 44.4609C40.3528 44.4609 40.0511 44.5322 39.8254 44.662L33.7175 48.1481C33.5035 48.2697 33.3854 48.4287 33.3842 48.5936C33.3842 48.7585 33.5 48.9176 33.7128 49.0415L45.4362 55.8873C45.9098 56.1644 46.684 56.1679 47.1611 55.8955L58.6179 49.3573C58.8319 49.2356 58.95 49.0766 58.9512 48.9117C58.9512 48.7468 58.8354 48.5878 58.6226 48.4638L49.7561 43.2856C49.5268 43.1523 49.2076 43.0763 48.8802 43.0763L39.6909 43.095C39.3693 43.095 39.0676 43.1675 38.8419 43.2962L30.2853 48.1796C30.0713 48.3013 29.9532 48.4603 29.952 48.6252C29.952 48.6907 29.9695 48.755 30.0046 48.817H30.0058Z" fill="#F6AC1F"/>
<path d="M55.853 29.4176L66.2479 23.4162C68.9095 21.8796 70.9946 18.2672 70.9946 15.194C70.9946 13.4726 70.3526 12.1547 69.1878 11.4823C68.0231 10.8099 66.5602 10.9128 65.0692 11.7735L54.673 17.7761L55.8518 19.8167L66.2468 13.8153C66.9671 13.399 67.608 13.2937 68.0079 13.5241C68.4078 13.7545 68.637 14.3637 68.637 15.1952C68.637 17.4288 67.0022 20.2599 65.068 21.3767L54.6719 27.3782L55.8506 29.4188L55.853 29.4176Z" fill="#F6AC1F"/>
<path d="M11.3652 39.2744L11.3898 39.237L44.4878 24.4193H44.4913L54.9482 18.3805C56.2136 17.6507 58.1256 17.5712 59.2213 18.2039L59.4037 18.3091L62.4173 17.3104L62.4313 17.3081H65.2871C65.3093 17.3081 65.328 17.3268 65.328 17.349V36.1848L65.3163 36.1895C65.3455 36.6912 65.0041 37.2256 64.286 37.6408L60.2223 39.9866C60.2153 39.9901 60.2059 39.9866 60.2059 39.9773L60.213 28.0761C60.213 27.2084 59.2739 26.6646 58.522 27.0996L26.7056 45.5121C25.7748 46.0512 25.2018 47.044 25.2018 48.1199V60.0024L21.7438 61.9985C20.4785 62.7283 18.5665 62.8078 17.4708 62.1763L12.1008 59.0762C11.6038 58.7885 11.3734 58.4038 11.3746 58.0015L11.3676 39.2744H11.3652Z" fill="#FFDDAB"/>
<path d="M17.2136 62.6199L11.8436 59.5186C11.2098 59.1526 10.8613 58.6135 10.8625 58.0019L10.8555 39.2748L10.88 39.0877L11.0426 38.834L44.2447 23.9718L54.6922 17.94C56.1142 17.1191 58.2028 17.0384 59.4599 17.754L62.256 16.8279L65.286 16.7998L65.838 16.8407V36.1875L65.8263 36.5325L65.8005 36.5431C65.6906 37.1289 65.2474 37.6774 64.5399 38.0867L60.4773 40.4325L60.2107 40.5799L59.6938 40.2759L59.7009 28.0788C59.7009 27.7572 59.4857 27.5994 59.3933 27.5456C59.3009 27.4918 59.0553 27.3842 58.777 27.5456L26.9607 45.958C26.19 46.4036 25.7117 47.2339 25.7117 48.1238V60.3021L21.9988 62.4456C21.227 62.8912 20.2564 63.1192 19.3314 63.1192C18.5467 63.1192 17.7924 62.9555 17.2159 62.6234L17.2136 62.6199ZM24.6885 48.1215C24.6885 46.8678 25.3621 45.6996 26.4473 45.0716L58.2648 26.6591C58.7782 26.3621 59.3898 26.3621 59.9032 26.6591C60.4154 26.955 60.7218 27.4859 60.7206 28.0788L60.7147 39.1134L64.0277 37.2003C64.5329 36.9091 64.8229 36.5431 64.8042 36.2203L64.8147 17.8195H62.5039L59.3442 18.8662L58.9629 18.6463C58.0262 18.1049 56.3037 18.1867 55.2009 18.8229L44.6949 24.8851L11.874 39.5789L11.881 58.003C11.881 58.2989 12.1371 58.5094 12.3523 58.6345L17.7223 61.7347C18.659 62.2749 20.3815 62.1942 21.4843 61.5581L24.6873 59.7092V48.1215H24.6885Z" fill="#F6AC1F"/>
<path d="M22.4456 61.5916L21.7404 61.9985C21.6527 62.05 21.5545 62.0898 21.4609 62.1342V39.9375H22.4468V61.5916H22.4456Z" fill="#F6AC1F"/>
<path d="M20.9453 62.9407L21.7487 62.5618C21.8317 62.5232 21.9136 62.4858 21.9908 62.4414L22.952 61.8859V39.4272H20.9453V62.9407Z" fill="#F6AC1F"/>
<path d="M19.0682 62.593C18.4683 62.5626 17.9034 62.4281 17.4684 62.1778L12.0985 59.0777C11.6015 58.79 11.3711 58.4053 11.3723 58.003L11.3652 39.276L11.3898 39.2386L14.2256 37.9697H19.0694V62.5953L19.0682 62.593Z" fill="#F6AC1F"/>
<path d="M19.0426 63.1028C18.3315 63.0666 17.6989 62.8993 17.2136 62.6199L11.8436 59.5186C11.2098 59.1525 10.8613 58.6134 10.8625 58.0018L10.8555 39.2748L10.88 39.0877L11.0426 38.8339L14.117 37.4575H19.5805V63.1309L19.0437 63.1028H19.0426ZM14.3333 38.4784L11.8752 39.5788L11.8822 58.003C11.8822 58.2989 12.1383 58.5094 12.3535 58.6345L17.7235 61.7346C17.9503 61.8656 18.2333 61.9627 18.5572 62.0223V38.4784H14.3333Z" fill="#F6AC1F"/>
<path d="M63.9746 17.2686H65.2797C65.3019 17.2686 65.3206 17.2873 65.3206 17.3095V36.1453L65.3089 36.15C65.3382 36.6517 64.9967 37.1861 64.2787 37.6012L63.9746 37.7766V17.2686Z" fill="#F6AC1F"/>
<path d="M63.4648 16.7573H65.2798L65.8317 16.7983V36.1451L65.8201 36.4901L65.7943 36.5006C65.6844 37.0877 65.2412 37.6349 64.5337 38.0442L63.4648 38.6617V16.7573ZM64.8108 17.7782H64.4857V36.8152C64.6986 36.6058 64.812 36.3837 64.8003 36.179L64.791 35.813L64.8108 35.8048V17.7771V17.7782Z" fill="#F6AC1F"/>
<path d="M12.099 40.323L17.4689 43.4231C18.5647 44.0557 20.4778 43.9762 21.742 43.2465L64.2807 18.6864C65.5448 17.9567 65.6828 16.8516 64.5871 16.2201L59.2171 13.12C58.1214 12.4873 56.2094 12.5668 54.9441 13.2966L12.4054 37.8567C11.1412 38.5864 11.0032 39.6915 12.099 40.3241V40.323Z" fill="#FFF8EE"/>
<path d="M17.2116 43.8662L11.8417 40.766C11.2008 40.3953 10.8477 39.8574 10.8477 39.2516C10.8477 38.5617 11.3224 37.8916 12.1492 37.4145L54.6891 12.8544C56.1158 12.0299 58.2172 11.9528 59.4732 12.6778L64.8432 15.7779C65.4852 16.1486 65.8383 16.6854 65.8383 17.2912C65.8383 17.9811 65.3635 18.6512 64.5368 19.1283L21.998 43.6884C21.2262 44.134 20.2568 44.362 19.3294 44.362C18.5448 44.362 17.7893 44.1983 17.214 43.8662H17.2116ZM55.199 13.7385L12.6603 38.2986C12.1656 38.5839 11.8697 38.9418 11.8697 39.2516C11.8697 39.5405 12.1328 39.7533 12.3539 39.8808L17.7238 42.9809C18.6605 43.5223 20.3831 43.4405 21.4858 42.8043L64.0246 18.2442C64.5192 17.9589 64.8151 17.6022 64.8151 17.2912C64.8151 17.0023 64.552 16.7895 64.3309 16.662L58.961 13.5619C58.5435 13.321 57.9705 13.2029 57.3659 13.2029C56.6128 13.2029 55.8106 13.3853 55.199 13.7385Z" fill="#F6AC1F"/>
<path d="M60.0481 39.907L50.791 34.5686L58.5103 27.1019C59.2611 26.668 60.2001 27.2107 60.2001 28.0772V39.8205C60.2001 39.8988 60.116 39.9468 60.0481 39.907Z" fill="#F6AC1F"/>
<path d="M59.7891 40.3468L49.7812 34.5629L58.256 26.6599C58.7682 26.3652 59.3798 26.3641 59.8932 26.6599C60.4054 26.9558 60.7118 27.4856 60.7118 28.0773V39.8007C60.7118 39.8989 60.6943 39.9971 60.651 40.0848C60.5352 40.3176 60.3165 40.4322 60.1014 40.4322C59.9938 40.4322 59.8862 40.4041 59.7903 40.3468H59.7891ZM58.767 27.544L51.8032 34.5746L59.6897 39.1002V28.0773C59.6897 27.7569 59.4745 27.5978 59.3822 27.544C59.326 27.5113 59.2138 27.4587 59.0711 27.4587C58.9799 27.4587 58.8758 27.4809 58.767 27.544Z" fill="#F6AC1F"/>
<path d="M17.5974 62.7988L18.1026 61.9112L14.0939 59.6308C13.6635 59.3864 13.3747 58.9455 13.3232 58.452C13.3174 58.3983 13.3139 58.3433 13.3139 58.2895V42.0498H12.293V58.2895C12.293 58.3795 12.2976 58.4696 12.307 58.5608C12.3935 59.3794 12.873 60.1114 13.5887 60.5184L17.5974 62.7988Z" fill="#FFDDAB"/>
<path d="M59.5699 40.196L60.0739 39.3084L51.5091 34.3711L51.0039 35.2599L59.5699 40.196Z" fill="#FFDDAB"/>
<path d="M34.2735 28.1065L25.1777 33.4985L25.6983 34.3767L34.7941 28.9847L34.2735 28.1065Z" fill="#F6AC1F"/>
<path d="M55.5619 15.6854L53.4102 16.9609L53.9308 17.8391L56.0825 16.5636L55.5619 15.6854Z" fill="#F6AC1F"/>
<path d="M48.6303 48.2602C48.7823 48.2602 48.9051 47.7807 48.9051 47.1902V43.3381C48.9051 42.7464 48.7823 42.2681 48.6303 42.2681C48.4783 42.2681 48.3555 42.7475 48.3555 43.3381V47.1902C48.3555 47.7819 48.4783 48.2602 48.6303 48.2602Z" fill="#FFDDAB"/>
<path d="M48.6109 45.0949C49.5313 45.0949 50.2785 44.3488 50.2785 43.4273V27.9781C50.2785 27.0578 49.5324 26.3105 48.6109 26.3105C47.6906 26.3105 46.9434 27.0566 46.9434 27.9781V43.4273C46.9434 44.3476 47.6894 45.0949 48.6109 45.0949Z" fill="#F6AC1F"/>
<path d="M46.4336 43.4284V27.9792C46.4336 26.7782 47.4101 25.8018 48.611 25.8018C49.812 25.8018 50.7885 26.7782 50.7885 27.9792V43.4284C50.7885 44.6294 49.812 45.6058 48.611 45.6058C47.4101 45.6058 46.4336 44.6294 46.4336 43.4284ZM47.4545 27.9792V43.4284C47.4545 44.0657 47.9737 44.5849 48.611 44.5849C49.2484 44.5849 49.7676 44.0657 49.7676 43.4284V27.9792C49.7676 27.3419 49.2484 26.8227 48.611 26.8227C47.9737 26.8227 47.4545 27.3419 47.4545 27.9792Z" fill="#F6AC1F"/>
<path d="M43.862 12.1192C44.1602 12.0245 44.4969 12.0409 44.8068 12.2175L52.3683 16.542C55.5175 18.3429 57.4611 21.6932 57.4611 25.3219V33.3126C57.4611 34.0025 57.1044 34.5615 56.6016 34.896L56.6039 34.9053L56.5443 34.9392C56.5115 34.9591 48.9653 39.3035 47.9713 39.8765C47.9093 39.9128 47.8321 39.8929 47.7912 39.8344L46.1295 37.4371C46.1224 37.4266 46.1166 37.4161 46.1131 37.4044L40.9384 22.5598C40.9255 22.5223 40.8963 22.4919 40.8589 22.4767L37.1881 21.0138C37.1565 21.0009 37.1308 20.9776 37.1156 20.9472L35.2738 17.1968C35.2422 17.1314 35.2656 17.053 35.3287 17.0167L43.8596 12.1192H43.862Z" fill="#FFDDAB"/>
<path d="M47.3756 40.1242L45.7092 37.7187L40.5158 22.887L37.004 21.4872C36.8543 21.4276 36.7315 21.3142 36.6614 21.1703L34.8195 17.4188C34.6699 17.1124 34.7845 16.7394 35.0792 16.5722L43.6101 11.6735L43.7095 11.629C44.1667 11.484 44.6473 11.5343 45.0625 11.7717L52.6239 16.0962C55.924 17.9837 57.974 21.5176 57.974 25.3194V33.3112C57.974 34.0304 57.6664 34.6841 57.1203 35.1448L57.1227 35.1823L56.8163 35.3717C56.8022 35.3799 56.7789 35.3951 48.4725 40.178L48.2292 40.3183C48.1275 40.3768 48.0164 40.4049 47.9077 40.4049C47.7018 40.4049 47.503 40.3067 47.3756 40.1242ZM56.3228 34.4701C56.7239 34.2035 56.9543 33.7813 56.9543 33.3124V25.3206C56.9543 21.8837 55.1007 18.69 52.1176 16.9838L44.5561 12.6593C44.369 12.5529 44.1924 12.5587 44.0638 12.5903L35.8896 17.2832L37.5139 20.5903L41.049 21.9983C41.2256 22.0673 41.3624 22.2099 41.4244 22.3877L46.5827 37.1831L48.0199 39.2577C49.6384 38.3268 55.5592 34.9168 56.2211 34.5356L56.324 34.4678L56.3228 34.4701Z" fill="#F6AC1F"/>
<path d="M56.0871 20.2233L47.5374 25.1232L41.5138 24.1935L40.9443 22.5598C40.9314 22.5223 40.9022 22.4919 40.8648 22.4767L37.1939 21.0138C37.1624 21.0009 37.1366 20.9776 37.1214 20.9472L35.2796 17.1968C35.248 17.1314 35.2714 17.053 35.3346 17.0167L43.8655 12.1192C44.1637 12.0245 44.5016 12.0409 44.8104 12.2175L52.3718 16.542C53.9388 17.4377 55.2065 18.7171 56.0847 20.2233H56.0871Z" fill="#FFF8EE"/>
<path d="M41.1297 24.6505L40.5158 22.887L37.004 21.4872C36.8543 21.4276 36.7315 21.3142 36.6614 21.1703L34.8195 17.4188C34.6699 17.1125 34.7845 16.7394 35.0792 16.5722L43.6101 11.6735L43.7095 11.6291C44.1667 11.4829 44.6485 11.5343 45.0625 11.7717L52.6239 16.0963C54.2377 17.0189 55.5861 18.3555 56.5251 19.9635L56.7847 20.4079L47.634 25.6527L41.1297 24.6494V24.6505ZM52.1176 16.985L44.5561 12.6605C44.369 12.5541 44.1924 12.5599 44.065 12.5915L35.8907 17.2844L37.5151 20.5915L41.0502 21.9995C41.2268 22.0685 41.3636 22.2111 41.4256 22.3889L41.8945 23.7325L47.4376 24.5885L55.3732 20.0407C54.5441 18.7824 53.4285 17.7311 52.1187 16.9826L52.1176 16.985Z" fill="#F6AC1F"/>
<path d="M43.8296 35.6V30.4932L34.4707 25.1162V18.1757C34.4707 17.2624 35.4565 16.6905 36.2494 17.1443L43.881 21.5085C46.9881 23.2849 48.9048 26.5896 48.9048 30.1692V38.2406C48.9048 39.7245 47.2899 40.6449 46.0129 39.8871L41.2767 37.0782L43.8296 35.6012V35.6Z" fill="#F6AC1F"/>
<path d="M45.7533 40.3254L40.2676 37.072L43.3198 35.3051V30.7888L33.9609 25.4106V18.1754C33.9609 17.5626 34.2778 17.013 34.8076 16.7055C35.3385 16.3979 35.9712 16.3967 36.5044 16.6996L44.1349 21.0639C47.3917 22.9268 49.416 26.4151 49.416 30.1678V38.2391C49.416 39.122 48.9575 39.9102 48.1904 40.3464C47.8127 40.5616 47.401 40.668 46.9894 40.668C46.5637 40.668 46.1381 40.5534 45.7522 40.3242L45.7533 40.3254ZM35.321 17.5895C35.107 17.7147 34.983 17.9275 34.983 18.1754V24.8201L44.3419 30.1982V35.8944L42.2884 37.0826L46.2749 39.4471C46.7158 39.7079 47.2432 39.7126 47.6864 39.4588C48.1308 39.2062 48.3962 38.7501 48.3962 38.2391V30.1678C48.3962 26.7812 46.5696 23.6319 43.6297 21.9503L35.9981 17.5861C35.8916 17.5252 35.7759 17.4937 35.6613 17.4937C35.5467 17.4937 35.4297 17.5252 35.321 17.5872V17.5895Z" fill="#F6AC1F"/>
<path d="M56.9141 23.0732L48.3652 27.9731L48.8729 28.8589L57.4217 23.9589L56.9141 23.0732Z" fill="#F6AC1F"/>
<path d="M38.0887 24.8076C37.1661 24.2755 36.4434 23.023 36.4434 21.9577C36.4434 21.3472 36.6843 20.8584 37.1053 20.6152C37.5262 20.3708 38.07 20.407 38.5998 20.7123C39.5224 21.2455 40.2451 22.4968 40.2451 23.5621C40.2451 24.1726 40.0042 24.6614 39.5821 24.9046C39.3973 25.011 39.188 25.0648 38.9681 25.0648C38.6863 25.0648 38.3846 24.9783 38.0899 24.8076H38.0887ZM37.6151 21.4993C37.5216 21.5531 37.4631 21.7296 37.4631 21.9577C37.4631 22.6558 37.994 23.5738 38.5986 23.9235C38.7962 24.0381 38.9763 24.0755 39.071 24.0206C39.1646 23.9668 39.2231 23.7913 39.2231 23.5633C39.2231 22.8535 38.7038 21.953 38.0887 21.5975C37.9507 21.518 37.8209 21.4759 37.7239 21.4759C37.6818 21.4759 37.6444 21.4841 37.6163 21.5005L37.6151 21.4993Z" fill="#FFDDAB"/>
<path d="M34.9818 19.311H33.9609V20.9646H34.9818V19.311Z" fill="#FFDDAB"/>
<path d="M46.8955 19.3113H49.2519V10.7535C49.2519 6.63251 47.0557 2.75823 43.5194 0.641587C42.1208 -0.194546 40.4391 -0.214421 39.0218 0.587799C37.6045 1.39119 36.7578 2.8436 36.7578 4.47377V7.35172C36.7578 10.0309 37.6548 12.6772 39.2849 14.8044L41.1548 13.3707C39.8381 11.6528 39.113 9.51631 39.113 7.35172V4.47377C39.113 3.70429 39.513 3.01785 40.1819 2.63779C40.8519 2.2589 41.646 2.26825 42.3067 2.66351C45.1355 4.35683 46.8932 7.45695 46.8932 10.7535V19.3113H46.8955Z" fill="#F6AC1F"/>
<path d="M46.9651 40.6676C48.3649 40.6161 49.2058 39.7484 49.2408 39.7122L48.5041 39.0059C48.4983 39.0117 47.8984 39.6128 46.9277 39.6479L46.9651 40.6676Z" fill="#FFDDAB"/>
</svg>
