<svg width="46" height="89" viewBox="0 0 46 89" fill="none" xmlns="http://www.w3.org/2000/svg">
<path d="M9.69064 60.2053C10.9151 59.1318 11.0349 57.2697 9.96139 56.0453C8.88783 54.8209 7.02585 54.701 5.80144 55.7746C4.57703 56.8481 4.45714 58.7101 5.53069 59.9345C6.60424 61.1589 8.46623 61.2789 9.69064 60.2053Z" fill="#FFDDAB"/>
<path d="M8.93462 55.2461C9.38881 55.4087 9.8085 55.6873 10.1482 56.0728C11.1639 57.2295 11.1091 58.9537 10.0698 60.049C9.61561 59.8864 9.19584 59.6079 8.85613 59.2224C7.84047 58.0656 7.89534 56.3414 8.93462 55.2461Z" fill="#FBAE19"/>
<path d="M9.83802 60.3705C8.52575 61.5235 6.51716 61.3909 5.36418 60.0787C4.2112 58.7664 4.34371 56.7578 5.65599 55.6049C6.96826 54.4519 8.97677 54.5844 10.1297 55.8967C11.2827 57.209 11.1503 59.2175 9.83802 60.3705ZM9.54878 60.039C10.6785 59.0485 10.7922 57.319 9.79835 56.1894C8.80793 55.0596 7.07842 54.9458 5.94883 55.9397C4.81912 56.9302 4.70527 58.6597 5.69917 59.7893C6.68959 60.919 8.41918 61.0329 9.54878 60.039Z" fill="#FBAE19"/>
<path d="M6.64176 67.9491C7.78446 66.9304 9.25001 66.4196 10.7735 66.5089C11.8299 66.5717 12.8227 66.9254 13.6702 67.517C13.9982 67.0156 14.3936 66.5503 14.8602 66.1349C15.3572 65.6941 15.9055 65.3316 16.4845 65.0552C16.5105 64.5741 16.6028 64.1014 16.7584 63.6439C16.7372 63.6342 16.716 63.6244 16.6948 63.6147C16.3228 63.4112 15.9833 63.1404 15.6907 62.8125C14.3249 61.2706 14.4662 58.8929 16.0112 57.5166C16.7618 56.8483 17.725 56.5105 18.7257 56.5717C19.7192 56.6296 20.6315 57.0729 21.2927 57.8202C21.7337 58.3207 22.0173 58.9064 22.1452 59.5181C22.4003 59.0191 22.747 58.5589 23.1865 58.1653C23.271 58.0894 23.3627 58.0203 23.4509 57.9513C23.3274 57.8996 23.2073 57.8445 23.0868 57.7788C22.729 57.5853 22.404 57.328 22.1292 57.0134C20.8248 55.539 20.9592 53.2694 22.4367 51.9545C23.1534 51.3151 24.0754 50.9961 25.0306 51.0518C25.9824 51.1076 26.8523 51.5314 27.4846 52.2448C27.994 52.8197 28.2813 53.5166 28.3569 54.2309C28.7774 54.0049 29.254 53.8953 29.7456 53.9244C30.4393 53.9643 31.0758 54.2741 31.5383 54.7948C32.4922 55.8735 32.3934 57.5295 31.315 58.4939C30.9837 58.79 30.5901 58.9908 30.1689 59.0916C31.019 60.3964 31.1417 62.0173 30.568 63.4106C30.6504 63.4844 30.7261 63.562 30.8019 63.6465C31.9544 64.9449 31.8323 66.9496 30.5306 68.1092C29.8984 68.6727 29.0865 68.9568 28.2429 68.9079C27.7723 68.8816 27.3261 68.75 26.9258 68.5335C26.6105 68.3629 26.3247 68.1357 26.079 67.8584C26.0213 67.7942 25.9703 67.7263 25.9157 67.655C25.824 67.8285 25.7217 67.9989 25.6053 68.1627C25.8434 68.6316 26.0196 69.1234 26.1439 69.6239C26.6217 69.4447 27.1304 69.3619 27.6534 69.3935C28.633 69.4518 29.5276 69.8853 30.178 70.6191C31.3775 71.9716 31.3908 73.9719 30.3086 75.3504C30.4272 75.4649 30.5423 75.5794 30.6507 75.7011C32.8619 78.1965 32.6294 82.0386 30.1311 84.2674C28.9174 85.351 27.359 85.8927 25.7413 85.7961C24.8418 85.742 23.9812 85.4954 23.2124 85.0752C22.6067 84.7471 22.0599 84.3092 21.5902 83.7783C21.5685 83.7547 21.5503 83.7274 21.5321 83.7037C21.1411 84.5133 20.5879 85.2587 19.878 85.8943C18.4716 87.1478 16.6655 87.7776 14.7899 87.6686C13.744 87.6055 12.7499 87.3214 11.8605 86.8321C11.1591 86.4514 10.5231 85.9434 9.98112 85.3314C8.08051 83.1841 7.74204 80.182 8.87223 77.7197C8.45092 77.6047 8.04901 77.4439 7.66992 77.2371C7.09949 76.9253 6.58507 76.5176 6.14068 76.0172C4.05945 73.6671 4.27845 70.0517 6.63155 67.9564L6.64176 67.9491Z" fill="#FFDDAB"/>
<path d="M20.6886 68.6483C21.972 66.2958 24.9187 65.4303 27.2712 66.7137C28.171 67.2026 28.8493 67.939 29.2773 68.7913C28.9498 68.8821 28.6066 68.9212 28.2545 68.9014C27.7839 68.8751 27.3377 68.7436 26.9374 68.527C26.6221 68.3564 26.3364 68.1292 26.0907 67.8519C26.0329 67.7877 25.9819 67.7198 25.9273 67.6485C25.8356 67.822 25.7333 67.9924 25.6169 68.1562C25.855 68.6251 26.0311 69.1169 26.1554 69.6174C26.6332 69.4382 27.142 69.3554 27.665 69.387C28.4285 69.4315 29.1369 69.7076 29.7229 70.1755C29.896 71.2102 29.7405 72.3044 29.1988 73.2964C27.9154 75.6489 24.9688 76.5145 22.6163 75.2311C20.2638 73.9477 19.3983 71.001 20.6817 68.6485L20.6886 68.6483Z" fill="#FBAE19"/>
<path d="M19.7176 58.1616C19.9344 57.7683 20.2157 57.4355 20.5445 57.1672C20.8217 57.346 21.0759 57.5638 21.3 57.8175C21.7409 58.318 22.0245 58.9037 22.1525 59.5154C22.4075 59.0164 22.7543 58.5562 23.1937 58.1625C23.2782 58.0867 23.3699 58.0175 23.4581 57.9485C23.3346 57.8969 23.2145 57.8417 23.094 57.7761C22.7363 57.5825 22.4112 57.3252 22.1365 57.0106C22.0027 56.8584 21.8896 56.6986 21.7869 56.535C22.5871 56.3208 23.4699 56.3998 24.2564 56.8264C25.8791 57.7127 26.4745 59.7426 25.5882 61.3652C24.7019 62.9879 22.672 63.5833 21.0495 62.7005C19.4268 61.8142 18.8313 59.7843 19.7176 58.1616Z" fill="#FBAE19"/>
<path d="M16.3043 71.0536C19.3052 72.6915 20.4097 76.4515 18.7716 79.4489C17.1336 82.4498 13.3736 83.5542 10.3762 81.9161C9.50826 81.4435 8.80483 80.7881 8.27533 80.026C8.34656 79.2269 8.55033 78.4373 8.89149 77.6989C8.47017 77.5839 8.06827 77.4231 7.68918 77.2163C7.51197 77.1178 7.3413 77.0085 7.17395 76.8922C7.09847 75.7569 7.32824 74.5907 7.91254 73.5207C9.55048 70.5199 13.3104 69.4154 16.3078 71.0534L16.3043 71.0536Z" fill="white"/>
<path d="M9.82612 85.4724C7.97981 83.3895 7.50349 80.4266 8.58137 77.8547C7.55817 77.5299 6.68654 76.946 5.98916 76.1582C3.8285 73.7202 4.05676 69.9618 6.49772 67.7871C7.68436 66.7287 9.20841 66.1986 10.7877 66.293C11.7952 66.3504 12.766 66.67 13.612 67.213C13.9311 66.7571 14.3002 66.3414 14.7161 65.9728C15.186 65.5538 15.7102 65.1991 16.2751 64.9162C16.3039 64.522 16.3781 64.1334 16.4944 63.7538C16.1361 63.5428 15.8108 63.2786 15.529 62.9607C14.0802 61.3276 14.2343 58.8103 15.8672 57.3546C16.6617 56.6465 17.6835 56.2895 18.7433 56.3522C19.7996 56.415 20.7649 56.8844 21.4623 57.6722C21.7947 58.0476 22.0526 58.4845 22.2213 58.9592C22.4532 58.6036 22.7281 58.2849 23.0424 58.0032C22.6317 57.787 22.2746 57.5065 21.971 57.1615C20.5835 55.5959 20.7307 53.1867 22.2959 51.7889C23.0566 51.1098 24.0372 50.7714 25.0516 50.8287C26.0626 50.8895 26.989 51.3358 27.6575 52.0933C28.1128 52.6073 28.4149 53.2272 28.5414 53.9016C28.9295 53.7462 29.3481 53.6733 29.7666 53.7013C30.5196 53.7462 31.2126 54.0819 31.7113 54.6467C32.7483 55.8166 32.6367 57.6157 31.4704 58.656C31.1932 58.9052 30.8654 59.0969 30.518 59.2196C31.2307 60.4733 31.3499 61.9865 30.8379 63.3533C30.8847 63.4005 30.9315 63.4476 30.975 63.4984C32.207 64.8881 32.0789 67.0323 30.686 68.2714C30.0098 68.8746 29.1394 69.178 28.2399 69.124C27.3649 69.0727 26.5484 68.6853 25.9601 68.04C25.9303 68.0862 25.904 68.1323 25.8741 68.1751C26.0532 68.545 26.1982 68.9334 26.3122 69.3333C26.7566 69.197 27.2175 69.1401 27.6812 69.1667C28.7202 69.23 29.6711 69.6895 30.3612 70.4672C31.5681 71.8299 31.6653 73.8414 30.6178 75.3232C30.6898 75.3974 30.7654 75.4714 30.834 75.5492C33.1248 78.136 32.883 82.1175 30.2968 84.4257C29.0391 85.5456 27.4222 86.1101 25.7453 86.0119C24.8145 85.9589 23.9329 85.706 23.1251 85.2662C22.5583 84.9577 22.0477 84.5604 21.5973 84.088C21.197 84.8284 20.6759 85.4892 20.0437 86.0527C18.5934 87.3459 16.7287 87.995 14.7973 87.8809C13.7236 87.8186 12.705 87.5284 11.7732 87.0196C11.0434 86.6225 10.393 86.101 9.83296 85.4687L9.82612 85.4724ZM21.7667 83.6301C22.2183 84.1372 22.7436 84.5584 23.3317 84.8802C24.0794 85.2906 24.9012 85.5247 25.7657 85.5729C27.3241 85.6645 28.8276 85.142 29.9973 84.098C32.4044 81.9523 32.631 78.2496 30.4993 75.8455C30.3945 75.7272 30.2795 75.6161 30.1681 75.5084L30.0244 75.3705L30.148 75.2133C31.1902 73.8882 31.1358 72.018 30.0265 70.7635C29.4158 70.0737 28.5709 69.6664 27.6539 69.6095C27.1693 69.5801 26.6916 69.6549 26.2344 69.8265L26.0006 69.9142L25.9406 69.6726C25.82 69.179 25.6442 68.7011 25.4209 68.256L25.3614 68.1397L25.4379 68.0328C25.5443 67.8797 25.6433 67.7164 25.7351 67.5464L25.899 67.2383L26.1065 67.5168C26.1538 67.5813 26.2013 67.6459 26.2554 67.7068C26.7721 68.2883 27.4898 68.6371 28.2673 68.6847C29.0518 68.732 29.8051 68.4673 30.3934 67.9434C31.6037 66.8634 31.7167 65.0016 30.647 63.791C30.5784 63.7132 30.5064 63.6425 30.431 63.5719L30.3163 63.4678L30.3743 63.3267C30.9318 61.9689 30.7873 60.4286 29.9923 59.209L29.82 58.9433L30.1274 58.8706C30.5142 58.7813 30.8767 58.592 31.1742 58.3248C32.1613 57.4434 32.2543 55.9268 31.3799 54.9394C30.9572 54.4626 30.3737 54.179 29.7392 54.1407C29.2999 54.1133 28.8612 54.2112 28.468 54.4224L28.1774 54.5781L28.1423 54.2522C28.0671 53.5518 27.7851 52.9068 27.3227 52.3896C26.7302 51.7201 25.9133 51.3224 25.0209 51.2716C24.1249 51.2174 23.2614 51.5206 22.5887 52.1203C21.2025 53.3557 21.074 55.4859 22.2989 56.8689C22.6385 57.251 23.0413 57.544 23.5385 57.7469L23.888 57.8989L23.5826 58.1351C23.5011 58.197 23.4198 58.2623 23.3385 58.331C22.9328 58.6923 22.5989 59.1243 22.3438 59.6198L22.0592 60.1719L21.9314 59.5637C21.804 58.9693 21.5284 58.4147 21.1274 57.9651C20.506 57.2652 19.6468 56.848 18.7124 56.7916C17.7711 56.7355 16.863 57.054 16.1598 57.6825C14.7061 58.9793 14.5705 61.2141 15.8568 62.6647C16.1279 62.9725 16.4595 63.219 16.8177 63.4265L17.0266 63.5345L16.9629 63.7141C16.8102 64.1505 16.7207 64.6058 16.701 65.0658L16.6949 65.1982L16.575 65.2543C15.9995 65.5307 15.4681 65.8821 15.0017 66.301C14.5622 66.6947 14.1733 67.1424 13.8486 67.6401L13.7227 67.8321L13.5341 67.7027C12.7114 67.1277 11.7471 66.7939 10.75 66.7361C9.28573 66.6484 7.8753 67.14 6.78001 68.1188C4.51825 70.1345 4.30854 73.6105 6.31024 75.8693C7.00749 76.6537 7.89241 77.2197 8.93521 77.5056L9.18796 77.5739L9.08095 77.8105C7.94729 80.2729 8.36921 83.168 10.1541 85.1833C11.3501 86.5324 13.012 87.3409 14.8109 87.4455C16.6273 87.553 18.3748 86.9424 19.7373 85.7287C20.4101 85.129 20.9469 84.4155 21.338 83.6094L21.4846 83.3053L21.7633 83.6337L21.7667 83.6301Z" fill="#FBAE19"/>
<path d="M13.3804 72.1545C15.038 69.1182 18.8531 67.998 21.8894 69.6556C24.9257 71.3133 26.046 75.1285 24.3883 78.1648C22.7306 81.2011 18.9155 82.3213 15.8792 80.6636C12.8429 79.0059 11.7227 75.1908 13.3804 72.1545ZM13.7595 72.3613C12.2167 75.1885 13.2622 78.7416 16.086 80.2845C18.9097 81.8273 22.4663 80.7817 24.0092 77.958C25.5519 75.1307 24.5065 71.5776 21.6827 70.0348C18.8555 68.492 15.3023 69.5375 13.7595 72.3613Z" fill="#FFDDAB"/>
<path d="M40.764 56.8157C38.5439 56.704 36.6549 58.4152 36.5432 60.6354C36.4316 62.8555 38.1427 64.7445 40.3629 64.8561C42.583 64.9678 44.472 63.2566 44.5836 61.0364C44.6953 58.8163 42.9841 56.9273 40.764 56.8157Z" fill="#FFDDAB"/>
<path d="M36.7908 62.3923C36.5034 61.7998 36.3528 61.1332 36.3889 60.4291C36.4941 58.331 38.1872 56.6923 40.2479 56.6108C40.5353 57.2034 40.6859 57.87 40.6498 58.574C40.5446 60.6722 38.8515 62.3108 36.7908 62.3923Z" fill="#FBAE19"/>
<path d="M40.7793 56.5135C43.1633 56.6337 45.0045 58.6681 44.8843 61.052C44.7641 63.436 42.7298 65.2772 40.3459 65.157C37.9619 65.0368 36.1206 63.0024 36.2408 60.6185C36.361 58.2345 38.3954 56.3933 40.7793 56.5135ZM40.7469 57.1165C38.6975 57.0132 36.9436 58.5982 36.8404 60.651C36.737 62.7004 38.322 64.4543 40.3749 64.5576C42.4242 64.6609 44.1782 63.0759 44.2814 61.0231C44.3848 58.9737 42.7997 57.2197 40.7469 57.1165Z" fill="#FBAE19"/>
<path d="M32.3978 34.0252C30.4432 33.2055 30.6522 43.7208 31.4691 44.971C32.286 46.2212 36.5685 54.3726 37.8648 53.8987C39.1576 53.4249 36.9383 35.9294 32.3977 34.0218L32.3978 34.0252Z" fill="#FFDDAB"/>
<path d="M37.7807 46.4005C37.7807 46.4005 35.3967 44.7911 34.2653 41.2686C33.4709 38.7963 34.3973 36.1667 34.4003 36.1527C35.9699 38.4986 37.1221 42.6537 37.7773 46.4006L37.7807 46.4005Z" fill="white"/>
<path d="M23.9499 33.2165C25.9019 32.6828 23.4263 42.7224 22.4362 43.83C21.446 44.9377 15.9568 52.3063 14.8572 51.6673C13.7577 51.0318 19.4115 34.4578 23.9498 33.2131L23.9499 33.2165Z" fill="#FFDDAB"/>
<path d="M26.5452 43.9114C26.9064 43.6769 27.3864 43.776 27.6311 44.1298C28.2335 44.9939 29.3349 46.8542 29.1366 49.2963C28.9412 51.721 27.3649 54.1631 26.3028 54.9878C25.8719 55.322 25.2202 55.3991 24.8939 54.9992C24.0275 53.935 23.0665 51.5795 23.3132 49.2332C23.6506 46.0453 25.5505 44.5599 26.5419 43.915L26.5452 43.9114Z" fill="white"/>
<path d="M24.7113 55.1447C23.7179 53.9247 22.8378 51.49 23.0795 49.203C23.3289 46.8322 24.4514 44.986 26.4139 43.7109C26.8806 43.4068 27.5006 43.5326 27.8218 43.9918C28.9794 45.6553 29.5163 47.4923 29.3671 49.3101C29.167 51.8045 27.5408 54.3143 26.4449 55.168C26.0343 55.4876 25.426 55.6119 24.9867 55.3723C24.8839 55.3165 24.7909 55.2396 24.7077 55.1414L24.7113 55.1447ZM26.674 44.1094C24.8376 45.3039 23.7843 47.033 23.551 49.2571C23.2961 51.6698 24.3232 53.9222 25.0774 54.8509C25.3131 55.1424 25.829 55.0629 26.1616 54.8049C27.1897 54.0058 28.7127 51.6419 28.9033 49.28C29.0421 47.5705 28.5331 45.8405 27.4412 44.2687C27.3865 44.1939 27.3219 44.1334 27.2439 44.0907C27.0703 43.9955 26.8512 43.9957 26.6774 44.1093L26.674 44.1094Z" fill="#FBAE19"/>
<path d="M26.1958 45.7951C26.3866 45.6705 26.6389 45.7249 26.7668 45.9121C27.0845 46.3679 27.6627 47.3441 27.5586 48.628C27.4542 49.9015 26.6264 51.1847 26.0701 51.6205C25.8427 51.795 25.4995 51.8375 25.329 51.6239C24.8723 51.0647 24.3689 49.8251 24.499 48.5926C24.6772 46.9166 25.6746 46.1358 26.1958 45.7951Z" fill="#FFDDAB"/>
<path d="M25.775 51.1497C25.2494 50.5058 24.7828 49.2198 24.9138 48.015C25.0467 46.7615 25.641 45.7852 26.6801 45.1109C26.9731 44.9203 27.3584 44.9982 27.5593 45.2873C28.169 46.1616 28.4514 47.1336 28.3751 48.0964C28.2636 49.471 27.387 50.7524 26.8306 51.1882C26.5863 51.3771 26.2233 51.4482 25.9541 51.3039C25.8903 51.2677 25.8296 51.221 25.7788 51.1566L25.775 51.1497ZM26.933 45.5027C26.02 46.0963 25.4985 46.9589 25.3781 48.0624C25.2634 49.1275 25.6845 50.2967 26.1376 50.8525C26.2137 50.944 26.4108 50.9062 26.5363 50.8081C27.0351 50.4195 27.8063 49.2146 27.9004 48.0529C27.97 47.2016 27.7155 46.3366 27.1679 45.5542C27.1497 45.5304 27.1281 45.5103 27.1068 45.497C27.0537 45.4675 26.9875 45.4662 26.933 45.5027Z" fill="#FBAE19"/>
<path d="M31.2694 45.1032C31.4305 45.3485 31.7369 45.8847 32.128 46.5643C34.5304 50.7515 36.2363 53.434 37.3311 54.0314C37.5614 54.1561 37.7643 54.1912 37.9431 54.1261C38.1803 54.0383 38.4252 53.7589 38.4584 52.3312C38.5517 48.3824 36.5819 35.5239 32.486 33.8105C32.1509 33.6719 31.8268 33.7625 31.5725 34.0701C30.27 35.6298 30.4489 43.8496 31.2694 45.1032ZM37.6046 47.5122C37.7353 48.423 37.8284 49.2446 37.8905 49.9733C37.0863 49.2168 34.6096 46.6883 33.7256 43.4987C32.6678 39.6745 33.7377 35.4814 33.7376 35.4779C35.5373 37.8372 36.926 42.8405 37.6046 47.5122Z" fill="#FBAE19"/>
<path d="M34.2124 7.09001L28.3169 6.41682C28.3169 6.41682 24.1988 16.8721 23.1247 26.2499C22.0505 35.6242 22.3139 42.599 22.3139 42.599C22.1256 44.1814 24.0614 45.7012 26.632 45.9962C29.2026 46.2912 31.4405 45.2436 31.6252 43.6613C31.6252 43.6613 33.3151 38.8494 34.6468 27.5634C35.9784 16.2773 34.2124 7.09001 34.2124 7.09001Z" fill="#FFDDAB"/>
<path d="M30.2554 19.8749C31.0593 11.0661 31.9538 7.46678 31.9538 7.46678L34.4872 7.79434C34.8314 9.90906 35.9715 18.0452 34.8274 27.728C34.6316 29.3976 34.424 30.9215 34.2191 32.3131C33.2997 35.1547 32.2684 37.9825 31.5804 37.9042C29.5721 37.6742 29.4216 28.9386 30.2519 19.875L30.2554 19.8749Z" fill="white"/>
<path d="M14.5215 50.6068C14.4241 51.3511 14.4886 51.7283 14.7334 51.8699C14.7334 51.8699 14.7404 51.8731 14.744 51.8765C15.6333 52.3623 17.9093 49.8277 21.5395 45.2932C22.0276 44.6857 22.412 44.2033 22.6067 43.9847C23.4525 43.0384 25.6567 34.9144 24.6502 33.2946C24.4738 33.0081 24.1989 32.8989 23.8816 32.9858C19.8468 34.0923 15.0154 46.7805 14.5215 50.6068ZM21.175 44.9989C20.2425 46.1673 19.4126 47.1757 18.6855 48.0277C19.4533 46.7186 20.1969 44.9892 20.6771 42.7605C21.6672 38.1455 21.1978 36.4594 21.0496 36.078C22.0445 34.6884 23.0595 33.7017 24.0146 33.4373C24.0802 33.4212 24.1255 33.4197 24.168 33.4427C24.1998 33.459 24.2288 33.4929 24.2581 33.5372C25.0663 34.8399 23.1549 42.6654 22.2621 43.6654C22.0574 43.8948 21.6696 44.3773 21.1782 44.9919L21.175 44.9989Z" fill="#FBAE19"/>
<path d="M28.1663 6.16033L28.0988 6.32956C28.057 6.43531 23.9539 16.9214 22.8912 26.2223C21.8553 35.2752 22.0643 42.1857 22.0775 42.5889C22.0133 43.1791 22.2069 43.7781 22.6389 44.3242C22.9801 44.7549 23.4519 45.1361 24.0117 45.4414C24.7487 45.8452 25.6415 46.1221 26.6019 46.2298C29.2842 46.5351 31.6309 45.4109 31.8537 43.716C31.987 43.3254 33.606 38.3662 34.8779 27.5936C36.1987 16.4019 34.4582 7.14066 34.4412 7.04727L34.4078 6.87787L28.1629 6.16393L28.1663 6.16033ZM30.2342 45.1574C29.316 45.3823 27.8558 44.8874 27.096 43.3604C25.9488 41.0563 27.0328 34.6393 27.6043 26.9134C28.3808 16.418 30.7317 8.41799 30.7317 8.41799L29.5651 6.79649L34.0112 7.30493C34.2384 8.60928 35.6247 17.2523 34.4099 27.5393C33.0973 38.6612 31.4164 43.539 31.4005 43.5847L31.3882 43.6339C31.3145 44.2521 30.8863 44.7776 30.2307 45.1575L30.2342 45.1574Z" fill="#FBAE19"/>
<path d="M26.1411 27.9083C25.5277 27.1351 25.2559 26.1662 25.3698 25.1812C25.6096 23.1552 27.4476 21.6962 29.4663 21.9258C30.4442 22.0365 31.3162 22.5229 31.926 23.2927C32.5394 24.066 32.8112 25.0348 32.6973 26.0198C32.4575 28.0458 30.6194 29.5048 28.6007 29.2752C28.1222 29.2213 27.6686 29.0761 27.2577 28.8529C26.829 28.6199 26.4498 28.3018 26.1411 27.9083Z" fill="#FBAE19"/>
<path d="M25.9997 28.0206C25.3572 27.2101 25.0699 26.193 25.1927 25.1625C25.4432 23.0387 27.3728 21.5071 29.4893 21.7474C30.5126 21.8635 31.4306 22.3762 32.073 23.1833C32.7155 23.9974 33.0028 25.0109 32.8801 26.0449C32.6296 28.1687 30.6998 29.7003 28.5834 29.46C28.0839 29.4033 27.6092 29.2518 27.1735 29.0156C26.7378 28.7793 26.3264 28.4344 25.9998 28.0241L25.9997 28.0206ZM29.4489 22.1072C27.528 21.8883 25.778 23.2748 25.5524 25.2029C25.4404 26.1391 25.7037 27.0595 26.2845 27.7956C26.8617 28.5247 27.6982 28.9914 28.6237 29.0968C30.5446 29.3157 32.2946 27.9291 32.5202 26.001C32.6287 25.0649 32.3689 24.1444 31.788 23.4084C31.494 23.0353 31.1326 22.7305 30.7252 22.5107C30.3179 22.2909 29.903 22.1584 29.4489 22.1072Z" fill="#FFDDAB"/>
<path d="M31.2923 25.861C31.1453 27.108 30.016 28.0045 28.7727 27.8643C27.5293 27.7206 26.6398 26.5946 26.7869 25.3476C26.9339 24.1005 28.0633 23.2041 29.3066 23.3443C30.55 23.488 31.4394 24.614 31.2923 25.861Z" fill="#FFDDAB"/>
<path d="M34.2126 7.08973C34.101 8.03634 32.6912 8.6532 31.0636 8.46645C29.436 8.2797 28.2055 7.36315 28.3172 6.41653C28.4288 5.46992 30.3614 0.4204 31.989 0.607149C33.6166 0.793898 34.3208 6.14322 34.2092 7.08984L34.2126 7.08973Z" fill="#FFDDAB"/>
<path d="M30.9583 25.8085C30.928 26.053 30.8554 26.2815 30.7439 26.487C30.3859 26.711 29.9512 26.8227 29.5006 26.7714C28.4423 26.6495 27.6872 25.693 27.8125 24.6345C27.8428 24.39 27.9154 24.1614 28.027 23.9559C28.385 23.732 28.8197 23.6203 29.2702 23.6716C30.3285 23.7935 31.0837 24.75 30.9583 25.8085Z" fill="white"/>
<path d="M31.7891 2.5248C31.8713 1.95494 32.1296 1.34451 32.4348 0.781263C33.3085 1.53553 33.9774 4.53385 34.1872 6.1554C34.1872 6.1554 33.8744 7.2304 32.723 7.13244C31.7774 7.05208 31.5357 4.24504 31.7856 2.52492L31.7891 2.5248Z" fill="white"/>
<path d="M28.0845 6.38968C28.0409 6.75647 28.161 7.12832 28.4296 7.46747C28.6438 7.73882 28.9439 7.9795 29.3017 8.17307C29.7906 8.43889 30.3882 8.6246 31.0343 8.69737C32.8189 8.89985 34.3169 8.20705 34.4446 7.11377C34.5449 6.24755 34.0455 2.37031 32.9238 0.949142C32.6479 0.599791 32.3422 0.404511 32.0174 0.366443C30.1244 0.150118 28.1766 5.58984 28.0843 6.38273L28.0845 6.38968ZM28.5526 6.44392C28.5526 6.44392 28.5586 6.41589 28.5582 6.40198C29.4393 7.38217 30.2377 7.4291 30.2377 7.4291C30.2377 7.4291 30.0987 6.26799 30.6866 4.2445C31.1495 2.65658 31.7493 1.31818 32.1072 0.878465C32.2553 0.936246 32.4089 1.05995 32.5578 1.24992C33.6105 2.57941 34.0675 6.33279 33.9802 7.06635C33.8848 7.86978 32.5627 8.40371 31.0923 8.23617C30.1073 8.1223 29.2276 7.71967 28.8029 7.18034C28.6104 6.93612 28.5259 6.69184 28.5562 6.44728L28.5526 6.44392Z" fill="#FBAE19"/>
<path d="M9.39522 76.3285C11.6237 77.5429 12.4463 80.3483 11.2318 82.5732C10.0174 84.8017 7.21193 85.6243 4.98697 84.4098C2.75854 83.1954 1.93592 80.39 3.15043 78.1651C4.36483 75.9366 7.17026 75.114 9.39522 76.3285Z" fill="#FBAE19"/>
<path d="M7.88263 76.9441C6.73388 79.052 7.50975 81.7024 9.61784 82.8546C9.78439 82.9466 9.95383 83.0211 10.1265 83.0885C10.0339 83.2342 9.93411 83.3766 9.8271 83.5089C9.67536 83.4443 9.52687 83.3726 9.37815 83.2939C7.02915 82.0104 6.16339 79.0568 7.44355 76.7114C7.52891 76.5555 7.62148 76.4064 7.7212 76.2639C7.88302 76.3178 8.04166 76.3821 8.19721 76.4571C8.08405 76.6139 7.97449 76.774 7.87927 76.9477L7.88263 76.9441Z" fill="#FFDDAB"/>
</svg>
