<svg width="99" height="93" viewBox="0 0 99 93" fill="none" xmlns="http://www.w3.org/2000/svg">
<path d="M98.4512 57.9794C98.4512 57.9794 98.4512 57.9305 98.4512 57.9061L98.4512 56.4171L97.5056 56.4171C97.4421 56.3683 97.3785 56.3276 97.307 56.2869L58.3645 33.2681C56.6561 32.2591 53.6764 32.3893 51.7059 33.5529L1.96501 63.1625C1.61539 63.374 1.3214 63.6019 1.07508 63.8378L0.336123 63.8378L0.336124 67.3041C0.352016 67.9306 0.725467 68.5246 1.48827 68.9721L40.4308 91.9909C42.1391 92.9999 45.1188 92.8697 47.0894 91.7061L96.8302 62.0966C97.8711 61.4782 98.4194 60.697 98.4512 59.9485L98.4512 59.0127L98.4512 57.9875L98.4512 57.9794Z" fill="#FFDDAB"/>
<path d="M98.4512 59.9326L98.4512 58.9969L98.4512 57.9717C98.4512 57.9473 98.4512 57.9229 98.4512 57.8985L98.4512 56.4094L97.5056 56.4094C97.4421 56.3606 97.3785 56.3199 97.307 56.2711L82.8615 47.7275C81.7649 47.752 80.9624 47.817 80.6287 47.931C78.5707 48.6307 45.4684 68.3379 44.8009 71.3322C44.1335 74.3265 42.894 89.3063 42.894 89.3063L42.894 92.6342C44.3242 92.7156 45.8895 92.3982 47.0894 91.6903L96.8302 62.0807C97.8711 61.4623 98.4194 60.6812 98.4512 59.9326Z" fill="#F6AC1F"/>
<path d="M47.2681 92.0075L97.0089 62.3979C98.1213 61.7388 98.757 60.8763 98.8047 59.9488L98.8047 56.0675L97.6208 56.0675C97.5731 56.035 97.5334 56.0106 97.4857 55.978L58.5432 32.9511C56.7474 31.8852 53.6009 32.0154 51.5429 33.2359L1.80204 62.8454C1.4842 63.0326 1.19815 63.2441 0.951831 63.472L0.00627409 63.472L0.00627443 67.2962C0.0301087 68.0692 0.49892 68.769 1.32528 69.2572L40.2678 92.276C41.0862 92.7561 42.1827 93.0002 43.3269 93.0002C44.7016 93.0002 46.1398 92.6584 47.2681 91.9994L47.2681 92.0075ZM1.22994 64.1799L1.33324 64.0822C1.55572 63.8544 1.83382 63.651 2.15165 63.4638L51.8925 33.8543C53.7677 32.7477 56.5965 32.6175 58.2095 33.5695L97.152 56.5964C97.1996 56.6208 97.2394 56.6534 97.3347 56.7185L97.4221 56.7754L98.1293 56.7754L98.1293 57.9553L98.1293 59.9325C98.0896 60.5916 97.5651 61.2669 96.6752 61.7958L46.9343 91.4054C45.0591 92.512 42.2304 92.6422 40.6174 91.6902L1.6749 68.6713C1.04718 68.2971 0.713458 67.8251 0.697566 67.3044L0.697566 64.188L1.23788 64.188L1.22994 64.1799Z" fill="#F6AC1F"/>
<path d="M40.4333 88.6385L1.4908 65.6197C-0.217549 64.6107 -0.00301847 62.8451 1.96754 61.6815L51.7084 32.0719C53.679 30.9084 56.6587 30.7782 58.367 31.7871L97.3095 54.806C99.0179 55.8149 98.8033 57.5806 96.8328 58.7442L47.0919 88.3537C45.1213 89.5173 42.1416 89.6475 40.4333 88.6385Z" fill="#FFDDAB"/>
<path d="M47.2679 88.6549L97.0088 59.0453C98.153 58.37 98.8125 57.4424 98.8125 56.5148C98.8125 55.7255 98.3437 55.0095 97.4856 54.505L58.5431 31.478C56.7473 30.4203 53.6087 30.5423 51.5428 31.7628L1.80191 61.3724C0.657718 62.0478 -0.00179009 62.9672 -0.00179001 63.9029C-0.00178994 64.7003 0.467014 65.4082 1.32516 65.9209L40.2677 88.9397C41.0861 89.4198 42.1826 89.6639 43.3268 89.6639C44.7014 89.6639 46.1396 89.3221 47.26 88.663L47.2679 88.6549ZM58.1934 32.0883L97.1359 55.1153C97.7716 55.4895 98.1133 55.9859 98.1133 56.5229C98.1133 57.1983 97.5809 57.898 96.6512 58.4432L46.9104 88.0528C45.0352 89.1594 42.2064 89.2896 40.5934 88.3376L1.65094 65.3187C1.01528 64.9444 0.67361 64.4481 0.67361 63.9111C0.67361 63.2357 1.20597 62.536 2.13564 61.9908L51.8765 32.3812C52.9095 31.771 54.2285 31.4618 55.468 31.4618C56.493 31.4618 57.4624 31.6733 58.1855 32.0964L58.1934 32.0883Z" fill="#F6AC1F"/>
<path d="M91.4609 58.2234L53.909 36.0264L53.7421 35.9287L6.4247 64.1062L43.9767 86.3033L44.1435 86.4009L91.4609 58.2234Z" fill="#F6AC1F"/>
<path d="M44.3485 84.1563L6.13703 61.5687L54.3841 32.8379L92.6035 55.4336L44.3485 84.1563Z" fill="#FFF8EE"/>
<path d="M93.2891 55.4329L54.5611 32.5361L54.3863 32.4385L5.44796 61.5761L44.1759 84.4729L44.3507 84.5706L93.2891 55.4329ZM54.3863 33.244L91.9144 55.4329L44.3507 83.7569L6.82259 61.568L54.3863 33.244Z" fill="#F6AC1F"/>
<path d="M86.5153 42.2755L86.4994 42.4301L82.6059 40.1274C82.5344 40.1762 82.4788 40.2331 82.3993 40.2738C81.3028 40.9248 80.6592 41.9581 79.5627 41.3072C78.4662 40.6563 77.322 40.4447 78.4185 39.7938C78.4979 39.7449 78.5853 39.7124 78.6727 39.6717L79.0303 36.6693L77.5127 36.1322L77.2822 38.8499L72.9835 34.4317C72.2287 33.9841 70.9335 34.2038 70.6872 34.8141L70.1389 36.1811L69.6383 36.1322L69.6383 39.4032C69.6383 39.4032 69.6383 39.4276 69.6383 39.4357L69.6383 39.4439C69.6542 39.6392 69.7893 39.8263 70.0356 39.9728L81.867 46.9622C82.2007 47.1575 82.6695 47.2389 83.1304 47.1819L87.4608 46.6123C88.1601 46.5228 88.5574 46.1486 88.5256 45.7824L88.5256 42.5603L86.5153 42.2592L86.5153 42.2755Z" fill="#F6AC1F"/>
<path d="M83.175 47.5395L87.5055 46.9699C88.3557 46.856 88.9199 46.3597 88.8722 45.7901L88.8722 42.4785C88.8722 42.3564 88.7848 42.2506 88.6656 42.2344L86.266 41.8763L82.7857 39.8178L82.5394 39.7364L82.3566 39.8747C82.3566 39.8747 82.2772 39.9317 82.2374 39.9642C81.9275 40.1514 81.6494 40.3629 81.4031 40.5501C80.6959 41.0952 80.3304 41.3475 79.7424 40.9976C79.4882 40.843 79.226 40.7128 78.9876 40.5989C78.773 40.4931 78.487 40.3548 78.3678 40.2571C78.4075 40.2246 78.479 40.1676 78.5982 40.0944C78.6459 40.07 78.6936 40.0456 78.8207 39.9886L79.4246 40.2002L79.4246 36.4817L77.2157 35.6762L77.0091 38.0602L73.2269 34.179L73.1553 34.122C72.623 33.8128 71.8443 33.7477 71.2086 33.9674C70.7954 34.1139 70.5014 34.3661 70.3743 34.6753L69.9214 35.7982L69.3016 35.7331L69.3016 40.0049L69.4764 39.9154C69.5718 40.0456 69.7069 40.1676 69.8737 40.2653L81.7051 47.2547C82.0149 47.4419 82.4202 47.5395 82.8413 47.5395C82.9526 47.5395 83.0638 47.5395 83.183 47.5151L83.175 47.5395ZM69.9929 36.5224L70.3664 36.5631L71.01 34.952C71.0576 34.8381 71.2166 34.716 71.4311 34.6428C71.8602 34.4963 72.4164 34.5207 72.7739 34.716L77.5573 39.6306L77.8195 36.5793L78.7333 37.0187L78.7333 39.7445C78.7333 39.7445 78.2725 39.4679 78.2486 39.4841C77.9546 39.655 77.6209 39.9073 77.6288 40.2815C77.6447 40.7209 78.0977 40.9488 78.6777 41.2335C78.9002 41.3393 79.1465 41.4614 79.3849 41.6078C80.3861 42.2018 81.1012 41.6485 81.8004 41.1115C82.0388 40.9243 82.2851 40.7372 82.5632 40.5745C82.5791 40.5663 82.6029 40.5501 82.6188 40.5338L86.7745 42.9911L86.8142 42.6656L88.1809 42.869L88.1809 45.8145C88.1968 45.961 87.9346 46.197 87.4181 46.2702L83.0876 46.8398C82.7062 46.8886 82.3089 46.8235 82.0388 46.6689L70.2074 39.6794C70.0724 39.5981 69.9929 39.5086 69.985 39.419L69.985 36.5224L69.9929 36.5224Z" fill="#F6AC1F"/>
<path d="M88.1319 42.0479L82.6095 38.7851C82.538 38.8339 82.4824 38.8909 82.4029 38.9315C81.3064 39.5825 79.5265 39.5825 78.43 38.9315C77.3335 38.2806 77.3335 37.231 78.43 36.58C78.5095 36.5312 78.5969 36.4987 78.6843 36.458L72.9951 33.0894C72.2402 32.6418 70.945 32.8615 70.6987 33.4718L69.6817 36.0023C69.5704 36.279 69.7134 36.5638 70.0472 36.759L81.8785 43.7485C82.2122 43.9438 82.681 44.0251 83.1419 43.9682L87.4724 43.3986C88.5212 43.2603 88.9026 42.4873 88.1398 42.0398L88.1319 42.0479Z" fill="#FFF8EE"/>
<path d="M83.1731 44.3178L87.5036 43.7482C88.2346 43.6506 88.759 43.2763 88.8544 42.7718C88.9338 42.3731 88.7272 41.9907 88.2982 41.7385L82.7758 38.4756L82.5295 38.3943L82.3467 38.5326C82.3467 38.5326 82.2673 38.5895 82.2275 38.6221C81.2423 39.1998 79.5816 39.1998 78.5963 38.6221C78.1752 38.3698 77.9447 38.0607 77.9447 37.7515C77.9447 37.4423 78.1752 37.1331 78.5963 36.8808C78.644 36.8564 78.6916 36.832 78.8188 36.775L79.4227 36.4903L73.1534 32.7881C72.621 32.4789 71.8423 32.4138 71.2067 32.6335C70.7935 32.7799 70.4995 33.0322 70.3724 33.3413L69.3553 35.8719C69.1805 36.3113 69.3791 36.7832 69.8638 37.068L81.6952 44.0574C82.0051 44.2446 82.4103 44.3422 82.8314 44.3422C82.9427 44.3422 83.0539 44.3422 83.1731 44.3178ZM72.8197 33.3983L77.9924 36.4577C77.5236 36.8157 77.2614 37.2714 77.2614 37.7596C77.2614 38.3373 77.619 38.8581 78.2546 39.2405C79.4624 39.9565 81.3614 39.9565 82.5772 39.2405C82.5931 39.2323 82.6169 39.2161 82.6328 39.1998L87.9644 42.3487C88.028 42.3813 88.2187 42.5114 88.1949 42.6416C88.171 42.7718 87.9406 42.9915 87.4241 43.0566L83.0936 43.6262C82.7122 43.675 82.315 43.6099 82.0448 43.4553L70.2135 36.4659C70.1499 36.4252 69.9433 36.2868 69.9989 36.1485L71.016 33.618C71.0637 33.5041 71.2226 33.382 71.4371 33.3088C71.6199 33.2437 71.8265 33.2112 72.0251 33.2112C72.3191 33.2112 72.6051 33.2763 72.8197 33.3983Z" fill="#F6AC1F"/>
<path d="M88.7917 53.2927L58.1685 35.1885C57.4295 34.7572 57.5249 33.9924 58.3751 33.4879L60.2662 32.365C61.1164 31.8606 62.4036 31.8117 63.1346 32.243L93.7578 50.3472C94.4968 50.7785 94.4015 51.5433 93.5513 52.0478L91.6602 53.1707C90.8099 53.6752 89.5227 53.724 88.7917 53.2927Z" fill="#FFF8EE"/>
<path d="M91.8364 53.4716L93.7275 52.3488C94.2837 52.0233 94.6016 51.5595 94.6016 51.0876C94.6016 50.6726 94.3632 50.2983 93.9341 50.0461L63.3109 31.9418C62.4686 31.4455 61.0543 31.4943 60.1008 32.0639L58.2097 33.1868C57.6535 33.5122 57.3356 33.976 57.3356 34.448C57.3356 34.8629 57.574 35.2372 58.0031 35.4895L88.6263 53.5937C89.0156 53.8215 89.5162 53.9354 90.0486 53.9354C90.6684 53.9354 91.3199 53.7808 91.8364 53.4716ZM58.3448 34.8873C58.1938 34.7978 58.019 34.6514 58.019 34.4561C58.019 34.2445 58.2176 34.0004 58.5513 33.797L60.4425 32.6742C61.1814 32.2348 62.3415 32.1778 62.9692 32.5521L93.5924 50.6563C93.7434 50.7458 93.9182 50.8923 93.9182 51.0876C93.9182 51.2991 93.7196 51.5514 93.3859 51.7467L91.4947 52.8695C90.7558 53.3089 89.5957 53.3659 88.968 52.9916L58.3448 34.8873Z" fill="#F6AC1F"/>
<path d="M79.2025 49.1185L63.8908 40.0705C63.5253 39.8508 63.573 39.4765 63.9941 39.2243L64.9397 38.6628C65.3608 38.4106 66.0044 38.3862 66.3779 38.6059L81.6895 47.6539C82.055 47.8736 82.0073 48.2479 81.5862 48.5001L80.6406 49.0616C80.2195 49.3138 79.5759 49.3382 79.2025 49.1267L79.2025 49.1185Z" fill="#FFDDAB"/>
<path d="M80.8074 49.3627L81.7529 48.8013C82.0866 48.606 82.2773 48.3212 82.2773 48.0202C82.2773 47.7517 82.1264 47.5076 81.8562 47.3448L66.5446 38.2968C66.0679 38.012 65.3051 38.0445 64.7647 38.3619L63.8192 38.9233C63.4855 39.1186 63.2948 39.4034 63.2948 39.7044C63.2948 39.973 63.4457 40.2171 63.7159 40.3798L79.0275 49.4278C79.25 49.558 79.5281 49.6231 79.8221 49.6231C80.1638 49.6231 80.5134 49.5336 80.7994 49.3709L80.8074 49.3627ZM66.2029 38.8989L81.5145 47.947C81.5702 47.9795 81.5861 48.0039 81.594 48.012C81.594 48.0283 81.5543 48.1016 81.4112 48.1911L80.4657 48.7525C80.1479 48.9396 79.6393 48.9722 79.3771 48.8094L64.0655 39.7614C64.0099 39.7288 63.994 39.7044 63.9861 39.6963C63.9861 39.68 64.0178 39.6068 64.1688 39.5173L65.1144 38.9559C65.2971 38.8501 65.5355 38.7931 65.758 38.7931C65.9328 38.7931 66.0917 38.8257 66.2029 38.8908L66.2029 38.8989Z" fill="#F6AC1F"/>
<path d="M65.7509 59.7442C64.9028 62.9334 62.584 65.5318 58.7944 67.5425C55.0049 69.5532 50.8596 70.3855 46.3521 70.0392C41.8479 69.6962 38.2997 68.2731 35.7141 65.7732C33.1252 63.2765 32.2549 60.4335 33.103 57.2443C33.9511 54.0583 36.2668 51.4568 40.0563 49.4461C43.8459 47.4353 47.9944 46.6031 52.5018 46.9493C57.0061 47.2956 60.5542 48.7186 63.143 51.2185C65.7319 53.7184 66.599 56.5614 65.7509 59.7474V59.7442ZM46.7524 68.2445C50.5737 68.5145 54.0869 67.7966 57.2951 66.094C60.5034 64.3914 62.4823 62.1933 63.232 59.4965C63.9816 56.7996 63.2701 54.4014 61.0974 52.3017C58.9246 50.2021 55.9292 49.0204 52.1174 48.7599C48.3057 48.4995 44.7956 49.2174 41.5874 50.9199C38.3791 52.6225 36.397 54.8207 35.6378 57.508C34.8786 60.1953 35.587 62.5904 37.7597 64.69C39.9324 66.7897 42.9279 67.9713 46.7524 68.2445ZM47.2257 64.9314C44.9132 64.6614 43.1248 63.9181 41.8637 62.7015C40.3994 61.2848 39.9706 59.8141 40.5804 58.2894C41.1935 56.7647 42.6483 55.3924 44.9481 54.1727C47.2479 52.9529 49.5095 52.3494 51.7394 52.3684C53.9693 52.3875 55.818 53.1022 57.2824 54.5189C58.5085 55.7037 58.9659 57.149 58.6642 58.8612L56.3676 58.6865C56.5931 57.4286 56.2659 56.3772 55.386 55.5259C54.2838 54.4586 52.9433 53.9694 51.3678 54.0551C49.7954 54.1441 48.1373 54.6491 46.3934 55.5735C44.6495 56.4979 43.4996 57.4857 42.9374 58.5308C42.3783 59.5791 42.6515 60.6336 43.7538 61.7009C44.6495 62.5681 45.9487 63.1049 47.6545 63.3114L47.2225 64.9346L47.2257 64.9314Z" fill="#F6AC1F"/>
<path d="M64.8743 16.1859C64.8743 7.4562 57.6975 0.382324 48.8404 0.382324C39.9834 0.382324 32.8066 7.4562 32.8066 16.1859C32.8066 20.051 34.2175 23.5929 36.5542 26.3362C36.6081 26.4048 36.6669 26.4783 36.7306 26.542C36.7796 26.591 36.8187 26.6399 36.8628 26.6889C36.9314 26.7673 37 26.8408 37.0735 26.9143C39.2535 29.2853 40.3851 31.5338 40.9534 32.93C41.0758 33.3856 41.2375 33.8216 41.4334 34.238C41.4481 34.2821 41.4579 34.3115 41.4677 34.3311H41.4775C42.7953 37.0352 45.5876 38.9066 48.8355 38.9066C52.6174 38.9066 55.787 36.3739 56.7177 32.9349C57.2027 31.7053 58.1678 29.7066 59.9803 27.5364C62.9931 24.6657 64.8694 20.6389 64.8694 16.181L64.8743 16.1859Z" fill="#FFDDAB"/>
<path d="M66.591 17.807C66.591 9.0773 59.4143 2.00342 50.5572 2.00342C41.7002 2.00342 34.5234 9.0773 34.5234 17.807C34.5234 21.6721 35.9343 25.214 38.271 27.9573C38.3249 28.0259 38.3837 28.0994 38.4474 28.1631C38.4964 28.212 38.5355 28.261 38.5796 28.31C38.6482 28.3884 38.7168 28.4619 38.7903 28.5354C40.9703 30.9064 42.8318 33.395 43.4001 34.7862C43.5225 35.2418 42.9543 35.4378 43.1551 35.8591C43.1698 35.9032 43.1796 35.9326 43.1894 35.9522H43.1992C44.517 38.6563 47.3093 40.5276 50.5572 40.5276C54.3391 40.5276 57.5087 37.995 58.4394 34.556C58.9244 33.3264 59.8895 31.3277 61.702 29.1575C64.7148 26.2819 66.591 22.26 66.591 17.8021V17.807Z" fill="#FFF8EE"/>
<path d="M48.8378 39.2933C45.6438 39.2933 42.6751 37.4906 41.2202 34.6836H41.2104L41.1173 34.4974C41.1026 34.468 41.0879 34.4239 41.0683 34.37C40.8772 33.9732 40.7107 33.5128 40.5833 33.0376C40.0102 31.6414 38.8736 29.4516 36.7867 27.1786L36.4487 26.8112C36.3752 26.7328 36.3067 26.6495 36.243 26.5711C33.7789 23.6759 32.4121 19.9822 32.4121 16.1857C32.4121 7.26004 39.7799 0 48.8378 0C57.8957 0 65.2635 7.26004 65.2635 16.1857C65.2635 20.6093 63.4852 24.739 60.2569 27.8154C58.5521 29.8582 57.5871 31.808 57.0874 33.0768C56.1027 36.7215 52.7079 39.2933 48.8427 39.2933H48.8378ZM41.8031 34.1202L41.8325 34.1741C43.1405 36.8586 45.825 38.5291 48.8378 38.5291C52.3502 38.5291 55.4365 36.1924 56.3428 32.8465C56.8816 31.4846 57.881 29.4565 59.6838 27.3011C62.7896 24.3373 64.4797 20.4035 64.4797 16.1906C64.4797 7.68623 57.4597 0.769113 48.8378 0.769113C40.2159 0.769113 33.191 7.68623 33.191 16.1906C33.191 19.8108 34.4892 23.3281 36.8504 26.096C36.9092 26.1694 36.9582 26.2282 37.0121 26.287L37.355 26.6593C39.5203 29.0156 40.7009 31.2985 41.3132 32.7926C41.4455 33.2678 41.5974 33.6842 41.7835 34.081L41.7982 34.1153L41.8031 34.1202Z" fill="#F6AC1F"/>
<path d="M48.8409 45.3672C46.8422 45.3672 45.2207 46.6409 45.2207 48.2036C45.2207 49.7663 46.8471 51.04 48.8409 51.04C50.8347 51.04 52.4612 49.7663 52.4612 48.2036C52.4612 46.6409 50.8347 45.3672 48.8409 45.3672ZM45.9996 48.1987C45.9996 47.0573 47.2733 46.1314 48.8409 46.1314C49.3357 46.1314 49.7962 46.2343 50.2028 46.3959C48.7773 46.6507 47.7142 47.6157 47.7142 48.7719C47.7142 49.3156 48.0179 49.8447 48.5715 50.2415C47.1313 50.1435 45.9996 49.2666 45.9996 48.1938V48.1987Z" fill="#F6AC1F"/>
<path d="M54.6689 45.5646C54.6689 47.4016 52.0578 48.8909 48.8393 48.8909C45.6208 48.8909 43.0098 47.4016 43.0098 45.5646C43.0098 43.7275 45.6208 42.2383 48.8393 42.2383C52.0578 42.2383 54.6689 43.7275 54.6689 45.5646Z" fill="#FFDDAB"/>
<path d="M48.8396 49.2723C45.3517 49.2723 42.623 47.641 42.623 45.5639C42.623 43.4868 45.3566 41.8555 48.8396 41.8555C52.3227 41.8555 55.0562 43.4868 55.0562 45.5639C55.0562 47.641 52.3227 49.2723 48.8396 49.2723ZM48.8396 42.6197C45.8906 42.6197 43.402 43.9669 43.402 45.5639C43.402 47.1609 45.8906 48.5032 48.8396 48.5032C51.7887 48.5032 54.2773 47.156 54.2773 45.5639C54.2773 43.9718 51.7887 42.6197 48.8396 42.6197Z" fill="#F6AC1F"/>
<path d="M54.6689 43.3854C54.6689 45.2224 52.0578 46.7117 48.8393 46.7117C45.6208 46.7117 43.0098 45.2224 43.0098 43.3854C43.0098 41.5483 45.6208 40.0591 48.8393 40.0591C52.0578 40.0591 54.6689 41.5483 54.6689 43.3854Z" fill="#FFDDAB"/>
<path d="M48.8396 47.0989C45.3517 47.0989 42.623 45.4676 42.623 43.3905C42.623 41.3134 45.3566 39.6821 48.8396 39.6821C52.3227 39.6821 55.0562 41.3134 55.0562 43.3905C55.0562 45.4676 52.3227 47.0989 48.8396 47.0989ZM48.8396 40.4463C45.8906 40.4463 43.402 41.7935 43.402 43.3905C43.402 44.9875 45.8906 46.3298 48.8396 46.3298C51.7887 46.3298 54.2773 44.9826 54.2773 43.3905C54.2773 41.7984 51.7887 40.4463 48.8396 40.4463Z" fill="#F6AC1F"/>
<path d="M54.6689 41.0865C54.6689 42.9236 52.0578 44.4128 48.8393 44.4128C45.6208 44.4128 43.0098 42.9236 43.0098 41.0865C43.0098 39.2495 45.6208 37.7603 48.8393 37.7603C52.0578 37.7603 54.6689 39.2495 54.6689 41.0865Z" fill="#FFDDAB"/>
<path d="M48.8396 44.8001C45.3517 44.8001 42.623 43.1688 42.623 41.0917C42.623 39.0146 45.3566 37.3833 48.8396 37.3833C52.3227 37.3833 55.0562 39.0146 55.0562 41.0917C55.0562 43.1688 52.3227 44.8001 48.8396 44.8001ZM48.8396 38.1475C45.8906 38.1475 43.402 39.4947 43.402 41.0868C43.402 42.6789 45.8906 44.0261 48.8396 44.0261C51.7887 44.0261 54.2773 42.6789 54.2773 41.0868C54.2773 39.4947 51.7887 38.1475 48.8396 38.1475Z" fill="#F6AC1F"/>
<path d="M54.6689 38.9132C54.6689 40.7503 52.0578 42.2395 48.8393 42.2395C45.6208 42.2395 43.0098 40.7503 43.0098 38.9132C43.0098 37.0762 45.6208 35.5869 48.8393 35.5869C52.0578 35.5869 54.6689 37.0762 54.6689 38.9132Z" fill="#FFDDAB"/>
<path d="M48.8396 42.6219C45.3517 42.6219 42.623 40.9906 42.623 38.9135C42.623 36.8364 45.3566 35.2051 48.8396 35.2051C52.3227 35.2051 55.0562 36.8364 55.0562 38.9135C55.0562 40.9906 52.3227 42.6219 48.8396 42.6219ZM48.8396 35.9742C45.8906 35.9742 43.402 37.3214 43.402 38.9135C43.402 40.5056 45.8906 41.8528 48.8396 41.8528C51.7887 41.8528 54.2773 40.5056 54.2773 38.9135C54.2773 37.3214 51.7887 35.9742 48.8396 35.9742Z" fill="#F6AC1F"/>
<path d="M54.6689 36.6149C54.6689 38.4519 52.0578 39.9412 48.8393 39.9412C45.6208 39.9412 43.0098 38.4519 43.0098 36.6149C43.0098 34.7778 45.6208 33.2886 48.8393 33.2886C52.0578 33.2886 54.6689 34.7778 54.6689 36.6149Z" fill="#FFDDAB"/>
<path d="M48.8185 35.8516C45.8253 35.8516 43.4004 37.2379 43.4004 38.9427C43.4004 39.0309 43.4347 39.1142 43.4445 39.1975C44.3165 40.4075 46.3984 41.2647 48.8381 41.2647C51.2777 41.2647 53.2813 40.4417 54.1778 39.266C54.1974 39.1583 54.2366 39.0505 54.2366 38.9427C54.2366 37.233 51.8116 35.8516 48.8185 35.8516Z" fill="#FFF8EE"/>
<path d="M48.8396 40.3231C45.3517 40.3231 42.623 38.6917 42.623 36.6146C42.623 34.5376 45.3566 32.9062 48.8396 32.9062C52.3227 32.9062 55.0562 34.5376 55.0562 36.6146C55.0562 38.6917 52.3227 40.3231 48.8396 40.3231ZM48.8396 33.6705C45.8906 33.6705 43.402 35.0176 43.402 36.6098C43.402 38.2019 45.8906 39.5539 48.8396 39.5539C51.7887 39.5539 54.2773 38.2068 54.2773 36.6098C54.2773 35.0127 51.7887 33.6705 48.8396 33.6705Z" fill="#F6AC1F"/>
<path d="M50.6153 26.3651L49.518 25.6792C53.3635 19.688 53.873 17.8558 53.9024 17.3268C53.7358 17.3807 53.5056 17.4786 53.3096 17.5619C52.4719 17.9146 51.1983 18.4535 49.4886 18.4241C47.8377 18.3947 46.6228 17.846 45.8194 17.4835C45.6038 17.3856 45.3491 17.2729 45.1874 17.219C45.0453 17.6109 45.0355 19.2569 49.2289 25.5911L48.1414 26.2916C43.2475 18.9091 43.4679 17.0524 44.335 16.2098C44.8984 15.6612 45.6087 15.9796 46.3582 16.3225C47.1077 16.6605 48.1316 17.121 49.5082 17.1455C50.919 17.1749 52.0164 16.7193 52.8002 16.3911C53.535 16.0825 54.2306 15.7885 54.7891 16.2637C55.5484 16.9055 55.8521 18.2135 50.6153 26.37V26.3651Z" fill="#FFDDAB"/>
<path d="M50.0408 26.3654L48.6103 25.4738L47.3366 26.2968L47.1211 25.9735C42.0851 18.3803 42.3399 16.4061 43.3637 15.4068C44.1181 14.667 45.0636 15.0981 45.8229 15.4411C46.5382 15.7644 47.5228 16.2053 48.8161 16.2298C50.1388 16.2543 51.192 15.8232 51.9464 15.5047C52.7204 15.1765 53.5973 14.8042 54.3468 15.4362C55.307 16.2494 55.6597 17.6063 50.2465 26.0372L50.0408 26.3605V26.3654ZM49.3598 25.028L49.7959 25.3024C54.4301 18.0423 54.4448 16.5335 53.8374 16.0191C53.4798 15.7154 53.0046 15.8917 52.2551 16.2102C51.4811 16.5384 50.3298 17.0283 48.8063 16.9989C47.3464 16.9744 46.2834 16.4943 45.4996 16.1416C44.657 15.7595 44.2504 15.6272 43.9124 15.9554C43.2706 16.5825 42.962 18.2285 47.562 25.2338L47.998 24.9545C45.0832 20.5113 43.7458 17.6161 44.1279 16.5678L44.2553 16.22L44.6129 16.3326C44.7746 16.3816 45.0293 16.4943 45.2546 16.5972C46.0629 16.9646 47.2338 17.4937 48.8014 17.5181C50.4033 17.5524 51.6525 17.0332 52.4657 16.6902C52.6862 16.5972 52.9213 16.4992 53.0878 16.4453L53.6316 16.269L53.6022 16.8323C53.5435 17.9394 52.0395 20.8493 49.3648 25.0427L49.3598 25.028ZM44.8627 17.2585C44.9803 18.0227 45.6515 19.9724 48.7034 24.6165C51.4027 20.3839 52.3383 18.3656 52.6567 17.4349C51.775 17.8072 50.5013 18.302 48.7818 18.2824C47.0525 18.253 45.7886 17.6847 44.9558 17.3075C44.9215 17.2928 44.8872 17.2781 44.8578 17.2634L44.8627 17.2585Z" fill="#F6AC1F"/>
<path d="M48.8386 37.0508C47.8883 37.0508 47.1191 36.3943 47.1191 35.5811V26.2636C47.1191 25.4504 47.8883 24.7939 48.8386 24.7939C49.789 24.7939 50.5581 25.4504 50.5581 26.2636V35.5811C50.5581 36.3943 49.789 37.0508 48.8386 37.0508Z" fill="#FFF8EE"/>
<path d="M49.9011 37.2417C48.9508 37.2417 48.1816 36.5852 48.1816 35.772V26.4545C48.1816 25.6413 48.9508 24.9849 49.9011 24.9849C50.8515 24.9849 51.6206 25.6413 51.6206 26.4545V35.772C51.6206 36.5852 50.8515 37.2417 49.9011 37.2417Z" fill="#FFDDAB"/>
<path d="M48.8389 37.4317C47.6779 37.4317 46.7324 36.5989 46.7324 35.5751V26.2575C46.7324 25.2337 47.6779 24.4009 48.8389 24.4009C49.9999 24.4009 50.9454 25.2337 50.9454 26.2575V35.5751C50.9454 36.5989 49.9999 37.4317 48.8389 37.4317ZM48.8389 25.17C48.109 25.17 47.5113 25.6599 47.5113 26.2575V35.5751C47.5113 36.1727 48.109 36.6626 48.8389 36.6626C49.5688 36.6626 50.1665 36.1727 50.1665 35.5751V26.2575C50.1665 25.6599 49.5688 25.17 48.8389 25.17Z" fill="#F6AC1F"/>
</svg>
