<svg width="94" height="97" viewBox="0 0 94 97" fill="none" xmlns="http://www.w3.org/2000/svg">
<path d="M19.3221 51.307L8.375 34.6352L35.9078 18.7344L46.8618 35.4063L19.3221 51.307Z" fill="#FFDDAB"/>
<path d="M18.7483 54.4842L7.80469 37.8089L35.3341 21.9082L46.2914 38.5835L18.7483 54.4842Z" fill="#FFF8EE"/>
<path d="M19.2654 51.5552L8.11523 34.57L35.9647 18.4834L47.1253 35.4685L19.262 51.5552H19.2654ZM8.64194 34.6974L19.3824 51.0595L46.602 35.3446L35.8477 18.9826L8.6385 34.6974H8.64194Z" fill="#F6AC1F"/>
<path d="M74.5319 51.4003L85.479 34.7284L57.9496 18.8276L46.9922 35.4995L74.5319 51.4003Z" fill="#FFDDAB"/>
<path d="M75.0783 54.4842L86.0219 37.8089L58.4925 21.9082L47.5352 38.5835L75.0783 54.4842Z" fill="#FFF8EE"/>
<path d="M74.5938 51.6475L46.7305 35.5608L57.891 18.5757L85.7405 34.6623L85.6338 34.8275L74.5904 51.6475H74.5938ZM47.2606 35.4369L74.4802 51.1518L85.2207 34.7897L58.0114 19.0749L47.2606 35.4369Z" fill="#F6AC1F"/>
<path d="M19.4629 51.3999V80.833L47.0026 96.7337V67.3006L19.4629 51.3999Z" fill="#FFDDAB"/>
<path d="M47.003 67.0875L19.2773 51.0801V80.94L47.003 96.9475L74.6356 80.9916L74.7286 80.94V51.0801L47.003 67.0875ZM19.6457 80.7265V51.7238L46.8136 67.4111V96.4139L19.6457 80.7265Z" fill="#F6AC1F"/>
<path d="M74.5501 51.3997L47.0104 67.3005L19.4707 51.3997L47.0104 35.499L74.5501 51.3997Z" fill="#FFDDAB"/>
<path d="M47.0082 67.5204L19.0898 51.4028L47.0082 35.2852L47.1011 35.3403L74.9266 51.4062L47.0082 67.5239V67.5204ZM19.8472 51.3993L47.0082 67.0798L74.1693 51.3993L47.0082 35.7189L19.8472 51.3993Z" fill="#F6AC1F"/>
<path d="M47.0062 35.7197L19.0879 51.4002L46.9133 67.4627L47.2025 67.3078L47.0062 67.0875V35.7197Z" fill="#F6AC1F"/>
<path d="M46.9966 67.3006L28.7481 67.9065L0.667969 51.9851L19.4569 51.3999L46.9966 67.3006Z" fill="#FFDDAB"/>
<path d="M46.8189 69.8036L28.5669 70.4094L0.490234 54.4846L19.2791 53.9028L46.8189 69.8036Z" fill="#FFF8EE"/>
<path d="M28.6999 68.0967L28.6551 68.0691L0 51.8207L19.5016 51.2148L19.5463 51.2424L47.6472 67.4667L28.6964 68.0967H28.6999ZM1.33572 52.1512L28.7928 67.7249L46.3425 67.1397L19.4087 51.5901L1.33227 52.1512H1.33572Z" fill="#F6AC1F"/>
<path d="M47.0059 67.3006L65.2544 67.9065L93.3346 51.9851L74.5456 51.3999L47.0059 67.3006Z" fill="#FFDDAB"/>
<path d="M46.8203 69.8036L65.0688 70.4094L93.149 54.4846L74.36 53.9028L46.8203 69.8036Z" fill="#FFF8EE"/>
<path d="M65.3023 68.0967H65.2507L46.3516 67.4667L74.5006 51.2148H74.5522L94.0021 51.8207L65.3023 68.0967ZM47.6597 67.1397L65.2094 67.7249L92.6665 52.1512L74.5901 51.5901L47.6563 67.1397H47.6597Z" fill="#F6AC1F"/>
<path d="M58.7112 16.7864C58.7112 10.0151 53.1413 4.52783 46.2736 4.52783C39.4059 4.52783 33.8359 10.0151 33.8359 16.7864C33.8359 19.7848 34.9306 22.5319 36.7448 24.6628C36.7861 24.7179 36.8309 24.7695 36.8826 24.8246C36.9204 24.8625 36.9514 24.9003 36.9858 24.9381C37.0409 24.9967 37.0925 25.0552 37.1476 25.1137C38.8379 26.9554 39.7191 28.7008 40.1598 29.7817C40.2562 30.1328 40.38 30.4736 40.5315 30.7972C40.5418 30.8282 40.5522 30.8557 40.5591 30.8695H40.5694C41.5918 32.9659 43.7606 34.4187 46.277 34.4187C49.21 34.4187 51.6679 32.4531 52.3909 29.7886C52.7695 28.835 53.5131 27.2859 54.9245 25.5991C57.2619 23.3719 58.7181 20.2495 58.7181 16.7898L58.7112 16.7864Z" fill="#FFDDAB"/>
<path d="M60.0471 18.0394C60.0471 11.2681 54.4772 5.78076 47.6095 5.78076C40.7417 5.78076 35.1719 11.2681 35.1719 18.0394C35.1719 21.0378 36.2666 23.7848 38.0807 25.9157C38.122 25.9708 38.1668 26.0224 38.2184 26.0775C38.2563 26.1154 38.2873 26.1533 38.3217 26.1911C38.3768 26.2497 38.4284 26.3082 38.4835 26.3667C40.1737 28.2084 41.6162 30.1362 42.0602 31.2171C42.1566 31.5682 41.716 31.7232 41.8674 32.0468C41.8778 32.0778 41.8881 32.1053 41.895 32.1191H41.9053C42.9277 34.2155 45.0965 35.6683 47.6129 35.6683C50.5459 35.6683 53.0038 33.7026 53.7267 31.0382C54.1054 30.0846 54.849 28.5354 56.2604 26.8486C58.5978 24.6213 60.054 21.4991 60.054 18.0394H60.0471Z" fill="#FFF8EE"/>
<path d="M46.2714 34.7115C43.7928 34.7115 41.4897 33.3138 40.3606 31.1348H40.3537L40.278 30.9902C40.2676 30.9695 40.2539 30.9351 40.2401 30.8904C40.0921 30.5805 39.9613 30.2225 39.8614 29.8576C39.4174 28.7767 38.5361 27.0761 36.9181 25.3136L36.6565 25.0313C36.598 24.9693 36.5463 24.9073 36.4981 24.8454C34.5841 22.6009 33.5273 19.7368 33.5273 16.79C33.5273 9.8638 39.2418 4.23193 46.2679 4.23193C53.294 4.23193 59.0085 9.8638 59.0085 16.79C59.0085 20.2187 57.628 23.4236 55.1254 25.8127C53.8035 27.3997 53.0529 28.911 52.6639 29.8955C51.8997 32.7218 49.2663 34.7184 46.2679 34.7184L46.2714 34.7115ZM40.815 30.6976L40.8391 30.7424C41.8547 32.825 43.9374 34.1194 46.2748 34.1194C48.9978 34.1194 51.3937 32.3052 52.096 29.7096C52.5125 28.6528 53.2905 27.0796 54.6882 25.41C57.0979 23.1104 58.4095 20.0569 58.4095 16.79C58.4095 10.1943 52.9669 4.82747 46.2748 4.82747C39.5826 4.82747 34.1367 10.1943 34.1367 16.79C34.1367 19.5956 35.1453 22.3255 36.9733 24.4736C37.018 24.5322 37.0558 24.5769 37.1006 24.6216L37.3691 24.9108C39.049 26.7388 39.9647 28.5082 40.4398 29.6683C40.543 30.0366 40.6601 30.3603 40.8047 30.6701L40.815 30.6976Z" fill="#F6AC1F"/>
<path d="M46.2739 39.4243C44.7248 39.4243 43.4648 40.4124 43.4648 41.6241C43.4648 42.8358 44.7248 43.8238 46.2739 43.8238C47.8231 43.8238 49.083 42.8358 49.083 41.6241C49.083 40.4124 47.8231 39.4243 46.2739 39.4243ZM44.0707 41.6207C44.0707 40.7359 45.0588 40.0164 46.2739 40.0164C46.6595 40.0164 47.0175 40.0956 47.3307 40.223C46.2257 40.4227 45.403 41.1696 45.403 42.0681C45.403 42.4881 45.6371 42.8978 46.0674 43.2076C44.952 43.1318 44.0707 42.4537 44.0707 41.6207Z" fill="#F6AC1F"/>
<path d="M50.7968 39.5765C50.7968 41.0017 48.7727 42.1583 46.2734 42.1583C43.7742 42.1583 41.75 41.0017 41.75 39.5765C41.75 38.1513 43.7742 36.9946 46.2734 36.9946C48.7727 36.9946 50.7968 38.1513 50.7968 39.5765Z" fill="#FFDDAB"/>
<path d="M46.2721 42.4545C43.5663 42.4545 41.4492 41.1911 41.4492 39.5766C41.4492 37.9621 43.5663 36.6987 46.2721 36.6987C48.9779 36.6987 51.095 37.9621 51.095 39.5766C51.095 41.1911 48.9779 42.4545 46.2721 42.4545ZM46.2721 37.2943C43.9863 37.2943 42.0516 38.3407 42.0516 39.5766C42.0516 40.8124 43.9829 41.859 46.2721 41.859C48.5614 41.859 50.4926 40.8124 50.4926 39.5766C50.4926 38.3407 48.5614 37.2943 46.2721 37.2943Z" fill="#F6AC1F"/>
<path d="M50.7968 37.8865C50.7968 39.3117 48.7727 40.4684 46.2734 40.4684C43.7742 40.4684 41.75 39.3117 41.75 37.8865C41.75 36.4614 43.7742 35.3047 46.2734 35.3047C48.7727 35.3047 50.7968 36.4614 50.7968 37.8865Z" fill="#FFDDAB"/>
<path d="M46.2721 40.7647C43.5663 40.7647 41.4492 39.5012 41.4492 37.8867C41.4492 36.2722 43.5663 35.0088 46.2721 35.0088C48.9779 35.0088 51.095 36.2722 51.095 37.8867C51.095 39.5012 48.9779 40.7647 46.2721 40.7647ZM46.2721 35.6043C43.9863 35.6043 42.0516 36.6509 42.0516 37.8867C42.0516 39.1226 43.9829 40.169 46.2721 40.169C48.5614 40.169 50.4926 39.1226 50.4926 37.8867C50.4926 36.6509 48.5614 35.6043 46.2721 35.6043Z" fill="#F6AC1F"/>
<path d="M50.7968 36.1033C50.7968 37.5285 48.7727 38.6852 46.2734 38.6852C43.7742 38.6852 41.75 37.5285 41.75 36.1033C41.75 34.6782 43.7742 33.5215 46.2734 33.5215C48.7727 33.5215 50.7968 34.6782 50.7968 36.1033Z" fill="#FFDDAB"/>
<path d="M46.2721 38.9814C43.5663 38.9814 41.4492 37.718 41.4492 36.1035C41.4492 34.489 43.5663 33.2256 46.2721 33.2256C48.9779 33.2256 51.095 34.489 51.095 36.1035C51.095 37.718 48.9779 38.9814 46.2721 38.9814ZM46.2721 33.8211C43.9863 33.8211 42.0516 34.8677 42.0516 36.1035C42.0516 37.3394 43.9829 38.3858 46.2721 38.3858C48.5614 38.3858 50.4926 37.3394 50.4926 36.1035C50.4926 34.8677 48.5614 33.8211 46.2721 33.8211Z" fill="#F6AC1F"/>
<path d="M50.7968 34.4153C50.7968 35.8405 48.7727 36.9972 46.2734 36.9972C43.7742 36.9972 41.75 35.8405 41.75 34.4153C41.75 32.9902 43.7742 31.8335 46.2734 31.8335C48.7727 31.8335 50.7968 32.9902 50.7968 34.4153Z" fill="#FFDDAB"/>
<path d="M46.2721 37.2939C43.5663 37.2939 41.4492 36.0305 41.4492 34.4159C41.4492 32.8014 43.5663 31.5381 46.2721 31.5381C48.9779 31.5381 51.095 32.8014 51.095 34.4159C51.095 36.0305 48.9779 37.2939 46.2721 37.2939ZM46.2721 32.1336C43.9863 32.1336 42.0516 33.1801 42.0516 34.4159C42.0516 35.6518 43.9829 36.6983 46.2721 36.6983C48.5614 36.6983 50.4926 35.6518 50.4926 34.4159C50.4926 33.1801 48.5614 32.1336 46.2721 32.1336Z" fill="#F6AC1F"/>
<path d="M50.7968 32.6326C50.7968 34.0578 48.7727 35.2145 46.2734 35.2145C43.7742 35.2145 41.75 34.0578 41.75 32.6326C41.75 31.2074 43.7742 30.0508 46.2734 30.0508C48.7727 30.0508 50.7968 31.2074 50.7968 32.6326Z" fill="#FFDDAB"/>
<path d="M46.2618 32.0371C43.9416 32.0371 42.0586 33.1111 42.0586 34.4365C42.0586 34.5053 42.0826 34.5673 42.093 34.6362C42.7677 35.576 44.3857 36.2403 46.2756 36.2403C48.1655 36.2403 49.7214 35.6035 50.4203 34.6912C50.4375 34.6086 50.4651 34.526 50.4651 34.4399C50.4651 33.1146 48.582 32.0406 46.2618 32.0406V32.0371Z" fill="#FFF8EE"/>
<path d="M46.2721 35.5108C43.5663 35.5108 41.4492 34.2473 41.4492 32.6328C41.4492 31.0183 43.5663 29.7549 46.2721 29.7549C48.9779 29.7549 51.095 31.0183 51.095 32.6328C51.095 34.2473 48.9779 35.5108 46.2721 35.5108ZM46.2721 30.3505C43.9863 30.3505 42.0516 31.397 42.0516 32.6328C42.0516 33.8687 43.9829 34.9151 46.2721 34.9151C48.5614 34.9151 50.4926 33.8687 50.4926 32.6328C50.4926 31.397 48.5614 30.3505 46.2721 30.3505Z" fill="#F6AC1F"/>
<path d="M47.6567 24.6811L46.8064 24.151C49.7875 19.5037 50.1869 18.082 50.2076 17.6723C50.0802 17.7136 49.9011 17.7894 49.7462 17.8548C49.0956 18.1302 48.1077 18.5467 46.7823 18.5226C45.5017 18.5019 44.5585 18.075 43.9354 17.7927C43.7667 17.717 43.5705 17.6276 43.4466 17.5897C43.3364 17.8926 43.3261 19.1732 46.5826 24.0821L45.7392 24.6261C41.9422 18.8978 42.1143 17.4589 42.7856 16.8048C43.2228 16.3779 43.7736 16.6292 44.3554 16.8909C44.9371 17.1525 45.7324 17.5105 46.7996 17.5311C47.8943 17.5552 48.7445 17.2007 49.3504 16.9459C49.9218 16.7049 50.4589 16.4777 50.8961 16.8461C51.4847 17.3418 51.7188 18.3573 47.6567 24.6846V24.6811Z" fill="#FFDDAB"/>
<path d="M47.2152 24.6806L46.1067 23.9887L45.1187 24.6256L44.9534 24.3777C41.0497 18.4842 41.2459 16.9557 42.0377 16.1812C42.6229 15.6097 43.3562 15.9437 43.9448 16.2088C44.5025 16.4601 45.2633 16.8043 46.2685 16.8215C47.2978 16.8422 48.1102 16.5048 48.6954 16.2604C49.2979 16.0056 49.976 15.7199 50.5543 16.2088C51.2979 16.8387 51.5733 17.8921 47.3735 24.4328L47.2117 24.6841L47.2152 24.6806ZM46.685 23.6479L47.0258 23.8613C50.6197 18.2295 50.6336 17.0556 50.1619 16.6597C49.8831 16.4257 49.5147 16.5633 48.933 16.8077C48.334 17.0625 47.4389 17.4412 46.2547 17.4171C45.1221 17.3964 44.296 17.0246 43.6901 16.7527C43.036 16.4566 42.7193 16.3533 42.4577 16.6081C41.9585 17.0934 41.721 18.3706 45.2874 23.8063L45.6247 23.5894C43.363 20.1435 42.3268 17.8956 42.6229 17.0832L42.7227 16.8146L43.0016 16.9007C43.1255 16.9386 43.3252 17.028 43.4973 17.1037C44.1238 17.386 45.0326 17.7957 46.2478 17.8164C47.4905 17.8439 48.4613 17.4377 49.0879 17.1727C49.26 17.1004 49.4424 17.0246 49.5698 16.9833L49.9898 16.8456L49.9657 17.2828C49.9209 18.1399 48.7539 20.3982 46.6781 23.6513L46.685 23.6479ZM43.1978 17.6167C43.2907 18.2088 43.8071 19.72 46.179 23.3243C48.272 20.0402 48.9983 18.4739 49.2462 17.7544C48.5611 18.0436 47.5732 18.4257 46.2409 18.4085C44.8984 18.3844 43.9207 17.9437 43.2736 17.6511C43.246 17.6408 43.2219 17.627 43.1978 17.6167Z" fill="#F6AC1F"/>
<path d="M46.2737 32.969C45.537 32.969 44.9414 32.4595 44.9414 31.8261V24.5969C44.9414 23.967 45.537 23.4541 46.2737 23.4541C47.0104 23.4541 47.6059 23.9635 47.6059 24.5969V31.8261C47.6059 32.4561 47.0104 32.969 46.2737 32.969Z" fill="#FFF8EE"/>
<path d="M47.1017 33.1175C46.365 33.1175 45.7695 32.608 45.7695 31.9746V24.7455C45.7695 24.1155 46.365 23.6025 47.1017 23.6025C47.8384 23.6025 48.434 24.112 48.434 24.7455V31.9746C48.434 32.6046 47.8384 33.1175 47.1017 33.1175Z" fill="#FFDDAB"/>
<path d="M46.2758 33.2687C45.3739 33.2687 44.6406 32.6215 44.6406 31.8297V24.6005C44.6406 23.8053 45.3739 23.1616 46.2758 23.1616C47.1777 23.1616 47.911 23.8088 47.911 24.6005V31.8297C47.911 32.6249 47.1777 33.2687 46.2758 33.2687ZM46.2758 23.7572C45.7078 23.7572 45.2465 24.1358 45.2465 24.6005V31.8297C45.2465 32.2945 45.7078 32.6732 46.2758 32.6732C46.8438 32.6732 47.3051 32.2945 47.3051 31.8297V24.6005C47.3051 24.1358 46.8438 23.7572 46.2758 23.7572Z" fill="#F6AC1F"/>
<path d="M30.8144 10.9644C30.1087 10.7854 29.7128 10.028 29.9848 9.35329C30.7972 7.33257 32.8833 3.46672 37.4618 1.48042C38.1124 1.19814 38.8663 1.54924 39.0867 2.22396C39.2794 2.81951 38.9868 3.45638 38.4188 3.70424C34.6184 5.35662 32.8937 8.59597 32.2327 10.238C32.0055 10.8026 31.4031 11.1125 30.8144 10.9644Z" fill="#FFF8EE"/>
<path d="M30.8042 10.2215C30.6837 10.2215 30.5598 10.2078 30.4393 10.1768C30.0159 10.0701 29.6579 9.78437 29.4582 9.39193C29.262 9.00637 29.2414 8.55882 29.4032 8.1595C30.2603 6.02173 32.3946 2.13524 37.0385 0.121395C37.4241 -0.0438436 37.8647 -0.0403911 38.2468 0.131732C38.6358 0.307298 38.9353 0.641187 39.0695 1.0474C39.3105 1.79097 38.9525 2.58614 38.2365 2.8994C34.5771 4.48982 32.8903 7.57083 32.2122 9.26796C31.9781 9.85318 31.41 10.2215 30.8042 10.2215ZM37.6306 0.603306C37.5101 0.603306 37.3931 0.62739 37.2795 0.675584C32.8352 2.60336 30.787 6.3316 29.9608 8.38331C29.8644 8.62428 29.8782 8.88242 29.9952 9.11651C30.1157 9.3506 30.3292 9.52276 30.5873 9.58817C31.0314 9.70177 31.479 9.4711 31.6511 9.04079C32.3637 7.26103 34.1365 4.02169 37.9955 2.34521C38.4258 2.15932 38.6427 1.68427 38.4981 1.2402C38.4189 0.992338 38.2365 0.792638 38.0024 0.685922C37.8819 0.630842 37.758 0.603306 37.6306 0.603306Z" fill="#F6AC1F"/>
</svg>
