<svg width="72" height="86" viewBox="0 0 72 86" fill="none" xmlns="http://www.w3.org/2000/svg">
<path d="M44.1904 46.9943L44.1855 11.1631L53.8835 5.56348L53.8883 41.3947L44.1904 46.9943Z" fill="#FFDDAB"/>
<path d="M53.8831 5.56352L45.0241 0.473633L35.3262 6.07323L44.1851 11.1631L53.8831 5.56352Z" fill="#FFDDAB"/>
<path d="M53.7437 7.94125L45.0241 2.93311L35.3262 8.53271L44.2669 13.3918L53.7437 7.94125Z" fill="#FFF8EE"/>
<path d="M34.918 5.83522L34.9228 42.1401L44.1904 47.468L54.2971 41.6327L54.2923 5.32791L45.0246 0L34.918 5.83522ZM44.5967 11.4012L53.4749 6.27521L53.4797 41.1591L44.6039 46.285L44.5991 11.4012H44.5967ZM44.1856 10.6895L36.1488 6.07084L45.0246 0.947292L53.0614 5.56594L44.1856 10.6919V10.6895Z" fill="#F6AC1F"/>
<path d="M32.5508 53.7813V23.6074L42.2488 18.0078V48.1817L32.5508 53.7813Z" fill="#FFDDAB"/>
<path d="M42.2459 18.0079L33.3894 12.918L23.6914 18.5176L32.5504 23.6075L42.2459 18.0079Z" fill="#FFDDAB"/>
<path d="M42.1065 20.3861L33.3894 15.3779L23.6914 20.9775L32.6321 25.8366L42.1065 20.3861Z" fill="#FFF8EE"/>
<path d="M23.2812 18.2796V48.9271L32.5489 54.255L42.6556 48.4198V17.7723L33.3879 12.4443L23.2812 18.2796ZM32.96 23.8455L41.8382 18.7195V47.9461L32.96 53.0721V23.8455ZM32.5513 23.1338L24.5145 18.5152L33.3903 13.3892L41.4271 18.0079L32.5513 23.1338Z" fill="#F6AC1F"/>
<path d="M20.9091 60.7134L20.9043 34.3935L30.6023 28.7939L30.6071 55.1137L20.9091 60.7134Z" fill="#FFDDAB"/>
<path d="M30.6034 28.7935L21.7444 23.7036L12.0488 29.3008L20.9078 34.3931L30.6034 28.7935Z" fill="#FFDDAB"/>
<path d="M30.4639 31.1717L21.7444 26.1636L12.0488 31.7632L20.9895 36.6223L30.4639 31.1717Z" fill="#FFF8EE"/>
<path d="M11.6367 29.0652L11.6415 55.8586L20.9092 61.1866L31.0158 55.3513L31.011 28.5579L21.7434 23.23L11.6367 29.0652ZM21.3155 34.6287L30.1937 29.5028L30.1985 54.8753L21.3227 60.0012L21.3179 34.6287H21.3155ZM20.9044 33.9195L12.8676 29.3008L21.7434 24.1749L29.7802 28.7935L20.9044 33.9195Z" fill="#F6AC1F"/>
<path d="M9.26758 67.5006V48.4995L18.9656 42.8999V61.901L9.26758 67.5006Z" fill="#FFDDAB"/>
<path d="M18.9651 42.8999L10.1062 37.8101L0.408203 43.4097L9.26716 48.4995L18.9651 42.8999Z" fill="#FFDDAB"/>
<path d="M18.8257 45.2777L10.1062 40.2695L0.408203 45.8691L9.3489 50.7282L18.8257 45.2777Z" fill="#FFF8EE"/>
<path d="M0 43.1716V62.6464L9.26765 67.9743L19.3743 62.1391V42.6643L10.1067 37.3364L0 43.1716ZM9.67874 48.7376L18.5569 43.6116V61.6655L9.67874 66.7914V48.7376ZM9.26765 48.0259L1.23088 43.4073L10.1067 38.2813L18.1434 42.9L9.26765 48.0259Z" fill="#F6AC1F"/>
<path d="M56.763 25.1726H56.7582C56.0778 24.7206 55.1667 24.723 54.1618 25.3024L19.3486 45.4576C17.2474 46.6718 15.543 49.9272 15.543 52.7306V77.4972C15.543 78.7835 15.906 79.7477 16.4974 80.3006C16.7161 80.5002 16.9806 80.6613 17.2547 80.7454L24.9116 85.1188L26.3276 77.1823L32.6719 70.9311L52.7073 59.3088C54.8085 58.0946 56.5129 54.8392 56.5129 52.0358V40.5697L59.9676 33.6309L63.7732 32.0489L64.8069 29.7215L56.7606 25.1726H56.763Z" fill="#FFDDAB"/>
<path d="M57.1755 26.3171H57.1707C56.4903 25.8651 55.5792 25.8675 54.5743 26.447L19.7611 46.6021C18.386 47.3956 17.184 49.0665 16.5156 50.913L22.319 54.1949L34.0148 61.4583L41.9073 65.6009L40.8471 67.5724L53.1198 60.4533C55.221 59.2391 56.9254 55.9837 56.9254 53.1803V41.7142L60.3801 34.7754L64.1857 33.1934L65.2195 30.866L57.1731 26.3171H57.1755Z" fill="#FFF8EE"/>
<path d="M25.0054 85.3161L17.2042 80.861C16.9301 80.7744 16.6513 80.6085 16.4132 80.3921L16.4974 80.3008L16.4132 80.3897C15.7714 79.791 15.418 78.762 15.418 77.495V52.7283C15.418 49.8889 17.1537 46.5781 19.2861 45.3447L54.0993 25.1895C55.0922 24.6173 56.0466 24.5644 56.7918 25.0405L56.8255 25.0573L64.9728 29.6639L63.8718 32.1428L60.0613 33.7248L56.6404 40.5939V52.0287C56.6404 54.8681 54.9046 58.1789 52.7722 59.4099L32.7512 71.0226L26.4478 77.2329L25.0054 85.3065V85.3161ZM16.5839 80.207C16.7979 80.4017 17.0503 80.5508 17.2907 80.6229L17.3172 80.635L24.8202 84.9194L26.2122 77.1199L26.241 77.091L32.6094 70.8206L52.6448 59.1983C54.7075 58.0057 56.3879 54.7936 56.3879 52.0359V40.541L59.8786 33.5324L63.6819 31.9528L64.6483 29.7769L56.7774 25.3266L56.7678 25.3338L56.6909 25.2833C56.0225 24.8361 55.1498 24.8842 54.2291 25.4155L19.4135 45.5707C17.3508 46.7633 15.6704 49.9754 15.6704 52.7331V77.4998C15.6704 78.6971 15.9949 79.6588 16.5839 80.2094V80.207Z" fill="#F6AC1F"/>
<path d="M63.9462 32.1236L64.9583 29.8443L61.47 27.8728H61.4652C60.7848 27.4208 59.8737 27.4232 58.8688 28.0026L24.0556 48.1578C21.9545 49.372 20.25 52.6274 20.25 55.4308V80.1974C20.25 81.4501 20.5938 82.3925 21.1587 82.9503L25.0822 85.1911L26.4981 77.2546L32.8425 71.0034L52.8779 59.3811C54.979 58.1669 56.6835 54.9115 56.6835 52.1081V40.642L60.1381 33.7032L63.9438 32.1212L63.9462 32.1236Z" fill="#F6AC1F"/>
<path d="M25.1759 85.3904L21.0722 83.0414C20.4616 82.4355 20.125 81.4257 20.125 80.1971V55.4305C20.125 52.591 21.8607 49.2803 23.9955 48.0493L58.8087 27.8941C59.8016 27.3219 60.756 27.269 61.5013 27.7451L61.5349 27.7619L65.1218 29.7911L64.0424 32.2219L60.2319 33.8039L56.8109 40.673V52.1078C56.8109 54.9472 55.0752 58.258 52.9404 59.4914L32.9194 71.1041L26.616 77.3144L25.1735 85.388L25.1759 85.3904ZM21.2357 82.8491L24.9884 84.9913L26.3804 77.1918L26.4092 77.1629L32.7776 70.8925L52.813 59.2702C54.8781 58.0776 56.5561 54.8655 56.5561 52.1054V40.6104L60.0468 33.6019L63.85 32.0223L64.7948 29.8945L61.4796 28.0192L61.4748 28.024L61.3955 27.9759C60.7296 27.5287 59.8545 27.5768 58.9337 28.1081L24.1205 48.2633C22.0555 49.4558 20.3774 52.668 20.3774 55.4257V80.1923C20.3774 81.344 20.6827 82.2865 21.2381 82.8443L21.2357 82.8491Z" fill="#F6AC1F"/>
<path d="M48.6905 31.1618C48.6905 31.1618 48.7002 31.1353 48.6905 31.1281L46.9308 30.0197L46.8442 29.9644C46.7673 29.9187 46.6615 29.9236 46.5437 29.9909L45.9018 30.3611C45.5292 30.5751 45.171 30.6088 44.9114 30.4549L44.6637 30.0318L45.0676 29.938L45.433 29.8346L43.6204 28.6902C43.5795 28.6637 43.5386 28.6373 43.4978 28.6132L43.4906 28.6084C42.7934 28.2213 41.8847 28.255 40.9182 28.7455C40.8317 28.7887 40.7451 28.8368 40.6586 28.8849L37.0813 30.9502C36.9972 30.9983 36.9131 31.0512 36.8289 31.1041C35.4538 31.9912 34.1652 33.7007 33.468 35.564L32.7444 37.4971C32.4848 37.9395 32.1314 38.3121 31.7684 38.5213L31.1553 38.8747C30.9414 38.9974 30.7779 39.1993 30.713 39.4373C30.6433 39.7018 30.713 39.8701 30.8476 39.9158L32.6218 41.029L33.468 40.3173L34.8432 39.0623L35.6846 36.4849L37.7641 33.2703L42.4905 30.5367L43.5362 30.2938C43.5483 30.2986 43.5603 30.3034 43.5723 30.3082L44.2166 31.4142L44.2527 31.4407C44.6758 31.7316 45.2744 31.6931 45.9018 31.3301L46.1278 31.1978L47.2842 32.2557L48.6929 31.157L48.6905 31.1618Z" fill="#FFDDAB"/>
<path d="M31.1914 39.8198L31.0977 39.8727C31.0424 39.904 30.9895 39.9424 30.9414 39.9857L32.6026 41.0292L32.6459 40.9931L31.1914 39.8198Z" fill="#FFF8EE"/>
<path d="M44.8558 31.453L44.6082 31.0298L45.012 30.936L45.3775 30.8326L43.5648 29.6882C43.5239 29.6618 43.4831 29.6353 43.4422 29.6113L43.435 29.6065C42.7378 29.2194 41.8291 29.253 40.8626 29.7435C40.7761 29.7868 40.6895 29.8349 40.603 29.883L37.0258 31.9482C36.9416 31.9963 36.8575 32.0492 36.7733 32.1021C35.9872 32.6094 35.2323 33.3836 34.5977 34.302C34.6193 34.3141 34.6385 34.3285 34.6602 34.3405L36.3622 35.4152L37.7494 33.2706L42.4758 30.5369L43.5215 30.2941C43.5335 30.2989 43.5456 30.3037 43.5576 30.3085L44.2019 31.4145L44.2379 31.4409C44.5793 31.6766 45.0337 31.691 45.5241 31.501C45.2717 31.5756 45.0409 31.5636 44.8558 31.4554V31.453Z" fill="#FFF8EE"/>
<path d="M46.7879 30.9621C46.711 30.9164 46.6052 30.9212 46.4874 30.9885L46.1172 31.2025L47.2687 32.2556L47.9731 31.7074L46.8769 31.0174L46.7903 30.9621H46.7879Z" fill="#FFF8EE"/>
<path d="M32.6293 41.1904L30.7878 40.0339C30.6315 39.9714 30.4921 39.7766 30.5883 39.4088C30.658 39.1467 30.8407 38.9111 31.0883 38.7692L31.7013 38.4158C32.0451 38.2187 32.3841 37.8604 32.6317 37.4373L33.3457 35.5234C34.0525 33.6361 35.3603 31.9026 36.7571 31.001C36.8436 30.9457 36.9302 30.8928 37.0167 30.8423L40.594 28.777C40.6829 28.7265 40.7719 28.6784 40.8584 28.6327C41.8321 28.1375 42.772 28.0846 43.5125 28.4765H43.5173L43.5606 28.5005C43.6062 28.527 43.6495 28.5558 43.6928 28.5847L45.7435 29.8782L44.8612 30.1162L45.0054 30.3614C45.2242 30.472 45.5247 30.4336 45.842 30.2508L46.4839 29.8806C46.6378 29.7916 46.794 29.782 46.9142 29.8565L48.8182 31.0539L48.8303 31.1356C48.8327 31.1837 48.811 31.2294 48.775 31.2582L47.2821 32.4219L46.1137 31.3544L45.967 31.4386C45.2963 31.8256 44.6448 31.8641 44.1832 31.5443L44.1087 31.4794L43.5005 30.4336L42.5412 30.6572L37.8581 33.3644L35.8051 36.5405L34.9588 39.1347L33.5597 40.4114L32.6389 41.188L32.6293 41.1904ZM42.4283 28.4693C41.9739 28.4693 41.4787 28.5991 40.9714 28.8563C40.8873 28.8996 40.8031 28.9453 40.719 28.9934L37.1417 31.0587C37.0576 31.1068 36.9759 31.1572 36.8941 31.2101C35.5406 32.0829 34.2713 33.7683 33.5837 35.61L32.8601 37.5431C32.5812 38.0239 32.2086 38.4134 31.8288 38.6322L31.2157 38.9856C31.0258 39.0962 30.8864 39.2717 30.8335 39.4713C30.7902 39.6372 30.8118 39.7718 30.884 39.7983L30.9104 39.8103L32.6077 40.8754L33.3818 40.2214L34.7281 38.9928L35.5743 36.4178L37.6706 33.1769L37.6971 33.1624L42.4571 30.4167L43.5437 30.1643L43.6471 30.21L43.6784 30.2508L44.3203 31.3424C44.7001 31.6044 45.253 31.5612 45.8348 31.227L46.1425 31.0491L47.2893 32.0973L48.4937 31.1572L46.7748 30.0753C46.7387 30.0537 46.6738 30.0633 46.6041 30.1042L45.9622 30.4744C45.5511 30.7125 45.1448 30.7461 44.8443 30.5682L44.8155 30.5514L44.4669 29.9503L45.1256 29.7916L43.5534 28.7986C43.5125 28.7722 43.4764 28.7481 43.4404 28.7265L43.4259 28.7193C43.1278 28.5534 42.7913 28.4717 42.4283 28.4717V28.4693Z" fill="#F6AC1F"/>
<path d="M44.2102 31.4166L46.0806 32.5899C46.0806 32.5899 46.0974 32.5899 46.095 32.5803L45.7344 31.1113L44.0492 30.1279H43.7559V30.6376L44.2078 31.4142L44.2102 31.4166Z" fill="#FFDDAB"/>
<path d="M46.0974 32.7438L46.0133 32.7005L44.1165 31.508L43.6309 30.6737V30.0029H44.0828L45.8426 31.0296L46.2345 32.6332L46.095 32.7438H46.0974ZM44.304 31.3277L45.9027 32.3327L45.6238 31.1955L44.0155 30.2578H43.8833V30.6064L44.304 31.3277Z" fill="#F6AC1F"/>
<path d="M48.3899 32.1234L47.748 32.4936C47.1206 32.8567 46.522 32.8975 46.0989 32.6042L46.0628 32.5778L45.4185 31.4718C44.88 30.5461 43.8439 30.3274 42.7139 30.8996C42.6442 30.9356 42.5745 30.9717 42.5048 31.0126L38.9275 33.0779C38.8602 33.1163 38.7905 33.1596 38.7232 33.2029C37.6318 33.9073 36.6076 35.273 36.0475 36.7685L35.271 38.8458L35.2349 38.9131C34.8142 39.6704 34.2276 40.3004 33.6146 40.6538L32.9535 41.0361C32.7227 41.1707 32.5352 41.0625 32.5352 40.7932C32.5352 40.5264 32.7227 40.1994 32.9535 40.0671L33.6146 39.6849C33.9776 39.4757 34.331 39.103 34.5906 38.6606L35.3142 36.7276C36.0114 34.8643 37.3 33.1548 38.6751 32.2676C38.7593 32.2123 38.8434 32.1618 38.9275 32.1137L42.5048 30.0485C42.5913 29.998 42.6779 29.9523 42.7644 29.909C44.1924 29.1829 45.4954 29.4522 46.1686 30.6087L46.7576 31.6233C47.0172 31.7771 47.3778 31.7435 47.748 31.5295L48.3899 31.1592C48.6207 31.0246 48.8082 31.1328 48.8082 31.4021C48.8082 31.669 48.6207 31.9959 48.3899 32.1282V32.1234Z" fill="#F6AC1F"/>
<path d="M32.764 41.2213C32.7015 41.2213 32.6438 41.2069 32.5933 41.1756C32.4755 41.1083 32.4082 40.9688 32.4082 40.7957C32.4082 40.4832 32.6198 40.1153 32.8914 39.959L33.5525 39.5768C33.8963 39.3796 34.2353 39.0214 34.4829 38.5982L35.1969 36.6844C35.9037 34.797 37.2115 33.0635 38.6083 32.1619C38.6948 32.1066 38.7814 32.0537 38.8679 32.0032L42.4451 29.9379C42.5341 29.8875 42.6231 29.8394 42.7096 29.7937C44.2025 29.0363 45.5704 29.3224 46.2796 30.5414L46.8518 31.5248C47.0706 31.6378 47.3711 31.5969 47.6884 31.4142L48.3303 31.0439C48.4817 30.9574 48.6356 30.9453 48.7534 31.0151C48.8712 31.0824 48.9385 31.2218 48.9385 31.3974C48.9385 31.7099 48.727 32.0778 48.4553 32.234L47.8134 32.6043C47.1427 32.9914 46.4912 33.0299 46.0296 32.7101L45.9551 32.6452L45.3108 31.5392C44.8083 30.6761 43.8371 30.4765 42.7721 31.0175C42.7048 31.0511 42.6375 31.0872 42.5702 31.1281L38.9929 33.1934C38.9256 33.2318 38.8607 33.2727 38.7934 33.316C37.7236 34.006 36.7187 35.3476 36.1682 36.819L35.3916 38.8963L35.346 38.9805C34.9156 39.7547 34.3074 40.4062 33.6775 40.7693L33.0164 41.1516C32.9323 41.1997 32.8457 41.2261 32.764 41.2261V41.2213ZM44.2746 29.6326C43.8227 29.6326 43.3298 29.76 42.8202 30.0197C42.736 30.063 42.6519 30.1087 42.5678 30.1567L38.9905 32.222C38.9064 32.2701 38.8246 32.3206 38.7429 32.3735C37.3894 33.2463 36.1201 34.9317 35.4325 36.7734L34.7089 38.7064C34.43 39.1873 34.0574 39.5768 33.6775 39.7956L33.0164 40.1778C32.8241 40.2884 32.6606 40.5721 32.6606 40.7957C32.6606 40.8751 32.6823 40.9352 32.7207 40.9568C32.7592 40.9785 32.8217 40.9664 32.8914 40.928L33.5525 40.5457C34.1439 40.2043 34.7161 39.5888 35.1248 38.8531L35.1608 38.7857L35.9302 36.7253C36.4999 35.2058 37.5433 33.8161 38.6539 33.0972C38.7237 33.0515 38.7934 33.0106 38.8631 32.9698L42.4403 30.9045C42.5125 30.8636 42.5846 30.8251 42.6543 30.7891C43.8491 30.1832 44.9502 30.4188 45.5247 31.4094L46.169 32.5009C46.5489 32.763 47.1018 32.7197 47.6836 32.3831L48.3255 32.0129C48.5178 31.9023 48.6813 31.6185 48.6813 31.3949C48.6813 31.3156 48.6596 31.2555 48.6212 31.2339C48.5827 31.2122 48.5202 31.2242 48.4505 31.2627L47.8086 31.633C47.3975 31.871 46.9888 31.9047 46.6907 31.7267L46.6619 31.7099L46.056 30.6689C45.6594 29.986 45.0247 29.6326 44.2722 29.6326H44.2746Z" fill="#F6AC1F"/>
<path d="M28.3583 43.8542L26.4975 42.7578H26.4951C26.3725 42.6833 26.2091 42.6833 26.0312 42.7867L24.3339 43.7676C23.9492 43.9888 23.6367 44.5851 23.6367 45.0996V45.4891L25.4975 46.5782L27.0433 45.34L28.3679 43.9191C28.3871 43.8999 28.3823 43.8662 28.3583 43.8542Z" fill="#FFDDAB"/>
<path d="M28.3583 44.549L26.4975 43.4526H26.4951C26.3725 43.3781 26.2091 43.3781 26.0312 43.4815L24.3339 44.4624C23.9492 44.6836 23.6367 45.2799 23.6367 45.7944V46.1839L25.4975 47.2731L27.0433 46.0348L28.3679 44.6139C28.3871 44.5947 28.3823 44.561 28.3583 44.549Z" fill="#FFF8EE"/>
<path d="M25.5095 46.7295L23.5117 45.5586V45.0969C23.5117 44.5343 23.8459 43.902 24.2714 43.6568L25.9687 42.6758C26.1514 42.57 26.3317 42.5484 26.4879 42.6133H26.4928L26.5625 42.6494L28.4232 43.7457C28.4665 43.7722 28.4977 43.8154 28.5049 43.8659C28.5122 43.9164 28.4977 43.9669 28.4617 44.0054L27.137 45.4263L25.5095 46.7295ZM23.7641 45.4167L25.4879 46.4265L26.9664 45.2436L28.2068 43.9116L26.5048 42.909L26.4351 42.8706C26.3221 42.8008 26.1898 42.8489 26.1009 42.8994L24.4036 43.8804C24.0598 44.0775 23.769 44.6377 23.769 45.1017V45.4167H23.7641Z" fill="#F6AC1F"/>
<path d="M28.5897 44.7921L25.498 46.5785V46.189C25.498 45.6769 25.8106 45.0806 26.1952 44.857L27.8925 43.8761C28.2771 43.6549 28.5897 43.8905 28.5897 44.4026V44.7921Z" fill="#F6AC1F"/>
<path d="M25.3696 46.7971V46.1888C25.3696 45.6262 25.7038 44.9938 26.1293 44.7486L27.8265 43.7677C28.0357 43.6474 28.2424 43.6354 28.4083 43.7316C28.6006 43.8422 28.7112 44.0874 28.7112 44.4048V44.8664L25.3672 46.7971H25.3696ZM28.1679 43.9191C28.091 43.9191 28.0141 43.9528 27.954 43.9865L26.2567 44.9674C25.9129 45.1646 25.622 45.7248 25.622 46.1888V46.3595L28.4612 44.7198V44.4048C28.4612 44.1836 28.3939 44.0153 28.2833 43.9504C28.2448 43.9287 28.2064 43.9191 28.1655 43.9191H28.1679Z" fill="#F6AC1F"/>
<path d="M56.3388 27.7165L54.478 26.6201H54.4756C54.353 26.5456 54.1895 26.5456 54.0116 26.649L52.3144 27.6299C51.9297 27.8511 51.6172 28.4474 51.6172 28.9619V29.3514L53.4779 30.4405L55.0237 29.2023L56.3484 27.7814C56.3676 27.7622 56.3628 27.7285 56.3388 27.7165Z" fill="#FFDDAB"/>
<path d="M54.4514 27.3003H54.449C54.3264 27.2258 54.1629 27.2258 53.985 27.3291L52.2877 28.3101C52.1651 28.3798 52.0497 28.4904 51.9512 28.6227L54.1605 29.8729L54.9995 29.2021L55.1942 28.9929L55.312 28.4471L55.6991 28.0336L54.4538 27.3003H54.4514Z" fill="#FFF8EE"/>
<path d="M56.5721 28.6544L53.4805 30.4408V30.0513C53.4805 29.5392 53.793 28.9429 54.1776 28.7193L55.8749 27.7384C56.2596 27.5172 56.5721 27.7528 56.5721 28.2649V28.6544Z" fill="#F6AC1F"/>
<path d="M56.6985 28.2649C56.6985 27.9475 56.5879 27.7023 56.3956 27.5917C56.3811 27.5845 56.3667 27.5821 56.3523 27.5749L54.5468 26.5098L54.4747 26.4713H54.4699C54.3137 26.4136 54.1333 26.4352 53.953 26.5386L52.2558 27.5196C51.8303 27.7648 51.4961 28.3995 51.4961 28.9597V29.4214L53.3568 30.5105L53.4818 30.585L53.4939 30.5923L53.554 30.5442L56.7009 28.7265V28.2649H56.6985ZM56.1504 27.7816C56.1504 27.7816 56.1672 27.7816 56.1744 27.784L54.9459 29.104L53.6045 30.1763V30.0513C53.6045 29.5873 53.8953 29.0271 54.2391 28.8299L55.9364 27.849C55.9965 27.8153 56.0734 27.7816 56.1504 27.7816ZM51.7461 29.2771V28.9621C51.7461 28.4981 52.037 27.9379 52.3808 27.7408L54.0781 26.7598C54.167 26.7069 54.2992 26.6612 54.4122 26.731L54.4843 26.7742L55.8835 27.5989C55.8595 27.6109 55.833 27.6181 55.809 27.6326L54.1117 28.6135C53.6862 28.8588 53.352 29.4935 53.352 30.0537V30.222L51.7437 29.2819L51.7461 29.2771ZM56.4461 28.5799L54.857 29.4983L55.119 29.2867L56.3763 27.9379C56.4196 28.0221 56.4461 28.1327 56.4461 28.2649V28.5799Z" fill="#F6AC1F"/>
<path d="M24.0195 40.2646C24.0195 40.2646 28.8733 41.8057 30.0032 45.7969L34.7801 43.0319C34.7801 43.0319 33.1309 38.5479 29.3998 37.4131L24.0195 40.267V40.2646Z" fill="#FFDDAB"/>
<path d="M29.929 45.9866L29.8834 45.8303C28.7847 41.9498 24.0295 40.399 23.9814 40.3846L23.6953 40.2932L29.3881 37.2734L29.4386 37.2879C33.1865 38.4275 34.8838 42.938 34.9006 42.9836L34.9367 43.0846L29.9266 45.9842L29.929 45.9866ZM24.3324 40.2427C25.3661 40.6394 29.0347 42.2551 30.0805 45.6067L34.6242 42.9764C34.3573 42.32 32.7033 38.5814 29.4146 37.5475L24.3324 40.2427Z" fill="#F6AC1F"/>
<path d="M22.7379 51.0262C22.7379 51.0262 21.1945 48.3863 22.0527 46.5783C22.911 44.7702 24.1491 46.9702 24.1491 46.9702L27.998 45.5757C27.998 45.5757 28.0196 45.5853 28.0124 45.5925C27.873 45.7512 27.3128 46.4557 27.6975 47.1457L22.7355 51.0262H22.7379Z" fill="#FFDDAB"/>
<path d="M22.6985 51.2163L22.6264 51.0912C22.5615 50.9806 21.0589 48.372 21.9364 46.5255C22.1792 46.0158 22.4797 45.7513 22.8331 45.7393C23.4606 45.7225 24.028 46.5351 24.2035 46.8164L28.0475 45.4243L28.1726 45.5902L28.1077 45.6768C27.9971 45.8042 27.461 46.4654 27.8071 47.0857L27.86 47.1795L22.6985 51.2139V51.2163ZM22.8572 45.9917C22.8572 45.9917 22.8476 45.9917 22.8404 45.9917C22.5903 46.0013 22.3619 46.2153 22.1624 46.6337C21.446 48.1412 22.4846 50.2954 22.773 50.8364L27.5355 47.1121C27.3143 46.6193 27.5042 46.1336 27.6893 45.821L24.0881 47.1242L24.0352 47.0304C23.8717 46.7395 23.3428 45.9893 22.8548 45.9893L22.8572 45.9917Z" fill="#F6AC1F"/>
<path d="M22.7829 45.8596L26.3193 44.6406C26.3193 44.6406 27.6295 44.4122 28.0478 45.559L24.1532 46.968C24.1532 46.968 23.5738 46.0567 22.7853 45.9221C22.7517 45.9173 22.7517 45.8692 22.7829 45.8596Z" fill="#FFDDAB"/>
<path d="M26.3063 45.2415L23.5488 46.1912C23.9455 46.4989 24.1979 46.8957 24.1979 46.8957L27.6958 45.6286C27.1453 45.0972 26.3063 45.2415 26.3063 45.2415Z" fill="#FFF8EE"/>
<path d="M24.0981 47.1216L24.0428 47.0351C24.0428 47.0351 23.485 46.1695 22.7614 46.0469C22.6917 46.0349 22.6364 45.9772 22.6316 45.9051C22.6244 45.8329 22.6701 45.7632 22.7374 45.7392L26.2738 44.5202C26.3074 44.513 27.7114 44.2822 28.1609 45.5132L28.2042 45.6334L24.0957 47.1216H24.0981ZM23.1004 45.8834C23.6485 46.1022 24.0548 46.6143 24.1991 46.8163L27.8773 45.4843C27.4566 44.5827 26.3867 44.7582 26.3387 44.7654L23.1004 45.881V45.8834Z" fill="#F6AC1F"/>
<path d="M33.876 43.5537C33.876 43.5537 33.311 40.8705 35.6045 38.8533L40.1746 38.8076C40.1746 38.8076 38.6432 39.666 38.5206 40.8633L33.876 43.5537Z" fill="#FFDDAB"/>
<path d="M38.5226 40.928C38.5634 40.5168 38.7726 40.1466 39.0274 39.8364L36.4142 39.8629C35.1881 40.9424 34.7795 42.2119 34.6641 43.1616L38.5226 40.928Z" fill="#FFF8EE"/>
<path d="M33.7911 43.7508L33.7551 43.5801C33.7503 43.5536 33.2021 40.8007 35.522 38.7595L35.5581 38.7282L40.6691 38.6777L40.2388 38.9206C40.2244 38.9278 38.7627 39.7621 38.6497 40.8801L38.6425 40.945L33.7911 43.7532V43.7508ZM35.6543 38.9807C33.8152 40.6252 33.9041 42.7338 33.9762 43.3517L38.4045 40.7863C38.5247 39.94 39.2772 39.274 39.7436 38.9398L35.6519 38.9807H35.6543Z" fill="#F6AC1F"/>
<path d="M44.4637 37.4416C44.4637 37.4416 44.7305 36.2419 43.7689 35.5542C43.1583 35.119 42.8073 34.958 42.6294 34.9003C42.5885 34.8858 42.5909 34.8305 42.6294 34.8161L48.464 32.8037C48.464 32.8037 49.7069 33.2197 49.6588 34.4314L44.4613 37.4392L44.4637 37.4416Z" fill="#FFDDAB"/>
<path d="M48.956 34.8235C48.6218 34.2152 47.9415 33.9868 47.9415 33.9868L43.7344 35.4366C43.7656 35.4582 43.7945 35.4775 43.8281 35.5015C44.7898 36.1892 44.5229 37.3889 44.5229 37.3889L48.9536 34.8235H48.956Z" fill="#FFF8EE"/>
<path d="M44.2781 37.6968L44.3406 37.4155C44.3502 37.3698 44.5762 36.2879 43.6939 35.658C43.0785 35.218 42.7371 35.0713 42.5881 35.0208C42.5183 34.9968 42.4727 34.9343 42.4727 34.8597C42.4727 34.7852 42.5183 34.7203 42.5881 34.6963L48.4636 32.6694L48.5044 32.6839C48.5189 32.6887 49.8387 33.1431 49.7858 34.4366V34.5063L44.2781 37.6944V37.6968ZM42.8765 34.867C43.0905 34.9655 43.403 35.141 43.8406 35.4536C44.5858 35.9874 44.6459 36.7928 44.6195 37.2063L49.5334 34.3621C49.5286 33.422 48.6559 33.0205 48.4612 32.9411L42.8765 34.867Z" fill="#F6AC1F"/>
<path d="M56.0796 26.197C56.0796 26.197 56.534 23.4778 54.541 21.6794L60.3853 19.9194C60.3853 19.9194 61.8301 22.8767 61.0031 24.853C60.1785 26.827 58.3226 25.7282 58.3226 25.7282L56.0796 26.1994V26.197Z" fill="#FFDDAB"/>
<path d="M55.9238 26.3582L55.9551 26.1755C55.9599 26.149 56.3734 23.5019 54.4549 21.7708L54.2891 21.6217L60.4507 19.7656L60.4987 19.8618C60.5588 19.9844 61.958 22.8936 61.1214 24.8988C60.8642 25.5143 60.4843 25.9086 59.9891 26.0721C59.2462 26.3197 58.4938 25.9591 58.3038 25.8581L55.9262 26.3582H55.9238ZM54.7867 21.7371C56.3445 23.2831 56.2844 25.4109 56.2267 26.0384L58.3447 25.5912L58.388 25.6153C58.388 25.6153 59.1813 26.0745 59.9122 25.8317C60.3329 25.6922 60.6622 25.346 60.8882 24.8026C61.5998 23.1004 60.5516 20.5927 60.3184 20.071L54.7891 21.7371H54.7867Z" fill="#F6AC1F"/>
<path d="M56.0768 30.7194C56.0768 30.7194 54.5886 26.4109 57.8173 23.6147H63.7745C63.7745 23.6147 61.1685 25.7498 61.4234 28.0915L56.0768 30.7194Z" fill="#FFDDAB"/>
<path d="M58.9477 25.0283C57.0581 26.6656 56.784 28.8199 56.8826 30.325L61.3878 28.1106C61.2604 26.9566 61.8325 25.8506 62.4432 25.0283H58.9477Z" fill="#FFF8EE"/>
<path d="M56.0035 30.8949L55.9578 30.7603C55.9434 30.717 54.4794 26.3388 57.7344 23.5186L57.7705 23.4873H64.1292L63.8552 23.7109C63.8287 23.7325 61.3045 25.8315 61.5497 28.0747L61.5593 28.1637L56.0035 30.8949ZM57.8643 23.7422C55.102 26.1705 55.941 29.7914 56.155 30.5415L61.2901 28.017C61.1338 26.0887 62.7902 24.348 63.4417 23.7422H57.8643Z" fill="#F6AC1F"/>
<path d="M19.4021 61.4608L18.4453 64.709C18.4453 64.709 18.6448 66.6709 21.2124 66.618V60.9607L19.4767 60.5952L19.4021 61.4632V61.4608Z" fill="#FFDDAB"/>
<path d="M21.2271 66.6612V62.4489L19.7846 62.1436L19.7101 63.0115L18.9023 65.75C19.2774 66.226 19.9649 66.6853 21.2271 66.6588V66.6612Z" fill="#FFF8EE"/>
<path d="M21.1138 66.7454C18.5559 66.7454 18.3227 64.7426 18.3203 64.721V64.697L18.3251 64.6729L19.2771 61.4367L19.3637 60.439L21.3398 60.8549V66.7382H21.2172C21.1835 66.7406 21.1475 66.7406 21.1138 66.7406V66.7454ZM18.5751 64.7186C18.6064 64.9374 18.9045 66.481 21.0874 66.493V61.0641L19.5921 60.7491L19.5247 61.4993L18.5751 64.721V64.7186Z" fill="#F6AC1F"/>
<path d="M21.2133 60.9607C21.2133 60.9607 17.814 61.5449 17.1336 63.1269L14.7344 58.2799L21.2133 56.6401V60.9582V60.9607Z" fill="#FFDDAB"/>
<path d="M17.14 63.4274L14.5508 58.1957L21.3398 56.479V61.0664L21.2341 61.0856C21.2004 61.0904 17.8948 61.6771 17.2481 63.1774L17.14 63.4298V63.4274ZM14.9162 58.364L17.1351 62.848C17.9501 61.528 20.5225 60.963 21.085 60.8548V56.8036L14.9138 58.364H14.9162Z" fill="#F6AC1F"/>
<path d="M21.6256 53.4498C21.6256 53.4498 20.1688 55.8853 17.6926 54.7841C15.2188 53.683 14.4615 51.5552 14.4615 51.5552L12.6465 57.3303C12.6465 57.3303 16.9017 61.9345 21.217 57.9939C21.217 57.9939 21.479 54.9116 21.6256 53.4498Z" fill="#FFDDAB"/>
<path d="M18.1622 56.3925C15.6885 55.2914 14.9312 53.1636 14.9312 53.1636L13.4238 57.9601C14.8086 59.0685 18.03 60.9583 21.2851 57.9842C21.2851 57.9842 21.3741 56.9503 21.475 55.7939C20.8259 56.4046 19.6864 57.0706 18.1622 56.3925Z" fill="#FFF8EE"/>
<path d="M17.4788 59.7055C14.7117 59.7055 12.5793 57.4478 12.5505 57.4166L12.5 57.3637L14.4497 51.1582L14.5771 51.514C14.5843 51.5357 15.3488 53.6058 17.7408 54.6709C20.0848 55.7143 21.4984 53.411 21.5128 53.387L21.8037 52.9013L21.746 53.4639C21.6018 54.9065 21.3397 57.9744 21.3373 58.0056L21.3325 58.0561L21.2965 58.0898C19.9838 59.2895 18.6712 59.7103 17.4788 59.7103V59.7055ZM12.7861 57.2964C13.2909 57.8157 17.1326 61.5063 21.0921 57.9311C21.1234 57.5705 21.3157 55.3176 21.4527 53.8895C20.9022 54.5459 19.5607 55.7528 17.6375 54.8993C15.6902 54.0337 14.7911 52.5623 14.4761 51.9156L12.7837 57.2964H12.7861Z" fill="#F6AC1F"/>
<path d="M21.215 65.3267C21.215 65.3267 19.8375 68.0676 17.6907 67.0409C15.5438 66.0143 13.51 66.2595 12.6445 67.2717L13.772 72.1332C13.772 72.1332 15.4212 70.1401 17.6209 71.1018C19.8206 72.0635 20.6116 71.3085 21.2126 70.4839V65.3267H21.215Z" fill="#FFDDAB"/>
<path d="M13.7074 72.4098L12.5078 67.2357L12.5487 67.1877C13.5151 66.0576 15.7004 65.947 17.7463 66.9256C19.756 67.8873 21.0494 65.3748 21.1023 65.269L21.3427 64.793V70.5224L21.3187 70.5561C20.7032 71.4 19.857 72.215 17.5732 71.2148C15.4864 70.3012 13.8877 72.191 13.8709 72.2102L13.7074 72.4074V72.4098ZM12.7843 67.3055L13.8445 71.876C14.3301 71.3976 15.8206 70.1738 17.6741 70.9864C19.7561 71.8977 20.5109 71.2269 21.0903 70.4431V65.7811C20.5927 66.5217 19.3474 67.9739 17.6381 67.1564C15.4744 66.1225 13.5776 66.4471 12.7843 67.3079V67.3055Z" fill="#F6AC1F"/>
<path d="M21.2164 74.5786C21.2164 74.5786 18.9301 75.5692 18.4493 73.439L17.1367 77.8388C17.1367 77.8388 17.9661 80.3874 21.2164 78.8126V74.5786Z" fill="#FFDDAB"/>
<path d="M18.6192 74.8984L17.5254 78.5626C18.0615 79.1637 19.1433 79.7623 21.1507 78.791V76.1222C20.5569 76.3074 19.0039 76.6103 18.6168 74.8984H18.6192Z" fill="#FFF8EE"/>
<path d="M19.2974 79.4546C18.944 79.4546 18.6146 79.3897 18.3141 79.2623C17.3405 78.8487 17.0279 77.9183 17.0159 77.8798L17.0039 77.8413L17.0159 77.8029L18.468 72.939L18.5738 73.4102C18.6964 73.9536 18.9512 74.3262 19.3334 74.521C20.1051 74.9129 21.1557 74.4681 21.1677 74.4633L21.3432 74.3864V78.892L21.2711 78.9257C20.5451 79.2767 19.8864 79.4522 19.2974 79.4522V79.4546ZM17.2684 77.8365C17.3333 78.0024 17.6482 78.7069 18.4151 79.0314C19.1291 79.3344 20.0282 79.2334 21.0884 78.7333V74.7614C20.7302 74.8816 19.9008 75.0932 19.218 74.747C18.8719 74.5715 18.6146 74.2782 18.4511 73.8742L17.2684 77.8365Z" fill="#F6AC1F"/>
<path d="M64.2949 36.1388C64.2949 36.1388 64.6315 32.9435 67.8481 33.2681C71.0647 33.5927 68.7112 32.5107 68.7112 32.5107L70.7209 32.2222L68.0765 29.0966C68.0765 29.0966 64.5161 26.2307 61.6312 29.3707C58.7439 32.5107 64.2949 36.1388 64.2949 36.1388Z" fill="#FFDDAB"/>
<path d="M64.3974 36.3575L64.2243 36.2445C64.0921 36.1579 60.9933 34.107 60.6952 31.7075C60.5846 30.8276 60.8682 30.0149 61.539 29.2864C64.4719 26.0959 68.1213 28.9715 68.1574 29.0003L70.9677 32.3158L69.1262 32.5803C69.4315 32.7558 69.72 32.9818 69.6623 33.1934C69.6094 33.3881 69.3522 33.5468 67.8376 33.393C64.7821 33.0852 64.4359 36.0257 64.4214 36.1507L64.3998 36.355L64.3974 36.3575ZM64.7748 28.0194C63.8012 28.0194 62.7242 28.3704 61.7217 29.4595C61.1063 30.1303 60.8442 30.8757 60.9428 31.6787C61.1904 33.6598 63.556 35.4679 64.2003 35.9247C64.3469 35.2082 65.0417 32.864 67.8593 33.1453C69.2416 33.2848 69.4051 33.1381 69.4195 33.1213C69.4003 33.0467 69.0396 32.8039 68.6574 32.6284L68.2679 32.4481L70.4773 32.1307L67.9795 29.1806C67.9001 29.1181 66.4986 28.017 64.7748 28.017V28.0194Z" fill="#F6AC1F"/>
<path d="M68.0899 29.1303C68.2101 29.3996 68.9722 31.323 67.0273 32.4098L69.8569 36.776C69.8569 36.776 71.2441 35.4295 71.095 32.6646L68.0996 29.1255C68.0996 29.1255 68.0899 29.1255 68.0923 29.1303H68.0899Z" fill="#FFDDAB"/>
<path d="M68.5136 31.2246C68.5136 31.2246 68.5039 31.2246 68.5064 31.2294C68.6097 31.465 69.2035 32.9533 68.0664 34.0521L69.8142 36.7521C69.8142 36.7521 70.6965 35.8913 70.9777 34.1386L68.5112 31.227L68.5136 31.2246Z" fill="#FFF8EE"/>
<path d="M69.8335 36.973L66.8477 32.364L66.9655 32.2991C68.7877 31.2821 68.1266 29.5245 67.9752 29.1831L67.9319 29.0821L68.1218 28.9619L68.1987 29.0485L71.2206 32.6188V32.6621C71.3745 35.4535 70.0042 36.8143 69.9465 36.8696L69.8359 36.9778L69.8335 36.973ZM67.2059 32.4529L69.872 36.5691C70.1821 36.194 71.0764 34.9125 70.9706 32.715L68.3911 29.6664C68.5473 30.3997 68.5569 31.6331 67.2059 32.4529Z" fill="#F6AC1F"/>
<path d="M64.9101 32.6646L64.8115 29.7217L62.6311 28.5244L62.4363 28.4138C61.756 27.9594 60.84 27.9642 59.8375 28.5436L25.0244 48.6988C22.9232 49.913 21.2188 53.1684 21.2188 55.9718V80.7384C21.2188 81.9911 21.5625 82.9335 22.1275 83.4913L25.0244 85.1912L27.4669 77.7956L33.8112 71.5444L53.8466 59.922C55.9478 58.7079 57.6523 55.4525 57.6523 52.6491V41.183L61.1069 34.2442L64.9125 32.6622L64.9101 32.6646Z" fill="#FFDDAB"/>
<path d="M64.7454 30.751L62.5649 29.5537L62.3702 29.4431C61.6898 28.9887 60.7739 28.9935 59.7714 29.5729L24.9582 49.7281C23.6576 50.4782 22.5133 52.0098 21.8281 53.7337L28.2133 57.3978L36.589 69.5756L53.9632 59.4967C55.6508 58.523 57.0788 56.2317 57.5789 53.9164C57.5813 53.837 57.5885 53.7553 57.5885 53.676V42.2099L57.7712 41.8444V40.7577L61.2258 33.8189L64.8031 32.333L64.7502 30.7486L64.7454 30.751Z" fill="#FFF8EE"/>
<path d="M25.0911 85.3814L22.0331 83.583C21.4225 82.9771 21.0859 81.9673 21.0859 80.7387V55.9721C21.0859 53.1326 22.8217 49.8219 24.9541 48.5885L59.7672 28.4333C60.7794 27.8491 61.7506 27.8034 62.5007 28.3059L62.6882 28.4117L64.9312 29.6427L65.0369 32.7442L61.1929 34.3406L57.7719 41.2097V52.6445C57.7719 55.484 56.0361 58.7947 53.9038 60.0281L33.8827 71.6409L27.5721 77.8584L25.0887 85.3742L25.0911 85.3814ZM22.2014 83.3906L24.9493 85.0039L27.3533 77.7261L27.375 77.7045L33.7433 71.4341L53.7787 59.8117C55.8438 58.6192 57.5219 55.4071 57.5219 52.6469V41.152L57.5363 41.1256L61.0125 34.1435L64.7821 32.5783L64.6884 29.7965L62.3733 28.5223C61.6977 28.0702 60.8226 28.1183 59.8995 28.6521L25.0863 48.8073C23.0212 49.9998 21.3432 53.2119 21.3432 55.9721V80.7387C21.3432 81.8928 21.6485 82.8328 22.2038 83.3906H22.2014Z" fill="#F6AC1F"/>
<path d="M62.402 64.8819L27.5888 85.0371C25.4877 86.2512 23.7832 84.9625 23.7832 82.1591V57.3925C23.7832 54.5891 25.4877 51.3337 27.5888 50.1195L62.402 29.9643C64.5032 28.7501 66.2076 30.0388 66.2076 32.8422V57.6089C66.2076 60.4123 64.5032 63.6677 62.402 64.8819Z" fill="#F6AC1F"/>
<path d="M23.7812 57.39V59.3639C23.7812 59.3639 25.8872 60.4002 28.9163 58.5537C31.9454 56.7048 32.3109 55.6974 32.3109 55.6974L31.9214 52.8098C31.9214 52.8098 30.9742 50.1964 28.9163 49.3477L27.5869 50.117C25.4857 51.3312 23.7812 54.5866 23.7812 57.39Z" fill="#F6AC1F"/>
<path d="M25.3752 59.785C24.3751 59.785 23.774 59.4989 23.726 59.4773L23.6562 59.4436V57.3928C23.6562 54.5533 25.392 51.2426 27.5244 50.0116L28.9067 49.2109L28.9644 49.235C31.0511 50.0957 32.0007 52.6611 32.0392 52.7693L32.0464 52.7957L32.4407 55.7121L32.4311 55.741C32.4166 55.7843 32.0152 56.8133 28.9836 58.6622C27.5292 59.5494 26.2863 59.7874 25.3752 59.7874V59.785ZM23.9087 59.2777C24.2957 59.4292 26.2286 60.0423 28.8514 58.4434C31.5223 56.8133 32.0993 55.842 32.181 55.6761L31.7988 52.839C31.7267 52.6491 30.7987 50.2977 28.9259 49.4874L27.6518 50.2255C25.5891 51.4181 23.9087 54.6302 23.9087 57.3879V59.2777Z" fill="#FFDDAB"/>
<path d="M28.9163 78.1465C25.8872 79.9954 23.7812 78.9568 23.7812 78.9568V82.1593C23.7812 84.9627 25.4857 86.2514 27.5869 85.0372L30.5751 83.3061C31.5343 82.4478 31.919 80.3825 31.919 80.3825C31.919 80.3825 31.4935 77.7618 31.2314 76.5044C30.7242 76.942 29.9885 77.4902 28.9115 78.1465H28.9163Z" fill="#F6AC1F"/>
<path d="M26.0732 85.6213C25.6982 85.6213 25.3472 85.5299 25.0323 85.3496C24.1572 84.8447 23.6523 83.681 23.6523 82.1615V78.757L23.8351 78.846C23.8567 78.8556 25.9218 79.8269 28.8475 78.0406C29.7827 77.4707 30.5568 76.9226 31.1506 76.4104L31.3141 76.271L31.3574 76.4826C31.6146 77.7304 32.0401 80.3415 32.0449 80.3679L32.0497 80.3895L32.0449 80.4112C32.0281 80.4977 31.6386 82.5294 30.6602 83.4069L30.6385 83.4214L27.6503 85.1525C27.1046 85.4674 26.5685 85.6261 26.0732 85.6261V85.6213ZM23.9072 79.1465V82.1615C23.9072 83.5897 24.3639 84.6716 25.1597 85.1308C25.8112 85.5059 26.6502 85.4338 27.5229 84.9313L30.4991 83.2074C31.3574 82.4284 31.7468 80.6011 31.7901 80.3847C31.7492 80.1395 31.3958 77.9756 31.1506 76.7422C30.5712 77.2231 29.8428 77.7328 28.9797 78.2593C26.4002 79.8342 24.489 79.3605 23.9048 79.1513L23.9072 79.1465Z" fill="#FFDDAB"/>
<path d="M62.399 30.0151L57.8145 32.6694C59.8699 33.5205 60.8147 36.1292 60.8147 36.1292L61.1513 38.6176L63.7741 38.495C63.7741 38.495 65.5002 37.4251 66.2046 35.0881V32.893C66.2046 30.0896 64.5001 28.8009 62.399 30.0151Z" fill="#F6AC1F"/>
<path d="M61.0412 38.7474L60.6926 36.158C60.6205 35.9656 59.6757 33.5757 57.7668 32.7847L57.5312 32.6862L62.337 29.9044C63.2938 29.3514 64.2217 29.2817 64.955 29.7024C65.8325 30.2073 66.3349 31.371 66.3349 32.8905L66.3301 35.1217C65.6185 37.4779 63.9164 38.555 63.8443 38.5983L63.8155 38.6151L61.0436 38.7426L61.0412 38.7474ZM58.0914 32.6525C60.0146 33.5998 60.8969 35.9776 60.933 36.081L60.9402 36.1075L61.2599 38.4829L63.7313 38.3675C63.9477 38.2232 65.4382 37.1605 66.0753 35.0664V32.8905C66.0753 31.4624 65.6185 30.3804 64.8228 29.9212C64.1737 29.5461 63.3322 29.6159 62.4596 30.1232L58.089 32.6525H58.0914Z" fill="#FFDDAB"/>
<path d="M66.207 54.5698C65.6036 56.7481 63.7765 57.9767 63.7765 57.9767L61.7235 58.8374C61.7235 58.8374 60.8989 61.8981 60.7618 63.7254C60.6368 65.3819 59.6367 66.435 59.4492 66.6177L62.4014 64.9083C64.5026 63.6941 66.207 60.4387 66.207 57.6353V54.5698Z" fill="#F6AC1F"/>
<path d="M58.6445 67.2287L59.3609 66.5267C59.5533 66.3391 60.5149 65.3197 60.6351 63.716C60.7721 61.896 61.5943 58.8353 61.6015 58.8041L61.6184 58.744L63.7291 57.8592C63.7291 57.8592 65.5057 56.6402 66.0875 54.5364L66.3351 53.6396V57.6356C66.3351 60.4751 64.5994 63.7858 62.467 65.0168L58.6469 67.2287H58.6445ZM61.8299 58.9291C61.7145 59.3643 61.0125 62.0787 60.8875 63.7329C60.8058 64.81 60.3658 65.6371 60.0028 66.1492L62.3372 64.798C64.4022 63.6054 66.0803 60.3933 66.0803 57.6356V55.313C65.335 57.0658 63.9142 58.0371 63.8469 58.0804L61.8299 58.9291Z" fill="#FFDDAB"/>
<path d="M60.7702 63.7449L31.9191 80.3851C30.2603 81.3444 28.9141 80.325 28.9141 78.113V58.5589C28.9141 56.3445 30.2603 53.7743 31.9191 52.8174L60.7702 36.1773C62.429 35.218 63.7753 36.2374 63.7753 38.4494V58.0035C63.7753 60.2178 62.429 62.788 60.7702 63.7449Z" fill="#F6AC1F"/>
<path d="M30.7243 80.8705C30.4238 80.8705 30.1425 80.7984 29.8901 80.6517C29.1905 80.2478 28.7891 79.3222 28.7891 78.1104V58.5563C28.7891 56.3059 30.1666 53.6804 31.8566 52.7042L60.7078 36.0641C61.4722 35.6241 62.2151 35.5664 62.8017 35.9054C63.5013 36.3093 63.9027 37.235 63.9027 38.4468V58.0009C63.9027 60.2513 62.5252 62.8768 60.8352 63.8529L31.9841 80.493C31.5489 80.7431 31.121 80.8705 30.7267 80.8705H30.7243ZM61.9651 35.9415C61.6141 35.9415 61.2294 36.0569 60.8328 36.2829L31.9817 52.923C30.3589 53.8607 29.0391 56.3876 29.0391 58.5563V78.1104C29.0391 79.2284 29.3949 80.0747 30.0151 80.4305C30.52 80.7215 31.1739 80.6662 31.8542 80.2718L60.7054 63.6317C62.3281 62.6941 63.6479 60.1671 63.6479 57.9985V38.4444C63.6479 37.3264 63.2921 36.48 62.6719 36.1242C62.4579 36.0016 62.2199 35.9415 61.9627 35.9415H61.9651Z" fill="#FFDDAB"/>
<path d="M56.7144 24.6919C56.7144 24.6775 56.6952 23.1821 56.3298 22.6868L56.2168 22.5329L56.4019 22.4872C56.4019 22.4872 56.6519 22.4223 56.7721 22.2131C56.8491 22.0809 56.8611 21.9126 56.8082 21.7154L56.7769 21.5976L59.4815 20.7729V20.9437C59.4815 20.9437 59.4815 21.2634 59.6714 21.4149C59.7748 21.4966 59.9263 21.5159 60.1162 21.4726L60.2172 21.4486L60.2604 21.5423C60.2797 21.5832 60.7028 22.5449 60.5633 23.6268L60.3133 23.5932C60.4215 22.7661 60.1667 21.9943 60.0681 21.7347C59.8445 21.7659 59.6594 21.7226 59.5128 21.6072C59.3373 21.4678 59.27 21.2538 59.2435 21.1047L57.0799 21.7659C57.1159 21.9847 57.0871 22.1771 56.9909 22.3405C56.8899 22.5137 56.7361 22.6146 56.6207 22.6699C56.9524 23.3071 56.9693 24.6246 56.9693 24.6847H56.7168L56.7144 24.6919Z" fill="#F6AC1F"/>
<path d="M56.6633 30.3417C56.6273 30.2095 55.8147 27.0695 57.3749 25.1629L57.4182 25.11L57.4879 25.1172C57.5216 25.122 58.3101 25.2062 58.5914 24.4416L58.6226 24.3599H61.4065L61.2214 24.569C61.2214 24.569 61.094 24.7181 61.1228 24.9056C61.1469 25.0595 61.2671 25.2062 61.4811 25.3408L61.6109 25.4226L61.5075 25.5356C61.5075 25.5356 60.7142 26.4227 60.6781 28.226L60.4257 28.2212C60.4569 26.6704 61.0075 25.7784 61.231 25.4779C61.0219 25.3216 60.9017 25.1413 60.8728 24.9417C60.8536 24.8143 60.8776 24.7037 60.9113 24.6147H58.7957C58.4808 25.3384 57.7596 25.3769 57.5312 25.3745C56.1104 27.1873 56.9013 30.248 56.9085 30.2792L56.6633 30.3441V30.3417Z" fill="#F6AC1F"/>
<path d="M57.2725 29.9188C57.2701 29.8443 57.21 28.0892 58.5514 27.5746C58.989 27.4063 59.3544 27.4087 59.6381 27.5819C60.066 27.8415 60.1333 28.3825 60.1357 28.4065L59.8857 28.4354C59.8857 28.4354 59.828 27.9906 59.5059 27.7982C59.2919 27.6684 59.001 27.6732 58.6428 27.8127C57.4696 28.2623 57.5249 29.8948 57.5249 29.9092L57.2725 29.9212V29.9188Z" fill="#F6AC1F"/>
<path d="M66.2109 45.1865C66.2109 45.1865 70.2017 43.3087 70.721 40.7698L67.9515 37.7644C67.9226 37.7332 67.8697 37.7428 67.8577 37.7861C67.8144 37.94 67.4683 38.8127 66.2109 39.4018V45.1889V45.1865Z" fill="#FFDDAB"/>
<path d="M70.3029 41.9063L67.959 39.3626C67.9301 39.3313 67.8772 39.341 67.8652 39.3842C67.8244 39.5357 67.4806 40.3892 66.2617 40.9783V45.1882C66.2617 45.1882 69.1033 43.8514 70.3029 41.9063Z" fill="#FFF8EE"/>
<path d="M66.0859 45.3858V39.3198L66.1581 39.2861C67.4707 38.6706 67.7327 37.7594 67.7351 37.7522C67.7519 37.6897 67.8024 37.6392 67.8673 37.6248C67.9323 37.6079 67.9996 37.6296 68.0452 37.6801L70.8604 40.7335L70.8484 40.796C70.3219 43.3686 66.4321 45.2247 66.2662 45.3041L66.0859 45.3882V45.3858ZM66.3384 39.4785V44.9819C67.1077 44.5852 70.1007 42.9214 70.5863 40.8056L67.9371 37.9325C67.8169 38.2138 67.4178 38.9495 66.3384 39.4785Z" fill="#F6AC1F"/>
<path d="M69.4472 35.0836L68.2957 33.3982L68.387 33.3261C68.7981 32.9991 68.3822 32.4413 68.3654 32.4172L68.2812 32.3066L68.3991 32.2321C69.1299 31.7729 68.7693 30.1019 68.7645 30.0851L69.0121 30.0298C69.0289 30.1019 69.3847 31.744 68.6395 32.3692C68.8077 32.6457 68.9496 33.1073 68.6322 33.4439L69.44 34.6268C69.5314 34.521 69.678 34.3936 69.8631 34.3575C69.9881 34.3335 70.1107 34.3527 70.2334 34.4152C70.3536 33.9776 70.6493 32.7611 70.4281 32.059L70.6685 31.9821C70.9642 32.9222 70.4497 34.5835 70.4257 34.6532L70.3704 34.8336L70.2261 34.7133C70.1155 34.622 70.0122 34.5859 69.9112 34.6052C69.6972 34.6436 69.5482 34.9033 69.5458 34.9081L69.4448 35.0836H69.4472Z" fill="#F6AC1F"/>
<path d="M68.2252 30.1378C67.3333 29.0366 65.5423 28.8298 64.9822 28.7914C65.0543 29.2674 64.6119 29.6377 64.5927 29.6545L64.4316 29.4598C64.4316 29.4598 64.8644 29.0943 64.6961 28.7096L64.6168 28.5293H64.8139C64.9149 28.5317 67.2877 28.5774 68.4224 29.9791L68.2252 30.1378Z" fill="#F6AC1F"/>
<path d="M67.1971 32.5469H66.209V32.7993H67.1971V32.5469Z" fill="#F6AC1F"/>
<path d="M45.3984 36.9996L45.1507 36.9515C45.1507 36.9515 45.3142 36.0764 44.7613 35.5835L44.6387 35.4753L44.7757 35.3839C44.7997 35.3671 45.3623 34.9848 45.0834 34.4992L45.0065 34.3669L47.9202 33.3691L47.9611 33.4918C47.9611 33.4918 48.0524 33.7634 48.2568 33.8404C48.3722 33.8837 48.5116 33.8596 48.6703 33.7683L48.7929 33.6985L48.8506 33.8284C48.8602 33.8524 49.0982 34.3958 49.0838 34.855L48.8314 34.8478C48.841 34.5665 48.7352 34.2323 48.6679 34.0568C48.4876 34.1313 48.3193 34.1385 48.1654 34.0808C47.9587 34.0015 47.8337 33.8163 47.7712 33.6937L45.3671 34.516C45.5234 34.9367 45.2709 35.3046 45.0377 35.5066C45.5714 36.1004 45.408 36.9684 45.4008 37.0068L45.3984 36.9996Z" fill="#F6AC1F"/>
<path d="M66.2386 44.4458L66.1785 44.2006C67.7435 43.8207 69.2461 42.1281 69.5898 41.7217C69.0585 41.1784 69.2725 40.6759 69.3927 40.4787L68.6859 39.5603C68.5128 39.6997 68.3277 39.7671 68.1354 39.7598C67.9142 39.7526 67.7363 39.6492 67.6281 39.5651C67.1425 40.2311 66.2963 40.5773 66.2578 40.5917L66.1641 40.3561C66.1641 40.3561 67.0776 39.9834 67.4959 39.3078L67.5849 39.1636L67.6979 39.291C67.6979 39.291 67.8902 39.5002 68.145 39.5074C68.3013 39.5122 68.4623 39.4377 68.6138 39.2838L68.7148 39.1828L69.7125 40.4787L69.6427 40.5581C69.5995 40.6086 69.2365 41.0702 69.8471 41.6184L69.936 41.6977L69.8615 41.7915C69.7894 41.8804 68.0969 43.9962 66.2386 44.4482V44.4458Z" fill="#F6AC1F"/>
<path d="M66.4503 43.395C66.3686 43.395 66.282 43.3902 66.1955 43.383L66.2195 43.1305C66.7123 43.1786 67.0778 43.0776 67.2773 42.8396C67.46 42.6208 67.4937 42.289 67.3759 41.8803C67.3134 41.6615 67.2028 41.5173 67.0489 41.4548C66.7748 41.3442 66.3926 41.5004 66.2676 41.5726L66.1426 41.3538C66.1642 41.3417 66.6979 41.0412 67.1427 41.2215C67.3711 41.3153 67.5297 41.5125 67.6163 41.8106C67.7581 42.3035 67.7052 42.717 67.4696 43.0007C67.2533 43.2604 66.9047 43.3926 66.4479 43.3926L66.4503 43.395Z" fill="#F6AC1F"/>
<path d="M34.6623 43.0632C34.6479 43.0079 34.3161 41.7048 35.2537 40.2983L35.2994 40.2286L35.3811 40.2454C35.4004 40.2502 35.9028 40.3248 36.2033 39.5241L36.2346 39.4424H37.9511L37.8525 39.6299C37.8188 39.6924 37.7419 39.8896 37.7948 40.029C37.8212 40.0988 37.8789 40.1516 37.9703 40.1853L38.1097 40.2382L38.0328 40.368C38.0328 40.368 37.7852 40.796 37.8982 41.2721L37.653 41.3298C37.5544 40.9138 37.677 40.5411 37.7563 40.3584C37.6626 40.2983 37.5953 40.2142 37.5568 40.1156C37.5039 39.9689 37.5231 39.8126 37.5568 39.6948H36.4077C36.1023 40.4281 35.6239 40.5099 35.422 40.5027C34.5998 41.7866 34.9003 42.9887 34.9051 43.0007L34.6599 43.0657L34.6623 43.0632Z" fill="#F6AC1F"/>
<path d="M30.4744 45.4869C30.4695 45.4556 30.044 42.3998 26.7793 40.7336L26.5918 40.6374L26.7649 40.5172C26.8659 40.4451 27.1303 40.2143 27.1231 39.9955C27.1207 39.8801 27.039 39.7719 26.8827 39.6733L26.7024 39.5603L28.9382 38.3101L29.0055 38.3774C29.0343 38.4062 29.7411 39.1011 30.532 38.6106L30.6066 38.5649L30.6763 38.6178C30.7821 38.6996 33.2679 40.635 33.941 42.5729L33.703 42.657C33.114 40.962 30.9912 39.1972 30.5897 38.8727C29.8204 39.291 29.1233 38.8077 28.9021 38.6226L27.1808 39.5843C27.3082 39.7045 27.3731 39.8416 27.3779 39.9907C27.3827 40.2431 27.2024 40.4643 27.063 40.5965C30.2989 42.3445 30.722 45.4244 30.7268 45.4556L30.4768 45.4869H30.4744Z" fill="#F6AC1F"/>
<path d="M31.7659 44.1639C31.3813 44.1639 30.9822 44.0077 30.7202 43.6182C30.0663 42.6516 30.3812 42.0049 30.7586 41.6322C31.124 41.274 31.5544 41.1586 31.9727 41.3076C32.5376 41.5096 33.0016 42.1708 33.0809 42.8801C33.1386 43.4018 32.8189 43.8706 32.2684 44.0726C32.1145 44.1303 31.9414 44.1615 31.7659 44.1615V44.1639ZM30.9341 41.815C30.4822 42.2573 30.4798 42.8175 30.9269 43.4787C31.2346 43.9307 31.7755 43.986 32.1794 43.8394C32.5112 43.7167 32.8814 43.4018 32.8261 42.9113C32.7588 42.303 32.3549 41.7164 31.8837 41.5481C31.5568 41.4303 31.2274 41.524 30.9317 41.815H30.9341Z" fill="#F6AC1F"/>
<path d="M24.2505 46.275L24.164 46.1452C24.0366 45.9528 23.5606 45.7966 23.4043 45.7581L23.4668 45.5129C23.5293 45.5297 24.0221 45.6595 24.2818 45.8975C24.3972 45.8086 24.5919 45.6908 24.8179 45.7052C24.979 45.7148 25.1256 45.7893 25.2482 45.9264L26.6666 45.3999C26.6378 45.3061 26.6233 45.1931 26.657 45.0849C26.5007 45.0272 26.2098 44.9358 25.8733 44.9214L25.8853 44.6689C26.4406 44.6954 26.8709 44.8998 26.8902 44.9094L27.0392 44.9815L26.9311 45.1065C26.8349 45.2171 26.9431 45.4071 26.9455 45.4071L27.0224 45.5369L25.1665 46.2269L25.1088 46.1524C25.0174 46.0298 24.9164 45.9673 24.8035 45.9601C24.5679 45.9456 24.3635 46.162 24.3611 46.1644L24.2529 46.2774L24.2505 46.275Z" fill="#F6AC1F"/>
<path d="M23.2358 50.269C23.2189 50.245 21.5193 47.8383 23.2478 46.0591L23.4281 46.2346C21.8486 47.8599 23.3752 50.0286 23.4401 50.1199L23.2358 50.2666V50.269Z" fill="#F6AC1F"/>
<path d="M26.7208 47.7082C26.704 47.6745 26.2929 46.8427 26.9372 45.8545L27.1487 45.9915C26.5862 46.8547 26.93 47.5639 26.9468 47.5928L26.7208 47.7082Z" fill="#F6AC1F"/>
<path d="M23.9025 49.4969C23.8977 49.4825 23.3929 48.0279 24.8545 47.3691C25.9917 46.857 26.4989 47.838 26.5037 47.8476L26.2778 47.9606C26.2609 47.9293 25.8691 47.1864 24.9579 47.5976C23.7102 48.1602 24.1213 49.3575 24.1405 49.408L23.9025 49.4945V49.4969Z" fill="#F6AC1F"/>
<path d="M17.5477 58.8254C15.7422 58.8254 14.3791 57.9887 14.3575 57.9743L14.2782 57.9238L14.3022 57.8348C14.4657 57.2193 13.5858 56.7577 13.5762 56.7529L13.4824 56.7048L14.2012 54.2885L14.3214 54.3198C14.872 54.4688 15.0859 53.7379 15.0955 53.7067L15.1749 53.4302L15.3263 53.6778C15.3335 53.6898 16.1221 54.9545 18.0189 55.6181C19.882 56.2672 21.2115 54.6636 21.2235 54.6467L21.4206 54.8054C21.4062 54.8223 19.9638 56.563 17.9347 55.8561C16.3889 55.3151 15.5571 54.4087 15.2494 54.0072C15.1028 54.3101 14.8143 54.6419 14.3767 54.589L13.7853 56.5798C14.0305 56.7265 14.6628 57.1761 14.5691 57.8036C15.0931 58.0969 18.2593 59.6886 21.1321 57.1881L21.298 57.378C20.0239 58.4864 18.6968 58.8254 17.5477 58.8254Z" fill="#F6AC1F"/>
<path d="M17.9693 58.2753C17.6567 58.2753 17.349 58.2056 17.111 58.0614C16.7552 57.8474 16.5869 57.4915 16.635 57.0612C16.6975 56.501 17.1735 56.1235 17.8467 56.1043C18.5246 56.085 19.2723 56.4409 19.3949 57.1573C19.4502 57.4795 19.3107 57.7728 19.003 57.982C18.7193 58.1744 18.3395 58.2753 17.9693 58.2753ZM16.8874 57.09C16.849 57.4266 16.9692 57.6815 17.2432 57.845C17.6712 58.1022 18.4284 58.0686 18.8612 57.7752C19.0174 57.6695 19.1953 57.4819 19.1472 57.2006C19.0511 56.6332 18.4116 56.3375 17.8563 56.3591C17.4259 56.3711 16.9451 56.5707 16.8874 57.09Z" fill="#F6AC1F"/>
<path d="M18.3856 61.456L18.3255 61.2733C18.2221 60.9583 18.073 60.7708 17.8783 60.7179C17.5033 60.6169 17.0561 61.0136 17.0537 61.0184L16.9263 61.1338L16.1738 59.5037L16.4046 59.3979L17.0177 60.7275C17.21 60.5905 17.585 60.3789 17.9456 60.4751C18.1884 60.54 18.3759 60.7275 18.5082 61.0305C18.8375 60.7972 19.7366 60.2731 21.2127 60.2154L21.2224 60.4679C19.4554 60.5352 18.5418 61.3214 18.5346 61.3286L18.3904 61.456H18.3856Z" fill="#F6AC1F"/>
<path d="M19.458 70.9915C19.095 70.9915 18.6647 70.8929 18.143 70.6429C16.3568 69.7918 15.561 70.4554 15.5538 70.4626L15.4168 70.5828L15.3519 70.4145C15.2774 70.2221 15.1692 70.1067 15.0201 70.061C14.7244 69.9697 14.3181 70.1789 14.1883 70.2678L14.0345 70.3736L13.4863 67.8683L13.6089 67.8395C13.907 67.7698 14.109 67.6471 14.2051 67.474C14.3229 67.2649 14.2508 67.0437 14.2508 67.0413L14.1955 66.8754H14.9648C15.7221 66.8489 16.3375 67.0917 16.989 67.349C17.5276 67.5606 18.0877 67.7794 18.768 67.8611C20.1888 68.0318 21.1 66.5676 21.1072 66.5532L21.3404 66.1709V69.7052L21.3139 69.7389C21.2707 69.7942 21.225 69.8543 21.1793 69.9144C20.8331 70.3712 20.3619 70.9915 19.4556 70.9915H19.458ZM16.489 69.9529C16.9313 69.9529 17.5155 70.0634 18.2536 70.4145C19.8931 71.1959 20.4966 70.4 20.9798 69.7605C21.0182 69.71 21.0543 69.6619 21.0904 69.6138V67.0052C20.7105 67.4692 19.8883 68.2506 18.7392 68.1112C18.0276 68.0246 17.453 67.801 16.9001 67.5822C16.2726 67.3346 15.6764 67.099 14.972 67.1254H14.5249C14.5369 67.248 14.5249 67.4211 14.4311 67.5918C14.3133 67.8058 14.097 67.9597 13.7892 68.0535L14.2075 69.9649C14.4095 69.8591 14.7749 69.7148 15.0995 69.8182C15.2798 69.8759 15.424 69.9961 15.525 70.1813C15.6909 70.0851 16.0058 69.9529 16.4914 69.9529H16.489Z" fill="#F6AC1F"/>
<path d="M19.2292 70.335C18.9672 70.335 18.6547 70.2797 18.3157 70.1715C17.8806 70.0297 17.6113 69.7316 17.5945 69.3757C17.5777 69.0007 17.8493 68.6448 18.3061 68.4453C18.6715 68.2866 19.0321 68.301 19.3519 68.4861C19.787 68.741 20.0226 69.2411 20.0635 69.6234C20.0947 69.9095 19.9721 70.073 19.8663 70.1595C19.7221 70.2749 19.5033 70.335 19.2317 70.335H19.2292ZM18.4047 68.6761C18.0465 68.83 17.8325 69.0944 17.8445 69.3613C17.8565 69.6089 18.0609 69.8205 18.3926 69.9287C18.9792 70.1187 19.4961 70.1331 19.7028 69.9624C19.7894 69.8926 19.8231 69.7893 19.8086 69.6498C19.775 69.3397 19.5778 68.9117 19.2196 68.7025C18.9696 68.5559 18.6955 68.5487 18.4023 68.6737L18.4047 68.6761Z" fill="#F6AC1F"/>
<path d="M19.5887 78.7694C19.0069 78.7694 18.6246 78.5867 18.5982 78.5723L18.5068 78.5266L18.5309 78.428C18.6823 77.8173 17.9347 77.5577 17.9034 77.5481L17.7832 77.5072L18.3698 75.7448L18.4972 75.8001C18.6487 75.8675 18.7713 75.8747 18.8578 75.8218C19.0165 75.728 19.0477 75.4683 19.0477 75.4659L19.0694 75.2544L19.2449 75.3746C19.9396 75.853 21.1441 75.2568 21.1561 75.252L21.2691 75.478C21.2186 75.5044 20.0719 76.0694 19.2569 75.6751C19.216 75.7977 19.1367 75.954 18.9852 76.0406C18.8554 76.1151 18.7016 76.1295 18.5261 76.079L18.1005 77.3557C18.4299 77.5048 18.8674 77.8486 18.7953 78.3823C19.0814 78.4905 20.0214 78.7478 21.1465 78.0313L21.2835 78.2453C20.6416 78.654 20.0526 78.7694 19.5887 78.7694Z" fill="#F6AC1F"/>
<path d="M20.8318 77.8654C20.678 77.8654 20.5073 77.8366 20.3727 77.7356C20.2068 77.613 20.1226 77.4159 20.1251 77.1514C20.1347 76.2209 21.1348 75.8987 21.178 75.8867L21.2526 76.1271C21.2165 76.1392 20.3823 76.4084 20.3775 77.1538C20.3775 77.3365 20.4232 77.4591 20.5217 77.5313C20.7092 77.6683 21.0578 77.5986 21.1756 77.5577L21.255 77.7981C21.2429 77.8029 21.053 77.863 20.8318 77.863V77.8654Z" fill="#F6AC1F"/>
<path d="M20.7432 66.1609C20.6951 66.1585 19.5893 66.0767 19.2671 65.1126L19.2383 65.0285L19.308 64.9732C19.308 64.9732 19.6157 64.7303 19.6157 64.4298C19.6157 64.2591 19.5123 64.0908 19.308 63.9345L19.2407 63.8816L19.8681 61.6769L20.0148 61.7827C20.0148 61.7827 20.3874 62.0472 20.7072 61.9582C20.8706 61.9125 21.0029 61.7779 21.0966 61.5591L21.3298 61.6601C21.2024 61.9534 21.0149 62.1361 20.7721 62.2034C20.4812 62.2828 20.1879 62.1698 20.0148 62.0784L19.5292 63.7879C19.7528 63.9826 19.8681 64.1966 19.8681 64.4298C19.8681 64.7472 19.6494 64.9972 19.534 65.1078C19.8345 65.8363 20.7456 65.906 20.7552 65.906L20.7384 66.1585L20.7432 66.1609Z" fill="#F6AC1F"/>
<path d="M63.264 36.4882L29.293 56.1191L29.4193 56.3377L63.3903 36.7068L63.264 36.4882Z" fill="#FFDDAB"/>
<path d="M63.7076 38.2107L28.8555 58.3589L28.9818 58.5775L63.8339 38.4292L63.7076 38.2107Z" fill="#FFDDAB"/>
<path d="M63.7076 40.2849L28.8555 60.4331L28.9818 60.6517L63.8339 40.5035L63.7076 40.2849Z" fill="#FFDDAB"/>
<path d="M63.7076 42.2649L28.8555 62.4131L28.9818 62.6316L63.8339 42.4834L63.7076 42.2649Z" fill="#FFDDAB"/>
<path d="M63.7037 44.302L28.8516 64.4502L28.9779 64.6688L63.83 44.5206L63.7037 44.302Z" fill="#FFDDAB"/>
<path d="M63.6998 46.2859L28.8477 66.4341L28.974 66.6526L63.8261 46.5044L63.6998 46.2859Z" fill="#FFDDAB"/>
<path d="M63.6998 48.3464L28.8477 68.4946L28.974 68.7132L63.8261 48.565L63.6998 48.3464Z" fill="#FFDDAB"/>
<path d="M63.6998 50.3308L28.8477 70.479L28.974 70.6976L63.8261 50.5494L63.6998 50.3308Z" fill="#FFDDAB"/>
<path d="M63.7037 52.3782L28.8516 72.5264L28.9779 72.7449L63.83 52.5967L63.7037 52.3782Z" fill="#FFDDAB"/>
<path d="M63.6998 54.3606L28.8477 74.5088L28.974 74.7274L63.8261 54.5792L63.6998 54.3606Z" fill="#FFDDAB"/>
<path d="M63.6998 56.4226L28.8477 76.5708L28.974 76.7894L63.8261 56.6412L63.6998 56.4226Z" fill="#FFDDAB"/>
<path d="M63.6998 58.405L28.8477 78.5532L28.974 78.7718L63.8261 58.6236L63.6998 58.405Z" fill="#FFDDAB"/>
<path d="M63.0145 60.8406L29.5527 80.1851L29.6791 80.4036L63.1409 61.0592L63.0145 60.8406Z" fill="#FFDDAB"/>
<path d="M26.0732 85.6212C25.6982 85.6212 25.3472 85.5299 25.0323 85.3495C24.1572 84.8446 23.6523 83.681 23.6523 82.1615V57.3948C23.6523 54.5554 25.3881 51.2446 27.5229 50.0112L62.3361 29.856C63.2929 29.3031 64.2208 29.2333 64.9541 29.6541C65.8316 30.159 66.334 31.3227 66.334 32.8422V57.6064C66.334 60.4459 64.5983 63.7566 62.4659 64.99L27.6527 85.1452C27.107 85.4601 26.5709 85.6188 26.0756 85.6188L26.0732 85.6212ZM63.9035 29.7479C63.4515 29.7479 63.1005 29.844 62.5957 30.1374L27.7993 50.331C25.7343 51.5235 24.0057 54.7453 24.0057 57.503L23.9625 82.1903C23.9625 83.6185 24.4265 84.6595 25.2222 85.1187C25.8737 85.4938 26.6286 85.3712 27.5036 84.8687L62.3385 64.776C64.4011 63.5835 66.0816 60.3713 65.9349 57.9286V33.1644C65.9157 31.4309 65.7066 30.4956 64.9108 30.0364C64.6367 29.8777 64.2353 29.7551 63.9035 29.7551V29.7479Z" fill="#F6AC1F"/>
</svg>
