<svg width="299" height="44" viewBox="0 0 299 44" fill="none" xmlns="http://www.w3.org/2000/svg">
<g clip-path="url(#clip0_45_3639)">
<path d="M46.361 2.19453C45.3616 0.223406 42.7912 -0.0846673 41.25 1.4448C36.8405 9.90183 32.5394 18.4515 28.268 26.9904C27.0167 29.4904 25.7599 31.9932 24.5898 34.5314H33.8422L34.3541 34.5259C34.5329 34.5259 36.009 34.0297 36.2961 33.9125C36.9353 33.6535 37.4879 33.3727 37.9727 33.0728C41.8567 30.6709 41.185 26.9931 42.2711 22.8491C42.309 22.7046 42.347 22.5601 42.3903 22.4156C41.9921 21.9112 41.6482 21.3796 41.3502 20.8371C40.5404 19.3485 40.1016 17.7345 40.0258 16.1096C39.8687 12.8272 41.166 9.50106 43.7554 7.06646C46.6698 9.26932 47.7803 12.7127 47.6692 16.1096C47.6367 17.0829 47.5067 18.0562 47.2873 18.9914C49.5869 20.4363 50.5159 23.7079 48.7743 25.848C48.2732 25.0411 48.0186 24.1441 47.4417 23.3916C47.3009 23.209 47.1438 23.0345 46.9569 22.8736C45.8653 21.9221 45.3751 22.0367 44.7955 23.1763C44.763 23.239 44.7332 23.3017 44.7007 23.3698L45.3345 33.0728L45.4293 34.5259V34.5314L45.9087 44.0026L51.5505 34.5314H62.6041L46.361 2.19453ZM40.4212 21.6004L40.8573 22.5574C40.4077 23.1408 40.0285 23.7406 39.6764 24.354C39.3974 24.8393 39.1346 25.3355 38.8692 25.8426C37.9077 24.6485 37.8752 22.8791 38.3519 21.5132C38.4358 21.276 39.243 19.6184 39.6493 19.9019L40.4239 21.5977L40.4212 21.6004Z" fill="url(#paint0_linear_45_3639)"/>
<path d="M0 0.477051H6.17003V28.6672H23.5425V33.9235H0V0.477051Z" fill="white"/>
<path d="M60.3789 19.3513V0.477051H66.5489V19.1114C66.5489 25.9926 69.634 28.9534 74.9995 28.9534C80.3651 28.9534 83.4014 25.9899 83.4014 19.1114V0.477051H89.4766V19.3513C89.4766 29.0979 84.019 34.4033 74.9508 34.4033C65.8826 34.4033 60.3789 29.1006 60.3789 19.3513Z" fill="white"/>
<path d="M126.217 0.477051V33.9235H121.139L102.815 11.276V33.9235H96.6914V0.477051H101.77L120.093 23.1246V0.477051H126.217Z" fill="white"/>
<path d="M131.342 17.2003C131.342 7.21383 138.937 0 149.142 0C154.554 0 159.204 1.96022 162.292 5.58895L158.305 9.36489C155.884 6.73672 152.894 5.44718 149.429 5.44718C142.547 5.44718 137.561 10.3218 137.561 17.2003C137.561 24.0788 142.544 28.9535 149.429 28.9535C152.894 28.9535 155.886 27.6639 158.305 24.9867L162.292 28.809C159.207 32.4404 154.554 34.4006 149.096 34.4006C138.937 34.4006 131.342 27.1868 131.342 17.2003Z" fill="white"/>
<path d="M196.328 0.477051V33.9235H190.158V19.5885H172.973V33.9235H166.803V0.477051H172.973V14.2858H190.158V0.477051H196.328Z" fill="white"/>
<path d="M201.027 30.3873L203.164 25.5617C205.821 27.7128 210.046 29.2395 214.128 29.2395C219.301 29.2395 221.484 27.3747 221.484 24.8911C221.484 17.6772 201.737 22.4074 201.737 9.98356C201.737 4.58546 206.008 -0.00292969 215.122 -0.00292969C219.109 -0.00292969 223.286 1.04943 226.184 2.96057L224.236 7.78615C221.246 6.0195 217.971 5.15798 215.073 5.15798C209.946 5.15798 207.858 7.16455 207.858 9.6973C207.858 16.8157 227.557 12.181 227.557 24.463C227.557 29.8148 223.237 34.4004 214.123 34.4004C208.949 34.4004 203.773 32.7756 201.021 30.3873H201.027Z" fill="white"/>
<path d="M257.181 28.7162V33.9235H232.26V0.477051H256.517V5.68431H238.432V14.3813H254.478V19.4931H238.432V28.7162H257.184H257.181Z" fill="white"/>
<path d="M293.164 33.9235L293.115 11.7531L282.197 30.1012H279.442L268.524 12.0394V33.9235H262.639V0.477051H267.717L280.913 22.6474L293.876 0.477051H298.955L299.003 33.9235H293.164Z" fill="white"/>
</g>
<defs>
<linearGradient id="paint0_linear_45_3639" x1="43.5929" y1="38.9125" x2="43.5929" y2="1.94371" gradientUnits="userSpaceOnUse">
<stop stop-color="#EF7824"/>
<stop offset="1" stop-color="#E7342A"/>
</linearGradient>
<clipPath id="clip0_45_3639">
<rect width="299" height="44" fill="white"/>
</clipPath>
</defs>
</svg>
