<svg xmlns="http://www.w3.org/2000/svg" width="54" height="106" viewBox="0 0 54 106" fill="none">
  <path d="M0.785578 97.2817C2.47077 90.1062 6.14186 78.9947 13.2846 74.7609C14.6542 73.948 16.4853 72.8524 17.5303 72.2331L17.9888 67.4693C17.5928 67.2728 17.179 67.0435 16.777 66.7815L16.7264 66.7547L16.5746 66.6446C15.5772 65.9806 14.8209 65.1678 14.5291 63.7506L13.9604 61.2644L12.0043 52.5407C11.9328 52.2698 11.8674 51.9899 11.8168 51.7011L11.7661 51.4807L11.781 51.4718C11.6738 50.8138 11.5994 50.1201 11.5905 49.3698C11.5011 41.715 16.7651 32.3452 23.3511 28.4389C26.3672 26.6495 28.8413 26.2267 30.9642 27.1259L31.2619 27.2241L31.4227 27.3134C31.6698 27.4296 31.9081 27.5576 32.1373 27.7065L37.705 30.7791L38.0057 31.3924L35.2933 33.4379C35.3707 34.0066 35.4273 34.5931 35.4332 35.2273C35.4421 35.9508 35.4451 36.5105 35.3588 37.2608L35.3171 37.4365L35.2635 37.907C35.21 38.3208 35.1533 38.553 35.073 38.9728L32.8668 52.8772C32.5035 55.3514 31.1875 58.6949 29.4993 61.1661L30.0621 64.9326C31.1012 64.3162 32.959 63.0985 34.3107 62.2976C37.1005 60.6421 39.149 60.5409 41.0188 61.4549L41.2689 61.5562L41.9179 61.9165C41.9179 61.9165 41.9299 61.9224 41.9358 61.9284L46.8038 64.6378L45.7111 66.4004C46.3066 67.5109 46.8008 68.6721 47.1938 69.7648C48.0364 72.1021 46.2798 76.0679 43.7282 77.5834L24.4438 89.0195L23.6071 89.5167L8.70534 98.3536C8.50884 100.14 8.19919 102.546 8.03543 103.802C7.98184 104.21 7.53527 104.43 7.175 104.228L1.75024 101.206C0.782598 100.664 0.330041 99.2319 0.785578 97.2906V97.2817Z" fill="#FFD687"/>
  <path d="M0.788381 99.9585C2.47357 92.7831 6.14764 81.6715 13.2874 77.4377C14.657 76.6249 16.4881 75.5292 17.5331 74.9099L17.9916 70.1461C17.5956 69.9496 18.2447 69.235 17.8428 68.973L18.4412 68.6991L17.804 66.6834C16.8066 66.0195 15.8926 66.4631 15.6008 65.0459L13.9632 63.9353L12.0071 55.2116C11.9356 54.9407 11.8702 54.6608 11.8196 54.372L11.7689 54.1516L11.7838 54.1428C11.6766 53.4848 11.6022 52.791 11.5933 52.0407C11.504 44.3859 16.7679 35.0161 23.3539 31.1098C26.37 29.3204 28.8441 28.8976 30.967 29.7968L31.2647 29.895L31.4255 29.9843C31.6726 30.1005 31.9109 30.2285 32.1401 30.3774L37.7078 33.45L38.0085 34.0633L35.2961 36.1088C35.3735 36.6775 35.4301 37.264 35.439 37.8982C35.4479 38.6217 35.4509 39.1815 35.3646 39.9318L35.3229 40.1074L35.2693 40.5779C35.2157 40.9917 35.1591 41.224 35.0787 41.6438L32.8725 55.5481C32.5093 58.0223 31.1933 61.3658 29.5051 63.837L30.0678 67.6035C31.1069 66.9871 32.9648 65.7694 34.3165 64.9685C37.1063 63.313 39.1548 63.2118 41.0245 64.1258L41.2747 64.2271L41.9237 64.5873C41.9237 64.5873 41.9356 64.5933 41.9416 64.5993L46.8096 67.3087L45.7169 69.0713C46.3124 70.1818 46.8066 71.343 47.1996 72.4357C48.0422 74.773 46.2856 78.7388 43.734 80.2543L24.4495 91.6904L23.6129 92.1876L8.71113 101.024C8.51462 102.811 9.89021 102.352 9.72646 103.609C9.67286 104.017 9.22622 104.237 8.86595 104.035L3.44119 101.013C2.47355 100.471 0.335824 101.906 0.791361 99.9615L0.788381 99.9585Z" fill="#FFF8EE"/>
  <path d="M6.87671 104.752L1.44897 101.73C0.177634 101.018 -0.304691 99.2584 0.19253 97.1415C2.10102 89.0192 5.86738 78.4496 12.9744 74.2366L16.9551 71.8666L17.3481 67.8204C17.0444 67.6566 16.7229 67.472 16.3715 67.2458L16.2405 67.1505C15.3622 66.5639 14.3052 65.6648 13.939 63.8843L11.4172 52.6953C11.3398 52.4095 11.2743 52.1148 11.2237 51.8379L11.0897 51.1798L11.1195 51.162C11.0331 50.5397 10.9885 49.9532 10.9825 49.3756C10.8902 41.5391 16.3001 31.9133 23.0409 27.9147C26.2207 26.027 28.8944 25.5863 31.1572 26.548L31.6812 26.7624C31.9551 26.8904 32.2201 27.0334 32.4315 27.1763L38.1659 30.3442L38.7704 31.5828L35.9418 33.7175C36.0044 34.2505 36.0371 34.7358 36.043 35.2271C36.052 36.0012 36.052 36.5698 35.9537 37.4065L35.8703 37.9871C35.8316 38.2938 35.79 38.5051 35.7393 38.7582L33.4706 52.9722C33.0955 55.5387 31.7675 58.8614 30.1389 61.3178L30.5319 63.9408C30.8594 63.7384 31.2167 63.5121 31.5859 63.2769C32.4017 62.7618 33.2771 62.211 34.0036 61.7793C36.7934 60.1268 39.1097 59.8499 41.2534 60.898L47.6607 64.4231L46.4132 66.43C46.9134 67.4006 47.369 68.4515 47.768 69.5621C48.7177 72.1971 46.8718 76.4339 44.0403 78.1102L9.27649 98.7255C9.07999 100.476 8.79412 102.697 8.63631 103.885C8.5857 104.275 8.34754 104.615 7.99621 104.79C7.82948 104.874 7.64486 104.918 7.46027 104.918C7.25781 104.918 7.05833 104.868 6.87671 104.767V104.752ZM41.0361 62.1128L40.7533 61.9936C38.9549 61.1153 37.0613 61.3654 34.6228 62.8124C33.9023 63.2382 33.0389 63.783 32.232 64.2922C31.5204 64.7388 30.8564 65.1586 30.3711 65.4474L29.5941 65.9089L28.8617 61.0111L28.9956 60.8146C30.5885 58.4803 31.9015 55.2529 32.2648 52.7727L34.474 38.8505L34.5424 38.5052C34.5871 38.2819 34.6229 38.0943 34.6586 37.8263L34.7241 37.2874L34.7538 37.1832C34.8342 36.4835 34.8343 35.9774 34.8253 35.2271C34.8194 34.6822 34.7747 34.1403 34.6913 33.5121L34.6407 33.1578L37.231 31.2047L31.8033 28.2064C31.5978 28.0724 31.3864 27.9563 31.1304 27.8372L30.7285 27.6764C28.8021 26.8636 26.4856 27.2775 23.6631 28.9508C17.2528 32.7499 12.1139 41.9023 12.2002 49.3517C12.2062 50.0008 12.2658 50.638 12.3819 51.3644L12.4176 51.5848C12.4683 51.8587 12.5278 52.1207 12.6022 52.4006L15.13 63.6193C15.3533 64.706 15.8714 65.4325 16.9373 66.1441L17.1159 66.2662C17.497 66.5163 17.89 66.7336 18.2681 66.9182L18.6433 67.1058L18.1133 72.5931L13.5996 75.2787C6.50457 79.4857 2.89896 90.9545 1.38348 97.4154C1.02024 98.9577 1.28224 100.232 2.05041 100.661L7.43643 103.71C7.60018 102.456 7.9128 100.053 8.10633 98.2729L8.13912 97.9692L43.4269 77.0443C45.7314 75.6777 47.3809 72.0333 46.6306 69.9551C46.2078 68.7791 45.7195 67.6744 45.1835 66.6741L45.0169 66.3644L45.9577 64.846L41.045 62.1068L41.0361 62.1128Z" fill="#F6AC1F"/>
  <path d="M6.76076 100.618C8.44596 93.4421 12.117 82.3306 19.2598 78.0968C20.6294 77.2839 22.4604 76.1883 23.5055 75.569L23.964 70.8052C22.5705 70.1085 20.9181 69.0962 20.5013 67.0835L19.9327 64.5973L17.9765 55.8736C17.905 55.6027 17.8395 55.3229 17.7859 55.0341L17.7353 54.8137L17.7502 54.8048C17.643 54.1468 17.5686 53.4531 17.5596 52.7028C17.4703 45.0479 22.7343 35.6781 29.3202 31.7718C35.9062 27.8655 41.3161 30.9054 41.4054 38.5602C41.4143 39.2837 41.4173 39.8435 41.331 40.5938L41.2893 40.7694L41.2357 41.2399C41.1821 41.6537 41.1256 41.886 41.0452 42.3058L38.839 56.2101C38.4757 58.6843 37.1597 62.0278 35.4715 64.4991L36.0342 68.2655C37.0733 67.6492 38.9312 66.4314 40.2829 65.6305C47.4435 61.3848 51.332 68.0064 53.166 73.0948C54.0086 75.432 52.252 79.3979 49.7004 80.9134L30.416 92.3494L29.5793 92.8467L10.3604 104.244C7.80875 105.756 5.98367 103.914 6.75778 100.621L6.76076 100.618Z" fill="#FFD687"/>
  <path d="M7.17247 104.915C6.07978 104.114 5.70467 102.455 6.16616 100.478C8.07465 92.3562 11.841 81.7895 18.948 77.5735L22.9287 75.2036L23.3217 71.1573C21.8241 70.3623 20.3325 69.2488 19.9127 67.2182L17.3908 56.0292C17.3134 55.7434 17.2479 55.4487 17.1973 55.1658L17.0693 54.5108L17.0961 54.4959C17.0097 53.8766 16.9651 53.2901 16.9591 52.7095C16.8668 44.8731 22.2767 35.2472 29.0175 31.2486C32.3968 29.2448 35.6272 28.9054 38.1044 30.3018C40.5845 31.6952 41.975 34.6279 42.0196 38.5551C42.0286 39.2488 42.0345 39.8532 41.9303 40.7375L41.8469 41.3151C41.8082 41.6218 41.7666 41.8332 41.7159 42.0863L39.4472 56.3002C39.072 58.8667 37.7441 62.1894 36.1155 64.6457L36.5085 67.2688C36.839 67.0634 37.1993 66.8371 37.5744 66.5989C38.3873 66.0868 39.2566 65.536 39.9801 65.1073C42.4335 63.6543 44.7379 63.2971 46.8251 64.0474C50.3711 65.3217 52.5476 69.5585 53.7475 72.8901C54.6973 75.5251 52.8513 79.7589 50.0168 81.4382L10.6739 104.769C9.97716 105.18 9.28938 105.388 8.65818 105.388C8.11034 105.388 7.6042 105.23 7.17545 104.918L7.17247 104.915ZM40.5964 66.1493C39.8819 66.5751 39.0214 67.117 38.2175 67.6231C37.503 68.0727 36.836 68.4955 36.3477 68.7843L35.5706 69.2458L34.8382 64.348L34.9722 64.1515C36.5651 61.8173 37.8781 58.5898 38.2414 56.1096L40.4506 42.1875L40.519 41.8421C40.5637 41.6188 40.5994 41.4312 40.6351 41.1633L40.7007 40.6184L40.7304 40.5202C40.8138 39.7848 40.8078 39.219 40.7989 38.564C40.7602 35.0894 39.5901 32.5289 37.503 31.3588C35.4159 30.1917 32.626 30.5191 29.6337 32.2907C23.2235 36.0898 18.0845 45.2422 18.1709 52.6916C18.1768 53.3347 18.2364 53.9927 18.3525 54.7014L18.3852 54.9217C18.4358 55.1956 18.4954 55.4576 18.5699 55.7375L21.0976 66.9562C21.449 68.6563 22.8126 69.5465 24.2358 70.2551L24.611 70.4427L24.081 75.93L19.5672 78.6156C12.4722 82.8226 8.86663 94.2914 7.35115 100.752C7.00577 102.214 7.21413 103.429 7.89298 103.926C8.41104 104.307 9.17622 104.23 10.0486 103.712L49.3916 80.3812C51.6991 79.0146 53.3456 75.3702 52.5982 73.292C51.4847 70.2075 49.5107 66.2982 46.4083 65.1847C45.8366 64.9792 45.2412 64.878 44.6248 64.878C43.3684 64.878 42.0196 65.3008 40.5964 66.1464V66.1493Z" fill="#F6AC1F"/>
  <path d="M18.3397 47.1862L12.4534 43.9409L11.6406 50.5358L14.6865 64.3389L16.5712 66.6404L17.9884 67.4711L17.5269 72.2349L23.5055 75.5695L23.9639 70.8057L20.7752 68.9032L20.1351 65.4792L17.5626 52.7033L18.3397 47.1862Z" fill="#F6AC1F"/>
  <path d="M7.88811 96.6074L1.90065 93.2578L0.605469 97.9263L0.682883 99.549L1.74583 101.198L6.9443 103.717L6.58107 101.276L7.18847 97.6226L7.88811 96.6074Z" fill="#F6AC1F"/>
  <path d="M12.6578 14.6607L18.6245 10.2125C18.8359 10.0547 19.0146 9.79867 19.1099 9.52475L21.7776 1.73891C21.98 1.14642 22.51 0.777247 22.8048 0.94398H22.8167L25.8119 2.76315C25.8209 2.7691 25.8268 2.77803 25.8297 2.78994C25.8476 2.96858 26.0114 4.5555 26.1394 5.82982C26.1394 5.85364 26.1662 5.86855 26.1901 5.85962L32.0555 3.45686C32.2014 3.39732 32.3175 3.40625 32.4098 3.45686L35.411 5.26415C35.4348 5.27904 35.4348 5.31177 35.411 5.32666L34.3659 6.02932C34.3659 6.02932 34.3629 6.0323 34.3599 6.03528L27.9407 12.7879C27.9407 12.7879 27.9288 12.8088 27.9318 12.8207L28.9233 18.9154C29.0126 19.4722 28.4617 20.2552 27.9883 20.2403L22.6499 20.0825C22.5011 20.0765 22.3284 20.1629 22.1706 20.3058L21.2 23.2564L19.0175 28.8271C19.0086 28.8479 18.9848 28.8568 18.964 28.8449L15.9181 27.0228C15.805 26.9305 15.7424 26.7578 15.7781 26.5017L16.7964 19.0494C16.8322 18.7873 16.7636 18.5819 16.6118 18.4985L15.4893 17.8823H15.2839L12.2946 16.1316C11.9135 15.9231 12.1219 15.0507 12.6519 14.6548L12.6578 14.6607Z" fill="#FFF8EE"/>
  <path d="M15.6885 27.3234C15.5545 27.2162 15.3401 26.9602 15.4086 26.457L16.4269 19.0047C16.4418 18.8885 16.4269 18.8349 16.4328 18.8379L15.3996 18.2722H15.1882L12.1156 16.4709C11.8864 16.3459 11.7464 16.1076 11.7256 15.804C11.6899 15.2948 11.9846 14.6874 12.4282 14.357L18.3978 9.90878C18.5467 9.79862 18.6807 9.60507 18.7492 9.40261L21.4169 1.61681C21.5807 1.13745 21.9379 0.735482 22.328 0.586614C22.5662 0.497293 22.8014 0.506233 22.9503 0.595555L23.0038 0.622341C23.0038 0.622341 23.0128 0.628294 26.011 2.44449L26.1867 2.56955L26.4695 5.33852L31.9092 3.10844C32.0759 3.03996 32.2188 3.02806 32.3379 3.04295L32.3945 3.00424L35.61 4.94251C35.7321 5.01694 35.8065 5.14498 35.8095 5.2879L35.7976 5.5261L34.6126 6.32401L28.3364 12.9278L29.298 18.8558C29.3665 19.2697 29.1909 19.7817 28.8544 20.1688C28.5924 20.4695 28.2828 20.6214 27.9761 20.6214L22.6406 20.4635C22.6406 20.4635 22.5751 20.4755 22.4977 20.532L21.5539 23.3993L19.3685 28.9759L19.2821 29.1575L18.9219 29.2677L15.6825 27.3264L15.6885 27.3234ZM22.6674 19.7043L28.0058 19.8621C28.0535 19.8502 28.1636 19.8115 28.2887 19.6686C28.4733 19.4572 28.5835 19.1684 28.5537 18.9778L27.5652 12.8951L27.5354 12.6718L34.0767 5.79105L34.7585 5.31468L32.4273 3.90937L32.4064 3.92427L32.198 3.81113L26.3296 6.21385C26.2105 6.26149 26.0736 6.25257 25.9604 6.18409L25.7788 6.05902L25.4691 3.00126C24.8736 2.641 22.6555 1.29525 22.6406 1.28334C22.5483 1.28334 22.2655 1.48281 22.1345 1.86094L19.4667 9.64677C19.3477 9.99512 19.1214 10.3137 18.8504 10.5161L12.8837 14.9644C12.5443 15.2174 12.4342 15.7117 12.4908 15.8099L15.3878 17.51H15.5902L16.799 18.171C17.0938 18.3318 17.2367 18.6831 17.1772 19.1059L16.1589 26.5582C16.1469 26.6565 16.1589 26.7101 16.1648 26.728L18.8207 28.3149L20.8482 23.1372L21.8486 20.0914L21.9231 20.0229C22.1523 19.8145 22.4084 19.7013 22.6466 19.7013C22.6525 19.7013 22.6615 19.7013 22.6674 19.7013V19.7043Z" fill="#F6AC1F"/>
  <path d="M24.8849 3.60706L22.2172 11.3929C22.1219 11.6668 21.9402 11.9228 21.7318 12.0806L15.7652 16.5289C15.2352 16.9219 15.0268 17.7942 15.4079 18.0056L19.7251 20.3726C19.8769 20.456 19.9454 20.6615 19.9097 20.9235L18.8915 28.3758C18.8021 29.0368 19.3529 29.1797 19.8263 28.62L25.1647 22.299C25.3523 22.0757 25.5756 21.9477 25.7632 21.9536L31.1017 22.1114C31.5751 22.1263 32.1258 21.3433 32.0365 20.7865L31.0183 14.5132C30.9826 14.2928 31.051 14.007 31.2028 13.748L35.52 6.39388C35.9041 5.74183 35.6927 5.11362 35.1628 5.33097L29.1961 7.77538C28.9847 7.86173 28.8061 7.81411 28.7108 7.64738L26.043 2.94311C25.8078 2.52628 25.1231 2.92227 24.8879 3.61004L24.8849 3.60706Z" fill="#FFD687"/>
  <path d="M18.9428 29.283C18.6123 29.1371 18.4516 28.7769 18.5141 28.3213L19.5323 20.8689C19.5472 20.7528 19.5323 20.6992 19.5383 20.6992L15.2211 18.3322C14.9918 18.2072 14.8519 17.969 14.8311 17.6653C14.7953 17.1562 15.0901 16.5487 15.5337 16.2183L21.5033 11.7701C21.6522 11.6599 21.7862 11.4664 21.8547 11.2639L24.5224 3.47811C24.7249 2.88859 25.2101 2.43007 25.6776 2.38838C25.9664 2.36159 26.2255 2.49556 26.3684 2.74863L29.048 7.41419L35.0147 4.96974C35.3511 4.83278 35.6786 4.89533 35.887 5.13649C36.1728 5.46698 36.155 6.04458 35.8424 6.57455L31.5252 13.9287C31.3972 14.146 31.3704 14.3425 31.3882 14.4408L32.4065 20.7141C32.475 21.128 32.2993 21.643 31.9629 22.0271C31.6979 22.3278 31.3823 22.4797 31.0845 22.4797L25.7461 22.3219C25.7074 22.3219 25.5823 22.3725 25.4483 22.5333L20.1099 28.8542C19.8449 29.1668 19.5294 29.3366 19.2346 29.3366C19.1334 29.3366 19.0321 29.3157 18.9369 29.2741L18.9428 29.283ZM25.7729 21.5686L31.1113 21.7264C31.144 21.7204 31.2692 21.6758 31.3942 21.5329C31.5788 21.3215 31.6889 21.0327 31.6592 20.8421L30.6409 14.5688C30.5903 14.2592 30.6737 13.887 30.8732 13.5505L35.1904 6.19645C35.366 5.89574 35.3422 5.67839 35.3035 5.67541L29.3368 8.11982C28.9527 8.27763 28.5657 8.16151 28.3781 7.82805L25.752 3.14465C25.6597 3.14465 25.3739 3.34412 25.2429 3.72522L22.5752 11.5111C22.4561 11.8594 22.2298 12.178 21.9589 12.3804L15.9923 16.8286C15.6528 17.0817 15.5427 17.576 15.5903 17.6683L19.9075 20.0353C20.2022 20.196 20.3452 20.5473 20.2856 20.9701L19.2674 28.4225C19.2555 28.5118 19.2644 28.5624 19.2584 28.5803C19.3031 28.5714 19.4073 28.5238 19.5353 28.3719L24.8737 22.051C25.1328 21.7443 25.4513 21.5686 25.752 21.5686C25.758 21.5686 25.7669 21.5686 25.7759 21.5686H25.7729Z" fill="#F6AC1F"/>
  <path d="M24.8051 3.83578L21.6907 2.00171L19.1094 9.52851L22.2148 11.3924L24.8051 3.83578Z" fill="#F6AC1F"/>
  <path d="M15.9998 16.525L12.6562 14.6611L12.2305 15.203L12.2989 16.1379L15.1155 17.7933L15.4728 16.644L15.9998 16.525Z" fill="#F6AC1F"/>
  <path d="M18.9727 28.8511L15.7988 26.8325L16.8052 18.8203L19.723 20.3685L19.9106 20.9194L18.8894 28.3717L18.9727 28.8511Z" fill="#F6AC1F"/>
  <path d="M34.3535 5.65794L31.2422 3.79709L32.2932 3.46362L34.547 4.74685L35.0502 5.04757L35.1634 5.32448L34.3535 5.65794Z" fill="#F6AC1F"/>
  <path d="M30.0335 4.01244L29.6504 4.66797L32.8046 6.51113L33.1876 5.8556L30.0335 4.01244Z" fill="#F6AC1F"/>
  <path d="M13.8147 13.6072L13.4316 14.2627L16.5884 16.1073L16.9714 15.4518L13.8147 13.6072Z" fill="#F6AC1F"/>
  <path d="M18.5237 10.1472L18.1406 10.8027L21.2948 12.6459L21.6779 11.9904L18.5237 10.1472Z" fill="#F6AC1F"/>
  <path d="M16.0479 24.8832L15.748 25.3838L18.854 27.2441L19.1538 26.7435L16.0479 24.8832Z" fill="#FFD687"/>
  <path d="M19.7472 7.69572L19.4473 8.19629L22.5529 10.0572L22.8529 9.55662L19.7472 7.69572Z" fill="#FFD687"/>
</svg>