<svg xmlns="http://www.w3.org/2000/svg" width="54" height="108" viewBox="0 0 54 108" fill="none">
  <path d="M2.58618 99.7088C4.21429 92.7765 7.76101 82.0414 14.6618 77.951C15.9849 77.1657 17.754 76.1071 18.7637 75.5088L19.2066 70.9064C18.8241 70.7166 18.4243 70.4951 18.036 70.2419L17.987 70.216L17.8403 70.1096C16.8767 69.4682 16.1461 68.6829 15.8642 67.3137L15.3147 64.9118L13.4249 56.4836C13.3559 56.2218 13.2926 55.9514 13.2437 55.6724L13.1948 55.4595L13.2092 55.4509C13.1056 54.8152 13.0337 54.145 13.025 53.4201C12.9387 46.0246 18.0244 36.9723 24.3872 33.1983C27.3011 31.4695 29.6915 31.0611 31.7425 31.9298L32.0301 32.0246L32.1855 32.1109C32.4242 32.2231 32.6543 32.3468 32.8758 32.4907L38.2549 35.4592L38.5454 36.0517L35.9249 38.0279C35.9997 38.5774 36.0544 39.144 36.0601 39.7567C36.0687 40.4557 36.0716 40.9965 35.9882 41.7213L35.9479 41.8911L35.8961 42.3456C35.8444 42.7454 35.7897 42.9697 35.7121 43.3753L33.5805 56.8087C33.2296 59.199 31.9582 62.4293 30.3273 64.8168L30.8709 68.4556C31.8748 67.8602 33.6697 66.6837 34.9757 65.9099C37.671 64.3106 39.65 64.2127 41.4564 65.0958L41.6981 65.1937L42.3252 65.5417C42.3252 65.5417 42.3367 65.5475 42.3424 65.5532L47.0455 68.1709L45.9898 69.8737C46.5651 70.9467 47.0426 72.0685 47.4223 73.1242C48.2364 75.3823 46.5392 79.2138 44.074 80.6779L25.443 91.7265L24.6346 92.2069L10.2377 100.744C10.0479 102.47 9.74871 104.794 9.5905 106.008C9.53873 106.402 9.10728 106.615 8.75922 106.42L3.51817 103.5C2.5833 102.977 2.14608 101.593 2.58618 99.7175V99.7088Z" fill="#FFD687"/>
  <path d="M2.58909 102.295C4.21719 95.3623 7.76679 84.6272 14.6647 80.5368C15.9878 79.7515 17.7569 78.693 18.7666 78.0947L19.2095 73.4923C18.827 73.3024 19.4541 72.612 19.0657 72.3589L19.6439 72.0942L19.0284 70.1468C18.0647 69.5054 17.1816 69.934 16.8997 68.5648L15.3176 67.4918L13.4278 59.0637C13.3588 58.8019 13.2955 58.5316 13.2466 58.2525L13.1977 58.0396L13.2121 58.031C13.1085 57.3953 13.0366 56.7251 13.0279 56.0002C12.9416 48.6047 18.0273 39.5523 24.3901 35.7784C27.304 34.0496 29.6944 33.6411 31.7454 34.5098L32.033 34.6047L32.1884 34.691C32.4271 34.8032 32.6572 34.9269 32.8787 35.0707L38.2578 38.0393L38.5483 38.6318L35.9278 40.608C36.0026 41.1574 36.0573 41.7241 36.0659 42.3368C36.0745 43.0358 36.0774 43.5766 35.994 44.3015L35.9537 44.4711L35.9019 44.9257C35.8501 45.3255 35.7955 45.5499 35.7179 45.9555L33.5863 59.3887C33.2354 61.7791 31.964 65.0094 30.333 67.3969L30.8767 71.0357C31.8806 70.4403 33.6755 69.2638 34.9815 68.49C37.6767 66.8906 39.6558 66.7928 41.4622 67.6759L41.7038 67.7737L42.3309 68.1218C42.3309 68.1218 42.3424 68.1275 42.3481 68.1333L47.0513 70.7509L45.9956 72.4538C46.5709 73.5267 47.0484 74.6486 47.4281 75.7043C48.2422 77.9623 46.545 81.7938 44.0798 83.258L25.4487 94.3066L24.6404 94.787L10.2435 103.324C10.0537 105.05 11.3826 104.607 11.2244 105.821C11.1726 106.215 10.7411 106.428 10.3931 106.233L5.1521 103.313C4.21723 102.789 2.15186 104.176 2.59196 102.298L2.58909 102.295Z" fill="#FFF8EE"/>
  <path d="M8.47194 106.926L3.22801 104.006C1.99974 103.318 1.53376 101.618 2.01413 99.5732C3.85797 91.726 7.4968 81.5145 14.363 77.4442L18.2089 75.1545L18.5886 71.2453C18.2952 71.0871 17.9845 70.9088 17.6451 70.6902L17.5185 70.5981C16.67 70.0314 15.6488 69.1627 15.295 67.4426L12.8586 56.6327C12.7838 56.3565 12.7205 56.0718 12.6716 55.8043L12.5422 55.1685L12.571 55.1513C12.4875 54.5501 12.4443 53.9834 12.4386 53.4254C12.3494 45.8544 17.576 36.5546 24.0884 32.6915C27.1605 30.8678 29.7437 30.442 31.9298 31.3712L32.4361 31.5783C32.7007 31.7019 32.9567 31.8401 33.1609 31.9781L38.7011 35.0387L39.285 36.2354L36.5524 38.2978C36.6128 38.8127 36.6444 39.2816 36.6502 39.7562C36.6588 40.5041 36.6588 41.0535 36.5639 41.8618L36.4833 42.4227C36.4459 42.719 36.4057 42.9232 36.3568 43.1677L34.1648 56.9002C33.8024 59.3797 32.5195 62.5899 30.9461 64.963L31.3258 67.4972C31.6422 67.3016 31.9874 67.083 32.3441 66.8558C33.1322 66.3581 33.9779 65.826 34.6798 65.4089C37.375 63.8124 39.613 63.5449 41.6841 64.5574L47.8743 67.9632L46.669 69.902C47.1523 70.8398 47.5924 71.8551 47.9778 72.928C48.8954 75.4737 47.112 79.5671 44.3764 81.1866L10.7904 101.103C10.6005 102.795 10.3244 104.941 10.1719 106.088C10.123 106.465 9.89294 106.793 9.55351 106.963C9.39243 107.043 9.21407 107.087 9.03573 107.087C8.84013 107.087 8.64741 107.038 8.47194 106.94V106.926ZM41.477 65.7311L41.2036 65.616C39.4662 64.7674 37.6368 65.009 35.281 66.407C34.5849 66.8184 33.7507 67.3448 32.9711 67.8366C32.2836 68.2681 31.6422 68.6737 31.1733 68.9528L30.4225 69.3986L29.7149 64.6667L29.8443 64.4769C31.3833 62.2217 32.6518 59.1036 33.0027 56.7074L35.1371 43.2569L35.2033 42.9233C35.2464 42.7075 35.2809 42.5263 35.3154 42.2674L35.3787 41.7467L35.4075 41.646C35.4852 40.9701 35.4852 40.4811 35.4766 39.7562C35.4708 39.2298 35.4277 38.7063 35.3471 38.0993L35.2982 37.7571L37.8008 35.8701L32.5569 32.9734C32.3584 32.8439 32.1542 32.7318 31.9068 32.6167L31.5185 32.4614C29.6574 31.6761 27.4195 32.0759 24.6925 33.6925C18.4994 37.3629 13.5346 46.2053 13.618 53.4023C13.6237 54.0294 13.6813 54.645 13.7935 55.3469L13.828 55.5597C13.8769 55.8244 13.9344 56.0775 14.0063 56.3479L16.4485 67.1865C16.6642 68.2365 17.1647 68.9383 18.1945 69.6258L18.3671 69.7438C18.7353 69.9854 19.115 70.1954 19.4803 70.3737L19.8427 70.5549L19.3308 75.8564L14.9699 78.451C8.11521 82.5155 4.63176 93.5958 3.16761 99.8378C2.81668 101.328 3.06981 102.559 3.81195 102.973L9.01557 105.919C9.17378 104.708 9.47581 102.386 9.66279 100.666L9.69446 100.373L43.7867 80.1567C46.0132 78.8364 47.6067 75.3156 46.8819 73.3078C46.4734 72.1715 46.0017 71.1044 45.4839 70.1378L45.3228 69.8387L46.2318 68.3717L41.4855 65.7253L41.477 65.7311Z" fill="#F6AC1F"/>
  <path d="M8.36004 102.932C9.98814 95.9993 13.5349 85.2642 20.4356 81.1738C21.7588 80.3885 23.5279 79.33 24.5375 78.7317L24.9805 74.1292C23.6343 73.4561 22.0379 72.4781 21.6352 70.5336L21.0857 68.1317L19.1958 59.7035C19.1268 59.4418 19.0635 59.1714 19.0118 58.8924L18.9629 58.6795L18.9772 58.6709C18.8736 58.0352 18.8018 57.365 18.7931 56.6401C18.7068 49.2446 23.7925 40.1922 30.1553 36.4182C36.5182 32.6442 41.7448 35.5812 41.8311 42.9767C41.8397 43.6757 41.8426 44.2165 41.7592 44.9413L41.7189 45.111L41.6671 45.5655C41.6153 45.9654 41.5607 46.1897 41.4831 46.5953L39.3515 60.0286C39.0006 62.419 37.7292 65.6493 36.0982 68.0368L36.6419 71.6756C37.6458 71.0801 39.4407 69.9036 40.7467 69.1298C47.6646 65.0279 51.4214 71.4253 53.1933 76.3413C54.0074 78.5993 52.3102 82.4308 49.845 83.895L31.2139 94.9436L30.4056 95.424L11.8378 106.435C9.3726 107.896 7.60927 106.116 8.35716 102.935L8.36004 102.932Z" fill="#FFD687"/>
  <path d="M8.75884 107.083C7.70316 106.309 7.34068 104.707 7.78654 102.797C9.63038 94.9498 13.2691 84.7411 20.1354 80.668L23.9813 78.3783L24.361 74.4691C22.9141 73.7011 21.4729 72.6253 21.0673 70.6635L18.631 59.8536C18.5562 59.5774 18.4929 59.2927 18.444 59.0194L18.3203 58.3866L18.3462 58.3722C18.2628 57.7739 18.2196 57.2072 18.2139 56.6463C18.1247 49.0753 23.3513 39.7756 29.8637 35.9124C33.1286 33.9765 36.2496 33.6486 38.6428 34.9977C41.039 36.3439 42.3823 39.1773 42.4254 42.9714C42.434 43.6416 42.4398 44.2256 42.3392 45.0799L42.2586 45.6379C42.2212 45.9342 42.1809 46.1384 42.132 46.383L39.9401 60.1154C39.5777 62.5949 38.2948 65.8051 36.7213 68.1782L37.101 70.7124C37.4203 70.5139 37.7684 70.2953 38.1308 70.0652C38.9161 69.5704 39.7561 69.0383 40.455 68.624C42.8253 67.2203 45.0517 66.8752 47.0681 67.6001C50.494 68.8312 52.5968 72.9245 53.756 76.1433C54.6736 78.689 52.8902 82.7794 50.1517 84.4017L12.1416 106.942C11.4685 107.339 10.804 107.54 10.1942 107.54C9.66493 107.54 9.17593 107.388 8.76172 107.086L8.75884 107.083ZM41.0533 69.6308C40.3629 70.0422 39.5316 70.5657 38.755 71.0547C38.0646 71.489 37.4203 71.8975 36.9486 72.1766L36.1978 72.6224L35.4902 67.8905L35.6196 67.7007C37.1586 65.4455 38.4271 62.3274 38.778 59.9313L40.9124 46.4807L40.9786 46.1471C41.0217 45.9313 41.0562 45.7501 41.0907 45.4912L41.154 44.9648L41.1828 44.8699C41.2634 44.1594 41.2576 43.6129 41.249 42.98C41.2116 39.6231 40.0811 37.1494 38.0646 36.0189C36.0482 34.8913 33.353 35.2077 30.4621 36.9192C24.2689 40.5896 19.3041 49.432 19.3875 56.629C19.3933 57.2504 19.4508 57.8861 19.5629 58.5707L19.5946 58.7835C19.6435 59.0482 19.701 59.3013 19.7729 59.5717L22.2151 70.4103C22.5545 72.0528 23.872 72.9129 25.2469 73.5975L25.6094 73.7788L25.0973 79.0802L20.7366 81.6748C13.8819 85.7393 10.3984 96.8195 8.93427 103.062C8.60059 104.474 8.80197 105.648 9.45781 106.128C9.95832 106.496 10.6976 106.421 11.5404 105.921L49.5505 83.3805C51.7798 82.0602 53.3705 78.5394 52.6485 76.5316C51.5727 73.5515 49.6656 69.7747 46.6683 68.6988C46.116 68.5004 45.5407 68.4025 44.9452 68.4025C43.7313 68.4025 42.4283 68.811 41.0533 69.6279V69.6308Z" fill="#F6AC1F"/>
  <path d="M19.5475 51.3102L13.8606 48.1748L13.0781 54.5462L16.018 67.8818L17.8388 70.1053L19.208 70.9078L18.765 75.5103L24.5382 78.7319L24.9811 74.1295L21.9004 72.2914L21.2819 68.9834L18.7967 56.6403L19.5475 51.3102Z" fill="#F6AC1F"/>
  <path d="M9.45091 99.0574L3.66623 95.8213L2.41211 100.332L2.48978 101.899L3.51664 103.493L8.53908 105.926L8.18528 103.568L8.77491 100.038L9.45091 99.0574Z" fill="#F6AC1F"/>
  <path d="M22.6409 14.2367L28.4054 9.93918C28.6096 9.78672 28.7823 9.53932 28.8743 9.27469L31.4516 1.75262C31.6472 1.18019 32.1593 0.823526 32.444 0.984611H32.4555L35.3493 2.74215C35.358 2.7479 35.3637 2.75652 35.3666 2.76803C35.3839 2.94062 35.542 4.47379 35.6657 5.70493C35.6657 5.72794 35.6916 5.74235 35.7146 5.73373L41.3813 3.41237C41.5223 3.35484 41.6345 3.36346 41.7236 3.41237L44.6232 5.15842C44.6462 5.17281 44.6462 5.20444 44.6232 5.21882L43.6135 5.89767C43.6135 5.89767 43.6106 5.90055 43.6078 5.90343L37.406 12.4274C37.406 12.4274 37.3945 12.4475 37.3974 12.459L38.3553 18.3472C38.4416 18.8851 37.9094 19.6416 37.4521 19.6272L32.2944 19.4748C32.1506 19.469 31.9838 19.5525 31.8314 19.6905L30.8936 22.5411L28.7851 27.9231C28.7765 27.9432 28.7535 27.9518 28.7334 27.9403L25.7907 26.18C25.6814 26.0908 25.621 25.9239 25.6555 25.6766L26.6393 18.4766C26.6738 18.2235 26.6076 18.025 26.4609 17.9445L25.3764 17.3491H25.178L22.2899 15.6577C21.9217 15.4563 22.1232 14.6135 22.6352 14.2309L22.6409 14.2367Z" fill="#FFF8EE"/>
  <path d="M25.5698 26.4702C25.4403 26.3666 25.2332 26.1193 25.2994 25.6331L26.2831 18.4332C26.2975 18.3211 26.2831 18.2693 26.2889 18.2722L25.2907 17.7256H25.0865L22.1179 15.9854C21.8965 15.8646 21.7612 15.6344 21.7411 15.341C21.7066 14.8491 21.9914 14.2623 22.42 13.943L28.1873 9.64554C28.3312 9.53911 28.4607 9.35211 28.5268 9.15651L31.1042 1.63447C31.2624 1.17136 31.6076 0.783003 31.9844 0.639178C32.2145 0.552882 32.4417 0.56152 32.5855 0.647816L32.6374 0.673694C32.6374 0.673694 32.6459 0.679446 35.5426 2.43411L35.7123 2.55494L35.9856 5.23011L41.241 3.07561C41.402 3.00945 41.5401 2.99791 41.6552 3.0123L41.7098 2.9749L44.8164 4.84751C44.9344 4.91942 45.0063 5.04312 45.0091 5.18119L44.9977 5.41133L43.8528 6.18221L37.7891 12.5623L38.7183 18.2894C38.7844 18.6893 38.6147 19.184 38.2897 19.558C38.0365 19.8485 37.7374 19.9952 37.4411 19.9952L32.2864 19.8427C32.2864 19.8427 32.2231 19.8542 32.1483 19.9089L31.2365 22.679L29.1251 28.0667L29.0417 28.2422L28.6936 28.3486L25.564 26.4731L25.5698 26.4702ZM32.3123 19.1092L37.4698 19.2617C37.5158 19.2502 37.6223 19.2128 37.7432 19.0747C37.9215 18.8705 38.0279 18.5915 37.9991 18.4074L37.0441 12.5307L37.0154 12.3149L43.3351 5.66734L43.9938 5.20707L41.7415 3.84937L41.7213 3.86377L41.52 3.75446L35.8504 6.07578C35.7353 6.12181 35.603 6.11318 35.4937 6.04702L35.3182 5.9262L35.019 2.97202C34.4437 2.62396 32.3007 1.32381 32.2864 1.31231C32.1972 1.31231 31.9239 1.50501 31.7974 1.87033L29.22 9.3924C29.105 9.72895 28.8863 10.0368 28.6246 10.2324L22.86 14.5298C22.5321 14.7743 22.4257 15.2518 22.4804 15.3468L25.2792 16.9893H25.4748L26.6427 17.6278C26.9275 17.7832 27.0655 18.1226 27.008 18.5311L26.0242 25.731C26.0127 25.8259 26.0242 25.8776 26.03 25.8949L28.5958 27.4281L30.5547 22.4259L31.5212 19.4832L31.5931 19.417C31.8146 19.2157 32.062 19.1064 32.2921 19.1064C32.2979 19.1064 32.3065 19.1064 32.3123 19.1064V19.1092Z" fill="#F6AC1F"/>
  <path d="M34.4536 3.55609L31.8763 11.0782C31.7843 11.3428 31.6088 11.5902 31.4075 11.7427L25.6429 16.0401C25.1309 16.4198 24.9296 17.2626 25.2978 17.4669L29.4687 19.7537C29.6154 19.8343 29.6815 20.0327 29.647 20.2859L28.6633 27.4857C28.577 28.1243 29.1091 28.2624 29.5665 27.7216L34.724 21.6148C34.9052 21.3991 35.121 21.2754 35.3022 21.2811L40.4598 21.4336C40.9172 21.448 41.4493 20.6915 41.363 20.1536L40.3793 14.0927C40.3448 13.8799 40.4109 13.6037 40.5576 13.3535L44.7285 6.2485C45.0996 5.61854 44.8954 5.01161 44.3834 5.2216L38.6188 7.5832C38.4146 7.66662 38.242 7.62061 38.15 7.45953L35.5726 2.91464C35.3454 2.51192 34.6838 2.8945 34.4565 3.55897L34.4536 3.55609Z" fill="#FFD687"/>
  <path d="M28.7136 28.3603C28.3943 28.2193 28.239 27.8713 28.2994 27.4312L29.2831 20.2313C29.2975 20.1191 29.2831 20.0673 29.2889 20.0673L25.1179 17.7805C24.8965 17.6597 24.7612 17.4296 24.7411 17.1362C24.7066 16.6443 24.9914 16.0574 25.42 15.7382L31.1874 11.4407C31.3312 11.3342 31.4607 11.1473 31.5268 10.9517L34.1042 3.42961C34.2998 2.86006 34.7687 2.41707 35.2203 2.3768C35.4993 2.35091 35.7495 2.48034 35.8876 2.72484L38.4764 7.23234L44.241 4.87074C44.566 4.73842 44.8824 4.79881 45.0838 5.03181C45.3599 5.3511 45.3427 5.90916 45.0406 6.42118L40.8697 13.5261C40.746 13.7361 40.7201 13.926 40.7374 14.0209L41.7211 20.0817C41.7873 20.4815 41.6176 20.9792 41.2925 21.3502C41.0365 21.6407 40.7316 21.7875 40.444 21.7875L35.2864 21.635C35.249 21.635 35.1282 21.6839 34.9988 21.8392L29.8411 27.9461C29.5851 28.2481 29.2802 28.412 28.9955 28.412C28.8977 28.412 28.7999 28.3919 28.7078 28.3516L28.7136 28.3603ZM35.3123 20.9101L40.4699 21.0626C40.5015 21.0568 40.6223 21.0137 40.7432 20.8756C40.9215 20.6714 41.0279 20.3924 40.9991 20.2083L40.0154 14.1475C39.9665 13.8483 40.047 13.4887 40.2398 13.1637L44.4107 6.05874C44.5804 5.76821 44.5574 5.55823 44.52 5.55535L38.7554 7.91695C38.3844 8.0694 38.0104 7.95723 37.8292 7.63506L35.2922 3.11032C35.203 3.11032 34.9268 3.30303 34.8002 3.67122L32.2229 11.1933C32.1078 11.5298 31.8893 11.8376 31.6275 12.0332L25.863 16.3307C25.5351 16.5752 25.4286 17.0527 25.4746 17.1419L29.6456 19.4287C29.9303 19.5841 30.0684 19.9235 30.0109 20.332L29.0271 27.5319C29.0156 27.6182 29.0243 27.6671 29.0185 27.6843C29.0617 27.6757 29.1623 27.6296 29.286 27.4829L34.4436 21.3761C34.6938 21.0799 35.0017 20.9101 35.2922 20.9101C35.2979 20.9101 35.3065 20.9101 35.3151 20.9101H35.3123Z" fill="#F6AC1F"/>
  <path d="M34.3777 3.77877L31.3689 2.00684L28.875 9.27865L31.8752 11.0793L34.3777 3.77877Z" fill="#F6AC1F"/>
  <path d="M25.8693 16.0351L22.6419 14.2373L22.2305 14.758L22.2966 15.6641L25.0178 17.2634L25.363 16.1502L25.8693 16.0351Z" fill="#F6AC1F"/>
  <path d="M28.7393 27.9468L25.6758 25.9965L26.6481 18.2559L29.4671 19.7517L29.6454 20.2838L28.6616 27.4837L28.7393 27.9468Z" fill="#F6AC1F"/>
  <path d="M43.6016 5.53605L40.5957 3.73823L41.6111 3.41895L43.7886 4.65874L44.2748 4.94927L44.384 5.21676L43.6016 5.53605Z" fill="#F6AC1F"/>
  <path d="M39.4267 3.94749L39.0566 4.58081L42.104 6.36153L42.4741 5.72821L39.4267 3.94749Z" fill="#F6AC1F"/>
  <path d="M23.7548 13.2143L23.3848 13.8477L26.4346 15.6298L26.8047 14.9965L23.7548 13.2143Z" fill="#F6AC1F"/>
  <path d="M28.3095 9.8784L27.9395 10.5117L30.9868 12.2924L31.3569 11.6591L28.3095 9.8784Z" fill="#F6AC1F"/>
  <path d="M25.9166 24.1091L25.627 24.5928L28.6277 26.3901L28.9174 25.9065L25.9166 24.1091Z" fill="#FFD687"/>
  <path d="M29.491 7.5076L29.2012 7.99121L32.2016 9.78907L32.4914 9.30546L29.491 7.5076Z" fill="#FFD687"/>
  <path d="M0.902606 27.2323L6.66714 22.9348C6.87137 22.7824 7.04392 22.535 7.13597 22.2703L9.71331 14.7483C9.90891 14.1758 10.4209 13.8191 10.7057 13.9802H10.7172L13.611 15.7378C13.6196 15.7435 13.6254 15.7522 13.6283 15.7637C13.6455 15.9363 13.8037 17.4694 13.9274 18.7006C13.9274 18.7236 13.9533 18.738 13.9763 18.7293L19.643 16.408C19.784 16.3505 19.8961 16.3591 19.9853 16.408L22.8848 18.154C22.9079 18.1684 22.9079 18.2001 22.8848 18.2145L21.8752 18.8933C21.8752 18.8933 21.8723 18.8962 21.8694 18.8991L15.6677 25.423C15.6677 25.423 15.6562 25.4431 15.6591 25.4546L16.6169 31.3428C16.7032 31.8807 16.1711 32.6372 15.7137 32.6229L10.5562 32.4704C10.4124 32.4647 10.2455 32.5481 10.093 32.6861L9.15528 35.5367L7.04678 40.9187C7.03815 40.9389 7.01516 40.9474 6.99503 40.9359L4.05237 39.1756C3.94306 39.0864 3.88266 38.9195 3.91718 38.6722L4.90092 31.4723C4.93544 31.2191 4.86932 31.0206 4.72261 30.9401L3.63817 30.3447H3.4397L0.551681 28.6533C0.183488 28.4519 0.384829 27.6091 0.896847 27.2265L0.902606 27.2323Z" fill="#FFF8EE"/>
  <path d="M3.83147 39.4658C3.70203 39.3623 3.49494 39.1148 3.5611 38.6287L4.54484 31.4289C4.55922 31.3167 4.54485 31.2649 4.5506 31.2678L3.55246 30.7212H3.34824L0.379666 28.981C0.158175 28.8602 0.0229624 28.63 0.00282684 28.3366C-0.0316912 27.8448 0.253114 27.2579 0.681713 26.9386L6.44912 22.6411C6.59295 22.5347 6.72237 22.3478 6.78853 22.1521L9.36587 14.63C9.52408 14.1669 9.86928 13.7786 10.2461 13.6348C10.4762 13.5485 10.7035 13.5571 10.8473 13.6434L10.8991 13.6693C10.8991 13.6693 10.9077 13.6751 13.8043 15.4297L13.974 15.5505L14.2473 18.2257L19.5027 16.0712C19.6638 16.005 19.8018 15.9935 19.9169 16.0079L19.9716 15.9705L23.0782 17.8431C23.1961 17.915 23.268 18.0387 23.2709 18.1768L23.2594 18.4069L22.1146 19.1778L16.0509 25.5579L16.98 31.2851C17.0461 31.6849 16.8764 32.1796 16.5514 32.5536C16.2982 32.8441 15.9991 32.9908 15.7028 32.9908L10.5481 32.8383C10.5481 32.8383 10.4849 32.8498 10.4101 32.9045L9.49818 35.6746L7.38687 41.0623L7.30344 41.2377L6.95539 41.3442L3.82572 39.4687L3.83147 39.4658ZM10.574 32.1048L15.7316 32.2573C15.7776 32.2458 15.8841 32.2084 16.0049 32.0703C16.1832 31.8661 16.2896 31.5871 16.2608 31.403L15.3059 25.5263L15.2771 25.3105L21.5968 18.6629L22.2555 18.2027L20.0032 16.845L19.983 16.8593L19.7817 16.75L14.1121 19.0714C13.997 19.1174 13.8647 19.1088 13.7554 19.0426L13.58 18.9218L13.2808 15.9676C12.7055 15.6196 10.5625 14.3194 10.5481 14.3079C10.459 14.3079 10.1856 14.5006 10.0591 14.8659L7.48174 22.388C7.36668 22.7245 7.14812 23.0324 6.88636 23.228L1.12183 27.5254C0.793905 27.7699 0.687455 28.2474 0.742109 28.3423L3.54094 29.9849H3.73653L4.9044 30.6234C5.18918 30.7788 5.32726 31.1182 5.26973 31.5266L4.28598 38.7265C4.27448 38.8215 4.28599 38.8733 4.29174 38.8905L6.85756 40.4237L8.81648 35.4214L9.78295 32.4788L9.85486 32.4126C10.0764 32.2113 10.3238 32.1019 10.5539 32.1019C10.5597 32.1019 10.5682 32.1019 10.574 32.1019V32.1048Z" fill="#F6AC1F"/>
  <path d="M12.7135 16.5507L10.1361 24.0728C10.044 24.3374 9.86859 24.5848 9.66724 24.7373L3.90271 29.0348C3.39069 29.4145 3.18935 30.2573 3.55754 30.4615L7.72847 32.7483C7.87518 32.8289 7.9413 33.0274 7.90678 33.2805L6.92304 40.4804C6.83674 41.119 7.36894 41.257 7.8263 40.7162L12.9839 34.6094C13.1651 34.3937 13.3808 34.27 13.562 34.2757L18.7196 34.4282C19.177 34.4426 19.7091 33.6861 19.6228 33.1482L18.639 27.0874C18.6045 26.8745 18.6707 26.5983 18.8174 26.3481L22.9884 19.2431C23.3594 18.6132 23.1551 18.0062 22.6431 18.2162L16.8787 20.5778C16.6744 20.6612 16.5018 20.6152 16.4097 20.4541L13.8324 15.9093C13.6052 15.5066 12.9436 15.8891 12.7164 16.5536L12.7135 16.5507Z" fill="#FFD687"/>
  <path d="M6.97523 41.3549C6.65594 41.214 6.50062 40.8659 6.56103 40.4258L7.54477 33.2259C7.55915 33.1137 7.54478 33.0619 7.55053 33.0619L3.3796 30.7751C3.15811 30.6543 3.02296 30.4242 3.00283 30.1308C2.96831 29.6389 3.25304 29.0521 3.68164 28.7328L9.44905 24.4353C9.59288 24.3289 9.7223 24.1419 9.78846 23.9463L12.3658 16.4242C12.5614 15.8547 13.0303 15.4117 13.4819 15.3714C13.7609 15.3455 14.0112 15.475 14.1493 15.7195L16.7381 20.227L22.5026 17.8653C22.8277 17.733 23.1441 17.7934 23.3455 18.0264C23.6216 18.3457 23.6043 18.9038 23.3023 19.4158L19.1313 26.5208C19.0077 26.7308 18.9818 26.9206 18.999 27.0155L19.9828 33.0763C20.0489 33.4762 19.8792 33.9738 19.5542 34.3448C19.2982 34.6354 18.9933 34.7821 18.7056 34.7821L13.5481 34.6296C13.5107 34.6296 13.3899 34.6785 13.2604 34.8338L8.10287 40.9407C7.84686 41.2427 7.5419 41.4067 7.25712 41.4067C7.15932 41.4067 7.06152 41.3866 6.96947 41.3463L6.97523 41.3549ZM13.574 33.9047L18.7315 34.0572C18.7632 34.0514 18.884 34.0083 19.0048 33.8703C19.1831 33.666 19.2896 33.387 19.2608 33.2029L18.277 27.1421C18.2281 26.8429 18.3087 26.4834 18.5014 26.1583L22.6723 19.0533C22.8421 18.7628 22.8191 18.5528 22.7817 18.5499L17.0172 20.9116C16.6461 21.064 16.2722 20.9518 16.0909 20.6297L13.5538 16.1049C13.4647 16.1049 13.1885 16.2977 13.062 16.6659L10.4846 24.1879C10.3696 24.5244 10.1509 24.8323 9.88917 25.0279L4.12464 29.3254C3.79672 29.5699 3.69026 30.0474 3.73628 30.1366L7.90721 32.4234C8.19199 32.5787 8.33007 32.9181 8.27254 33.3266L7.28879 40.5265C7.27729 40.6128 7.28591 40.6617 7.28016 40.6789C7.3233 40.6703 7.42396 40.6243 7.54765 40.4776L12.7053 34.3708C12.9555 34.0745 13.2633 33.9047 13.5538 33.9047C13.5596 33.9047 13.5682 33.9047 13.5769 33.9047H13.574Z" fill="#F6AC1F"/>
  <path d="M12.6395 16.7729L9.63063 15.001L7.13672 22.2728L10.1369 24.0735L12.6395 16.7729Z" fill="#F6AC1F"/>
  <path d="M4.13094 29.0321L0.903508 27.2314L0.492188 27.755L0.558342 28.6582L3.27951 30.2575L3.62467 29.1472L4.13094 29.0321Z" fill="#F6AC1F"/>
  <path d="M7.0029 40.9409L3.93945 38.9907L4.91168 31.25L7.73067 32.7458L7.90898 33.278L6.92523 40.4779L7.0029 40.9409Z" fill="#F6AC1F"/>
  <path d="M21.8634 18.5331L18.8574 16.7324L19.8728 16.4131L22.0504 17.6528L22.5365 17.9434L22.6458 18.2109L21.8634 18.5331Z" fill="#F6AC1F"/>
  <path d="M17.6884 16.9409L17.3184 17.5742L20.3657 19.3549L20.7358 18.7216L17.6884 16.9409Z" fill="#F6AC1F"/>
  <path d="M2.02044 26.2105L1.65039 26.8438L4.70021 28.6259L5.07026 27.9927L2.02044 26.2105Z" fill="#F6AC1F"/>
  <path d="M6.57321 22.8706L6.20312 23.5039L9.25046 25.2846L9.62054 24.6513L6.57321 22.8706Z" fill="#F6AC1F"/>
  <path d="M4.17837 37.1033L3.88867 37.5869L6.88939 39.3842L7.17908 38.9006L4.17837 37.1033Z" fill="#FFD687"/>
  <path d="M7.75462 20.5027L7.46484 20.9863L10.4653 22.7842L10.7551 22.3006L7.75462 20.5027Z" fill="#FFD687"/>
</svg>