<svg xmlns="http://www.w3.org/2000/svg" width="68" height="100" viewBox="0 0 68 100" fill="none">
  <path d="M12.1469 91.8437C13.7397 85.0618 17.2094 74.5597 23.9603 70.5581C25.2548 69.7899 26.9855 68.7543 27.9732 68.169L28.4066 63.6665C28.0323 63.4807 27.6411 63.264 27.2612 63.0164L27.2134 62.9911L27.0699 62.887C26.1272 62.2594 25.4124 61.4912 25.1366 60.1517L24.5991 57.8019L22.7503 49.5567C22.6827 49.3006 22.6209 49.0361 22.573 48.7631L22.5251 48.5549L22.5392 48.5464C22.4379 47.9245 22.3676 47.2689 22.3592 46.5598C22.2747 39.3248 27.25 30.4689 33.4747 26.7769C36.3254 25.0856 38.6638 24.6861 40.6702 25.5359L40.9516 25.6287L41.1036 25.7132C41.3372 25.8229 41.5623 25.9439 41.779 26.0846L47.0413 28.9887L47.3255 29.5684L44.7619 31.5017C44.835 32.0392 44.8885 32.5936 44.8941 33.193C44.9026 33.8768 44.9054 34.4058 44.8238 35.1149L44.7844 35.281L44.7338 35.7256C44.6831 36.1168 44.6296 36.3362 44.5536 36.733L42.4684 49.8747C42.1251 52.2132 40.8813 55.3734 39.2857 57.7091L39.8176 61.2689C40.7997 60.6864 42.5556 59.5354 43.8332 58.7784C46.47 57.2138 48.4061 57.1181 50.1733 57.982L50.4097 58.0777L51.0232 58.4182C51.0232 58.4182 51.0345 58.4238 51.0401 58.4295L55.6411 60.9903L54.6083 62.6562C55.1711 63.7058 55.6382 64.8033 56.0097 65.8361C56.8061 68.0451 55.1458 71.7935 52.7341 73.2258L34.5074 84.0346L33.7167 84.5046L19.6323 92.8568C19.4465 94.5452 19.1539 96.8189 18.9991 98.0064C18.9485 98.392 18.5264 98.6003 18.1859 98.4089L13.0587 95.5526C12.1441 95.0404 11.7163 93.6869 12.1469 91.8521V91.8437Z" fill="#FFD687"/>
  <path d="M12.1484 94.3732C13.7411 87.5913 17.2137 77.0893 23.9618 73.0877C25.2563 72.3194 26.9869 71.2839 27.9747 70.6985L28.4081 66.196C28.0338 66.0103 28.6472 65.3349 28.2673 65.0872L28.833 64.8284L28.2307 62.9232C27.288 62.2957 26.4241 62.715 26.1484 61.3755L24.6006 60.3259L22.7518 52.0806C22.6842 51.8246 22.6223 51.5601 22.5745 51.2871L22.5266 51.0788L22.5407 51.0704C22.4394 50.4485 22.3691 49.7928 22.3606 49.0837C22.2762 41.8487 27.2515 32.9929 33.4762 29.3008C36.3268 27.6096 38.6653 27.21 40.6717 28.0598L40.9531 28.1526L41.1051 28.2371C41.3386 28.3468 41.5638 28.4679 41.7805 28.6086L47.0428 31.5127L47.327 32.0923L44.7634 34.0256C44.8365 34.5631 44.89 35.1175 44.8984 35.7169C44.9069 36.4007 44.9097 36.9298 44.8281 37.6389L44.7887 37.8049L44.738 38.2495C44.6874 38.6407 44.6339 38.8602 44.5579 39.257L42.4727 52.3987C42.1294 54.7372 40.8856 57.8973 39.29 60.233L39.8218 63.7928C40.804 63.2103 42.5599 62.0593 43.8375 61.3023C46.4743 59.7377 48.4104 59.642 50.1776 60.5059L50.414 60.6016L51.0275 60.9421C51.0275 60.9421 51.0387 60.9478 51.0444 60.9534L55.6453 63.5142L54.6126 65.1801C55.1754 66.2298 55.6425 67.3273 56.014 68.36C56.8104 70.5691 55.1501 74.3174 52.7384 75.7498L34.5117 86.5586L33.721 87.0285L19.6366 95.3807C19.4508 97.0691 20.751 96.6357 20.5962 97.8233C20.5456 98.2088 20.1234 98.417 19.7829 98.2257L14.6557 95.3694C13.7411 94.8573 11.7206 96.2136 12.1512 94.376L12.1484 94.3732Z" fill="#FFF8EE"/>
  <path d="M17.9038 98.9035L12.7738 96.0472C11.5722 95.3746 11.1163 93.7115 11.5863 91.7107C13.3901 84.034 16.9499 74.0441 23.667 70.0622L27.4295 67.8221L27.8009 63.9978C27.5138 63.8431 27.2099 63.6686 26.8778 63.4547L26.754 63.3647C25.9239 62.8103 24.9249 61.9605 24.5788 60.2777L22.1953 49.7024C22.1221 49.4322 22.0602 49.1537 22.0124 48.892L21.8857 48.27L21.9139 48.2532C21.8323 47.665 21.7901 47.1106 21.7844 46.5647C21.6972 39.1581 26.8104 30.0602 33.1814 26.2809C36.1868 24.4968 38.7139 24.0803 40.8525 24.9892L41.3478 25.1918C41.6067 25.3128 41.8572 25.448 42.057 25.583L47.4769 28.5772L48.048 29.7479L45.3747 31.7655C45.4338 32.2692 45.4648 32.728 45.4704 33.1923C45.4788 33.9239 45.4788 34.4614 45.386 35.2521L45.3072 35.8009C45.2706 36.0908 45.2312 36.2905 45.1834 36.5297L43.0391 49.9641C42.6845 52.3898 41.4294 55.5303 39.8901 57.8519L40.2616 60.3311C40.5711 60.1397 40.9088 59.9259 41.2577 59.7036C42.0288 59.2167 42.8561 58.6961 43.5427 58.2881C46.1795 56.7263 48.3689 56.4646 50.395 57.4551L56.4509 60.7869L55.2718 62.6837C55.7446 63.6011 56.1751 64.5944 56.5522 65.644C57.4499 68.1345 55.7052 72.1389 53.029 73.7233L20.172 93.2078C19.9863 94.8625 19.7161 96.9618 19.5669 98.0846C19.5191 98.4532 19.294 98.774 18.9619 98.9401C18.8043 99.0189 18.6298 99.061 18.4554 99.061C18.264 99.061 18.0755 99.0132 17.9038 98.9175V98.9035ZM50.1896 58.6033L49.9223 58.4907C48.2226 57.6605 46.4328 57.8969 44.1281 59.2646C43.4471 59.667 42.631 60.1819 41.8684 60.6631C41.1958 61.0853 40.5683 61.4821 40.1096 61.755L39.3752 62.1912L38.6829 57.562L38.8095 57.3763C40.3151 55.1701 41.556 52.1197 41.8994 49.7755L43.9874 36.617L44.0521 36.2906C44.0943 36.0795 44.1281 35.9022 44.1619 35.649L44.2238 35.1396L44.2519 35.0411C44.3279 34.3798 44.3279 33.9014 44.3194 33.1923C44.3138 32.6773 44.2716 32.1651 44.1928 31.5714L44.145 31.2365L46.5932 29.3905L41.4632 26.5567C41.269 26.4301 41.0692 26.3203 40.8272 26.2078L40.4473 26.0558C38.6266 25.2875 36.4372 25.6787 33.7695 27.2602C27.7108 30.851 22.8537 39.5014 22.9353 46.5422C22.941 47.1557 22.9973 47.7579 23.107 48.4445L23.1408 48.6527C23.1886 48.9116 23.2449 49.1593 23.3153 49.4238L25.7044 60.0272C25.9155 61.0543 26.4051 61.7409 27.4126 62.4135L27.5814 62.5289C27.9416 62.7653 28.3131 62.9707 28.6704 63.1452L29.025 63.3224L28.5241 68.5088L24.258 71.0471C17.5521 75.0234 14.1443 85.8631 12.7119 91.9696C12.3686 93.4273 12.6162 94.6318 13.3422 95.037L18.4328 97.9186C18.5876 96.7339 18.8831 94.4629 19.066 92.7801L19.097 92.4931L52.4493 72.7158C54.6274 71.4241 56.1864 67.9797 55.4772 66.0155C55.0776 64.9039 54.6161 63.8599 54.1096 62.9144L53.952 62.6217L54.8412 61.1866L50.198 58.5977L50.1896 58.6033Z" fill="#F6AC1F"/>
  <path d="M17.7936 94.9965C19.3864 88.2146 22.8562 77.7126 29.6072 73.711C30.9016 72.9427 32.6323 71.9072 33.62 71.3218L34.0533 66.8193C32.7363 66.1609 31.1746 65.2041 30.7806 63.3018L30.2431 60.952L28.3943 52.7068C28.3267 52.4507 28.2648 52.1862 28.2141 51.9132L28.1663 51.705L28.1804 51.6966C28.0791 51.0747 28.0087 50.419 28.0003 49.7098C27.9158 42.4749 32.8911 33.619 39.1158 29.9269C45.3405 26.2349 50.4537 29.108 50.5381 36.343C50.5466 37.0268 50.5494 37.5559 50.4678 38.265L50.4284 38.431L50.3777 38.8757C50.3271 39.2668 50.2736 39.4863 50.1976 39.8831L48.1124 53.0248C47.7691 55.3633 46.5253 58.5234 44.9297 60.8591L45.4615 64.4189C46.4437 63.8364 48.1996 62.6854 49.4772 61.9285C56.245 57.9156 59.9202 64.1741 61.6537 68.9833C62.4501 71.1924 60.7898 74.9407 58.3781 76.3731L40.1514 87.1819L39.3607 87.6519L21.1959 98.424C18.7842 99.8536 17.0592 98.1117 17.7909 94.9994L17.7936 94.9965Z" fill="#FFD687"/>
  <path d="M18.1848 99.0575C17.1521 98.3005 16.7975 96.7331 17.2337 94.8646C19.0375 87.1878 22.5973 77.2007 29.3145 73.216L33.0769 70.976L33.4483 67.1517C32.0329 66.4003 30.623 65.3479 30.2262 63.4287L27.8427 52.8534C27.7696 52.5832 27.7076 52.3047 27.6598 52.0373L27.5388 51.4183L27.5641 51.4042C27.4825 50.8188 27.4403 50.2645 27.4346 49.7157C27.3474 42.3091 32.4606 33.2112 38.8316 29.4319C42.0256 27.5381 45.0788 27.2173 47.4201 28.5371C49.7642 29.8541 51.0785 32.6259 51.1207 36.3377C51.1291 36.9933 51.1347 37.5646 51.0362 38.4004L50.9574 38.9463C50.9208 39.2361 50.8815 39.436 50.8336 39.6752L48.6893 53.1095C48.3347 55.5352 47.0797 58.6757 45.5404 60.9973L45.9118 63.4765C46.2242 63.2823 46.5646 63.0684 46.9192 62.8433C47.6875 62.3593 48.5092 61.8387 49.193 61.4335C51.5118 60.0602 53.6899 59.7226 55.6625 60.4317C59.0141 61.6361 61.0712 65.6405 62.2052 68.7895C63.1029 71.2799 61.3582 75.2815 58.6792 76.8686L21.4942 98.9196C20.8357 99.3079 20.1856 99.505 19.5891 99.505C19.0713 99.505 18.5929 99.3558 18.1877 99.0603L18.1848 99.0575ZM49.7755 62.4184C49.1002 62.8208 48.2869 63.3329 47.5271 63.8113C46.8517 64.2363 46.2214 64.6359 45.7599 64.9089L45.0254 65.3451L44.3331 60.7159L44.4597 60.5302C45.9653 58.3239 47.2063 55.2735 47.5496 52.9294L49.6377 39.7708L49.7024 39.4444C49.7446 39.2333 49.7783 39.056 49.8121 38.8028L49.874 38.2878L49.9022 38.195C49.981 37.4999 49.9753 36.9652 49.9669 36.3461C49.9303 33.0621 48.8243 30.642 46.8517 29.5361C44.879 28.433 42.2423 28.7425 39.4141 30.4169C33.3555 34.0076 28.4984 42.658 28.58 49.6988C28.5856 50.3067 28.6419 50.9286 28.7517 51.5983L28.7826 51.8066C28.8304 52.0655 28.8867 52.3131 28.9571 52.5776L31.3462 63.181C31.6783 64.7878 32.9671 65.6292 34.3123 66.299L34.6668 66.4763L34.1659 71.6626L29.8998 74.2009C23.1938 78.1772 19.7861 89.0169 18.3537 95.1234C18.0273 96.5051 18.2242 97.6533 18.8658 98.1233C19.3555 98.4835 20.0787 98.4103 20.9032 97.9207L58.0883 75.8696C60.2692 74.578 61.8254 71.1335 61.119 69.1693C60.0666 66.254 58.2009 62.5591 55.2686 61.5066C54.7283 61.3125 54.1655 61.2168 53.583 61.2168C52.3954 61.2168 51.1207 61.6164 49.7755 62.4156V62.4184Z" fill="#F6AC1F"/>
  <path d="M28.7418 44.4945L23.1784 41.4272L22.4102 47.6604L25.2889 60.7064L27.0703 62.8817L28.4098 63.6668L27.9736 68.1693L33.6242 71.321L34.0575 66.8185L31.0437 65.0203L30.4387 61.7841L28.0073 49.709L28.7418 44.4945Z" fill="#F6AC1F"/>
  <path d="M18.8598 91.2054L13.2007 88.0396L11.9766 92.452L12.0497 93.9857L13.0544 95.5446L17.9677 97.9254L17.6244 95.6178L18.1985 92.1649L18.8598 91.2054Z" fill="#F6AC1F"/>
  <path d="M45.8538 14.6347L51.4931 10.4305C51.6929 10.2813 51.8618 10.0393 51.9518 9.78041L54.4732 2.42163C54.6646 1.86163 55.1655 1.5127 55.4441 1.67029H55.4553L58.2863 3.38968C58.2948 3.39531 58.3004 3.40374 58.3032 3.415C58.3201 3.58384 58.4749 5.08373 58.5959 6.28815C58.5959 6.31066 58.6212 6.32476 58.6437 6.31632L64.1874 4.04535C64.3253 3.98906 64.435 3.99751 64.5223 4.04535L67.3588 5.7535C67.3814 5.76757 67.3814 5.79852 67.3588 5.81259L66.3711 6.4767C66.3711 6.4767 66.3683 6.47952 66.3655 6.48234L60.2983 12.8646C60.2983 12.8646 60.2871 12.8843 60.2899 12.8956L61.227 18.6559C61.3114 19.1822 60.7908 19.9223 60.3434 19.9083L55.2977 19.7591C55.157 19.7535 54.9939 19.8351 54.8447 19.9702L53.9273 22.7589L51.8646 28.024C51.8562 28.0437 51.8337 28.0521 51.814 28.0409L48.9352 26.3186C48.8282 26.2314 48.7692 26.0682 48.8029 25.8262L49.7653 18.7826C49.7991 18.535 49.7344 18.3408 49.5909 18.262L48.53 17.6795H48.3357L45.5105 16.0248C45.1503 15.8279 45.3473 15.0033 45.8482 14.629L45.8538 14.6347Z" fill="#FFF8EE"/>
  <path d="M48.719 26.6025C48.5924 26.5012 48.3898 26.2592 48.4545 25.7836L49.4169 18.74C49.431 18.6303 49.4169 18.5796 49.4225 18.5824L48.446 18.0478H48.2463L45.3421 16.3452C45.1254 16.227 44.9932 16.0019 44.9735 15.7149C44.9397 15.2337 45.2183 14.6596 45.6376 14.3472L51.2798 10.1431C51.4205 10.0389 51.5471 9.856 51.6119 9.66464L54.1333 2.30589C54.288 1.85282 54.6257 1.4729 54.9944 1.3322C55.2195 1.24778 55.4418 1.25623 55.5825 1.34065L55.6332 1.36597C55.6332 1.36597 55.6416 1.37159 58.4753 3.08817L58.6414 3.20638L58.9087 5.82347L64.05 3.7157C64.2076 3.65098 64.3427 3.63973 64.4552 3.6538L64.5087 3.61722L67.5479 5.44918C67.6633 5.51953 67.7337 5.64054 67.7365 5.77562L67.7252 6.00072L66.6052 6.75491L60.6731 12.9965L61.5821 18.5993C61.6468 18.9905 61.4808 19.4745 61.1628 19.8403C60.9152 20.1246 60.6225 20.268 60.3327 20.268L55.2899 20.1189C55.2899 20.1189 55.2279 20.1302 55.1547 20.1837L54.2627 22.8936L52.1972 28.1643L52.1156 28.336L51.775 28.4401L48.7134 26.6053L48.719 26.6025ZM55.3152 19.4013L60.3608 19.5505C60.4058 19.5392 60.51 19.5026 60.6281 19.3675C60.8026 19.1677 60.9067 18.8948 60.8786 18.7147L59.9443 12.9655L59.9162 12.7545L66.0987 6.25118L66.7431 5.80094L64.5397 4.4727L64.52 4.48679L64.323 4.37985L58.7765 6.65079C58.6639 6.69581 58.5345 6.68738 58.4275 6.62265L58.2558 6.50445L57.9632 3.6144C57.4004 3.2739 55.3039 2.00194 55.2899 1.99068C55.2026 1.99068 54.9352 2.17924 54.8114 2.53663L52.29 9.89541C52.1775 10.2247 51.9636 10.5257 51.7075 10.7171L46.0682 14.9213C45.7474 15.1605 45.6432 15.6277 45.6967 15.7205L48.4348 17.3273H48.6261L49.7686 17.952C50.0472 18.104 50.1823 18.4361 50.126 18.8357L49.1636 25.8793C49.1524 25.9722 49.1637 26.0228 49.1693 26.0397L51.6794 27.5396L53.5958 22.646L54.5413 19.7672L54.6116 19.7024C54.8283 19.5054 55.0703 19.3985 55.2954 19.3985C55.3011 19.3985 55.3095 19.3985 55.3152 19.3985V19.4013Z" fill="#F6AC1F"/>
  <path d="M57.409 4.1841L54.8876 11.5429C54.7976 11.8018 54.6259 12.0438 54.429 12.1929L48.7896 16.3971C48.2887 16.7686 48.0917 17.5931 48.4519 17.7929L52.5323 20.0301C52.6758 20.1089 52.7405 20.303 52.7067 20.5507L51.7443 27.5943C51.6599 28.219 52.1805 28.3541 52.6279 27.8251L57.6736 21.8508C57.8509 21.6398 58.0619 21.5188 58.2392 21.5244L63.2848 21.6735C63.7322 21.6876 64.2528 20.9475 64.1684 20.4212L63.206 14.492C63.1722 14.2838 63.2369 14.0136 63.3804 13.7688L67.4608 6.81806C67.8239 6.20178 67.6241 5.60803 67.1232 5.81345L61.4838 8.12379C61.284 8.2054 61.1152 8.16039 61.0251 8.00281L58.5037 3.55657C58.2814 3.1626 57.6341 3.53687 57.4118 4.18692L57.409 4.1841Z" fill="#FFD687"/>
  <path d="M51.7933 28.4519C51.4809 28.314 51.329 27.9735 51.3881 27.543L52.3505 20.4994C52.3646 20.3896 52.3505 20.3389 52.3561 20.3389L48.2757 18.1018C48.059 17.9836 47.9268 17.7585 47.9071 17.4714C47.8733 16.9902 48.1519 16.4162 48.5712 16.1038L54.2134 11.8996C54.3541 11.7955 54.4807 11.6126 54.5455 11.4212L57.0669 4.06244C57.2582 3.50526 57.7169 3.07188 58.1587 3.03249C58.4317 3.00716 58.6765 3.13378 58.8116 3.37298L61.3442 7.78263L66.9836 5.47229C67.3016 5.34285 67.6112 5.40192 67.8082 5.62986C68.0783 5.94222 68.0614 6.48814 67.7659 6.98904L63.6855 13.9398C63.5645 14.1452 63.5392 14.3309 63.5561 14.4238L64.5185 20.353C64.5832 20.7442 64.4172 21.2311 64.0992 21.5941C63.8487 21.8783 63.5505 22.0218 63.2691 22.0218L58.2235 21.8727C58.1869 21.8727 58.0687 21.9205 57.9421 22.0725L52.8965 28.0467C52.646 28.3422 52.3477 28.5026 52.0691 28.5026C51.9734 28.5026 51.8777 28.4829 51.7877 28.4435L51.7933 28.4519ZM58.2487 21.1607L63.2944 21.3099C63.3254 21.3042 63.4435 21.262 63.5617 21.1269C63.7362 20.9271 63.8403 20.6542 63.8122 20.4741L62.8498 14.5448C62.8019 14.2522 62.8807 13.9004 63.0693 13.5824L67.1497 6.63169C67.3157 6.34747 67.2932 6.14204 67.2566 6.13922L61.6172 8.44956C61.2542 8.59871 60.8883 8.48896 60.7111 8.17379L58.2291 3.74727C58.1419 3.74727 57.8717 3.9358 57.7479 4.296L55.2264 11.6548C55.1139 11.984 54.9001 12.2851 54.644 12.4765L49.0046 16.6807C48.6838 16.9199 48.5796 17.387 48.6247 17.4743L52.7051 19.7114C52.9836 19.8634 53.1187 20.1955 53.0624 20.5951L52.1001 27.6387C52.0888 27.7231 52.0972 27.771 52.0916 27.7878C52.1338 27.7794 52.2323 27.7343 52.3533 27.5908L57.399 21.6165C57.6438 21.3267 57.9449 21.1607 58.2291 21.1607C58.2347 21.1607 58.2431 21.1607 58.2516 21.1607H58.2487Z" fill="#F6AC1F"/>
  <path d="M57.3344 4.40047L54.3909 2.66699L51.9512 9.78096L54.8862 11.5426L57.3344 4.40047Z" fill="#F6AC1F"/>
  <path d="M49.0138 16.3946L45.8536 14.6357L45.4512 15.1451L45.5159 16.0287L48.1781 17.5933L48.5157 16.5071L49.0138 16.3946Z" fill="#F6AC1F"/>
  <path d="M51.8241 28.0442L48.8242 26.1362L49.7754 18.5664L52.5332 20.0269L52.7076 20.5475L51.7453 27.5911L51.8241 28.0442Z" fill="#F6AC1F"/>
  <path d="M66.3606 6.12279L63.4199 4.364L64.4133 4.04883L66.5436 5.26171L67.0191 5.5459L67.126 5.80762L66.3606 6.12279Z" fill="#F6AC1F"/>
  <path d="M62.2722 4.56603L61.9102 5.18555L64.8913 6.92761L65.2534 6.3081L62.2722 4.56603Z" fill="#F6AC1F"/>
  <path d="M46.9421 13.6324L46.5801 14.252L49.5637 15.9954L49.9257 15.3759L46.9421 13.6324Z" fill="#F6AC1F"/>
  <path d="M51.3992 10.3677L51.0371 10.9873L54.0183 12.7294L54.3803 12.1098L51.3992 10.3677Z" fill="#F6AC1F"/>
  <path d="M49.051 24.2895L48.7676 24.7627L51.7032 26.521L51.9866 26.0479L49.051 24.2895Z" fill="#FFD687"/>
  <path d="M52.5628 8.05325L52.2793 8.52637L55.2146 10.2852L55.4981 9.81208L52.5628 8.05325Z" fill="#FFD687"/>
  <path d="M22.3558 13.6306L27.9951 9.42632C28.1949 9.27718 28.3638 9.03519 28.4538 8.77629L30.9752 1.41751C31.1666 0.857508 31.6675 0.508551 31.9461 0.666139H31.9573L34.7883 2.38553C34.7968 2.39116 34.8024 2.39962 34.8052 2.41088C34.8221 2.57972 34.9768 4.07961 35.0978 5.28403C35.0978 5.30654 35.1232 5.3206 35.1457 5.31216L40.6894 3.04123C40.8273 2.98495 40.937 2.99339 41.0243 3.04123L43.8609 4.74935C43.8834 4.76342 43.8834 4.79436 43.8609 4.80843L42.8731 5.47258C42.8731 5.47258 42.8703 5.47537 42.8675 5.47818L36.8003 11.8605C36.8003 11.8605 36.7891 11.8802 36.7919 11.8914L37.729 17.6519C37.8134 18.1781 37.2928 18.9182 36.8454 18.9041L31.7997 18.755C31.659 18.7493 31.4959 18.8309 31.3467 18.966L30.4293 21.7547L28.3666 27.0198C28.3582 27.0395 28.3357 27.048 28.316 27.0367L25.4372 25.3146C25.3302 25.2273 25.2712 25.0641 25.3049 24.8221L26.2673 17.7785C26.3011 17.5308 26.2363 17.3366 26.0928 17.2579L25.032 16.6754H24.8377L22.0124 15.0207C21.6522 14.8237 21.8493 13.9992 22.3502 13.6249L22.3558 13.6306Z" fill="#FFF8EE"/>
  <path d="M25.219 25.5984C25.0924 25.4971 24.8898 25.255 24.9545 24.7794L25.9169 17.7358C25.931 17.6261 25.9169 17.5755 25.9225 17.5783L24.946 17.0436H24.7463L21.8421 15.3411C21.6254 15.2229 21.4932 14.9978 21.4735 14.7107C21.4397 14.2295 21.7183 13.6555 22.1376 13.3431L27.7798 9.13887C27.9205 9.03475 28.0471 8.85185 28.1119 8.66049L30.6333 1.3017C30.788 0.848639 31.1257 0.468752 31.4944 0.328048C31.7195 0.243626 31.9418 0.252077 32.0825 0.336499L32.1332 0.361816C32.1332 0.361816 32.1416 0.367443 34.9753 2.08402L35.1414 2.20219L35.4087 4.81928L40.55 2.71155C40.7076 2.64683 40.8427 2.63558 40.9552 2.64965L41.0087 2.61307L44.0479 4.44503C44.1633 4.51538 44.2337 4.63636 44.2365 4.77143L44.2252 4.99657L43.1052 5.75076L37.1731 11.9923L38.0821 17.5951C38.1468 17.9863 37.9808 18.4703 37.6628 18.8362C37.4152 19.1204 37.1225 19.2639 36.8327 19.2639L31.7899 19.1147C31.7899 19.1147 31.7279 19.126 31.6547 19.1795L30.7627 21.8894L28.6972 27.1601L28.6156 27.3318L28.275 27.436L25.2134 25.6012L25.219 25.5984ZM31.818 18.3971L36.8636 18.5463C36.9086 18.535 37.0128 18.4985 37.131 18.3634C37.3054 18.1636 37.4095 17.8906 37.3814 17.7105L36.4471 11.9614L36.419 11.7503L42.6015 5.24703L43.2459 4.79678L41.0425 3.46852L41.0228 3.4826L40.8258 3.37567L35.2793 5.64664C35.1667 5.69166 35.0373 5.68319 34.9303 5.61847L34.7587 5.5003L34.466 2.61025C33.9032 2.26975 31.8067 0.997786 31.7926 0.98653C31.7054 0.98653 31.4381 1.17509 31.3142 1.53248L28.7929 8.89123C28.6803 9.22047 28.4664 9.52159 28.2103 9.71295L22.571 13.9171C22.2502 14.1563 22.1461 14.6235 22.1995 14.7164L24.9376 16.3232H25.1289L26.2715 16.9479C26.5501 17.0999 26.6851 17.4319 26.6289 17.8315L25.6665 24.8751C25.6552 24.968 25.6664 25.0187 25.672 25.0356L28.1822 26.5354L30.0986 21.6418L31.0441 18.763L31.1145 18.6983C31.3311 18.5013 31.5731 18.3943 31.7983 18.3943C31.8039 18.3943 31.8123 18.3943 31.818 18.3943V18.3971Z" fill="#F6AC1F"/>
  <path d="M33.911 3.18169L31.3896 10.5404C31.2995 10.7993 31.1279 11.0414 30.9309 11.1905L25.2915 15.3947C24.7906 15.7662 24.5936 16.5907 24.9538 16.7905L29.0342 19.0277C29.1778 19.1065 29.2424 19.3007 29.2087 19.5483L28.2463 26.5919C28.1619 27.2166 28.6824 27.3517 29.1299 26.8226L34.1755 20.8484C34.3528 20.6373 34.5639 20.5163 34.7412 20.522L39.7868 20.6711C40.2342 20.6852 40.7548 19.9451 40.6704 19.4189L39.708 13.4896C39.6742 13.2814 39.7389 13.0112 39.8824 12.7664L43.9628 5.81565C44.3258 5.19937 44.126 4.60558 43.6251 4.81101L37.9857 7.12138C37.7859 7.20299 37.6171 7.15795 37.5271 7.00036L35.0057 2.55412C34.7834 2.16015 34.1361 2.53445 33.9138 3.1845L33.911 3.18169Z" fill="#FFD687"/>
  <path d="M28.2972 27.447C27.9848 27.3091 27.8329 26.9687 27.892 26.5381L28.8544 19.4945C28.8685 19.3847 28.8544 19.3341 28.86 19.3341L24.7796 17.097C24.5629 16.9788 24.4307 16.7536 24.411 16.4666C24.3772 15.9853 24.6558 15.4113 25.0751 15.099L30.7173 10.8947C30.858 10.7906 30.9846 10.6077 31.0494 10.4163L33.5708 3.05756C33.7621 2.50038 34.2208 2.067 34.6627 2.0276C34.9356 2.00228 35.1804 2.12893 35.3155 2.36813L37.8481 6.77775L43.4875 4.46741C43.8055 4.33796 44.1151 4.39707 44.3121 4.62501C44.5822 4.93737 44.5653 5.48329 44.2698 5.98419L40.1894 12.9349C40.0684 13.1403 40.0431 13.3261 40.06 13.419L41.0224 19.3482C41.0871 19.7394 40.9211 20.2262 40.6031 20.5892C40.3527 20.8734 40.0544 21.0169 39.773 21.0169L34.7274 20.8678C34.6908 20.8678 34.5726 20.9156 34.446 21.0676L29.4003 27.0418C29.1498 27.3373 28.8516 27.4977 28.573 27.4977C28.4773 27.4977 28.3816 27.4781 28.2916 27.4387L28.2972 27.447ZM34.7527 20.1586L39.7983 20.3078C39.8293 20.3022 39.9475 20.2599 40.0656 20.1248C40.2401 19.925 40.3442 19.6521 40.3161 19.472L39.3537 13.5428C39.3058 13.2501 39.3846 12.8983 39.5732 12.5803L43.6536 5.62962C43.8196 5.3454 43.7971 5.13997 43.7605 5.13716L38.1212 7.44749C37.7581 7.59664 37.3922 7.4869 37.215 7.17172L34.733 2.7452C34.6458 2.7452 34.3756 2.93373 34.2518 3.29393L31.7304 10.6527C31.6178 10.982 31.404 11.2831 31.1479 11.4744L25.5085 15.6787C25.1877 15.9179 25.0835 16.3849 25.1286 16.4722L29.209 18.7094C29.4876 18.8614 29.6226 19.1934 29.5664 19.593L28.604 26.6366C28.5927 26.721 28.6011 26.7689 28.5955 26.7858C28.6377 26.7773 28.7362 26.7323 28.8572 26.5888L33.9028 20.6145C34.1476 20.3247 34.4488 20.1586 34.733 20.1586C34.7386 20.1586 34.747 20.1586 34.7555 20.1586H34.7527Z" fill="#F6AC1F"/>
  <path d="M33.8384 3.39788L30.8949 1.66162L28.4551 8.7784L31.3901 10.5372L33.8384 3.39788Z" fill="#F6AC1F"/>
  <path d="M25.5149 15.3892L22.3575 13.6304L21.9551 14.1397L22.0198 15.0261L24.682 16.5908L25.0196 15.5017L25.5149 15.3892Z" fill="#F6AC1F"/>
  <path d="M28.3232 27.0416L25.3262 25.1337L26.2774 17.561L29.0352 19.0243L29.2096 19.545L28.2472 26.5886L28.3232 27.0416Z" fill="#F6AC1F"/>
  <path d="M42.8645 5.11757L39.9238 3.35878L40.9144 3.04639L43.0475 4.25645L43.5202 4.54349L43.6271 4.80518L42.8645 5.11757Z" fill="#F6AC1F"/>
  <path d="M38.7741 3.55773L38.4121 4.17725L41.3933 5.91929L41.7553 5.29978L38.7741 3.55773Z" fill="#F6AC1F"/>
  <path d="M23.4441 12.628L23.082 13.2476L26.0656 14.991L26.4277 14.3715L23.4441 12.628Z" fill="#F6AC1F"/>
  <path d="M27.9031 9.36431L27.541 9.98389L30.5222 11.7259L30.8842 11.1064L27.9031 9.36431Z" fill="#F6AC1F"/>
  <path d="M25.5568 23.2851L25.2734 23.7583L28.2091 25.5166L28.4925 25.0435L25.5568 23.2851Z" fill="#FFD687"/>
  <path d="M29.0608 7.04935L28.7773 7.52246L31.7126 9.28129L31.9961 8.80818L29.0608 7.04935Z" fill="#FFD687"/>
  <path d="M0.883086 35.7206L6.52248 31.5164C6.72228 31.3673 6.89109 31.1253 6.98114 30.8664L9.50253 23.5076C9.69389 22.9476 10.1948 22.5986 10.4734 22.7562H10.4846L13.3156 24.4757C13.324 24.4813 13.3297 24.4897 13.3325 24.5009C13.3494 24.6698 13.5042 26.1697 13.6252 27.3741C13.6252 27.3966 13.6505 27.4107 13.673 27.4023L19.2167 25.1313C19.3546 25.075 19.4643 25.0834 19.5515 25.1313L22.3881 26.8394C22.4107 26.8535 22.4107 26.8845 22.3881 26.8985L21.4004 27.5627C21.4004 27.5627 21.3976 27.5655 21.3948 27.5683L15.3277 33.9506C15.3277 33.9506 15.3164 33.9703 15.3193 33.9816L16.2563 39.742C16.3407 40.2682 15.8201 41.0083 15.3727 40.9942L10.3271 40.845C10.1864 40.8394 10.0232 40.921 9.87401 41.0561L8.95662 43.8448L6.89389 49.1099C6.88545 49.1296 6.86295 49.1381 6.84326 49.1268L3.96447 47.4046C3.85754 47.3174 3.79845 47.1542 3.83222 46.9122L4.79461 39.8686C4.82838 39.6209 4.76369 39.4267 4.62017 39.3479L3.55926 38.7655H3.36511L0.539779 37.1108C0.179578 36.9138 0.376549 36.0893 0.877453 35.715L0.883086 35.7206Z" fill="#FFF8EE"/>
  <path d="M3.7483 47.6885C3.62167 47.5871 3.41907 47.3451 3.4838 46.8695L4.44618 39.8259C4.46026 39.7162 4.44619 39.6656 4.45182 39.6684L3.47535 39.1337H3.27556L0.371424 37.4311C0.154741 37.3129 0.0224639 37.0878 0.00276548 36.8008C-0.0310033 36.3196 0.247619 35.7455 0.666915 35.4332L6.30913 31.229C6.44983 31.1249 6.57645 30.9419 6.64117 30.7505L9.16256 23.3918C9.31733 22.9387 9.65504 22.5588 10.0237 22.4181C10.2488 22.3337 10.4711 22.3422 10.6118 22.4266L10.6625 22.4519C10.6625 22.4519 10.6709 22.4575 13.5046 24.1741L13.6707 24.2923L13.938 26.9094L19.0793 24.8016C19.2369 24.7369 19.372 24.7257 19.4845 24.7397L19.538 24.7031L22.5772 26.5351C22.6926 26.6054 22.763 26.7265 22.7658 26.8616L22.7545 27.0867L21.6345 27.8408L15.7024 34.0824L16.6114 39.6852C16.6761 40.0764 16.5101 40.5604 16.1921 40.9262C15.9444 41.2105 15.6518 41.354 15.362 41.354L10.3192 41.2048C10.3192 41.2048 10.2573 41.2161 10.1841 41.2696L9.292 43.9795L7.22652 49.2502L7.1449 49.4219L6.80441 49.526L3.74267 47.6913L3.7483 47.6885ZM10.3473 40.4872L15.3929 40.6364C15.438 40.6251 15.5421 40.5886 15.6603 40.4535C15.8347 40.2537 15.9388 39.9807 15.9107 39.8006L14.9765 34.0515L14.9483 33.8405L21.1308 27.3371L21.7752 26.8868L19.5718 25.5586L19.5521 25.5727L19.3551 25.4658L13.8086 27.7367C13.696 27.7817 13.5666 27.7733 13.4596 27.7086L13.288 27.5904L12.9953 24.7003C12.4325 24.3598 10.3361 23.0879 10.322 23.0767C10.2348 23.0767 9.96736 23.2652 9.84354 23.6226L7.32215 30.9813C7.20959 31.3106 6.99577 31.6116 6.73969 31.803L1.10029 36.0073C0.779489 36.2465 0.675349 36.7136 0.728816 36.8064L3.4669 38.4133H3.65823L4.80076 39.038C5.07935 39.19 5.21443 39.522 5.15815 39.9216L4.19576 46.9652C4.18451 47.0581 4.19577 47.1088 4.2014 47.1256L6.71152 48.6255L8.62791 43.7319L9.5734 40.8531L9.64375 40.7884C9.86044 40.5914 10.1025 40.4844 10.3276 40.4844C10.3332 40.4844 10.3416 40.4844 10.3473 40.4844V40.4872Z" fill="#F6AC1F"/>
  <path d="M12.4403 25.2715L9.91887 32.6303C9.82882 32.8892 9.65719 33.1312 9.46021 33.2803L3.82081 37.4846C3.31991 37.856 3.12294 38.6806 3.48314 38.8803L7.56353 41.1175C7.70705 41.1963 7.77174 41.3905 7.73797 41.6381L6.77558 48.6818C6.69116 49.3065 7.2118 49.4415 7.65923 48.9125L12.7048 42.9382C12.8821 42.7272 13.0932 42.6062 13.2705 42.6118L18.3161 42.761C18.7635 42.775 19.2841 42.0349 19.1996 41.5087L18.2373 35.5795C18.2035 35.3712 18.2682 35.101 18.4118 34.8562L22.4922 27.9055C22.8552 27.2892 22.6553 26.6954 22.1544 26.9009L16.5151 29.2112C16.3153 29.2928 16.1464 29.2478 16.0564 29.0902L13.535 24.644C13.3127 24.25 12.6655 24.6243 12.4431 25.2743L12.4403 25.2715Z" fill="#FFD687"/>
  <path d="M6.82448 49.5373C6.51212 49.3994 6.36018 49.059 6.41928 48.6284L7.38166 41.5848C7.39573 41.475 7.38167 41.4244 7.3873 41.4244L3.3069 39.1873C3.09022 39.0691 2.95801 38.8439 2.93831 38.5569C2.90454 38.0756 3.1831 37.5016 3.60239 37.1893L9.24461 32.9851C9.38531 32.8809 9.51192 32.698 9.57665 32.5066L12.098 25.1479C12.2894 24.5907 12.7481 24.1573 13.1899 24.1179C13.4629 24.0926 13.7077 24.2192 13.8428 24.4584L16.3755 28.868L22.0148 26.5577C22.3328 26.4283 22.6424 26.4874 22.8394 26.7153C23.1095 27.0277 23.0926 27.5736 22.7971 28.0745L18.7167 35.0253C18.5957 35.2307 18.5704 35.4164 18.5873 35.5093L19.5497 41.4385C19.6145 41.8297 19.4484 42.3165 19.1304 42.6795C18.8799 42.9637 18.5817 43.1072 18.3002 43.1072L13.2546 42.9581C13.2181 42.9581 13.0999 43.0059 12.9732 43.1579L7.92764 49.1321C7.67719 49.4276 7.37885 49.588 7.10026 49.588C7.00458 49.588 6.9089 49.5684 6.81885 49.529L6.82448 49.5373ZM13.2828 42.2489L18.3284 42.3981C18.3594 42.3925 18.4775 42.3502 18.5957 42.2151C18.7702 42.0153 18.8744 41.7424 18.8462 41.5623L17.8838 35.6331C17.8359 35.3404 17.9147 34.9887 18.1033 34.6707L22.1837 27.72C22.3497 27.4357 22.3272 27.2303 22.2906 27.2275L16.6512 29.5378C16.2882 29.687 15.9224 29.5772 15.7451 29.2621L13.2631 24.8355C13.1759 24.8355 12.9057 25.0241 12.7819 25.3843L10.2605 32.743C10.148 33.0723 9.93406 33.3733 9.67798 33.5647L4.03859 37.769C3.71778 38.0082 3.61364 38.4752 3.65866 38.5625L7.73905 40.7997C8.01765 40.9517 8.15273 41.2837 8.09645 41.6833L7.13406 48.7269C7.1228 48.8113 7.13124 48.8592 7.12561 48.8761C7.16782 48.8676 7.26629 48.8226 7.3873 48.6791L12.433 42.7048C12.6778 42.415 12.9789 42.2489 13.2631 42.2489C13.2687 42.2489 13.2772 42.2489 13.2856 42.2489H13.2828Z" fill="#F6AC1F"/>
  <path d="M12.3677 25.4892L9.42133 23.7529L6.98438 30.8697L9.91943 32.6313L12.3677 25.4892Z" fill="#F6AC1F"/>
  <path d="M4.04414 37.4795L0.88395 35.7207L0.484375 36.2301L0.546276 37.1165L3.21119 38.6811L3.54604 37.592L4.04414 37.4795Z" fill="#F6AC1F"/>
  <path d="M6.85242 49.1329L3.85547 47.225L4.80377 39.6523L7.56439 41.1156L7.73882 41.6363L6.77362 48.6799L6.85242 49.1329Z" fill="#F6AC1F"/>
  <path d="M21.389 27.2089L18.4512 25.4501L19.4417 25.1377L21.5748 26.3478L22.0476 26.6348L22.1545 26.8965L21.389 27.2089Z" fill="#F6AC1F"/>
  <path d="M17.3035 25.65L16.9414 26.2695L19.9226 28.0116L20.2846 27.392L17.3035 25.65Z" fill="#F6AC1F"/>
  <path d="M1.97334 34.7194L1.61133 35.3389L4.59495 37.0824L4.95696 36.4628L1.97334 34.7194Z" fill="#F6AC1F"/>
  <path d="M6.43037 31.4557L6.06836 32.0752L9.04955 33.8173L9.41156 33.1977L6.43037 31.4557Z" fill="#F6AC1F"/>
  <path d="M4.08809 45.3745L3.80469 45.8477L6.74033 47.606L7.02373 47.1328L4.08809 45.3745Z" fill="#FFD687"/>
  <path d="M7.59013 29.1421L7.30664 29.6152L10.242 31.3741L10.5255 30.901L7.59013 29.1421Z" fill="#FFD687"/>
</svg>