<svg width="100" height="78" viewBox="0 0 100 78" fill="none" xmlns="http://www.w3.org/2000/svg">
<path d="M0.3125 45.4844C0.3125 45.4626 0.3125 45.4407 0.3125 45.4188V39.2633L7.22383 39.4191L41.8624 19.1486C44.6559 17.5332 48.0966 17.5332 50.89 19.1486L88.0436 40.4551L99.6762 42.6281V48.9148C99.7855 50.1995 99.2066 51.5333 97.9341 52.2713L58.1427 75.5185C55.3492 77.1339 51.9086 77.1339 49.1151 75.5185L2.07378 48.5048C0.926902 47.8433 0.342537 46.6926 0.315231 45.5336H0.3125V45.4844Z" fill="#FFDDAB"/>
<path d="M48.961 75.7863L1.91693 48.7726C0.832855 48.1466 0.136534 47.056 0.0218454 45.8206L0 38.9462L7.13798 39.1074L41.7028 18.8806C44.5837 17.216 48.1609 17.216 51.039 18.8779L88.1461 40.157L99.9781 42.3683V48.8846C100.104 50.388 99.3774 51.7847 98.0831 52.5337L58.2917 75.7808C56.8499 76.6145 55.2361 77.03 53.6222 77.03C52.0084 77.03 50.3946 76.6145 48.9555 75.7836L48.961 75.7863ZM87.985 40.7557L87.9331 40.7447L50.7332 19.4109C48.0435 17.8584 44.7011 17.8584 42.0141 19.4109L7.30182 39.7279L0.619863 39.5776V45.3996L0.622594 45.5254C0.6499 46.6597 1.24792 47.671 2.2255 48.2368L49.2668 75.2506C51.9565 76.8031 55.2989 76.8031 57.9859 75.2506L97.7772 52.0034C98.864 51.3747 99.473 50.2021 99.3665 48.9147V42.8849L87.985 40.7584V40.7557Z" fill="#F6AC1F"/>
<path d="M97.9342 45.9957L58.1428 69.2428C55.3493 70.8582 51.9087 70.8582 49.1152 69.2428L2.07388 42.2318C-0.277231 40.8761 -0.277231 37.4813 2.07388 36.1228L41.8625 12.8756C44.656 11.2602 48.0966 11.2602 50.8901 12.8756L97.9314 39.8893C100.283 41.2451 100.283 44.6399 97.9314 45.9984L97.9342 45.9957Z" fill="#FFF8EE"/>
<path d="M48.961 69.5133L1.91693 42.4969C0.718167 41.8054 0 40.5644 0 39.1759C0 37.7901 0.715437 36.5464 1.9142 35.8548L41.7056 12.6077C44.5864 10.9431 48.1636 10.9431 51.0418 12.605L98.0831 39.6187C99.2846 40.3129 100 41.5539 100 42.9397C100 44.3282 99.2846 45.5692 98.0858 46.2607L58.2944 69.5079C56.8526 70.3416 55.2388 70.757 53.625 70.757C52.0111 70.757 50.3973 70.3416 48.9582 69.5106L48.961 69.5133ZM42.0169 13.1407L2.2255 36.3879C1.21788 36.9701 0.617132 38.0115 0.617132 39.1759C0.617132 40.3403 1.21788 41.3817 2.2255 41.9612L49.2668 68.9749C51.9565 70.5274 55.2989 70.5274 57.9859 68.9749L97.7772 45.7277C98.7849 45.1455 99.3856 44.1041 99.3856 42.9397C99.3856 41.7753 98.7849 40.7339 97.7772 40.1544L50.7359 13.1407C49.3924 12.3644 47.8851 11.9763 46.3778 11.9763C44.8704 11.9763 43.3631 12.3644 42.0169 13.1407Z" fill="#F6AC1F"/>
<path d="M96.4843 46.9385H95.8672V53.4603H96.4843V46.9385Z" fill="#F6AC1F"/>
<path d="M54.1054 70.2925H53.4883V76.8143H54.1054V70.2925Z" fill="#F6AC1F"/>
<path d="M50.1269 69.377H49.5098V75.8987H50.1269V69.377Z" fill="#F6AC1F"/>
<path d="M3.46869 42.7646H2.85156V49.2864H3.46869V42.7646Z" fill="#F6AC1F"/>
<path d="M59.5234 68.6089H58.9062V75.1307H59.5234V68.6089Z" fill="#F6AC1F"/>
<path d="M48.3499 68.7972V75.0702L4.76562 50.0819V43.8062L48.3499 68.7972Z" fill="#F6AC1F"/>
<path d="M56.5664 39.2798L59.3899 38.9136L59.8678 39.586L60.1436 41.2451L59.9279 41.9203L59.3899 42.8332L58.7318 43.1995L56.7794 43.4127L56.5664 39.2798Z" fill="#F6AC1F"/>
<path d="M39.9989 53.6383L59.3866 42.4342L40.1763 33.2256L20.7886 42.5654C20.4855 42.7404 20.5237 43.0438 20.8732 43.2461L38.8192 53.5891C39.1687 53.7913 39.6957 53.8132 39.9989 53.6383Z" fill="#FFF8EE"/>
<path d="M38.7443 53.7228L20.7956 43.3798C20.5635 43.2459 20.4297 43.0573 20.4297 42.8605C20.4297 42.6883 20.528 42.5352 20.7191 42.4259L40.1725 33.0532L59.7132 42.4177L40.0742 53.7666C39.913 53.8595 39.7028 53.906 39.4843 53.906C39.2276 53.906 38.9573 53.8431 38.7416 53.7174L38.7443 53.7228ZM59.0605 42.445L40.1779 33.3949L20.8666 42.6965C20.8202 42.7238 20.7383 42.7812 20.7383 42.8605C20.7383 42.9425 20.8174 43.0354 20.9485 43.112L38.8972 53.455C39.1976 53.6299 39.6673 53.6518 39.9212 53.5042L59.0578 42.445H59.0605Z" fill="#F6AC1F"/>
<path d="M22.1035 42.3684L22.0898 39.9522L28.1929 40.6109L40.5792 33.4468L50.5216 39.1486L58.3942 39.9166C59.0659 41.7534 58.5198 41.901 58.5198 41.901L40.2352 52.4736C39.9321 52.6486 39.405 52.6267 39.0555 52.4244L22.3766 42.8358C22.1445 42.7019 22.1035 42.3657 22.1035 42.3657V42.3684Z" fill="#FFDDAB"/>
<path d="M38.9824 52.5586L22.3034 42.97C22.0085 42.8005 21.9566 42.4042 21.9539 42.3878L21.9375 39.7802L28.1607 40.4499L40.5798 33.2666L50.5713 38.9957L58.5067 39.7692L58.5395 39.8594C58.889 40.8134 58.9736 41.4776 58.7907 41.8302C58.7224 41.9614 58.635 42.0161 58.5886 42.0352L40.3149 52.6023C40.1538 52.6953 39.9436 52.7417 39.7251 52.7417C39.4684 52.7417 39.1981 52.6789 38.9824 52.5531V52.5586ZM50.473 39.2991L40.5771 33.6247L28.2235 40.7697L22.2433 40.1246L22.257 42.3577C22.2706 42.437 22.3253 42.6311 22.4536 42.7049L39.1326 52.2935C39.4329 52.4684 39.9026 52.4903 40.1566 52.3427L58.4411 41.7701L58.4657 41.7591C58.4657 41.7591 58.8043 41.535 58.28 40.0617L50.4703 39.2991H50.473Z" fill="#F6AC1F"/>
<path d="M39.5135 52.5778C39.3497 52.5532 39.1913 52.504 39.0575 52.4274L22.3785 42.8388C22.1464 42.7049 22.1054 42.3687 22.1054 42.3687L22.0918 39.9524L28.1949 40.6111L32.2335 38.2769L39.7456 41.4612L39.5162 52.5805L39.5135 52.5778Z" fill="#F6AC1F"/>
<path d="M20.8777 43.2461L38.8237 53.5891C39.1732 53.7914 39.7002 53.8133 40.0033 53.6384L58.8395 42.7541C59.1071 42.5983 59.301 42.3441 59.3747 42.0435C59.5468 41.3219 59.5358 40.6932 59.2873 39.895C59.2218 39.6846 58.987 39.578 58.7958 39.6873L39.9733 50.5661C39.6702 50.741 39.1432 50.7191 38.7936 50.5169L20.8476 40.1739C20.4981 39.9716 20.3288 38.8318 20.6319 38.6568L20.6401 38.6514C20.4872 38.8263 20.5582 39.0641 20.8476 39.2308L38.7936 49.5739C39.1432 49.7761 39.6702 49.798 39.9733 49.6231L57.7855 39.3292L59.3201 38.419C59.3201 38.419 60.4533 37.6564 60.4533 40.3187C60.4533 42.981 59.7843 42.9427 59.3938 43.3746L40.0061 54.5786C39.7029 54.7536 39.1759 54.7317 38.8264 54.5294L20.8804 44.1864C20.6374 44.047 20.3944 42.9509 20.6292 42.7213C20.6674 42.8225 20.591 43.0302 20.8804 43.2461H20.8777Z" fill="#FFDDAB"/>
<path d="M38.7469 54.6632L20.8009 44.3202C20.5579 44.1808 20.4295 43.6178 20.394 43.339C20.364 43.093 20.3613 42.765 20.5197 42.6092L20.689 42.4452L20.7709 42.6666C20.7873 42.713 20.79 42.7568 20.7954 42.8032C20.8036 42.8989 20.8091 43 20.9647 43.1176L38.9025 53.4551C39.2029 53.63 39.6726 53.6519 39.9293 53.5043L58.7655 42.6201C58.9976 42.4862 59.1669 42.262 59.2269 42.0078C59.399 41.2835 59.3744 40.6849 59.1423 39.9414C59.1232 39.8813 59.0795 39.8321 59.0221 39.8102C58.973 39.7911 58.9184 39.7938 58.872 39.8211L40.0494 50.6999C39.6999 50.9021 39.1155 50.8803 38.7169 50.6507L20.7681 40.3077C20.4596 40.1273 20.3203 39.515 20.3203 39.1351C20.3203 38.9191 20.3613 38.6376 20.5661 38.5201L21.3143 38.1128L20.7545 38.7579C20.7217 38.7961 20.7081 38.8344 20.7163 38.8754C20.7299 38.9519 20.8036 39.0339 20.9238 39.1023L38.8725 49.4453C39.1729 49.6202 39.6426 49.6421 39.8965 49.4945L57.706 39.2007L59.2324 38.2932C59.2461 38.2823 59.6038 38.0499 59.967 38.2413C60.3902 38.4654 60.6032 39.1651 60.6032 40.3213C60.6032 42.5873 60.1117 42.9809 59.713 43.2952C59.6365 43.3554 59.5628 43.4128 59.5027 43.4811L59.4864 43.5002L40.0767 54.7179C39.9156 54.8108 39.7054 54.8573 39.4869 54.8573C39.2302 54.8573 38.9599 54.7944 38.7442 54.6687L38.7469 54.6632ZM59.5219 43.052C59.8659 42.7786 60.2946 42.437 60.2946 40.3186C60.2946 38.9683 59.9997 38.6075 59.8222 38.5119C59.6229 38.4025 59.4099 38.5392 59.3935 38.5501L57.8589 39.4631L40.0467 49.7569C39.6972 49.9591 39.1128 49.9373 38.7141 49.7077L20.7654 39.3647C20.7163 39.3346 20.6698 39.3045 20.6289 39.269C20.6589 39.6353 20.7982 39.9687 20.9183 40.0398L38.867 50.3828C39.1674 50.5577 39.6371 50.5796 39.891 50.432L58.7136 39.5533C58.8392 39.4795 58.9921 39.4685 59.1286 39.5205C59.2734 39.5779 59.3826 39.6954 59.429 39.8457C59.6802 40.6466 59.7048 41.2917 59.5191 42.0762C59.4399 42.4124 59.2188 42.7076 58.9129 42.8852L40.0767 53.7694C39.7272 53.9717 39.1401 53.9498 38.7442 53.7202L20.7982 43.3772L20.7845 43.3663C20.7518 43.3417 20.7217 43.3171 20.6944 43.2925C20.7408 43.6943 20.8856 44.0114 20.9511 44.0524L38.8971 54.3954C39.1975 54.5703 39.6671 54.5922 39.9238 54.4446L59.2925 43.2515C59.3662 43.175 59.4454 43.1094 59.5219 43.0492V43.052Z" fill="#F6AC1F"/>
<path d="M39.9246 49.6227L59.5828 38.2766L41.0032 27.5701C40.6128 27.3432 40.1294 27.3432 39.7389 27.5701L20.7143 38.5527C20.4112 38.7276 20.4495 39.031 20.799 39.2333L38.745 49.5763C39.0945 49.7785 39.6215 49.8004 39.9246 49.6255V49.6227Z" fill="#FFF8EE"/>
<path d="M38.6693 49.7049L20.7233 39.3619C20.4912 39.2279 20.3574 39.0393 20.3574 38.8425C20.3574 38.6703 20.4585 38.5173 20.6387 38.4134L39.6633 27.4308C40.1002 27.1793 40.6436 27.1793 41.0805 27.4308L59.8894 38.2713L40.0019 49.7513C39.8408 49.8443 39.6305 49.8907 39.4121 49.8907C39.1554 49.8907 38.885 49.8279 38.6693 49.7021V49.7049ZM40.9303 27.7014C40.5863 27.5046 40.1603 27.5046 39.8189 27.7014L20.7943 38.684C20.7479 38.7113 20.666 38.7687 20.666 38.848C20.666 38.93 20.7452 39.0229 20.879 39.0995L38.825 49.4425C39.1253 49.6174 39.595 49.6393 39.8517 49.4917L59.2804 38.2767L40.933 27.7041L40.9303 27.7014Z" fill="#F6AC1F"/>
<path d="M37.4649 46.6023C38.508 46.0229 40.16 46.0283 41.1895 46.6215L53.5349 39.4874C52.4945 38.8861 52.4945 37.9103 53.5349 37.3089L42.0306 30.686C40.9902 31.2874 39.3026 31.2874 38.2622 30.686L25.9551 37.7982C26.9955 38.3996 26.9955 39.3754 25.9551 39.9767L37.4649 46.6023Z" fill="#FFDDAB"/>
<path d="M41.1856 46.7996L53.8395 39.4879L53.6101 39.3539C53.1568 39.0915 52.9056 38.7526 52.9056 38.3972C52.9056 38.0419 53.1568 37.703 53.6101 37.4406L53.8395 37.3066L42.0266 30.5088L41.9502 30.5525C40.9535 31.1293 39.3314 31.1293 38.3347 30.5525L38.2583 30.5088L25.6426 37.7986L25.872 37.9326C26.3252 38.195 26.5765 38.5339 26.5765 38.8892C26.5765 39.2446 26.3252 39.5835 25.872 39.8459L26.0249 40.1111C26.5765 39.7913 26.8823 39.3567 26.8823 38.8892C26.8823 38.4874 26.6584 38.1075 26.2433 37.8068L38.2583 30.8641C39.3178 31.4299 40.9644 31.4299 42.0239 30.8641L53.236 37.3176C52.821 37.6182 52.5971 37.9954 52.5971 38.3972C52.5971 38.799 52.821 39.179 53.236 39.4797L41.1828 46.447C40.1042 45.8702 38.4576 45.8757 37.3872 46.4716L37.5374 46.7394C38.5314 46.1873 40.1343 46.1955 41.1091 46.7558L41.1856 46.7996Z" fill="#F6AC1F"/>
<path d="M39.5119 50.6804C39.2852 50.6804 39.0477 50.623 38.862 50.5164L20.916 40.1734C20.5665 39.9711 20.3972 38.8313 20.7003 38.6563L20.7085 38.6509C20.5556 38.8258 20.6266 39.0636 20.916 39.2303L38.862 49.5734C39.0477 49.68 39.2852 49.7346 39.5119 49.7374V50.6804Z" fill="#F6AC1F"/>
<path d="M38.8937 54.5319L20.9477 44.1889C20.7047 44.0495 20.4453 43.194 20.6801 42.9644C20.7184 43.0655 20.8057 43.1639 20.9477 43.2459L38.8937 53.5889C39.0712 53.6928 39.2951 53.7474 39.5136 53.7556V54.6986C39.2951 54.6904 39.0712 54.6358 38.8937 54.5319Z" fill="#F6AC1F"/>
<path d="M39.1821 50.7599L39.2531 50.5358C38.9801 50.451 38.7152 50.3335 38.4667 50.1914L22.383 40.9253L22.2656 41.1303L38.3493 50.3964C38.6114 50.5494 38.8927 50.6697 39.1821 50.7626V50.7599Z" fill="#FFDDAB"/>
<path d="M39.1947 51.8177L39.2384 51.6838C38.9626 51.5963 38.695 51.4788 38.4437 51.3339L22.3601 42.0679L22.2891 42.1909L38.3727 51.4569C38.6321 51.6073 38.9107 51.7275 39.1947 51.8177Z" fill="#FFDDAB"/>
<path d="M39.4141 51.8398C39.6844 51.8398 39.9493 51.7687 40.1814 51.6348L58.6435 40.9529L58.5561 40.7998L40.094 51.4817C39.8892 51.602 39.6544 51.6649 39.4168 51.6649V51.8425L39.4141 51.8398Z" fill="#F6AC1F"/>
<path d="M51.3628 52.5558L49.1182 51.334C48.3017 50.8693 47.6819 50.1313 47.3542 49.2539C46.9091 48.0649 46.0571 47.07 44.9485 46.4495L39.2168 43.123L48.4929 37.793L54.0416 40.9363C55.2131 41.5677 56.1087 42.6091 56.5538 43.8637L56.6112 44.0223C56.9416 44.9543 57.6106 45.7306 58.4817 46.198L60.4696 47.2476L51.3656 52.5585L51.3628 52.5558Z" fill="#FFF8EE"/>
<path d="M49.0437 51.4708C48.2054 50.9925 47.5527 50.2271 47.2114 49.3087C46.78 48.1552 45.9498 47.1876 44.8712 46.5836L38.9102 43.1259L48.4921 37.6182L54.1145 40.8025C55.3215 41.4531 56.239 42.5218 56.7005 43.8147L56.7578 43.9732C57.0773 44.8725 57.7163 45.6132 58.5546 46.0642L60.7856 47.2423L51.3675 52.7363L49.0437 51.4735V51.4708ZM58.4072 46.3348C57.5006 45.8483 56.8097 45.0474 56.4657 44.0771L56.4083 43.9185C55.9741 42.6967 55.1058 41.6881 53.9644 41.0731L48.4921 37.9735L39.5246 43.1286L45.0241 46.3184C46.1628 46.9553 47.0421 47.9803 47.4981 49.2021C47.8149 50.0494 48.4184 50.7601 49.1939 51.2029L51.362 52.3837L60.1521 47.256L58.4099 46.3376L58.4072 46.3348Z" fill="#F6AC1F"/>
<path d="M49.9531 50.5413L50.3627 50.3062L50.4801 50.5112L50.0705 50.7463L49.9531 50.5413ZM50.5675 50.1914L50.9771 49.9563L51.0945 50.1613L50.6849 50.3964L50.5675 50.1914ZM51.1819 49.8388L51.5915 49.6037L51.709 49.8087L51.2993 50.0438L51.1819 49.8388ZM51.7991 49.4889L52.2087 49.2539L52.3261 49.4589L51.9165 49.6939L51.7991 49.4889ZM52.4135 49.1363L52.8231 48.9013L52.9405 49.1063L52.5309 49.3413L52.4135 49.1363ZM53.0279 48.7865L53.4375 48.5514L53.5549 48.7564L53.1453 48.9915L53.0279 48.7865ZM53.6423 48.4339L54.0519 48.1988L54.1693 48.4038L53.7597 48.6389L53.6423 48.4339ZM54.2594 48.084L54.669 47.8489L54.7864 48.0539L54.3768 48.289L54.2594 48.084ZM54.8738 47.7314L55.2834 47.4963L55.4008 47.7013L54.9912 47.9364L54.8738 47.7314ZM55.4882 47.3815L55.8978 47.1465L56.0152 47.3515L55.6056 47.5865L55.4882 47.3815ZM56.1053 47.0317L56.5149 46.7966L56.6324 47.0016L56.2228 47.2367L56.1053 47.0317ZM56.7197 46.6791L56.9491 46.5479L57.0665 46.7529L56.8372 46.8841L56.7197 46.6791Z" fill="#F6AC1F"/>
<path d="M47.9163 43.8336L45.6935 45.1183C45.5106 45.2249 45.1938 45.2112 44.9835 45.0882L42.4549 43.6259C42.2447 43.5056 42.2228 43.3198 42.403 43.2159L44.6258 41.9312C44.8088 41.8246 45.1255 41.8383 45.3358 41.9613L47.8644 43.4236C48.0747 43.5439 48.0965 43.7298 47.9163 43.8336Z" fill="#FFDDAB"/>
<path d="M54.5579 43.6097L47.8398 47.4438L47.9575 47.6504L54.6755 43.8163L54.5579 43.6097Z" fill="#F6AC1F"/>
<path d="M53.8825 42.6909L47.1621 46.5264L47.2798 46.7329L54.0002 42.8975L53.8825 42.6909Z" fill="#F6AC1F"/>
<path d="M49.3617 39.5936L46.4629 41.248L46.5806 41.4546L49.4794 39.8002L49.3617 39.5936Z" fill="#F6AC1F"/>
<path d="M50.5219 40.2528L47.623 41.9072L47.7407 42.1138L50.6395 40.4594L50.5219 40.2528Z" fill="#F6AC1F"/>
<path d="M51.6801 40.9296L48.7812 42.584L48.8989 42.7906L51.7977 41.1362L51.6801 40.9296Z" fill="#F6AC1F"/>
<path d="M57.8122 47.144L51.0918 50.9795L51.2095 51.1861L57.9299 47.3506L57.8122 47.144Z" fill="#F6AC1F"/>
<path d="M57.4121 29.6014L60.2356 29.2324L60.7162 29.9076L60.9893 31.5667L60.7763 32.2418L60.2356 33.1521L59.5775 33.5211L57.6278 33.7315L57.4121 29.6014Z" fill="#F6AC1F"/>
<path d="M40.8494 43.9565L60.2372 32.7525L39.6998 22.7676L20.312 32.1074C20.0089 32.2824 20.0471 32.5858 20.3966 32.788L39.6697 43.9073C40.0193 44.1096 40.5463 44.1315 40.8494 43.9565Z" fill="#FFF8EE"/>
<path d="M39.5949 44.0416L20.319 32.9223C20.0869 32.7884 19.9531 32.5998 19.9531 32.403C19.9531 32.2308 20.0514 32.0777 20.2426 31.9684L39.6959 22.5957L60.561 32.7392L40.922 44.0881C40.7609 44.181 40.5506 44.2275 40.3321 44.2275C40.0755 44.2275 39.8051 44.1646 39.5894 44.0389L39.5949 44.0416ZM59.9111 32.7638L39.7014 22.9374L20.39 32.239C20.3436 32.2663 20.2617 32.3237 20.2617 32.403C20.2617 32.4822 20.3409 32.5779 20.472 32.6544L39.7478 43.7737C40.0482 43.9486 40.5178 43.9705 40.7718 43.8229L59.9083 32.7638H59.9111Z" fill="#F6AC1F"/>
<path d="M21.6289 31.9109L21.6152 29.4946L29.0454 30.9296L40.1046 22.9893L51.3741 29.4673L59.2466 30.2354C59.9184 32.0722 59.3723 32.2198 59.3723 32.2198L41.0877 42.7924C40.7846 42.9673 40.2575 42.9455 39.908 42.7432L21.902 32.3783C21.6698 32.2444 21.6289 31.9082 21.6289 31.9082V31.9109Z" fill="#FFDDAB"/>
<path d="M39.829 42.8772L21.8229 32.5123C21.528 32.3428 21.4761 31.9465 21.4734 31.9301L21.457 29.3088L29.0046 30.7657L40.0911 22.8062L51.418 29.317L59.3533 30.0905L59.3861 30.1807C59.7356 31.1347 59.8203 31.7989 59.6373 32.1515C59.569 32.2827 59.4817 32.3374 59.4352 32.3565L41.1616 42.9236C41.0005 43.0166 40.7902 43.063 40.5717 43.063C40.3151 43.063 40.0447 43.0002 39.829 42.8744V42.8772ZM51.3224 29.6177L40.1103 23.1724L29.0783 31.0937L21.7683 29.6805L21.782 31.9C21.7929 31.9738 21.8502 32.1733 21.9786 32.2472L39.9846 42.612C40.285 42.787 40.7547 42.8088 41.0087 42.6612L59.2932 32.0886L59.3178 32.0777C59.3178 32.0777 59.6564 31.8535 59.1321 30.3803L51.3224 29.6204V29.6177Z" fill="#F6AC1F"/>
<path d="M40.3621 42.896C40.1982 42.8714 40.0399 42.8222 39.9061 42.7457L21.9 32.3808C21.6679 32.2469 21.6269 31.9107 21.6269 31.9107L21.6133 29.4944L27.7163 30.1531L31.755 27.8188L40.5942 31.7795L40.3648 42.8988L40.3621 42.896Z" fill="#F6AC1F"/>
<path d="M20.3953 32.7881L39.6684 43.9074C40.0179 44.1097 40.5449 44.1315 40.848 43.9566L59.6842 33.0724C59.9518 32.9166 60.1457 32.6624 60.2194 32.3617C60.3914 31.6401 60.3805 31.0114 60.132 30.2133C60.0665 30.0028 59.8317 29.8962 59.6405 30.0056L40.818 40.8843C40.5149 41.0592 39.9878 41.0374 39.6383 40.8351L20.3652 29.7158C20.0157 29.5136 19.8464 28.3738 20.1495 28.1988L20.1577 28.1934C20.0048 28.3683 20.0758 28.6061 20.3652 28.7728L39.6383 39.8921C39.9878 40.0944 40.5149 40.1162 40.818 39.9413L58.6302 29.6475L60.1648 28.7373C60.1648 28.7373 61.298 27.9747 61.298 30.637C61.298 33.2993 60.629 33.261 60.2385 33.6929L40.8507 44.8969C40.5476 45.0718 40.0206 45.0499 39.6711 44.8477L20.398 33.7284C20.155 33.589 19.9119 32.4929 20.1468 32.2633C20.185 32.3645 20.1085 32.5722 20.398 32.7881H20.3953Z" fill="#FFDDAB"/>
<path d="M39.5947 44.9846L20.3216 33.8654C20.0786 33.726 19.9502 33.1629 19.9147 32.8841C19.8847 32.6381 19.882 32.3101 20.0404 32.1543L20.2097 31.9903L20.2916 32.2117C20.308 32.2581 20.3107 32.3019 20.3162 32.3456C20.3243 32.4413 20.3298 32.5424 20.4855 32.66L39.7531 43.7738C40.0535 43.9487 40.5231 43.9706 40.7798 43.823L59.616 32.9388C59.8481 32.8048 60.0174 32.5807 60.0775 32.3265C60.2495 31.6021 60.2249 31.0035 59.9928 30.2601C59.9737 30.1999 59.93 30.1507 59.8727 30.1289C59.8235 30.1097 59.7717 30.1152 59.7225 30.1398L40.9 41.0185C40.5504 41.2208 39.9661 41.1989 39.5674 40.9693L20.2916 29.8501C19.983 29.6724 19.8438 29.0574 19.8438 28.6775C19.8438 28.4615 19.8847 28.18 20.0895 28.0597L20.8186 27.6743L20.2752 28.2975C20.2424 28.3358 20.2288 28.3741 20.237 28.4151C20.2506 28.4916 20.3243 28.5736 20.4445 28.6419L39.7203 39.7612C40.0207 39.9361 40.4904 39.958 40.7443 39.8104L58.5538 29.5166L60.0802 28.6091C60.0939 28.5982 60.4516 28.3659 60.8148 28.5572C61.238 28.7813 61.451 29.4811 61.451 30.6373C61.451 32.9032 60.9568 33.2968 60.5608 33.6112C60.4844 33.6713 60.4106 33.7287 60.3506 33.797L60.3342 33.8162L40.9245 45.0338C40.7634 45.1268 40.5532 45.1732 40.3347 45.1732C40.078 45.1732 39.8077 45.1104 39.592 44.9846H39.5947ZM60.3697 33.3706C60.7137 33.0973 61.1425 32.7556 61.1425 30.6373C61.1425 29.287 60.8475 28.9262 60.67 28.8305C60.4707 28.7212 60.2577 28.8579 60.2413 28.8688L58.7067 29.7817L40.8945 40.0755C40.545 40.2778 39.9606 40.2559 39.5619 40.0263L20.2861 28.9071C20.237 28.877 20.1905 28.8469 20.1496 28.8114C20.1796 29.1777 20.3189 29.5111 20.439 29.5822L39.7149 40.7015C40.0152 40.8764 40.4849 40.8983 40.7389 40.7507L59.5614 29.8719C59.687 29.7981 59.8399 29.7872 59.9765 29.8391C60.1212 29.8965 60.2304 30.0141 60.2768 30.1644C60.5281 30.9653 60.5526 31.6103 60.3669 32.3948C60.2878 32.731 60.0666 33.0262 59.7607 33.2039L40.9245 44.0881C40.575 44.2904 39.9879 44.2685 39.592 44.0389L20.3189 32.9196L20.3052 32.9087C20.2725 32.8841 20.2424 32.8595 20.2151 32.8349C20.2615 33.2367 20.4063 33.5538 20.4718 33.5948L39.7449 44.714C40.0453 44.889 40.5149 44.9108 40.7716 44.7632L60.1403 33.5702C60.214 33.4936 60.2932 33.428 60.3697 33.3679V33.3706Z" fill="#F6AC1F"/>
<path d="M40.7791 39.9415L60.4372 28.5953L40.5306 17.1125C40.1401 16.8857 39.6568 16.8857 39.2663 17.1125L20.2417 28.0951C19.9386 28.2701 19.9768 28.5735 20.3263 28.7757L39.5994 39.895C39.949 40.0973 40.476 40.1192 40.7791 39.9442V39.9415Z" fill="#FFDDAB"/>
<path d="M39.5218 40.0261L20.2487 28.9068C20.0166 28.7729 19.8828 28.5843 19.8828 28.3875C19.8828 28.2153 19.9838 28.0622 20.1641 27.9584L39.1887 16.9758C39.6256 16.7243 40.169 16.7216 40.6059 16.9758L60.7419 28.5925L40.8544 40.0726C40.6933 40.1655 40.483 40.212 40.2646 40.212C40.0079 40.212 39.7375 40.1491 39.5218 40.0234V40.0261ZM40.453 17.2436C40.1089 17.0441 39.6829 17.0468 39.3416 17.2436L20.317 28.2262C20.2706 28.2536 20.1886 28.311 20.1886 28.3902C20.1886 28.4722 20.2678 28.5652 20.4016 28.6417L39.6747 39.761C39.9751 39.9359 40.4448 39.9578 40.7015 39.8102L60.1302 28.5952L40.4557 17.2436H40.453Z" fill="#F6AC1F"/>
<path d="M42.1979 37.8259C41.0565 37.1699 39.2187 37.1617 38.0609 37.804L23.9434 29.6668C25.0984 28.9999 25.0984 27.9148 23.9434 27.2478L37.5339 19.3949C37.5885 19.3648 37.6513 19.3648 37.706 19.3949C38.8665 20.0154 40.6797 19.999 41.8074 19.3457L55.9168 27.4802C54.7617 28.1471 54.7617 29.2322 55.9168 29.8992L42.1979 37.8259Z" fill="#FFF8EE"/>
<path d="M38.0601 37.9816L38.1366 37.9406C39.2452 37.3256 41.0338 37.3338 42.1234 37.9598L42.2763 37.6946C41.1103 37.0222 39.278 37.0004 38.0656 37.6318L24.2402 29.6613C24.7099 29.3278 24.9666 28.9069 24.9666 28.4586C24.9666 28.0104 24.7099 27.5894 24.2402 27.256L37.6123 19.5288C38.822 20.1629 40.6324 20.1547 41.8066 19.5233L55.6238 27.4883C55.1542 27.8218 54.8975 28.2427 54.8975 28.691C54.8975 29.2048 55.2333 29.6832 55.8423 30.033L55.9952 29.7679C55.4846 29.4727 55.206 29.09 55.206 28.691C55.206 28.2919 55.4873 27.9092 55.9952 27.614L56.2246 27.4801L41.8066 19.168L41.7302 19.2117C40.6625 19.8294 38.8875 19.8486 37.7789 19.2582C37.6778 19.2035 37.5577 19.2062 37.4567 19.2636L23.6367 27.2505L23.8661 27.3844C24.3767 27.6796 24.6553 28.0623 24.6553 28.4614C24.6553 28.8604 24.374 29.2431 23.8661 29.5383L23.6367 29.6722L38.0601 37.9871V37.9816Z" fill="#F6AC1F"/>
<path d="M40.3624 40.9991C40.1358 40.9991 39.8982 40.9417 39.7125 40.8351L20.4394 29.7158C20.0899 29.5136 19.9206 28.3738 20.2237 28.1988L20.2319 28.1934C20.079 28.3683 20.15 28.6061 20.4394 28.7728L39.7125 39.8921C39.8982 39.9987 40.1358 40.0534 40.3624 40.0561V40.9991Z" fill="#F6AC1F"/>
<path d="M39.7423 44.8507L20.4692 33.7314C20.2262 33.592 19.9668 32.7364 20.2016 32.5068C20.2398 32.608 20.3272 32.7064 20.4692 32.7884L39.7423 43.9076C39.9198 44.0115 40.1437 44.0662 40.3622 44.0744V45.0174C40.1437 45.0092 39.9198 44.9545 39.7423 44.8507Z" fill="#F6AC1F"/>
<path d="M40.0288 41.0811L40.0998 40.857C39.8267 40.7722 39.5618 40.6547 39.3134 40.5126L21.9026 30.4702L21.7852 30.6752L39.1959 40.7176C39.4581 40.8706 39.7393 40.9936 40.0288 41.0838V41.0811Z" fill="#FFDDAB"/>
<path d="M40.0452 42.1389L40.0889 42.005C39.8131 41.9175 39.5455 41.8 39.2943 41.6551L21.8835 31.6128L21.8125 31.7358L39.2233 41.7781C39.4827 41.9285 39.7612 42.0487 40.0452 42.1389Z" fill="#FFDDAB"/>
<path d="M40.2617 42.1611C40.5321 42.1611 40.7969 42.09 41.029 41.9561L59.4911 31.2742L59.4037 31.1211L40.9417 41.803C40.7369 41.9233 40.502 41.9862 40.2644 41.9862V42.1638L40.2617 42.1611Z" fill="#F6AC1F"/>
<path d="M44.6763 33.3184C44.6162 33.3348 44.5562 33.3512 44.4961 33.3703C44.5562 33.3539 44.6162 33.3375 44.6763 33.3184Z" fill="#FFDDAB"/>
<path d="M25.3738 16.1201V26.157C25.3738 27.6439 26.9849 29.6147 29.478 31.1754C30.3409 31.7166 31.6926 32.4464 33.4457 33.0259V16.1201H25.3711H25.3738Z" fill="#F6AC1F"/>
<path d="M49.3515 31.1754C51.8446 29.6147 53.4557 27.6439 53.4557 26.157V16.1201H33.4453V33.0259C35.1001 33.5753 37.1126 33.9908 39.4146 33.9908C44.1496 33.9908 47.6721 32.2278 49.3515 31.1754Z" fill="#FFDDAB"/>
<path d="M51.4746 29.6611C50.5025 30.5604 49.2245 31.4323 47.7227 32.1567C49.2245 31.4296 50.5025 30.5604 51.4746 29.6611Z" fill="#FFDDAB"/>
<path d="M51.4941 29.6447C52.7857 28.442 53.5312 27.1902 53.5312 26.1597C53.5312 27.1902 52.7857 28.4448 51.4941 29.6447Z" fill="#FFDDAB"/>
<path d="M39.416 34.0649C40.6312 34.0649 41.8135 33.9446 42.9386 33.7314C41.8108 33.9446 40.6312 34.0649 39.416 34.0649Z" fill="#FFDDAB"/>
<path d="M46.1389 32.835C45.8084 32.958 45.4698 33.0755 45.123 33.1821C45.4698 33.0728 45.8084 32.958 46.1389 32.835Z" fill="#FFDDAB"/>
<path d="M24.9883 15.866C24.9801 15.8797 24.9773 15.8961 24.9746 15.9125C24.9746 15.9125 24.9746 15.9125 24.9746 15.9152V26.1571C24.9746 26.8951 25.3296 27.7369 25.9768 28.5925C26.0641 28.7073 26.1543 28.8221 26.2498 28.9341C26.3946 29.1063 26.5502 29.2758 26.7168 29.448C26.8287 29.5628 26.9434 29.6749 27.0636 29.7897C27.2438 29.9591 27.4349 30.1286 27.637 30.2954C27.7708 30.4074 27.9101 30.5168 28.0521 30.6261C28.1941 30.7354 28.3415 30.8448 28.4944 30.9514C28.7211 31.1126 28.9587 31.2712 29.2044 31.4242C29.6959 31.7331 30.2202 32.0283 30.7773 32.3044C30.963 32.3973 31.1514 32.4848 31.3425 32.5722C31.8231 32.7909 32.3229 32.9932 32.8417 33.179C33.0383 33.2501 33.2404 33.3184 33.4424 33.3813V33.2419C28.5381 31.6511 25.133 28.4039 25.133 26.1543V15.9125H33.4424V15.7812H25.133C25.0647 15.7812 25.0074 15.8141 24.9828 15.8605L24.9883 15.866Z" fill="#F6AC1F"/>
<path d="M53.6894 15.9178V26.1597C53.6894 29.2429 47.2968 34.1985 39.4134 34.1985C37.2835 34.1985 35.26 33.8349 33.4441 33.2473V33.3867C33.4441 33.3867 33.466 33.3949 33.4742 33.3976C34.0067 33.5671 34.5583 33.7201 35.1208 33.8459C35.3474 33.8978 35.5741 33.9443 35.8062 33.988C35.9209 34.0099 36.0383 34.0317 36.153 34.0509C36.3851 34.0919 36.6199 34.1274 36.8575 34.1575C37.095 34.1903 37.3326 34.2176 37.5729 34.2395C38.1737 34.2969 38.7881 34.327 39.4107 34.327C47.3733 34.327 53.8505 29.3085 53.8505 26.157V15.9151C53.8505 15.8522 53.7958 15.7976 53.7194 15.7866C53.7085 15.7866 53.6975 15.7866 53.6866 15.7866H33.4414V15.9178H53.6866H53.6894Z" fill="#F6AC1F"/>
<path d="M25.2986 26.1571V16.0492H33.4442V15.918H25.1348V26.1598C25.1348 28.4094 28.5399 31.6566 33.4442 33.2474V33.1026C28.6355 31.5227 25.2986 28.3411 25.2986 26.1598V26.1571Z" fill="#F6AC1F"/>
<path d="M53.6905 26.1574V15.9155H33.4453V16.0467H53.5267V26.1547C53.5267 27.1851 52.7812 28.4397 51.4896 29.6397C51.4841 29.6452 51.4787 29.6506 51.4705 29.6561C50.4984 30.5554 49.2204 31.4273 47.7185 32.1516C47.623 32.1981 47.5247 32.2446 47.4264 32.2883C47.0113 32.4796 46.5799 32.6628 46.1348 32.8295C45.8043 32.9525 45.4657 33.07 45.1189 33.1766C44.9715 33.2231 44.824 33.2668 44.6766 33.3106C44.6165 33.327 44.5564 33.3434 44.4963 33.3625C44.338 33.4062 44.1796 33.4472 44.0185 33.4882C43.8819 33.521 43.7454 33.5566 43.6061 33.5866C43.385 33.6358 43.161 33.6823 42.9371 33.7261C41.8094 33.9393 40.6297 34.0595 39.4146 34.0595C37.2819 34.0595 35.2612 33.6905 33.4453 33.0946V33.2395C35.2612 33.8272 37.2819 34.1907 39.4146 34.1907C47.3007 34.1907 53.6905 29.2352 53.6905 26.1519V26.1574Z" fill="#F6AC1F"/>
<path d="M32.8482 33.1787C32.3294 32.9929 31.8297 32.7906 31.3491 32.5719C31.1579 32.4844 30.9695 32.3942 30.7838 32.304C30.2268 32.028 29.7025 31.7328 29.211 31.4239C28.9652 31.2681 28.7304 31.1123 28.501 30.951C28.3508 30.8444 28.2033 30.7351 28.0586 30.6258C27.9139 30.5164 27.7774 30.4071 27.6436 30.295C27.4415 30.1283 27.2503 29.9588 27.0701 29.7894C26.95 29.6773 26.8326 29.5625 26.7233 29.4477C26.5568 29.2755 26.4011 29.106 26.2564 28.9338C26.1608 28.819 26.068 28.7042 25.9833 28.5922C25.3361 27.7366 24.9812 26.8975 24.9812 26.1567V15.9149C24.9812 15.9149 24.9812 15.9149 24.9812 15.9121C24.9812 15.8957 24.9866 15.8793 24.9948 15.8657C25.0194 15.8192 25.0767 15.7864 25.145 15.7864H33.4544V15.7153H25.145C25.0139 15.7153 24.9102 15.8055 24.9102 15.9203V26.1622C24.9102 26.9549 25.3088 27.8705 26.0625 28.8136C26.8162 29.7538 27.8948 30.6804 29.1782 31.4895C30.4562 32.2958 31.9307 32.9765 33.4544 33.463V33.3865C33.2524 33.3209 33.0503 33.2525 32.8537 33.1842L32.8482 33.1787Z" fill="#F6AC1F"/>
<path d="M53.6905 15.7129H33.4453V15.784H53.6905C53.6905 15.784 53.7124 15.784 53.7233 15.784C53.797 15.7949 53.8544 15.8496 53.8544 15.9124V26.1543C53.8544 29.3059 47.3772 34.3243 39.4146 34.3243C38.792 34.3243 38.1803 34.2942 37.5768 34.2368C37.3365 34.215 37.0962 34.1849 36.8614 34.1548C36.6238 34.122 36.389 34.0865 36.1569 34.0482C36.0395 34.0291 35.9248 34.0072 35.8101 33.9853C35.5807 33.9416 35.3513 33.8951 35.1247 33.8432C34.5594 33.7147 34.0106 33.5644 33.4781 33.3949C33.4672 33.3922 33.4562 33.3895 33.448 33.384V33.4605C33.5573 33.4961 33.6692 33.5316 33.7812 33.5644C35.6244 34.1193 37.5222 34.4008 39.4173 34.4008C41.3124 34.4008 43.2102 34.1193 45.0534 33.5644C46.6973 33.0697 48.2893 32.3508 49.6628 31.4871C50.9462 30.678 52.0248 29.7514 52.7785 28.8111C53.5322 27.8708 53.9308 26.9524 53.9308 26.1598V15.9179C53.9308 15.8058 53.8243 15.7129 53.696 15.7129H53.6905Z" fill="#F6AC1F"/>
<path d="M25.2988 26.1573C25.2988 28.3385 28.6384 31.5201 33.4444 33.1V33.0262C31.6913 32.4467 30.3397 31.7169 29.4768 31.1757C26.9837 29.6149 25.3726 27.6442 25.3726 26.1573V16.1204H33.4472V16.0493H25.3016V26.1573H25.2988Z" fill="#F6AC1F"/>
<path d="M53.4557 16.1201V26.157C53.4557 27.6439 51.8446 29.6147 49.3515 31.1754C47.6721 32.2277 44.1496 33.9908 39.4146 33.9908C37.1153 33.9908 35.1028 33.5753 33.4453 33.0259V33.0997C35.2585 33.6955 37.2819 34.0645 39.4146 34.0645C40.6297 34.0645 41.8121 33.9443 42.9371 33.7311C43.1638 33.6873 43.385 33.6409 43.6061 33.5917C43.7454 33.5616 43.8819 33.5261 44.0185 33.4933C44.1796 33.4523 44.338 33.4113 44.4963 33.3675C44.5564 33.3511 44.6165 33.3347 44.6766 33.3156C44.8268 33.2719 44.9742 33.2281 45.1189 33.1817C45.4657 33.0723 45.8043 32.9575 46.1348 32.8345C46.5799 32.6678 47.0113 32.4847 47.4264 32.2933C47.5247 32.2469 47.623 32.2031 47.7185 32.1567C49.2204 31.4296 50.4984 30.5604 51.4705 29.6611C51.4759 29.6557 51.4814 29.6502 51.4896 29.6447C52.7812 28.442 53.5267 27.1902 53.5267 26.1597V16.0518H33.4453V16.1228H53.4557V16.1201Z" fill="#F6AC1F"/>
<path d="M27.0695 29.7894C26.9493 29.6774 26.8319 29.5626 26.7227 29.4478C26.8346 29.5626 26.9493 29.6746 27.0695 29.7894Z" fill="#F6AC1F"/>
<path d="M26.2535 28.934C26.158 28.8192 26.0651 28.7044 25.9805 28.5923C26.0679 28.7071 26.158 28.8219 26.2535 28.934Z" fill="#F6AC1F"/>
<path d="M29.208 31.4245C28.9623 31.2687 28.7274 31.1129 28.498 30.9517C28.7247 31.1129 28.9623 31.2715 29.208 31.4245Z" fill="#F6AC1F"/>
<path d="M31.3465 32.5721C31.1554 32.4846 30.9669 32.3944 30.7812 32.3042C30.9669 32.3971 31.1554 32.4846 31.3465 32.5721Z" fill="#F6AC1F"/>
<path d="M53.8558 15.9175C53.8558 15.8547 53.8012 15.8 53.7247 15.7891C53.7985 15.8 53.8558 15.8547 53.8558 15.9175Z" fill="#F6AC1F"/>
<path d="M32.8477 33.1792C33.0443 33.2503 33.2463 33.3186 33.4484 33.3815C33.2463 33.3159 33.0443 33.2475 32.8477 33.1792Z" fill="#F6AC1F"/>
<path d="M33.4453 33.3843C33.4453 33.3843 33.4672 33.3925 33.4754 33.3952C33.4644 33.3925 33.4535 33.3897 33.4453 33.3843Z" fill="#F6AC1F"/>
<path d="M25.2988 26.1573C25.2988 28.3385 28.6384 31.5201 33.4444 33.1C28.6357 31.5201 25.2988 28.3385 25.2988 26.1573Z" fill="#F6AC1F"/>
<path d="M43.6065 33.5918C43.3853 33.641 43.1614 33.6875 42.9375 33.7312C43.1641 33.6875 43.3853 33.641 43.6065 33.5918Z" fill="#F6AC1F"/>
<path d="M45.1201 33.1846C44.9726 33.231 44.8252 33.2748 44.6777 33.3185C44.8279 33.2748 44.9754 33.231 45.1201 33.1846Z" fill="#F6AC1F"/>
<path d="M47.7219 32.1567C47.6263 32.2032 47.528 32.2497 47.4297 32.2934C47.528 32.2469 47.6263 32.2032 47.7219 32.1567Z" fill="#F6AC1F"/>
<path d="M51.4909 29.645C51.4909 29.645 51.4805 29.6555 51.4727 29.6607C51.4779 29.6555 51.4831 29.6502 51.4909 29.645Z" fill="#F6AC1F"/>
<path d="M33.4453 33.0996C35.2585 33.6955 37.2819 34.0645 39.4146 34.0645C37.2819 34.0645 35.2612 33.6955 33.4453 33.0996Z" fill="#F6AC1F"/>
<path d="M60.02 13.5379L39.8403 25.2503C39.5645 25.3487 39.2642 25.3487 38.9884 25.2503L18.8087 13.5379C18.4127 13.3958 18.4127 12.8327 18.8087 12.6933L38.9884 4.77204C39.2642 4.67364 39.5645 4.67364 39.8403 4.77204L60.02 12.6933C60.416 12.8354 60.416 13.3985 60.02 13.5379Z" fill="#FFF8EE"/>
<path d="M39.8942 4.61862L60.0739 12.5399C60.3197 12.6273 60.4808 12.8542 60.4808 13.1166C60.4808 13.379 60.3224 13.6059 60.0739 13.6933L39.8942 25.4058C39.5829 25.5178 39.2416 25.5178 38.9303 25.4058L18.7506 13.6933C18.5049 13.6059 18.3438 13.379 18.3438 13.1166C18.3438 12.8542 18.5021 12.6273 18.7506 12.5399L38.9303 4.61862C39.0859 4.56395 39.2498 4.53662 39.4109 4.53662C39.572 4.53662 39.7358 4.56395 39.8915 4.61862H39.8942ZM39.785 25.0942L59.9647 13.3817C60.1039 13.3325 60.1531 13.2095 60.1531 13.1139C60.1531 13.0182 60.1039 12.8952 59.9647 12.846L39.785 4.92476C39.5447 4.84002 39.2826 4.84002 39.0423 4.92476L18.8626 12.846C18.7233 12.8952 18.6742 13.0182 18.6742 13.1139C18.6742 13.2095 18.7233 13.3325 18.8626 13.3817L39.0423 25.0942C39.1624 25.1379 39.288 25.157 39.4136 25.157C39.5392 25.157 39.6649 25.1352 39.785 25.0942Z" fill="#F6AC1F"/>
<path d="M39.4116 4.53396C39.5754 4.53396 39.7365 4.56129 39.8922 4.61596L60.0719 12.5372C60.3176 12.6247 60.4787 12.8515 60.4787 13.114C60.4787 13.3764 60.3204 13.6032 60.0719 13.6907L39.8922 25.4031C39.7365 25.4578 39.5727 25.4851 39.4116 25.4851C39.2505 25.4851 39.0866 25.4578 38.931 25.4031L18.7513 13.6907C18.5055 13.6032 18.3444 13.3764 18.3444 13.114C18.3444 12.8515 18.5028 12.6247 18.7513 12.5372L38.931 4.61596C39.0866 4.56129 39.2505 4.53396 39.4116 4.53396ZM39.4116 25.1598C39.5372 25.1598 39.6628 25.138 39.783 25.097L59.9626 13.3846C60.1019 13.3354 60.1511 13.2124 60.1511 13.1167C60.1511 13.021 60.1019 12.898 59.9626 12.8488L39.783 4.92756C39.6628 4.88383 39.5372 4.86469 39.4116 4.86469C39.286 4.86469 39.1604 4.88656 39.0402 4.92756L18.8605 12.8488C18.7213 12.898 18.6721 13.021 18.6721 13.1167C18.6721 13.2124 18.7213 13.3354 18.8605 13.3846L39.0402 25.097C39.1604 25.1407 39.286 25.1598 39.4116 25.1598ZM39.4116 4.46289C39.2396 4.46289 39.0675 4.49296 38.9064 4.55036L18.7267 12.4716C18.4537 12.57 18.2734 12.8215 18.2734 13.1167C18.2734 13.4119 18.4482 13.6579 18.7213 13.759L38.8928 25.4687H38.8982L38.9037 25.4742C39.0648 25.5316 39.2368 25.5616 39.4089 25.5616C39.5809 25.5616 39.7529 25.5316 39.914 25.4742H39.9195L39.925 25.4687L60.0992 13.759C60.3722 13.6579 60.547 13.4064 60.547 13.1167C60.547 12.8269 60.3695 12.57 60.0937 12.4716L39.9168 4.55309C39.7529 4.49569 39.5809 4.46562 39.4089 4.46562L39.4116 4.46289ZM39.0703 25.0286L18.8988 13.319H18.8933L18.8878 13.3135C18.7568 13.267 18.7458 13.1468 18.7458 13.114C18.7458 13.0812 18.7568 12.9609 18.8878 12.9144L39.0675 4.99316C39.1767 4.95489 39.2942 4.93303 39.4143 4.93303C39.5345 4.93303 39.6492 4.95216 39.7611 4.99316L59.9381 12.9117C60.0719 12.9581 60.0828 13.0784 60.0828 13.114C60.0828 13.1495 60.0719 13.267 59.9408 13.3135H59.9353L59.9299 13.319L39.7584 25.0286C39.6492 25.0669 39.5345 25.086 39.417 25.086C39.2996 25.086 39.1849 25.0669 39.0757 25.0286H39.0703Z" fill="#F6AC1F"/>
<path d="M54.4883 13.106L39.841 2.38581C39.5652 2.28741 39.2648 2.28741 38.989 2.38581L24.3417 13.1033H18.5117V14.5192C18.5117 14.6941 18.61 14.8718 18.8094 14.9428L38.989 25.2503C39.2648 25.3487 39.5652 25.3487 39.841 25.2503L60.0207 14.9428C60.22 14.8718 60.3183 14.6968 60.3183 14.5192V13.1033H54.4883V13.106Z" fill="#F6AC1F"/>
<path d="M39.4148 25.4875C39.251 25.4875 39.0899 25.4602 38.9342 25.4055L18.7545 15.098C18.5088 15.0106 18.3477 14.7837 18.3477 14.5213V13.1054C18.3477 13.0152 18.4214 12.9414 18.5115 12.9414H24.3087L38.926 2.23488C39.2455 2.12008 39.5868 2.12008 39.8981 2.23215L54.5236 12.9414H60.3208C60.4109 12.9414 60.4847 13.0152 60.4847 13.1054V14.5213C60.4847 14.7837 60.3263 15.0106 60.0778 15.098L39.8981 25.4055C39.7425 25.4602 39.5786 25.4875 39.4175 25.4875H39.4148ZM18.6753 13.2667V14.5186C18.6753 14.617 18.7245 14.7372 18.8638 14.7864L39.0434 25.0939C39.2837 25.1786 39.5459 25.1786 39.7862 25.0939L59.9659 14.7864C60.1051 14.7372 60.1543 14.6142 60.1543 14.5186V13.2667H54.4881C54.4663 13.2667 54.4444 13.2612 54.4253 13.253L39.778 2.53555C39.5459 2.45355 39.2837 2.45355 39.0434 2.53828L24.407 13.253C24.3879 13.2612 24.3661 13.2667 24.3442 13.2667H18.6781H18.6753Z" fill="#F6AC1F"/>
<path d="M39.4155 2.15046C39.5793 2.15046 39.7404 2.17779 39.8934 2.23246L54.5188 12.9417H60.3161C60.4062 12.9417 60.4799 13.0155 60.4799 13.1057V14.5216C60.4799 14.784 60.3215 15.0109 60.073 15.0983L39.8934 25.4058C39.7377 25.4605 39.5739 25.4878 39.4128 25.4878C39.2489 25.4878 39.0878 25.4605 38.9322 25.4058L18.7525 15.0983C18.5067 15.0109 18.3456 14.784 18.3456 14.5216V13.1057C18.3456 13.0155 18.4193 12.9417 18.5095 12.9417H24.3067L38.924 2.23519C39.0851 2.17779 39.2516 2.15046 39.4182 2.15046M39.4128 25.1626C39.5384 25.1626 39.664 25.1407 39.7841 25.0997L59.9638 14.7922C60.1031 14.743 60.1522 14.62 60.1522 14.5243V13.2725H54.4861C54.4642 13.2725 54.4424 13.267 54.4233 13.2588L39.7759 2.53586C39.6612 2.49486 39.5384 2.47573 39.4155 2.47573C39.2926 2.47573 39.1615 2.4976 39.0414 2.54133L24.405 13.2561C24.3859 13.2643 24.364 13.2697 24.3422 13.2697H18.676V14.5216C18.676 14.62 18.7252 14.7403 18.8644 14.7895L39.0441 25.097C39.1643 25.1407 39.2899 25.1598 39.4155 25.1598M39.4155 2.07666C39.2407 2.07666 39.066 2.10673 38.8994 2.16686H38.8885L38.8803 2.17779L24.2848 12.8707H18.5122C18.3811 12.8707 18.2773 12.9773 18.2773 13.1057V14.5216C18.2773 14.8141 18.4548 15.0655 18.7279 15.164L38.9021 25.4687H38.9076L38.913 25.4714C39.0769 25.5288 39.2462 25.5589 39.4182 25.5589C39.5903 25.5589 39.7623 25.5288 39.9234 25.4714H39.9289L39.9343 25.4687L60.1085 15.164C60.3816 15.0655 60.5591 14.8113 60.5591 14.5216V13.1057C60.5591 12.9745 60.4526 12.8707 60.3243 12.8707H54.5516L39.937 2.17506L39.9289 2.16959H39.9179C39.7568 2.10946 39.5875 2.07939 39.4155 2.07939V2.07666ZM39.0742 2.6042C39.1834 2.56593 39.2981 2.5468 39.4155 2.5468C39.5329 2.5468 39.6394 2.56593 39.7432 2.60146L54.3796 13.3135L54.385 13.3189H54.3932C54.4233 13.3353 54.4533 13.3408 54.4861 13.3408H60.0812V14.5216C60.0812 14.5571 60.0703 14.6747 59.9392 14.7211H59.9338L59.9283 14.7239L39.7541 25.0286C39.6449 25.0669 39.5274 25.086 39.41 25.086C39.2926 25.086 39.1779 25.0669 39.066 25.0286L18.8917 14.7239H18.8863L18.8808 14.7211C18.7498 14.6747 18.7388 14.5544 18.7388 14.5216V13.3408H24.334C24.3667 13.3408 24.3968 13.3353 24.4268 13.3217H24.435L24.4405 13.3135L39.0742 2.6042Z" fill="#F6AC1F"/>
<path d="M60.02 12.6817L39.8403 0.969308C39.5645 0.870908 39.2642 0.870908 38.9884 0.969308L18.8087 12.6817C18.4127 12.8239 18.4127 13.3869 18.8087 13.5263L38.9884 23.8338C39.2642 23.9322 39.5645 23.9322 39.8403 23.8338L60.02 13.5263C60.416 13.3842 60.416 12.8211 60.02 12.6817Z" fill="#FFDDAB"/>
<path d="M39.4148 24.0718C39.251 24.0718 39.0899 24.0445 38.9342 23.9898L18.7545 13.6824C18.5088 13.5949 18.3477 13.368 18.3477 13.1056C18.3477 12.8432 18.506 12.6164 18.7545 12.5289L38.9342 0.816472C39.2455 0.704405 39.5868 0.704405 39.8981 0.816472L60.0778 12.5289C60.3236 12.6164 60.4847 12.8432 60.4847 13.1056C60.4847 13.368 60.3263 13.5949 60.0778 13.6824L39.8981 23.9898C39.7425 24.0445 39.5786 24.0718 39.4175 24.0718H39.4148ZM39.4148 1.05974C39.2892 1.05974 39.1636 1.08161 39.0434 1.12261L18.8638 12.835C18.7245 12.8842 18.6753 13.0072 18.6753 13.1029C18.6753 13.1986 18.7245 13.3216 18.8638 13.3708L39.0434 23.6782C39.2837 23.763 39.5486 23.763 39.7862 23.6782L59.9659 13.3708C60.1051 13.3216 60.1543 13.1986 60.1543 13.1029C60.1543 13.0072 60.1051 12.8842 59.9659 12.835L39.7862 1.12261C39.666 1.07887 39.5404 1.05974 39.4148 1.05974Z" fill="#F6AC1F"/>
<path d="M39.4128 0.731712C39.5766 0.731712 39.7377 0.759045 39.8934 0.813712L60.073 12.5261C60.3188 12.6136 60.4799 12.8405 60.4799 13.1029C60.4799 13.3653 60.3215 13.5921 60.073 13.6796L39.8934 23.9871C39.7377 24.0417 39.5739 24.0691 39.4128 24.0691C39.2516 24.0691 39.0878 24.0417 38.9322 23.9871L18.7525 13.6796C18.5067 13.5921 18.3456 13.3653 18.3456 13.1029C18.3456 12.8405 18.504 12.6136 18.7525 12.5261L38.9322 0.816446C39.0878 0.761779 39.2489 0.734445 39.4128 0.734445M39.4128 23.7465C39.5384 23.7465 39.664 23.7247 39.7841 23.6837L59.9638 13.3762C60.1031 13.327 60.1522 13.204 60.1522 13.1083C60.1522 13.0127 60.1031 12.8897 59.9638 12.8405L39.7841 1.12258C39.664 1.07885 39.5384 1.05971 39.4128 1.05971C39.2871 1.05971 39.1615 1.08158 39.0414 1.12258L18.8617 12.835C18.7224 12.8842 18.6733 13.0072 18.6733 13.1029C18.6733 13.1985 18.7224 13.3215 18.8617 13.3707L39.0414 23.6782C39.1615 23.7219 39.2871 23.7411 39.4128 23.7411M39.4128 0.660645C39.2407 0.660645 39.0687 0.690711 38.9076 0.748112H38.9021L38.8967 0.753579L18.7252 12.4633C18.4521 12.5644 18.2773 12.8159 18.2773 13.1056C18.2773 13.3953 18.4548 13.6495 18.7279 13.7479L38.9021 24.0527H38.9076L38.913 24.0554C39.0742 24.1128 39.2462 24.1429 39.4182 24.1429C39.5903 24.1429 39.7623 24.1128 39.9234 24.0554H39.9289L39.9343 24.0527L60.1085 13.7479C60.3816 13.6495 60.5591 13.3953 60.5591 13.1056C60.5591 12.8159 60.3843 12.5644 60.1113 12.4633L39.9316 0.753579H39.9261L39.9207 0.748112C39.7596 0.690711 39.5875 0.660645 39.4155 0.660645H39.4128ZM39.0714 1.19091C39.1807 1.15265 39.2953 1.13351 39.4128 1.13351C39.5302 1.13351 39.6449 1.15265 39.7541 1.19091L59.9256 12.9006H59.931L59.9365 12.9061C60.0676 12.9525 60.0785 13.0728 60.0785 13.1056C60.0785 13.1384 60.0676 13.2587 59.9365 13.3051H59.931L59.9256 13.3079L39.7514 23.6126C39.6421 23.6509 39.5247 23.67 39.4073 23.67C39.2899 23.67 39.1752 23.6509 39.0632 23.6126L18.889 13.3079H18.8836L18.8781 13.3051C18.747 13.2587 18.7361 13.1384 18.7361 13.1056C18.7361 13.0728 18.747 12.9525 18.8781 12.9061H18.8836L18.889 12.9006L39.0714 1.19091Z" fill="#F6AC1F"/>
<path d="M50.8686 23.4487C50.4699 23.4487 50.1368 23.7576 50.1095 24.1567L49.334 35.3989H52.4005L51.625 24.1567C51.5977 23.7576 51.2673 23.4487 50.8659 23.4487H50.8686Z" fill="#FFF8EE"/>
<path d="M52.4006 35.5624H49.3341C49.2877 35.5624 49.2467 35.5433 49.214 35.5105C49.1812 35.4777 49.1675 35.4339 49.1703 35.3875L49.9458 24.1452C49.9785 23.6614 50.3827 23.2842 50.866 23.2842C51.3493 23.2842 51.7535 23.6614 51.7862 24.1452L52.5618 35.3875C52.5645 35.4339 52.5481 35.4777 52.5181 35.5105C52.488 35.5433 52.4443 35.5624 52.3979 35.5624H52.4006ZM49.5089 35.2371H52.2259L51.464 24.1698C51.4422 23.8582 51.18 23.6122 50.8687 23.6122C50.5574 23.6122 50.2953 23.8555 50.2735 24.1698L49.5116 35.2371H49.5089Z" fill="#F6AC1F"/>
<path d="M50.8679 23.2872C51.3512 23.2872 51.7554 23.6644 51.7881 24.1482L52.5636 35.3905C52.5664 35.4369 52.55 35.4807 52.5199 35.5135C52.4899 35.5463 52.4462 35.5654 52.3998 35.5654H49.3332C49.2868 35.5654 49.2459 35.5463 49.2131 35.5135C49.1831 35.4807 49.1667 35.4369 49.1694 35.3905L49.9449 24.1482C49.9777 23.6644 50.3818 23.2872 50.8652 23.2872M49.508 35.2374H52.225L51.4632 24.1701C51.4413 23.8585 51.1792 23.6124 50.8679 23.6124C50.5566 23.6124 50.2944 23.8557 50.2726 24.1701L49.5107 35.2374M50.8679 23.2134C50.3463 23.2134 49.9094 23.6206 49.8739 24.1427L49.0984 35.385C49.0929 35.4506 49.1175 35.5135 49.1612 35.5627C49.2049 35.6091 49.2677 35.6365 49.3332 35.6365H52.3998C52.4653 35.6365 52.5281 35.6091 52.5718 35.5627C52.6155 35.5162 52.6401 35.4506 52.6346 35.385L51.8591 24.1427C51.8236 23.6234 51.3867 23.2134 50.8652 23.2134H50.8679ZM49.5872 35.1636L50.3436 24.1728C50.3627 23.8994 50.5921 23.6835 50.8679 23.6835C51.1437 23.6835 51.3731 23.8994 51.3922 24.1728L52.1486 35.1636H49.5872Z" fill="#F6AC1F"/>
<path d="M50.869 23.4706C50.7789 23.4706 50.7052 23.3968 50.7052 23.3066V17.4763L39.3565 13.256C39.2718 13.2232 39.2281 13.1303 39.2609 13.0456C39.2937 12.9608 39.3865 12.9171 39.4712 12.9499L50.9264 17.2112C50.9892 17.2358 51.0328 17.2959 51.0328 17.3643V23.3066C51.0328 23.3968 50.9591 23.4706 50.869 23.4706Z" fill="#F6AC1F"/>
<path d="M39.4118 12.9415C39.4309 12.9415 39.45 12.9442 39.4691 12.9524L50.9243 17.2137C50.9871 17.2383 51.0308 17.2984 51.0308 17.3668V23.3091C51.0308 23.3993 50.9571 23.4731 50.867 23.4731C50.7768 23.4731 50.7031 23.3993 50.7031 23.3091V17.4788L39.3544 13.2585C39.2698 13.2285 39.2261 13.1328 39.2589 13.0481C39.2834 12.9825 39.3462 12.9415 39.4118 12.9415ZM39.4118 12.8677C39.3135 12.8677 39.2261 12.9305 39.1906 13.0207C39.1687 13.0809 39.1715 13.1437 39.1961 13.2011C39.2234 13.2585 39.2698 13.3023 39.3271 13.3241L50.6267 17.528V23.3063C50.6267 23.4375 50.7332 23.5414 50.8615 23.5414C50.9898 23.5414 51.0963 23.4348 51.0963 23.3063V17.364C51.0963 17.2656 51.0335 17.1782 50.9434 17.1426L39.4882 12.8813C39.4609 12.8704 39.4336 12.8677 39.4063 12.8677H39.4118Z" fill="#F6AC1F"/>
<path d="M87.8164 21.3438L83.7968 19.25C83.7613 19.2282 83.7231 19.209 83.6876 19.1899L83.5756 19.1298L83.5702 19.1352C82.7045 18.7334 81.5631 18.8428 80.3043 19.5671L67.6067 26.8023C64.906 28.363 62.7188 32.1569 62.7188 35.2757V44.8916C62.7188 46.4332 63.254 47.5211 64.1223 48.0404L64.1387 48.0514C64.1524 48.0596 64.166 48.065 64.1797 48.0732L69.4799 50.7984C69.5127 51.0252 69.5591 51.1455 69.7038 51.2111L69.753 51.2439L69.7639 51.2494C70.3919 51.5911 70.6159 51.7141 70.6159 51.7141L73.6414 53.406C73.6414 53.406 75.9325 46.0834 75.9325 45.9685C75.9325 45.8537 74.2586 43.8611 74.2586 43.8611L70.8998 47.5539L73.5104 43.5878C74.3268 42.3469 75.3454 41.3383 76.3994 40.7315L82.5134 37.1972C85.2113 35.6365 83.5866 34.1495 83.5866 31.0308V23.9022L87.8164 21.3465V21.3438Z" fill="#FFDDAB"/>
<path d="M86.873 21.647L87.3509 21.3599L87.2881 21.3271L86.873 21.647Z" fill="#F6AC1F"/>
<path d="M83.3576 31.031C83.3576 34.0733 85.0316 35.4809 82.3965 37.0034L76.2797 40.5376C75.2011 41.1608 74.1471 42.1995 73.3142 43.4651L70.7037 47.4311L71.0614 47.7099L74.2454 44.2113C74.8844 44.9766 75.5288 45.772 75.6845 46.0043C75.5233 46.5865 74.3437 50.3804 73.4999 53.0783L73.4289 53.04V49.6124L72.6807 49.0356L70.4552 50.2848L69.4503 50.5417L67.3341 49.4538L66.6323 47.9696L66.5258 37.5774L66.9791 35.2595L63.2735 33.081C63.9726 30.6292 65.6957 28.1774 67.7136 27.0103L80.4112 19.7751C81.5499 19.1164 82.634 18.966 83.4669 19.3514L83.5925 19.4116C83.6198 19.4252 83.6444 19.4389 83.6826 19.4608L87.2816 21.3331L87.6748 21.027L83.9038 19.0644C83.871 19.0453 83.8382 19.0262 83.7864 18.9988L83.5379 18.8731L83.5269 18.8813C82.5794 18.5013 81.397 18.6763 80.1819 19.3788L67.4842 26.6139C64.7263 28.2075 62.4844 32.097 62.4844 35.2841V44.9001C62.4844 46.4198 62.9868 47.5787 63.9016 48.1828L64.0245 48.2593L64.0518 48.273L64.0654 48.2812L64.0873 48.2921L69.2619 50.9572C69.3001 51.143 69.3711 51.3262 69.5677 51.4136L69.7125 51.4984C70.1958 51.7608 70.3979 51.8728 70.4934 51.9193V51.9248L73.6883 53.7124L73.844 53.4855C76.1459 46.1301 76.1459 46.0235 76.1459 45.9797C76.1459 45.8841 76.1459 45.7829 74.4201 43.7275L74.2536 43.5279L72.6725 45.2663L73.6883 43.7247C74.483 42.5166 75.4824 41.5271 76.5009 40.9394L82.6149 37.4052C85.3729 35.8117 83.8027 34.2291 83.8027 31.042V24.0419L86.8638 21.6611L83.3495 23.7849V31.042L83.3576 31.031Z" fill="#F6AC1F"/>
<path d="M84.2223 21.6006L71.5246 28.8358C68.8267 30.3966 66.6367 34.1905 66.6367 37.3092V46.9251C66.6367 50.0439 68.824 51.3094 71.5246 49.7487L72.3384 49.2786C72.9692 48.915 73.4771 49.2102 73.4771 49.9373V52.8893C73.4771 53.7476 74.3399 53.723 74.9161 52.8483L79.0312 46.5971C79.8477 45.3562 80.8663 44.3476 81.9203 43.7408L84.2223 42.5135C86.9202 40.9528 89.1102 37.1589 89.1102 34.0401V24.4242C89.1102 21.3054 86.9229 20.0399 84.2223 21.6006Z" fill="#FFDDAB"/>
<path d="M84.3404 22.9264C85.5337 22.2349 86.6287 22.1009 87.4779 22.4317L83.6932 20.4554L83.6877 20.4609C82.8221 20.0591 81.6807 20.1684 80.4219 20.8928L67.7242 28.128C66.7712 28.6801 65.8837 29.511 65.1328 30.4923L68.9366 32.6708C69.7122 31.6267 70.6406 30.7383 71.6427 30.1616L84.3404 22.9264Z" fill="#FFF8EE"/>
<path d="M73.9659 53.7475C73.8949 53.7475 73.8267 53.7366 73.7584 53.7174C73.4416 53.6218 73.2532 53.3129 73.2532 52.8892V49.9372C73.2532 49.6748 73.174 49.4753 73.032 49.396C72.8928 49.314 72.6825 49.3441 72.4531 49.4753L71.6394 49.9454C70.2604 50.7408 68.9524 50.8638 67.9557 50.2898C66.959 49.7131 66.4102 48.5186 66.4102 46.925V37.3091C66.4102 34.122 68.6548 30.2325 71.41 28.6389L84.1076 21.4037C85.4839 20.6083 86.7919 20.4853 87.7913 21.0621C88.788 21.6388 89.3369 22.8333 89.3369 24.4268V34.0428C89.3369 37.2298 87.0923 41.1194 84.337 42.713L82.0351 43.9402C81.0165 44.5279 80.0171 45.5174 79.2225 46.7255L75.1074 52.9767C74.7879 53.4605 74.351 53.7502 73.9659 53.7502V53.7475ZM72.8491 48.8958C72.9965 48.8958 73.1358 48.9313 73.2587 49.0024C73.5481 49.1691 73.7065 49.4999 73.7065 49.9372V52.8892C73.7065 53.015 73.7311 53.2336 73.8895 53.2828C74.0806 53.3402 74.4383 53.1653 74.7278 52.7252L78.8429 46.474C79.6758 45.2085 80.7271 44.1698 81.8084 43.5466L84.1104 42.3193C86.7428 40.7969 88.8836 37.085 88.8836 34.0428V24.4268C88.8836 23.0027 88.4167 21.9477 87.5647 21.4557C86.7154 20.9664 85.5686 21.0867 84.3343 21.7973L71.6367 29.0325C69.0043 30.5523 66.8634 34.2669 66.8634 37.3091V46.925C66.8634 48.3491 67.3304 49.4042 68.1824 49.8962C69.0343 50.3882 70.1812 50.2652 71.4127 49.5545L72.2265 49.0844C72.4422 48.9587 72.6525 48.8985 72.8491 48.8985V48.8958Z" fill="#F6AC1F"/>
<path d="M82.5788 31.64C82.5378 28.9395 80.6318 27.5455 78.3189 28.5295C76.006 29.5135 74.1628 32.4983 74.2038 35.1989C74.2202 36.3961 74.6052 37.3336 75.2278 37.924C75.2415 37.9404 75.2578 37.9541 75.2742 37.9677C75.2879 37.9787 75.2988 37.9869 75.3097 37.9978C75.3288 38.0142 75.3452 38.0306 75.3643 38.0443C75.9432 38.5363 76.2518 39.1075 76.4047 39.4738C76.4375 39.5995 76.4839 39.7171 76.5358 39.8264C76.5385 39.8373 76.544 39.8456 76.5467 39.851H76.5494C76.9044 40.5398 77.6444 40.8077 78.491 40.4496C79.4767 40.0314 80.2932 38.8943 80.5226 37.7272C80.6455 37.2926 80.8858 36.5683 81.35 35.6936C82.1228 34.469 82.5952 33.0176 82.576 31.6373L82.5788 31.64Z" fill="#FFDDAB"/>
<path d="M81.7506 32.7582C81.7097 30.0576 79.8037 28.6636 77.4908 29.6476C75.1779 30.6316 73.3347 33.6165 73.3757 36.317C73.3921 37.5142 73.7771 38.4518 74.3997 39.0422C74.4133 39.0586 74.4297 39.0722 74.4461 39.0859C74.4598 39.0968 74.4707 39.105 74.4816 39.116C74.5007 39.1324 74.5171 39.1488 74.5362 39.1624C75.1151 39.6544 75.4237 40.2257 75.5766 40.592C75.6094 40.7177 75.6558 40.8352 75.7077 40.9446C75.7104 40.9555 75.7159 40.9637 75.7186 40.9692H75.7213C76.0763 41.658 76.8163 41.9259 77.6628 41.5678C78.6486 41.1496 79.4651 40.0125 79.6944 38.8454C79.8173 38.4108 80.0576 37.6864 80.5218 36.8117C81.2946 35.5872 81.767 34.1358 81.7479 32.7555L81.7506 32.7582Z" fill="#FFF8EE"/>
<path d="M79.381 42.97C79.3864 43.3882 79.0151 43.8884 78.5481 44.0879C78.0812 44.2847 77.6989 44.1071 77.6934 43.6889C77.688 43.2707 78.0593 42.7704 78.5263 42.5709C78.9932 42.3741 79.3755 42.5518 79.381 42.97Z" fill="#FFF8EE"/>
<path d="M77.5704 43.7384C77.5622 43.2409 77.991 42.6532 78.5234 42.4291C78.7747 42.3225 79.015 42.3088 79.1979 42.3963C79.3918 42.4865 79.4983 42.6724 79.501 42.9184C79.5037 43.1671 79.4027 43.4404 79.217 43.6919C79.0395 43.9297 78.802 44.121 78.5507 44.2276C78.0183 44.4545 77.5814 44.2331 77.5732 43.7384H77.5704ZM78.5262 42.7106C78.1275 42.8801 77.808 43.2956 77.8135 43.6345C77.8189 43.9734 78.1466 44.1128 78.5453 43.9434C78.7446 43.8586 78.9276 43.711 79.0668 43.5279C79.1952 43.3584 79.2634 43.178 79.2607 43.0195C79.2607 42.861 79.1843 42.7407 79.0532 42.6806C78.9139 42.615 78.7255 42.6259 78.5289 42.7106H78.5262Z" fill="#F6AC1F"/>
<path d="M80.0487 41.8635C80.0569 42.432 79.3824 43.1809 78.5414 43.539C77.7003 43.8971 77.0122 43.7249 77.004 43.1563C76.9958 42.5878 77.6703 41.8389 78.5113 41.4808C79.3524 41.1227 80.0405 41.2949 80.0487 41.8635Z" fill="#FFDDAB"/>
<path d="M76.881 43.2109C76.8755 42.8829 77.0503 42.5057 77.3752 42.1449C77.6783 41.8087 78.0798 41.5244 78.5085 41.3413C79.426 40.9532 80.1605 41.1582 80.1687 41.8142C80.1769 42.4702 79.4642 43.2929 78.5412 43.6838C77.621 44.0746 76.8919 43.8669 76.881 43.2109ZM78.5139 41.6228C78.1289 41.7868 77.7685 42.041 77.5036 42.3362C77.2578 42.6096 77.124 42.8829 77.1268 43.1043C77.1349 43.5854 77.7821 43.7193 78.5385 43.3968C79.2976 43.0742 79.9339 42.3936 79.9257 41.9126C79.9175 41.4315 79.2731 41.2976 78.5139 41.6201V41.6228Z" fill="#F6AC1F"/>
<path d="M80.0409 41.1906C80.0491 41.7592 79.3746 42.5108 78.5335 42.8662C77.6925 43.2242 77.0044 43.052 76.9962 42.4835C76.988 41.915 77.6625 41.166 78.5035 40.808C79.3446 40.4499 80.0327 40.6221 80.0409 41.1906Z" fill="#FFF8EE"/>
<path d="M76.877 42.5359C76.8688 41.8798 77.5815 41.0571 78.5045 40.6662C79.4247 40.2754 80.1538 40.4831 80.1648 41.1391C80.1729 41.7951 79.4602 42.6179 78.5373 43.0087C77.617 43.3996 76.8879 43.1919 76.8798 42.5359H76.877ZM78.5072 40.9505C77.7481 41.273 77.1119 41.9536 77.1201 42.4347C77.1282 42.9158 77.7727 43.0497 78.5318 42.7272C79.2909 42.4047 79.9272 41.724 79.919 41.243C79.9108 40.7619 79.2636 40.628 78.5072 40.9505Z" fill="#F6AC1F"/>
<path d="M80.0291 40.4802C80.0373 41.0487 79.3629 41.8004 78.5218 42.1557C77.6808 42.5138 76.9926 42.3416 76.9844 41.773C76.9763 41.2045 77.6507 40.4556 78.4918 40.0975C79.3328 39.7394 80.021 39.9116 80.0291 40.4802Z" fill="#FFDDAB"/>
<path d="M76.8653 41.8249C76.8571 41.1689 77.5698 40.3462 78.4928 39.9553C79.413 39.5644 80.1421 39.7722 80.153 40.4282C80.1585 40.7562 79.9837 41.1334 79.6588 41.4942C79.3557 41.8304 78.9543 42.1174 78.5256 42.2978C77.6053 42.6887 76.8762 42.4809 76.868 41.8249H76.8653ZM78.4955 40.2396C77.7364 40.5621 77.1001 41.2427 77.1083 41.7238C77.1165 42.2049 77.761 42.3388 78.5201 42.0163C78.9051 41.8523 79.2656 41.598 79.5304 41.3001C79.7762 41.0268 79.91 40.7534 79.9073 40.532C79.8991 40.051 79.2519 39.917 78.4955 40.2396Z" fill="#F6AC1F"/>
<path d="M80.0155 39.8054C80.0237 40.3739 79.3492 41.1256 78.5081 41.4809C77.6671 41.839 76.979 41.6668 76.9708 41.0982C76.9626 40.5297 77.6371 39.7808 78.4781 39.4227C79.3192 39.0646 80.0073 39.2368 80.0155 39.8054Z" fill="#FFF8EE"/>
<path d="M77.3705 41.7867C77.0401 41.7047 76.8571 41.4778 76.8517 41.1526C76.8462 40.8245 77.021 40.4473 77.3459 40.0865C77.649 39.7503 78.0505 39.4633 78.4792 39.2829C79.3994 38.8921 80.1285 39.0998 80.1367 39.7558C80.1421 40.0838 79.9674 40.461 79.6424 40.8218C79.3393 41.158 78.9379 41.4423 78.5092 41.6254C78.0832 41.8058 77.6763 41.8632 77.3678 41.7867H77.3705ZM78.4819 39.5645C78.0969 39.7285 77.7364 39.9827 77.4715 40.2779C77.2258 40.5512 77.092 40.8245 77.0947 41.046C77.0974 41.2674 77.2367 41.4259 77.4879 41.4888C77.7583 41.5571 78.1214 41.5024 78.5065 41.3412C78.8915 41.1772 79.252 40.923 79.5168 40.6277C79.7626 40.3544 79.8964 40.0811 79.8937 39.8597C79.8855 39.3786 79.241 39.2447 78.4819 39.5672V39.5645Z" fill="#F6AC1F"/>
<path d="M79.9999 38.777C80.008 39.3456 79.3336 40.0973 78.4925 40.4526C77.6515 40.8107 76.9633 40.6385 76.9552 40.0699C76.947 39.5014 77.6214 38.7524 78.4625 38.3944C79.3035 38.0363 79.9917 38.2085 79.9999 38.777Z" fill="#FFDDAB"/>
<path d="M77.351 40.7589C77.0206 40.6769 76.8376 40.45 76.8322 40.1247C76.8267 39.7967 77.0015 39.4195 77.3264 39.0587C77.6295 38.7225 78.0309 38.4355 78.4596 38.2551C79.3799 37.8642 80.109 38.072 80.1172 38.728C80.1226 39.056 79.9479 39.4332 79.6229 39.794C79.3198 40.1302 78.9184 40.4145 78.4897 40.5976C78.0637 40.778 77.6568 40.8354 77.3483 40.7589H77.351ZM78.4651 38.5366C78.0801 38.7006 77.7196 38.9548 77.4547 39.25C77.209 39.5234 77.0752 39.7967 77.0779 40.0181C77.0806 40.2395 77.2199 40.3981 77.4711 40.4609C77.7415 40.5293 78.1047 40.4746 78.4897 40.3133C78.8747 40.1493 79.2352 39.8951 79.5 39.5999C79.7458 39.3266 79.8796 39.0532 79.8769 38.8318C79.8687 38.3508 79.2242 38.2168 78.4651 38.5394V38.5366Z" fill="#F6AC1F"/>
<path d="M78.7184 36.2871L78.429 36.1969C79.4066 33.9173 79.5322 33.2941 79.5349 33.1274C79.4912 33.1629 79.4311 33.2176 79.382 33.2668C79.1635 33.469 78.8359 33.7752 78.388 33.9583C77.9566 34.1332 77.6371 34.0977 77.4268 34.0758C77.3695 34.0704 77.3039 34.0622 77.2602 34.0649C77.2248 34.2016 77.2302 34.7127 78.3525 36.2051L78.0713 36.5413C76.7605 34.8002 76.8097 34.2016 77.0309 33.8435C77.1756 33.6112 77.3613 33.633 77.5606 33.6549C77.7572 33.6768 78.0276 33.7068 78.388 33.5592C78.7567 33.4116 79.0407 33.1492 79.2427 32.9606C79.4339 32.783 79.6141 32.6162 79.7615 32.701C79.9636 32.8158 80.0483 33.1875 78.7184 36.2926V36.2871Z" fill="#F6AC1F"/>
<path d="M78.4861 39.8758C78.2376 39.9824 78.0355 39.8621 78.03 39.6106L77.9864 36.727C77.9836 36.4755 78.1802 36.1857 78.4287 36.0819C78.6772 35.9753 78.8793 36.0955 78.8848 36.347L78.9284 39.2307C78.9312 39.4822 78.7346 39.7719 78.4861 39.8758Z" fill="#FFDDAB"/>
<path d="M78.0912 40.0183C77.9792 39.9527 77.9137 39.827 77.911 39.663L77.8673 36.7793C77.8618 36.4513 78.1158 36.0741 78.4271 35.9401C78.7411 35.8062 79.0005 35.9647 79.006 36.2955L79.0469 39.1792C79.0469 39.3268 79.0005 39.4908 78.9077 39.6384C78.8012 39.8106 78.6482 39.9472 78.4871 40.0183C78.3397 40.0812 78.1977 40.0812 78.0885 40.0183H78.0912ZM78.1103 36.6781L78.154 39.5618C78.154 39.6411 78.1868 39.704 78.2468 39.7395C78.3096 39.7778 78.3943 39.775 78.4844 39.7395C78.5827 39.6985 78.6728 39.6165 78.7356 39.5154C78.7684 39.4607 78.8066 39.3787 78.8066 39.2858L78.7657 36.4021C78.7629 36.2299 78.6127 36.1506 78.4325 36.2271C78.2523 36.3037 78.1076 36.5059 78.1103 36.6809V36.6781Z" fill="#F6AC1F"/>
<path d="M76.4583 39.9933L76.4283 39.9359C76.3709 39.8211 76.3245 39.6954 76.2945 39.5778C76.1334 39.1979 75.8275 38.6485 75.2787 38.1811L75.1886 38.1046C75.1694 38.0882 75.1503 38.069 75.1367 38.0554C74.4731 37.4267 74.099 36.4317 74.0826 35.2509C74.0635 33.9061 74.4922 32.452 75.2923 31.1564C76.0924 29.8608 77.1656 28.8768 78.3179 28.3875H78.3206C79.4703 27.8982 80.5598 27.9638 81.3872 28.5679C82.2146 29.172 82.6815 30.2462 82.7006 31.591C82.7198 32.9659 82.2747 34.4473 81.45 35.7484C81.1005 36.4044 80.8219 37.0905 80.6445 37.7192C80.3987 38.9792 79.5167 40.1628 78.4981 40.5946C77.638 40.9609 76.8625 40.7286 76.4638 39.9933H76.4583ZM78.3206 28.6718C77.2338 29.1337 76.2208 30.0603 75.4671 31.2848C74.7134 32.5094 74.3066 33.8815 74.3257 35.1498C74.3421 36.2623 74.6943 37.2026 75.3251 37.8012C75.336 37.8148 75.3497 37.8258 75.3633 37.8367L75.4562 37.916C76.0323 38.4052 76.3518 38.982 76.5266 39.3947C76.5539 39.4958 76.5867 39.5888 76.6331 39.6954L76.6604 39.75C77.0099 40.4279 77.7117 40.6438 78.49 40.3158C79.3993 39.9304 80.1857 38.8726 80.4096 37.7301C80.598 37.0549 80.8929 36.3361 81.2643 35.6336C82.0507 34.3899 82.4713 32.9932 82.4522 31.6948C82.433 30.4266 81.9934 29.4125 81.2124 28.844C80.4315 28.2727 79.4047 28.2126 78.3206 28.6745H78.3179L78.3206 28.6718Z" fill="#F6AC1F"/>
<path d="M81.4795 31.3642L81.7171 31.2057C81.7061 31.1538 81.4358 29.8992 80.0459 29.2295L79.8984 29.5165C81.2119 30.1506 81.4768 31.3506 81.4795 31.3642Z" fill="#F6AC1F"/>
</svg>
