<svg width="56" height="82" viewBox="0 0 56 82" fill="none" xmlns="http://www.w3.org/2000/svg">
<path d="M0.816595 73.4744C2.555 66.0723 6.34202 54.6099 13.7103 50.2424C15.1231 49.4039 17.012 48.2736 18.0901 47.6348L18.5631 42.7205C18.1546 42.5178 17.7277 42.2813 17.313 42.011L17.2608 41.9834L17.1042 41.8698C16.0753 41.1848 15.2951 40.3464 14.9941 38.8844L14.4075 36.3198L12.3896 27.3206C12.3159 27.0411 12.2483 26.7524 12.1961 26.4545L12.1439 26.2272L12.1592 26.218C12.0487 25.5392 11.9719 24.8236 11.9627 24.0496C11.8705 16.153 17.3007 6.48737 24.0946 2.4577C27.206 0.611797 29.7583 0.17566 31.9482 1.10322L32.2553 1.20458L32.4212 1.29672C32.6761 1.4165 32.9218 1.54857 33.1583 1.70214L38.9018 4.87181L39.212 5.50452L36.414 7.61456C36.4938 8.2012 36.5522 8.80626 36.5583 9.46047C36.5676 10.2068 36.5706 10.7842 36.4816 11.5582L36.4386 11.7394L36.3833 12.2247C36.328 12.6516 36.2696 12.8912 36.1867 13.3243L33.9108 27.6677C33.5361 30.22 32.1785 33.6692 30.4371 36.2184L31.0176 40.1037C32.0895 39.4679 34.006 38.2117 35.4004 37.3855C38.2783 35.6778 40.3914 35.5734 42.3203 36.5163L42.5783 36.6208L43.2478 36.9924C43.2478 36.9924 43.2601 36.9985 43.2663 37.0047L48.288 39.7997L47.1608 41.6179C47.7751 42.7635 48.2849 43.9614 48.6903 45.0886C49.5595 47.4996 47.7474 51.5907 45.1152 53.154L25.2218 64.9513L24.3588 65.4642L8.98649 74.5801C8.78378 76.4229 8.46435 78.9046 8.29543 80.2007C8.24014 80.6215 7.77943 80.8488 7.40779 80.6399L1.81172 77.5225C0.81352 76.9635 0.346672 75.4861 0.816595 73.4836V73.4744Z" fill="#FFD687"/>
<path d="M0.821521 76.2373C2.55993 68.8353 6.35002 57.3729 13.7152 53.0054C15.1281 52.1669 17.017 51.0366 18.095 50.3977L18.568 45.4835C18.1595 45.2808 18.8291 44.5437 18.4144 44.2734L19.0318 43.9908L18.3745 41.9115C17.3456 41.2266 16.4027 41.6842 16.1017 40.2222L14.4124 39.0766L12.3945 30.0774C12.3208 29.7979 12.2532 29.5092 12.201 29.2113L12.1488 28.984L12.1642 28.9748C12.0536 28.296 11.9768 27.5804 11.9676 26.8064C11.8755 18.9099 17.3057 9.2442 24.0996 5.21454C27.2109 3.36863 29.7632 2.9325 31.9531 3.86006L32.2603 3.96141L32.4261 4.05355C32.681 4.17334 32.9268 4.30541 33.1632 4.45898L38.9067 7.62865L39.217 8.26136L36.4189 10.3714C36.4988 10.958 36.5571 11.5631 36.5663 12.2173C36.5756 12.9637 36.5786 13.5411 36.4896 14.3151L36.4466 14.4963L36.3913 14.9816C36.336 15.4085 36.2776 15.648 36.1947 16.0811L33.9188 30.4245C33.5441 32.9768 32.1865 36.426 30.4451 38.9752L31.0256 42.8606C32.0975 42.2248 34.014 40.9686 35.4084 40.1424C38.2863 38.4347 40.3994 38.3303 42.3283 39.2732L42.5863 39.3776L43.2558 39.7492C43.2558 39.7492 43.2681 39.7554 43.2743 39.7615L48.296 42.5565L47.1688 44.3748C47.7831 45.5204 48.2929 46.7182 48.6983 47.8454C49.5675 50.2565 47.7554 54.3476 45.1232 55.9109L25.2298 67.7081L24.3668 68.221L8.99449 77.3369C8.79178 79.1797 10.2108 78.7067 10.0418 80.0029C9.98655 80.4237 9.52584 80.6509 9.1542 80.4421L3.55813 77.3246C2.55993 76.7656 0.354673 78.246 0.824595 76.2404L0.821521 76.2373Z" fill="#FFF8EE"/>
<path d="M7.09974 81.1815L1.50059 78.064C0.18911 77.33 -0.308455 75.5148 0.204467 73.331C2.17323 64.9523 6.05854 54.0489 13.3899 49.7028L17.4964 47.258L17.9018 43.084C17.5885 42.9151 17.2568 42.7246 16.8944 42.4912L16.7593 42.3929C15.8532 41.7879 14.7629 40.8603 14.3851 39.0236L11.7836 27.4813C11.7038 27.1865 11.6362 26.8824 11.584 26.5968L11.4458 25.918L11.4765 25.8996C11.3874 25.2577 11.3413 24.6526 11.3352 24.0567C11.24 15.9728 16.8207 6.04305 23.7743 1.91817C27.0546 -0.0290886 29.8127 -0.483654 32.1469 0.508404L32.6875 0.729545C32.9701 0.861615 33.2434 1.00904 33.4615 1.15647L39.377 4.42443L40.0005 5.70212L37.0826 7.90431C37.1471 8.45409 37.1809 8.95472 37.1871 9.4615C37.1963 10.2601 37.1963 10.8467 37.0949 11.7098L37.0089 12.3087C36.969 12.625 36.926 12.8431 36.8738 13.1042L34.5334 27.767C34.1464 30.4145 32.7766 33.8422 31.0965 36.3761L31.5019 39.082C31.8398 38.8731 32.2083 38.6397 32.5892 38.3971C33.4308 37.8657 34.3338 37.2975 35.0832 36.8521C37.9611 35.1475 40.3506 34.8619 42.562 35.943L49.1716 39.5795L47.8847 41.6497C48.4007 42.6509 48.8706 43.7351 49.2822 44.8808C50.262 47.5989 48.3577 51.9695 45.4368 53.6987L9.57528 74.965C9.37257 76.771 9.07771 79.0622 8.91493 80.2877C8.86272 80.6901 8.61701 81.0402 8.25458 81.2214C8.08259 81.3074 7.89216 81.3535 7.70173 81.3535C7.49287 81.3535 7.28709 81.3013 7.09974 81.1969V81.1815ZM42.3409 37.1961L42.0491 37.0733C40.194 36.1672 38.2406 36.4252 35.7251 37.9179C34.9818 38.3571 34.0911 38.9192 33.2588 39.4444C32.5247 39.9051 31.8398 40.3382 31.3391 40.6361L30.5375 41.1122L29.7819 36.0597L29.9202 35.857C31.5634 33.4491 32.9178 30.1197 33.2925 27.5612L35.5715 13.1994L35.6422 12.8431C35.6882 12.6127 35.7251 12.4193 35.7619 12.1428L35.8295 11.5869L35.8602 11.4794C35.9432 10.7576 35.9432 10.2355 35.9339 9.4615C35.9278 8.89944 35.8817 8.34045 35.7957 7.69238L35.7435 7.32689L38.4156 5.31206L32.8165 2.21917C32.6046 2.08096 32.3865 1.96117 32.1223 1.83832L31.7077 1.67246C29.7205 0.833972 27.331 1.26089 24.4193 2.98702C17.8066 6.90611 12.5054 16.3476 12.5945 24.0322C12.6006 24.7017 12.662 25.359 12.7818 26.1084L12.8187 26.3357C12.8709 26.6183 12.9323 26.8886 13.0091 27.1773L15.6167 38.7503C15.8471 39.8713 16.3815 40.6207 17.481 41.3548L17.6653 41.4807C18.0585 41.7387 18.4639 41.9629 18.8539 42.1534L19.2409 42.3469L18.6942 48.0074L14.038 50.7778C6.71889 55.1177 2.99943 66.9487 1.4361 73.6136C1.06139 75.2046 1.33167 76.5191 2.12409 76.9614L7.68024 80.1065C7.84916 78.8135 8.17166 76.3349 8.3713 74.4982L8.40508 74.1849L44.8072 52.5992C47.1844 51.1894 48.886 47.43 48.112 45.2862C47.6759 44.073 47.1722 42.9335 46.6193 41.9015L46.4473 41.5821L47.4179 40.0157L42.3501 37.19L42.3409 37.1961Z" fill="#F6AC1F"/>
<path d="M6.98137 76.9166C8.71978 69.5146 12.5068 58.0522 19.8751 53.6847C21.2879 52.8462 23.1768 51.7159 24.2549 51.077L24.7279 46.1628C23.2904 45.4441 21.5858 44.3998 21.1558 42.3236L20.5692 39.759L18.5513 30.7598C18.4776 30.4803 18.41 30.1916 18.3547 29.8937L18.3025 29.6664L18.3179 29.6572C18.2073 28.9784 18.1305 28.2628 18.1213 27.4888C18.0292 19.5922 23.4594 9.92657 30.2533 5.89691C37.0472 1.86725 42.6279 5.00313 42.72 12.8997C42.7293 13.646 42.7323 14.2234 42.6433 14.9974L42.6003 15.1786L42.545 15.6639C42.4897 16.0908 42.4313 16.3304 42.3484 16.7635L40.0725 31.1069C39.6978 33.6592 38.3403 37.1084 36.5988 39.6576L37.1793 43.5429C38.2512 42.9071 40.1677 41.6509 41.5621 40.8247C48.9488 36.4449 52.9601 43.2757 54.852 48.5247C55.7212 50.9358 53.9091 55.0268 51.2769 56.5902L31.3836 68.3874L30.5205 68.9003L10.6947 80.6576C8.0625 82.2179 6.17974 80.3167 6.9783 76.9197L6.98137 76.9166Z" fill="#FFD687"/>
<path d="M7.40766 81.3498C6.28046 80.5236 5.89346 78.8128 6.36953 76.7734C8.33829 68.3947 12.2236 57.4943 19.555 53.1452L23.6615 50.7004L24.0669 46.5264C22.522 45.7063 20.9832 44.5576 20.5501 42.463L17.9487 30.9207C17.8688 30.6258 17.8012 30.3218 17.749 30.03L17.617 29.3543L17.6446 29.3389C17.5555 28.7001 17.5095 28.095 17.5033 27.4961C17.4081 19.4122 22.9888 9.48238 29.9424 5.3575C33.4285 3.29046 36.7609 2.94032 39.3163 4.3808C41.8748 5.81821 43.3091 8.84353 43.3552 12.8947C43.3644 13.6103 43.3706 14.2338 43.2631 15.146L43.1771 15.7419C43.1371 16.0582 43.0941 16.2763 43.0419 16.5374L40.7015 31.2002C40.3145 33.8477 38.9447 37.2754 37.2646 39.8093L37.6701 42.5152C38.011 42.3032 38.3826 42.0698 38.7696 41.8241C39.6081 41.2958 40.5049 40.7276 41.2513 40.2853C43.7821 38.7865 46.1594 38.4179 48.3124 39.1919C51.9704 40.5065 54.2156 44.8771 55.4534 48.3139C56.4332 51.0321 54.5289 55.3996 51.6049 57.1319L11.0196 81.1993C10.3009 81.6232 9.59141 81.8382 8.94028 81.8382C8.37514 81.8382 7.85301 81.6754 7.41073 81.3529L7.40766 81.3498ZM41.8901 41.3603C41.153 41.7995 40.2654 42.3585 39.4361 42.8807C38.699 43.3444 38.011 43.7806 37.5073 44.0785L36.7056 44.5546L35.9501 39.5021L36.0883 39.2994C37.7315 36.8915 39.086 33.5621 39.4607 31.0036L41.7396 16.6418L41.8103 16.2855C41.8564 16.0552 41.8932 15.8617 41.9301 15.5852L41.9976 15.0232L42.0284 14.9218C42.1144 14.1632 42.1082 13.5796 42.099 12.9039C42.0591 9.31959 40.852 6.6782 38.699 5.47114C36.5459 4.26716 33.668 4.60501 30.5813 6.43249C23.9686 10.3516 18.6674 19.793 18.7564 27.4776C18.7626 28.1411 18.824 28.8198 18.9438 29.5508L18.9776 29.7781C19.0298 30.0607 19.0912 30.331 19.168 30.6197L21.7756 42.1927C22.138 43.9464 23.5447 44.8648 25.0129 45.5958L25.3999 45.7893L24.8531 51.4498L20.1969 54.2202C12.8778 58.5601 9.15835 70.3911 7.59502 77.056C7.23874 78.5641 7.45373 79.8172 8.154 80.3301C8.68842 80.7232 9.47778 80.6434 10.3777 80.109L50.963 56.0416C53.3434 54.6318 55.0418 50.8724 54.2709 48.7286C53.1222 45.5466 51.0859 41.5139 47.8855 40.3652C47.2958 40.1533 46.6815 40.0488 46.0457 40.0488C44.7496 40.0488 43.3583 40.485 41.8901 41.3573V41.3603Z" fill="#F6AC1F"/>
<path d="M18.9232 21.8001L12.851 18.4492L12.0156 25.2523L15.1546 39.4913L17.0988 41.8686L18.5608 42.7224L18.0878 47.6366L24.252 51.0766L24.725 46.1654L21.4356 44.1997L20.7752 40.6676L18.1215 27.4883L18.9232 21.8001Z" fill="#F6AC1F"/>
<path d="M8.1446 72.7786L1.96803 69.3232L0.628906 74.1392L0.71183 75.8131L1.80832 77.5177L7.17096 80.113L6.79319 77.5945L7.42282 73.8259L8.1446 72.7786Z" fill="#F6AC1F"/>
</svg>
