<svg width="79" height="94" viewBox="0 0 79 94" fill="none" xmlns="http://www.w3.org/2000/svg">
<path d="M0.761767 69.7796C2.40647 62.7766 5.98939 51.932 12.9605 47.7998C14.2972 47.0065 16.0843 45.9372 17.1042 45.3328L17.5517 40.6834C17.1653 40.4916 16.7613 40.2679 16.3691 40.0122L16.3197 39.986L16.1715 39.8785C15.198 39.2305 14.4599 38.4372 14.1752 37.054L13.6201 34.6277L11.711 26.1135C11.6412 25.8491 11.5773 25.576 11.5279 25.2941L11.4785 25.0791L11.493 25.0703C11.3884 24.4281 11.3158 23.7511 11.3071 23.0188C11.2199 15.5479 16.3574 6.4032 22.7852 2.59073C25.7288 0.844323 28.1435 0.431693 30.2154 1.30926L30.506 1.40515L30.6629 1.49233C30.9041 1.60565 31.1365 1.7306 31.3603 1.8759L36.7942 4.87473L37.0877 5.47333L34.4405 7.46965C34.5161 8.02466 34.5713 8.59711 34.5771 9.21606C34.5858 9.92218 34.5887 10.4685 34.5044 11.2008L34.4638 11.3722L34.4114 11.8313C34.3591 12.2352 34.3039 12.4619 34.2255 12.8716L32.0722 26.4419C31.7177 28.8567 30.4333 32.1199 28.7857 34.5318L29.3349 38.2077C30.3491 37.6061 32.1623 36.4177 33.4816 35.636C36.2043 34.0203 38.2036 33.9215 40.0284 34.8136L40.2725 34.9124L40.906 35.264C40.906 35.264 40.9176 35.2698 40.9234 35.2757L45.6745 37.92L44.608 39.6402C45.1892 40.7241 45.6716 41.8574 46.0551 42.9238C46.8775 45.2049 45.1631 49.0755 42.6728 50.5546L23.8516 61.7159L23.0351 62.2012L8.49132 70.8257C8.29954 72.5693 7.99733 74.9172 7.83751 76.1434C7.7852 76.5415 7.34932 76.7566 6.99771 76.559L1.70326 73.6096C0.758858 73.0807 0.317173 71.683 0.761767 69.7884V69.7796Z" fill="#FFD687"/>
<path d="M0.769364 72.3929C2.41407 65.3898 5.99988 54.5452 12.9681 50.4131C14.3048 49.6198 16.0919 48.5504 17.1118 47.946L17.5593 43.2967C17.1728 43.1049 17.8063 42.4075 17.414 42.1518L17.9981 41.8844L17.3763 39.9172C16.4028 39.2692 15.5107 39.7021 15.2259 38.319L13.6277 37.2351L11.7186 28.721C11.6488 28.4565 11.5849 28.1834 11.5355 27.9015L11.4861 27.6865L11.5006 27.6778C11.396 27.0356 11.3234 26.3585 11.3147 25.6262C11.2275 18.1553 16.365 9.01062 22.7927 5.19816C25.7364 3.45174 28.1511 3.03912 30.223 3.91668L30.5136 4.01257L30.6705 4.09975C30.9117 4.21308 31.1441 4.33803 31.3679 4.48332L36.8018 7.48215L37.0953 8.08075L34.4481 10.0771C34.5236 10.6321 34.5788 11.2045 34.5876 11.8235C34.5963 12.5296 34.5992 13.0759 34.5149 13.8082L34.4742 13.9796L34.4219 14.4387C34.3696 14.8427 34.3144 15.0693 34.236 15.479L32.0827 29.0493C31.7282 31.4641 30.4438 34.7273 28.7962 37.1392L29.3454 40.8151C30.3596 40.2136 32.1728 39.0251 33.4921 38.2434C36.2148 36.6278 38.2141 36.529 40.0389 37.4211L40.283 37.5199L40.9165 37.8715C40.9165 37.8715 40.9281 37.8773 40.9339 37.8831L45.685 40.5274L44.6185 42.2477C45.1997 43.3315 45.6821 44.4648 46.0657 45.5313C46.888 47.8124 45.1736 51.6829 42.6832 53.162L23.8621 64.3234L23.0456 64.8086L8.50181 73.4332C8.31002 75.1767 9.65253 74.7292 9.49271 75.9555C9.44041 76.3536 9.00453 76.5686 8.65292 76.371L3.35846 73.4216C2.41406 72.8927 0.327679 74.2933 0.772273 72.3958L0.769364 72.3929Z" fill="#FFF8EE"/>
<path d="M6.71153 77.0715L1.41416 74.1221C0.173367 73.4276 -0.297372 71.7102 0.187904 69.6442C2.05055 61.717 5.72644 51.4013 12.6627 47.2895L16.5478 44.9765L16.9314 41.0274C16.635 40.8676 16.3211 40.6875 15.9782 40.4666L15.8504 40.3736C14.9932 39.8012 13.9616 38.9236 13.6042 37.1859L11.1429 26.2657C11.0674 25.9868 11.0035 25.6991 10.9541 25.4289L10.8233 24.7867L10.8524 24.7692C10.7681 24.1619 10.7245 23.5895 10.7187 23.0257C10.6286 15.3775 15.9085 5.98296 22.4873 2.08041C25.5908 0.238104 28.2002 -0.191961 30.4087 0.746627L30.9201 0.955848C31.1874 1.0808 31.4461 1.22028 31.6524 1.35976L37.249 4.45158L37.8389 5.66041L35.0784 7.7439C35.1394 8.26405 35.1713 8.7377 35.1772 9.21716C35.1859 9.97268 35.1859 10.5277 35.09 11.3442L35.0086 11.9109C34.9709 12.2102 34.9302 12.4165 34.8808 12.6635L32.6665 26.536C32.3004 29.0408 31.0044 32.2838 29.4149 34.6811L29.7985 37.2411C30.1181 37.0435 30.4668 36.8227 30.8271 36.5931C31.6233 36.0904 32.4776 35.5528 33.1867 35.1315C35.9094 33.5187 38.1702 33.2485 40.2624 34.2713L46.5158 37.7119L45.2982 39.6704C45.7864 40.6177 46.231 41.6435 46.6204 42.7274C47.5473 45.299 45.7457 49.434 42.9823 51.07L9.05364 71.1901C8.86185 72.8987 8.58288 75.0665 8.42887 76.2259C8.37947 76.6066 8.14702 76.9379 7.80413 77.1093C7.6414 77.1907 7.46122 77.2343 7.28106 77.2343C7.08346 77.2343 6.88878 77.1849 6.71153 77.0861V77.0715ZM40.0503 35.4569L39.7742 35.3407C38.0191 34.4835 36.171 34.7276 33.7911 36.1398C33.0879 36.5553 32.2452 37.0871 31.4577 37.584C30.7632 38.0199 30.1152 38.4296 29.6415 38.7115L28.8831 39.1619L28.1683 34.3818L28.299 34.19C29.8537 31.9118 31.1351 28.7619 31.4896 26.3413L33.6458 12.7536L33.7126 12.4165C33.7562 12.1986 33.7911 12.0155 33.826 11.754L33.8899 11.228L33.9189 11.1263C33.9974 10.4434 33.9974 9.94943 33.9887 9.21716C33.9829 8.68539 33.9393 8.15653 33.8579 7.5434L33.8085 7.1976L36.3366 5.29137L31.0392 2.36518C30.8387 2.23442 30.6324 2.12109 30.3825 2.00486L29.9902 1.84794C28.1102 1.05465 25.8494 1.45856 23.0947 3.09164C16.8384 6.7995 11.8229 15.7321 11.9072 23.0025C11.913 23.636 11.9711 24.2578 12.0844 24.9668L12.1193 25.1819C12.1687 25.4492 12.2268 25.7049 12.2995 25.9781L14.7665 36.9273C14.9845 37.9879 15.4901 38.6969 16.5304 39.3914L16.7047 39.5106C17.0767 39.7547 17.4602 39.9668 17.8293 40.147L18.1954 40.33L17.6782 45.6855L13.2729 48.3066C6.34828 52.4125 2.82932 63.6058 1.35024 69.9115C0.995729 71.4167 1.25144 72.6604 2.00115 73.0789L7.25783 76.0545C7.41765 74.8311 7.72276 72.4861 7.91164 70.7484L7.9436 70.452L42.3837 50.0297C44.6328 48.696 46.2426 45.1392 45.5103 43.1109C45.0977 41.9631 44.6212 40.885 44.0981 39.9087L43.9354 39.6065L44.8536 38.1245L40.059 35.4511L40.0503 35.4569Z" fill="#F6AC1F"/>
<path d="M6.59426 73.0389C8.23897 66.0359 11.8219 55.1912 18.793 51.0591C20.1297 50.2658 21.9168 49.1965 22.9367 48.5921L23.3842 43.9427C22.0243 43.2628 20.4116 42.2748 20.0047 40.3104L19.4497 37.884L17.5406 29.3699C17.4708 29.1055 17.4069 28.8323 17.3546 28.5505L17.3052 28.3354L17.3197 28.3267C17.2151 27.6845 17.1425 27.0075 17.1338 26.2752C17.0466 18.8043 22.1841 9.65958 28.6118 5.84711C35.0396 2.03465 40.3195 5.00151 40.4067 12.4724C40.4154 13.1786 40.4183 13.7249 40.334 14.4571L40.2933 14.6286L40.241 15.0877C40.1887 15.4916 40.1335 15.7183 40.0551 16.128L37.9018 29.6983C37.5473 32.113 36.2629 35.3763 34.6153 37.7881L35.1645 41.464C36.1787 40.8625 37.9919 39.674 39.3112 38.8924C46.2997 34.7486 50.0947 41.2112 51.8847 46.1773C52.7071 48.4584 50.9926 52.329 48.5023 53.8081L29.6812 64.9694L28.8647 65.4547L10.1074 76.5783C7.61713 78.0544 5.83584 76.2557 6.59135 73.0418L6.59426 73.0389Z" fill="#FFD687"/>
<path d="M6.99524 77.2274C5.9288 76.4457 5.56266 74.8272 6.01307 72.8977C7.87571 64.9705 11.5516 54.6577 18.4879 50.543L22.373 48.23L22.7565 44.2809C21.2949 43.5051 19.8391 42.4183 19.4293 40.4365L16.9681 29.5163C16.8925 29.2374 16.8286 28.9497 16.7792 28.6736L16.6543 28.0344L16.6804 28.0198C16.5962 27.4154 16.5526 26.843 16.5467 26.2763C16.4567 18.6281 21.7366 9.23354 28.3154 5.331C31.6136 3.37536 34.7664 3.0441 37.1841 4.40694C39.6046 5.76687 40.9616 8.62913 41.0052 12.4619C41.014 13.139 41.0198 13.7289 40.9181 14.5919L40.8367 15.1557C40.7989 15.455 40.7582 15.6613 40.7088 15.9083L38.4946 29.7808C38.1284 32.2856 36.8325 35.5285 35.243 37.9258L35.6265 40.4859C35.9491 40.2854 36.3007 40.0645 36.6668 39.8321C37.4601 39.3323 38.3086 38.7947 39.0147 38.3763C41.4092 36.9582 43.6583 36.6095 45.6953 37.3418C49.1561 38.5855 51.2803 42.7205 52.4514 45.9721C53.3783 48.5438 51.5767 52.6759 48.8103 54.3148L10.4125 77.085C9.73255 77.486 9.06129 77.6894 8.44525 77.6894C7.91058 77.6894 7.41659 77.5354 6.99815 77.2303L6.99524 77.2274ZM39.6192 39.3962C38.9218 39.8117 38.082 40.3406 37.2974 40.8346C36.6 41.2734 35.9491 41.686 35.4725 41.9679L34.7141 42.4183L33.9992 37.6382L34.13 37.4464C35.6846 35.1682 36.9661 32.0183 37.3206 29.5977L39.4768 16.01L39.5436 15.6729C39.5872 15.455 39.622 15.2719 39.6569 15.0104L39.7209 14.4786L39.7499 14.3827C39.8313 13.665 39.8255 13.1128 39.8168 12.4736C39.779 9.08244 38.637 6.58341 36.6 5.44142C34.563 4.30233 31.8402 4.62197 28.9198 6.35095C22.6636 10.0588 17.6481 18.9914 17.7323 26.2618C17.7381 26.8895 17.7963 27.5316 17.9096 28.2232L17.9416 28.4383C17.9909 28.7056 18.0491 28.9613 18.1217 29.2345L20.5888 40.1837C20.9317 41.8429 22.2625 42.7118 23.6515 43.4034L24.0177 43.5864L23.5004 48.9419L19.0952 51.563C12.1706 55.6689 8.65157 66.8622 7.17249 73.1679C6.83542 74.5947 7.03883 75.7803 7.70136 76.2655C8.20698 76.6375 8.95378 76.5619 9.80519 76.0563L48.203 53.2861C50.455 51.9524 52.062 48.3956 51.3326 46.3673C50.2458 43.3569 48.3192 39.5415 45.2914 38.4547C44.7334 38.2542 44.1523 38.1554 43.5508 38.1554C42.3245 38.1554 41.0082 38.568 39.6192 39.3933V39.3962Z" fill="#F6AC1F"/>
<path d="M17.9014 20.8871L12.1566 17.7197L11.3633 24.1562L14.336 37.6248L16.1754 39.8739L17.5556 40.6846L17.1081 45.334L22.9402 48.5885L23.3906 43.9392L20.2784 42.0823L19.6536 38.7406L17.143 26.2716L17.9014 20.8871Z" fill="#F6AC1F"/>
<path d="M7.69848 69.1206L1.85483 65.8516L0.587891 70.4079L0.666354 71.9916L1.70372 73.6015L6.77733 76.0598L6.41992 73.677L7.01561 70.1115L7.69848 69.1206Z" fill="#F6AC1F"/>
<path d="M36.6681 67.5291C24.6873 72.9659 21.6071 82.2763 29.79 88.3233C37.9728 94.3704 54.3182 94.8644 66.3019 89.4275C78.2827 83.9907 81.3629 74.6804 73.18 68.6333C64.9972 62.5863 48.6518 62.0923 36.6681 67.5291Z" fill="#FFF8EE"/>
<path d="M29.5913 88.596C26.1769 86.0737 24.5642 82.9441 24.9245 79.5443C25.4214 74.8368 29.6523 70.3444 36.5304 67.2235C48.5926 61.7489 65.1239 62.2632 73.3823 68.3626C76.7938 70.8848 78.4094 74.0144 78.0491 77.4114C77.5522 82.1188 73.3213 86.6113 66.4403 89.7321C60.8378 92.2748 54.2735 93.5272 48.0201 93.5243C40.8078 93.5243 34.0111 91.8592 29.5884 88.5902L29.5913 88.596ZM36.8094 67.8366C30.1521 70.8558 26.0636 75.1506 25.5928 79.6169C25.2587 82.7639 26.7813 85.6843 29.9923 88.0555C38.0734 94.027 54.2997 94.5094 66.1642 89.1248C72.8215 86.1028 76.91 81.8108 77.3808 77.3445C77.7149 74.1975 76.1923 71.2771 72.9813 68.906C68.6661 65.7154 62.0263 64.0939 54.968 64.0939C48.8105 64.0939 42.3334 65.3289 36.8065 67.8395L36.8094 67.8366Z" fill="#F6AC1F"/>
<path d="M35.9027 67.6924L29.9893 77.3398C29.9893 77.3398 26.0519 79.8592 26.4441 84.4533C23.2012 78.9031 26.7463 72.1354 35.9027 67.6924Z" fill="#F6AC1F"/>
<path d="M26.153 84.6211C24.8803 82.4417 24.5926 80.0153 25.3278 77.6005C26.5134 73.7038 30.2154 70.0773 35.7539 67.3865L36.7884 66.8838L30.2735 77.5105L30.1689 77.618C30.1311 77.6412 26.4087 80.0908 26.7778 84.4206L26.9056 85.9054L26.153 84.6182V84.6211ZM34.9955 68.5285C30.2125 71.0682 27.0248 74.3315 25.9729 77.7981C25.4353 79.5649 25.4905 81.3433 26.124 83.0054C26.4959 79.4545 29.2594 77.4291 29.7446 77.1007L34.9984 68.5285H34.9955Z" fill="#F6AC1F"/>
<path d="M73.9965 84.2729C74.2638 83.8951 77.7014 78.8012 73.9791 72.9866C72.7702 71.0978 72.8167 69.6768 73.4502 68.6133C79.288 73.0505 79.166 79.1847 73.9965 84.2729Z" fill="#F6AC1F"/>
<path d="M73.7216 84.0771C74.0935 83.5482 77.2638 78.739 73.6954 73.1656C72.5418 71.364 72.3616 69.7745 73.1636 68.4407L73.3554 68.1182L73.6547 68.3448C76.4327 70.4574 77.9961 73.0407 78.1733 75.8216C78.3622 78.7855 76.9994 81.7902 74.233 84.5129L73.7216 84.08V84.0771ZM74.262 72.8024C76.6419 76.5219 76.2061 79.9275 75.4476 82.0982C76.9325 80.0728 77.6357 77.9515 77.5021 75.8622C77.3451 73.3894 75.9852 71.0676 73.5646 69.1265C73.1259 70.1581 73.3583 71.3931 74.262 72.8024Z" fill="#F6AC1F"/>
<path d="M30.3709 74.5467C30.3709 74.5467 35.6741 53.2468 54.0768 52.2443C71.785 51.2796 76.2774 72.8409 76.2774 72.8409H76.2716C77.4485 77.4177 73.9731 82.4186 66.5283 85.6615C55.9772 90.2557 41.4683 89.5757 34.1166 84.1447C30.3651 81.3725 29.2086 77.8971 30.3738 74.5496L30.3709 74.5467Z" fill="#FFD687"/>
<path d="M30.6043 74.4739C30.6043 74.4739 34.7335 57.9222 48.3212 53.3193C38.2176 59.5117 35.0008 72.4165 35.0008 72.4165C33.8356 75.767 34.9921 79.2395 38.7436 82.0116C45.7379 87.1811 59.2094 88.0442 69.5891 84.159C68.7203 84.6647 67.7817 85.1441 66.7588 85.5887C56.2077 90.1829 41.6988 89.5029 34.347 84.0719C30.5956 81.2997 29.4391 77.8243 30.6043 74.4768V74.4739Z" fill="#F6AC1F"/>
<path d="M33.9137 84.4123C30.2261 81.6866 28.8139 78.0717 30.0344 74.4888L30.0402 74.4656C30.0954 74.2505 35.6165 52.9129 54.0541 51.9104C71.8378 50.9282 76.5569 72.5564 76.6005 72.7744L76.6354 72.9371C77.7716 77.8073 73.9678 82.7879 66.6596 85.9698C61.9347 88.0271 56.4078 89.0326 51.0727 89.0326C44.4067 89.0326 38.037 87.4634 33.9137 84.4152V84.4123ZM54.0918 52.5787C37.5721 53.4796 31.6791 71.243 30.8102 74.2098H30.8451L30.6911 74.6573C29.5258 78.0107 30.8131 81.2827 34.3147 83.8718C41.5676 89.2331 55.9574 89.8956 66.3923 85.3508C73.4651 82.2707 77.1236 77.508 75.9438 72.9255L75.8363 72.5041H75.8508C75.1156 69.575 70.0013 51.7215 54.0918 52.5758V52.5787Z" fill="#F6AC1F"/>
<path d="M35.5434 64.3786C40.6054 53.0981 47.2685 47.9722 54.1786 48.8062C55.1288 48.9195 56.0238 49.1985 56.8752 49.5821L63.2448 52.7669L63.3727 53.7461L57.1687 53.0981L49.7965 57.3087L46.8791 62.5276L41.9421 69.2401L39.3035 82.1275L38.2168 88.0496C38.1877 88.0613 38.179 88.0642 38.1499 88.0787L32.0651 83.8856C31.7367 83.6589 31.5304 83.2986 31.5072 82.9005C31.3735 80.8141 31.327 73.7761 35.5434 64.3786Z" fill="#FFF8EE"/>
<path d="M31.8789 84.1615C31.4634 83.8739 31.2077 83.4235 31.1757 82.9236C31.0507 80.9477 30.9694 73.7615 35.241 64.242C40.1983 53.194 46.9486 47.5886 54.2249 48.4749C55.1518 48.5853 56.0672 48.8497 57.0319 49.2827L63.5613 52.546L63.7647 54.1238L57.244 53.4439L50.0462 57.5527L47.152 62.7251L42.2586 69.3795L39.6375 82.1885L38.5507 88.1106L38.449 88.3169L38.1119 88.4593L31.876 84.1615H31.8789ZM62.9889 53.3654L62.9395 52.9847L56.7413 49.8871C55.8521 49.4861 55.0007 49.242 54.1406 49.1403C47.1753 48.3005 40.6778 53.7606 35.8512 64.518C31.6435 73.8952 31.7191 80.9448 31.844 82.8801C31.8615 83.1736 32.0126 83.438 32.2567 83.6065L37.9696 87.5439L38.975 82.0577L41.6135 69.1703L46.5883 62.3619L49.5523 57.0616L57.0987 52.7523L62.9889 53.3654Z" fill="#F6AC1F"/>
<path d="M39.2623 75.8628L40.3433 77.0338L39.3001 82.1278L38.2133 88.0499C38.1843 88.0615 38.1755 88.0644 38.1465 88.079L32.0616 83.8858C31.7333 83.6592 31.527 83.2988 31.5037 82.9007C31.4078 81.3868 31.3642 77.2576 32.9537 71.5186L39.2623 75.8628Z" fill="#FFD687"/>
<path d="M31.8682 84.1614C31.4527 83.8766 31.197 83.4233 31.165 82.9235C31.0691 81.4066 31.0139 77.2454 32.6296 71.4308L32.7545 70.9775L39.4525 75.5891L40.7078 76.9345L39.6327 82.1912L38.5459 88.1133L38.4442 88.3196L38.1071 88.462L31.8682 84.1643V84.1614ZM39.0399 76.118L33.1526 72.0643C31.6939 77.5418 31.7433 81.4357 31.8363 82.8799C31.8537 83.1734 32.0048 83.4378 32.2489 83.6092L37.9618 87.5467L38.9672 82.0604L39.9755 77.135L39.037 76.118H39.0399Z" fill="#F6AC1F"/>
<path d="M68.3646 57.8099C68.3646 57.8099 58.6068 47.5465 48.8635 60.8204C39.1202 74.0943 40.329 87.1764 40.329 87.1764L38.26 88.0917C38.231 88.1033 38.2019 88.0917 38.1961 88.0598C38.106 87.2752 37.2314 78.4153 42.0638 67.6462C47.1258 56.3657 53.7889 51.2398 60.699 52.0738C68.6319 53.0298 73.229 64.6735 73.229 64.6735C73.229 64.6735 71.2879 60.8262 68.3617 57.8128L68.3646 57.8099Z" fill="#FFD687"/>
<path d="M38.0561 88.3817L37.8846 88.2654L37.8643 88.094C37.7539 87.1205 36.9228 78.2868 41.761 67.5032C46.7184 56.4552 53.46 50.8527 60.7449 51.7361C68.7825 52.7037 73.3563 64.0627 73.5481 64.545L72.9349 64.8211C72.9146 64.7833 70.9851 60.9854 68.1257 58.0418C68.088 57.9982 64.2668 54.0695 59.1554 54.3775C55.5754 54.6041 52.2046 56.8387 49.139 61.0173C39.5904 74.0268 40.6539 87.013 40.6655 87.1438L40.6859 87.385L38.399 88.3962C38.3496 88.4194 38.2944 88.4311 38.2391 88.4311C38.1752 88.4311 38.1113 88.4136 38.0532 88.3846L38.0561 88.3817ZM48.5985 60.6192C51.7891 56.2721 55.3284 53.9474 59.1147 53.7062C64.5312 53.3721 68.4338 57.3879 68.6139 57.5739C68.6691 57.632 68.7243 57.6901 68.7796 57.7454C66.7367 55.1795 63.9936 52.8025 60.6664 52.4015C53.6953 51.5588 47.2037 57.0218 42.3771 67.7792C38.0096 77.5109 38.3292 85.6037 38.4978 87.6174L39.9827 86.9607C39.8839 85.0952 39.6165 72.8557 48.5985 60.6192Z" fill="#F6AC1F"/>
<path d="M33.9509 68.5893L33.5723 69.1436L39.8106 73.4055L40.1893 72.8512L33.9509 68.5893Z" fill="#F6AC1F"/>
<path d="M52.1229 48.436L51.8301 49.04L58.5346 52.2898L58.8274 51.6858L52.1229 48.436Z" fill="#F6AC1F"/>
</svg>
