<svg width="79" height="107" viewBox="0 0 79 107" fill="none" xmlns="http://www.w3.org/2000/svg">
<path d="M77.012 4.06271L71.7374 1.31863C71.6906 1.28937 71.6409 1.26597 71.5941 1.23964L71.4478 1.16065L71.439 1.1665C70.3039 0.642846 68.8061 0.783268 67.1561 1.73404L50.5015 11.2155C46.9617 13.2604 44.0918 18.2307 44.0918 22.3205V34.9205C44.0918 36.942 44.7939 38.3667 45.9319 39.0454L45.9524 39.06C45.9699 39.0688 45.9875 39.0776 46.005 39.0893L52.9559 42.6613C52.9969 42.9568 53.0583 43.1177 53.2485 43.2025L53.3129 43.2434L53.3275 43.2522C54.1524 43.7027 54.445 43.8607 54.445 43.8607L58.4149 46.0782C58.4149 46.0782 61.4222 36.4798 61.4222 36.3306C61.4222 36.1814 59.2281 33.5689 59.2281 33.5689L54.8224 38.4077L58.2452 33.212C59.3159 31.5884 60.6528 30.2661 62.0337 29.4674L70.0553 24.8364C73.5951 22.7915 71.4624 20.8432 71.4624 16.7534V7.41237L77.0091 4.06271H77.012Z" fill="#FFD687"/>
<path d="M75.7754 4.45838L76.4014 4.08099L76.3166 4.03711L75.7754 4.45838Z" fill="#F6AC1F"/>
<path d="M71.1675 16.7555C71.1675 20.7429 73.3616 22.5859 69.9096 24.5811L61.8879 29.2121C60.472 30.0283 59.0912 31.3916 58 33.0503L54.5772 38.2459L55.0453 38.6087L59.2228 34.0216C60.0595 35.025 60.9079 36.0665 61.1097 36.3707C60.8991 37.1343 59.3516 42.1075 58.2457 45.6386L58.155 45.5888V41.0983L57.1721 40.3406L54.2525 41.9759L52.9331 42.3123L50.1568 40.8847L49.2382 38.9393L49.0978 25.3183L49.6917 22.2787L44.8325 19.4235C45.7482 16.2113 48.0095 12.9962 50.6571 11.4692L67.3118 1.98773C68.8067 1.12471 70.2284 0.928708 71.3226 1.43189L71.4893 1.51088C71.5244 1.52843 71.5595 1.54891 71.6092 1.57524L76.328 4.0297L76.8458 3.62891L71.8989 1.05743C71.855 1.0311 71.8111 1.0077 71.7438 0.97259L71.4191 0.805839L71.4045 0.817541C70.1612 0.320212 68.6107 0.548398 67.0163 1.46992L50.3616 10.9513C46.7457 13.0401 43.8027 18.1363 43.8027 22.3139V34.9138C43.8027 36.9061 44.461 38.4244 45.6633 39.2143L45.8242 39.3137L45.8593 39.3313L45.8798 39.343L45.9091 39.3547L52.699 42.8448C52.7488 43.0876 52.8424 43.3275 53.0998 43.4416L53.29 43.5527C53.9219 43.8979 54.1881 44.0413 54.3139 44.1027V44.1086L58.5061 46.4519L58.7109 46.1564C61.7329 36.517 61.7329 36.3795 61.7329 36.321C61.7329 36.1952 61.7329 36.0635 59.4686 33.3692L59.2492 33.1088L57.175 35.3877L58.5061 33.3663C59.5476 31.7836 60.8611 30.4876 62.1951 29.7153L70.2167 25.0843C73.8326 22.9955 71.7731 20.9213 71.7731 16.7438V7.56951L75.7897 4.44804L71.1792 7.23308V16.7438L71.1675 16.7555Z" fill="#F6AC1F"/>
<path d="M72.2997 4.39971L55.6451 13.8811C52.1052 15.926 49.2324 20.8964 49.2324 24.9862V37.5862C49.2324 41.676 52.1023 43.3318 55.6451 41.2869L56.7129 40.6696C57.5378 40.1928 58.2078 40.5789 58.2078 41.5326V45.403C58.2078 46.5293 59.3399 46.4971 60.0947 45.3504L65.4922 37.159C66.5629 35.5354 67.8998 34.2131 69.2806 33.4145L72.2997 31.8055C75.8395 29.7606 78.7094 24.7902 78.7094 20.7004V8.10042C78.7094 4.01062 75.8395 2.35481 72.2997 4.39971Z" fill="#FFD687"/>
<path d="M72.4509 6.13645C74.019 5.23248 75.4525 5.05403 76.5641 5.48992L71.5996 2.90089L71.5909 2.90674C70.4558 2.38308 68.9579 2.5235 67.308 3.47428L50.6533 12.9557C49.4041 13.6783 48.2398 14.7695 47.2539 16.0538L52.2448 18.909C53.2628 17.5399 54.4827 16.3785 55.7963 15.6179L72.4509 6.13645Z" fill="#FFF8EE"/>
<path d="M58.8412 46.5246C58.7475 46.5246 58.6569 46.5129 58.5691 46.4866C58.1537 46.3637 57.905 45.9571 57.905 45.4012V41.5309C57.905 41.1856 57.7997 40.9282 57.6154 40.82C57.4311 40.7146 57.1561 40.7527 56.8548 40.9253L55.787 41.5426C53.9791 42.5869 52.2647 42.7449 50.957 41.9931C49.6494 41.2383 48.9297 39.6732 48.9297 37.5844V24.9844C48.9297 20.8069 51.8727 15.7107 55.4886 13.6219L72.1433 4.1405C73.9512 3.09611 75.6655 2.93521 76.9732 3.69291C78.2809 4.44767 79.0005 6.0128 79.0005 8.10158V20.7015C79.0005 24.8791 76.0575 29.9753 72.4416 32.0641L69.4226 33.6731C68.0856 34.4454 66.775 35.7414 65.7336 37.3211L60.3361 45.5124C59.9177 46.1472 59.3443 46.5246 58.8382 46.5246H58.8412ZM57.3755 40.1676C57.5686 40.1676 57.75 40.2144 57.9138 40.308C58.2912 40.5274 58.5018 40.9604 58.5018 41.5338V45.4042C58.5018 45.568 58.534 45.8576 58.7417 45.919C58.9933 45.9951 59.4643 45.764 59.8417 45.1877L65.2391 36.9964C66.3303 35.3376 67.7112 33.9773 69.1271 33.1582L72.1462 31.5492C75.5982 29.5569 78.4096 24.689 78.4096 20.7015V8.09865C78.4096 6.23221 77.7952 4.84846 76.6806 4.20486C75.566 3.56126 74.0623 3.71923 72.4446 4.65246L55.7899 14.1339C52.3379 16.1261 49.5265 20.9941 49.5265 24.9815V37.5815C49.5265 39.4479 50.1409 40.8317 51.2555 41.4753C52.3701 42.1189 53.8767 41.958 55.4915 41.0247L56.5593 40.4075C56.8431 40.2436 57.1181 40.1617 57.3755 40.1617V40.1676Z" fill="#F6AC1F"/>
<path d="M70.1441 17.5576C70.0915 14.0178 67.5902 12.1923 64.5565 13.4824C61.5228 14.7696 59.1064 18.6839 59.159 22.2237C59.1825 23.7918 59.6856 25.0205 60.5048 25.7957C60.5223 25.8162 60.5428 25.8367 60.5662 25.8542C60.5837 25.8659 60.5954 25.8805 60.613 25.8922C60.6364 25.9127 60.6627 25.9332 60.6861 25.9537C61.4468 26.6002 61.8476 27.3462 62.0523 27.8289C62.0962 27.9956 62.1547 28.1478 62.2249 28.2882C62.2308 28.3028 62.2337 28.3145 62.2366 28.3204H62.2396C62.7076 29.2243 63.676 29.5754 64.7876 29.1044C66.0836 28.5544 67.1543 27.0654 67.4527 25.5383C67.6136 24.9707 67.9296 24.0199 68.5381 22.8732C69.5532 21.27 70.1705 19.3655 70.1441 17.5576Z" fill="#FFD687"/>
<path d="M69.0563 19.0195C69.0036 15.4797 66.5023 13.6542 63.4686 14.9443C60.4349 16.2315 58.0185 20.1458 58.0712 23.6856C58.0946 25.2537 58.5977 26.4824 59.4169 27.2576C59.4344 27.2781 59.4549 27.2986 59.4783 27.3161C59.4958 27.3278 59.5076 27.3425 59.5251 27.3571C59.5485 27.3776 59.5748 27.398 59.5982 27.4185C60.3589 28.0621 60.7596 28.811 60.9644 29.2937C61.0083 29.4605 61.0668 29.6126 61.137 29.753C61.1429 29.7677 61.1458 29.7794 61.1487 29.7852H61.1516C61.6197 30.6892 62.5881 31.0402 63.6997 30.5692C64.9957 30.0193 66.0664 28.5302 66.3648 27.0031C66.5257 26.4356 66.8417 25.4848 67.4502 24.338C68.4653 22.7348 69.0826 20.8304 69.0563 19.0224V19.0195Z" fill="#FFF8EE"/>
<path d="M65.9481 32.4015C65.9569 32.9515 65.4683 33.6068 64.8569 33.8642C64.2455 34.1246 63.7423 33.8906 63.7364 33.3406C63.7277 32.7906 64.2162 32.1353 64.8276 31.8778C65.4391 31.6175 65.9422 31.8515 65.9481 32.4015Z" fill="#FFF8EE"/>
<path d="M63.5763 33.4071C63.5675 32.7576 64.1263 31.9882 64.8255 31.6898C65.156 31.5494 65.4691 31.5348 65.7089 31.6459C65.9605 31.763 66.1039 32.0058 66.1068 32.3305C66.1127 32.6552 65.9781 33.0151 65.7323 33.3427C65.4983 33.6557 65.1882 33.9044 64.8576 34.0448C64.1614 34.3403 63.5851 34.0536 63.5763 33.4041V33.4071ZM64.8313 32.0614C64.3106 32.2837 63.8893 32.8249 63.8951 33.2725C63.901 33.7172 64.331 33.9015 64.8547 33.6791C65.1151 33.568 65.3579 33.3749 65.5363 33.135C65.7031 32.9127 65.7938 32.6757 65.7908 32.468C65.7908 32.2603 65.6914 32.1023 65.5217 32.0233C65.3374 31.9385 65.0946 31.9502 64.8342 32.0614H64.8313Z" fill="#F6AC1F"/>
<path d="M66.8196 30.9525C66.8313 31.6985 65.9448 32.6814 64.8419 33.1495C63.739 33.6176 62.8351 33.3923 62.8263 32.6493C62.8146 31.9033 63.701 30.9203 64.8039 30.4522C65.9068 29.9842 66.8108 30.2094 66.8196 30.9525Z" fill="#FFD687"/>
<path d="M62.6681 32.7168C62.6622 32.2868 62.8904 31.7924 63.3146 31.3214C63.7125 30.8797 64.239 30.5081 64.8007 30.2682C66.006 29.7592 66.9656 30.0254 66.9802 30.8855C66.9919 31.7456 66.0558 32.8222 64.8475 33.3341C63.6393 33.8461 62.6827 33.574 62.671 32.7139L62.6681 32.7168ZM64.8095 30.6368H64.8066C64.3005 30.8533 63.8295 31.1839 63.4814 31.573C63.1596 31.9328 62.984 32.2897 62.9869 32.5823C62.9957 33.2113 63.8441 33.3868 64.8417 32.9655C65.8363 32.5413 66.6701 31.652 66.6613 31.0201C66.6526 30.3911 65.8042 30.2156 64.8095 30.6368Z" fill="#F6AC1F"/>
<path d="M66.8137 30.0687C66.8254 30.8147 65.939 31.7976 64.8361 32.2657C63.7332 32.7338 62.8292 32.5085 62.8204 31.7655C62.8087 31.0195 63.6951 30.0365 64.798 29.5684C65.9009 29.1004 66.8049 29.3256 66.8137 30.0687Z" fill="#FFF8EE"/>
<path d="M62.6592 31.8336C62.6475 30.9735 63.5836 29.8969 64.7919 29.385C66.0001 28.873 66.9567 29.1451 66.9684 30.0052C66.9801 30.8652 66.044 31.9418 64.8357 32.4538H64.8328C63.6246 32.9657 62.6709 32.6937 62.6562 31.8365L62.6592 31.8336ZM64.8006 29.7536C63.806 30.1778 62.9722 31.0671 62.981 31.699C62.9897 32.328 63.8382 32.5035 64.8328 32.0822H64.8357C65.8304 31.658 66.6641 30.7687 66.6554 30.1368C66.6466 29.5078 65.7982 29.3323 64.8006 29.7536Z" fill="#F6AC1F"/>
<path d="M66.7981 29.138C66.8098 29.884 65.9234 30.867 64.8205 31.3351C63.7176 31.8031 62.8136 31.5779 62.8048 30.8348C62.7931 30.0888 63.6795 29.1059 64.7824 28.6378C65.8853 28.1697 66.7893 28.395 66.7981 29.138Z" fill="#FFD687"/>
<path d="M62.6436 30.901C62.6319 30.0409 63.568 28.9643 64.7762 28.4523C65.9844 27.9404 66.9411 28.2125 66.9528 29.0725C66.9586 29.5026 66.7304 29.997 66.3062 30.468C65.9083 30.9097 65.3818 31.2842 64.8201 31.5212H64.8172C63.6089 32.0331 62.6553 31.761 62.6406 30.9039L62.6436 30.901ZM64.782 28.8239C63.7874 29.2481 62.9536 30.1374 62.9624 30.7664C62.9712 31.3954 63.8196 31.5709 64.8142 31.1496H64.8172C65.3233 30.9331 65.7943 30.6026 66.1424 30.2135C66.4642 29.8566 66.6397 29.4967 66.6368 29.2042C66.628 28.5752 65.7796 28.3997 64.782 28.8209V28.8239Z" fill="#F6AC1F"/>
<path d="M66.7824 28.2562C66.7941 29.0022 65.9076 29.9851 64.8047 30.4532C63.7018 30.9213 62.7979 30.696 62.7891 29.953C62.7804 29.2099 63.6638 28.224 64.7667 27.7559C65.8696 27.2879 66.7736 27.5131 66.7824 28.2562Z" fill="#FFF8EE"/>
<path d="M63.3136 30.851C62.8806 30.7428 62.6407 30.4473 62.6349 30.0173C62.629 29.5872 62.8572 29.0928 63.2814 28.6218C63.6793 28.1801 64.2058 27.8056 64.7675 27.5687H64.7704C65.9787 27.0567 66.9324 27.3288 66.947 28.1859C66.9529 28.616 66.7247 29.1104 66.3005 29.5814C65.9026 30.0231 65.376 30.3947 64.8143 30.6345C64.2556 30.8715 63.7231 30.9476 63.3194 30.8481L63.3136 30.851ZM64.7704 27.9402C64.2643 28.1538 63.7934 28.4873 63.4452 28.8763C63.1234 29.2362 62.9479 29.5931 62.9508 29.8856C62.9537 30.1782 63.138 30.383 63.4686 30.4649C63.8255 30.5526 64.2994 30.4854 64.8055 30.2689C65.3117 30.0524 65.7827 29.7218 66.1308 29.3327C66.4526 28.9729 66.6281 28.616 66.6252 28.3234C66.6164 27.6945 65.768 27.5189 64.7734 27.9402H64.7704Z" fill="#F6AC1F"/>
<path d="M66.761 26.9095C66.7727 27.6555 65.8862 28.6385 64.7833 29.1065C63.6804 29.5746 62.7765 29.3494 62.7677 28.6063C62.756 27.8603 63.6424 26.8773 64.7453 26.4093C65.8482 25.9412 66.7522 26.1664 66.761 26.9095Z" fill="#FFD687"/>
<path d="M63.2901 29.5044C62.8572 29.3961 62.6173 29.1006 62.6114 28.6706C62.6056 28.2406 62.8338 27.7462 63.258 27.2752C63.6558 26.8334 64.1824 26.4589 64.7441 26.222H64.747C65.9552 25.71 66.9089 25.9821 66.9206 26.8393C66.9265 27.2693 66.6983 27.7637 66.2741 28.2347C65.8762 28.6764 65.3497 29.048 64.788 29.2879C64.2292 29.5248 63.6968 29.6009 63.2931 29.5014L63.2901 29.5044ZM64.7499 26.5935C64.2438 26.8071 63.7728 27.1406 63.4218 27.5297C63.1 27.8895 62.9244 28.2464 62.9274 28.539C62.9303 28.8315 63.1146 29.0363 63.4452 29.1182C63.8021 29.206 64.276 29.1387 64.7821 28.9222C65.2882 28.7057 65.7592 28.3751 66.1074 27.986C66.4292 27.6262 66.6047 27.2693 66.6017 26.9768C66.593 26.3478 65.7446 26.1723 64.7499 26.5935Z" fill="#F6AC1F"/>
<path d="M65.0796 23.6431L64.6993 23.5261C65.9806 20.5392 66.1445 19.72 66.1503 19.5036C66.0947 19.5504 66.0157 19.6235 65.9484 19.6849C65.6647 19.9511 65.2317 20.3519 64.6437 20.5889C64.0791 20.8171 63.6578 20.7732 63.3799 20.741C63.3067 20.7322 63.2161 20.7235 63.1634 20.7264C63.1166 20.9048 63.1224 21.5748 64.5969 23.5319L64.2283 23.9737C62.5081 21.6918 62.5724 20.9048 62.865 20.4397C63.0552 20.1355 63.3009 20.1618 63.5584 20.191C63.8158 20.2203 64.1698 20.2583 64.6437 20.0652C65.1293 19.8722 65.5009 19.527 65.7671 19.2812C66.0157 19.0472 66.2527 18.8278 66.4487 18.9389C66.712 19.0881 66.8232 19.5738 65.0796 23.6431Z" fill="#F6AC1F"/>
<path d="M64.7736 28.3496C64.4488 28.4871 64.1797 28.332 64.1768 28.0014L64.1212 24.2217C64.1153 23.8912 64.3757 23.5138 64.7004 23.3763C65.0252 23.2388 65.2943 23.3938 65.2972 23.7244L65.3528 27.5041C65.3587 27.8347 65.0983 28.2121 64.7736 28.3496Z" fill="#FFD687"/>
<path d="M64.2526 28.5337C64.1034 28.4489 64.0215 28.2821 64.0186 28.0686L63.963 24.2889C63.9571 23.8588 64.2877 23.3644 64.7002 23.1889C65.1127 23.0134 65.4521 23.224 65.4579 23.6541L65.5135 27.4338C65.5164 27.6268 65.452 27.8404 65.3321 28.0364C65.1917 28.2617 64.9898 28.443 64.7792 28.5337C64.5832 28.6156 64.3989 28.6156 64.2555 28.5337H64.2526ZM64.2789 24.1543L64.3345 27.934C64.3345 28.0393 64.3784 28.1212 64.4574 28.1651C64.5393 28.2149 64.6505 28.2119 64.7704 28.1651C64.8991 28.1095 65.0191 28.0042 65.101 27.8726C65.1449 27.8024 65.1946 27.6912 65.1946 27.5713L65.139 23.7916C65.1361 23.5663 64.9401 23.4639 64.7031 23.5634C64.4662 23.6628 64.276 23.9291 64.2789 24.1572V24.1543Z" fill="#F6AC1F"/>
<path d="M62.1175 28.5008L62.0794 28.4277C62.0063 28.2785 61.942 28.1147 61.9039 27.9596C61.6933 27.4623 61.2925 26.7426 60.5699 26.1283L60.4499 26.0288C60.4236 26.0083 60.4002 25.9849 60.3827 25.9644C59.5138 25.1424 59.0223 23.8347 58.9989 22.2901C58.9726 20.5289 59.5372 18.6245 60.5845 16.9248C61.6348 15.2251 63.0419 13.9379 64.5515 13.2972H64.5544C66.061 12.6565 67.4886 12.7414 68.574 13.5312C69.6593 14.324 70.2707 15.7283 70.2971 17.4923C70.3234 19.2944 69.7354 21.234 68.6559 22.9395C68.1995 23.7996 67.8309 24.7007 67.5998 25.5198C67.278 27.1727 66.1195 28.7232 64.7855 29.2907C63.6563 29.7705 62.6382 29.4662 62.1175 28.5038V28.5008ZM64.5573 13.6658C63.1326 14.2714 61.8015 15.4854 60.8127 17.0886C59.821 18.6917 59.2915 20.4909 59.3149 22.1526C59.3354 23.6124 59.8005 24.844 60.6255 25.6251C60.6401 25.6426 60.6577 25.6573 60.6752 25.6719L60.7981 25.7743C61.5529 26.415 61.9741 27.1697 62.2023 27.711C62.2374 27.8426 62.2813 27.9655 62.3427 28.1059L62.3808 28.1761C62.8401 29.0654 63.7587 29.3492 64.7826 28.9162C65.9732 28.4101 67.0059 27.0264 67.3014 25.5286C67.5501 24.6451 67.9333 23.7031 68.4248 22.7815C69.4545 21.1521 70.0104 19.3207 69.9841 17.621C69.9607 15.9594 69.3814 14.6312 68.3575 13.8852C67.3336 13.1392 65.9879 13.0602 64.5632 13.6629H64.5602L64.5573 13.6658Z" fill="#F6AC1F"/>
<path d="M68.6982 17.1913L69.0082 16.9836C68.9936 16.9134 68.6396 15.2722 66.8141 14.3945L66.6211 14.769C68.3442 15.5998 68.6923 17.1737 68.6952 17.1883L68.6982 17.1913Z" fill="#F6AC1F"/>
<path d="M0.817629 87.5711C2.47344 80.5208 6.08053 69.6029 13.0987 65.4429C14.4444 64.6443 16.2436 63.5677 17.2704 62.9592L17.721 58.2785C17.3319 58.0854 16.9252 57.8601 16.5303 57.6027L16.4806 57.5764L16.3314 57.4681C15.3513 56.8157 14.6083 56.0171 14.3216 54.6246L13.7628 52.1818L11.8408 43.6102C11.7706 43.344 11.7062 43.069 11.6565 42.7852L11.6067 42.5687L11.6214 42.56C11.5161 41.9134 11.4429 41.2318 11.4341 40.4946C11.3464 32.9732 16.5186 23.7668 22.9897 19.9286C25.9532 18.1704 28.3843 17.755 30.4701 18.6384L30.7627 18.735L30.9207 18.8227C31.1635 18.9368 31.3975 19.0626 31.6228 19.2089L37.0934 22.228L37.3888 22.8306L34.7238 24.8404C34.7998 25.3992 34.8554 25.9755 34.8612 26.5986C34.87 27.3095 34.8729 27.8595 34.7881 28.5967L34.7471 28.7693L34.6945 29.2315C34.6418 29.6382 34.5863 29.8664 34.5073 30.2789L32.3395 43.9408C31.9826 46.3718 30.6896 49.6571 29.0308 52.0853L29.5837 55.786C30.6047 55.1804 32.4302 53.9839 33.7583 53.1969C36.4995 51.5704 38.5122 51.4709 40.3494 52.369L40.5951 52.4685L41.2329 52.8225C41.2329 52.8225 41.2446 52.8283 41.2504 52.8342L46.0336 55.4964L44.9599 57.2282C45.545 58.3194 46.0307 59.4604 46.4168 60.534C47.2447 62.8305 45.5187 66.7272 43.0116 68.2163L24.0633 79.453L23.2413 79.9415L8.59935 88.6243C8.40627 90.3796 8.10203 92.7434 7.94112 93.9779C7.88847 94.3787 7.44964 94.5952 7.09566 94.3963L1.76548 91.4269C0.8147 90.8945 0.370033 89.4873 0.817629 87.5799V87.5711Z" fill="#FFD687"/>
<path d="M0.81468 90.203C2.47049 83.1526 6.08051 72.2348 13.0958 68.0748C14.4415 67.2761 16.2406 66.1995 17.2675 65.591L17.718 60.9103C17.3289 60.7172 17.9667 60.0151 17.5717 59.7577L18.1598 59.4885L17.5337 57.508C16.5537 56.8556 15.6556 57.2915 15.3689 55.899L13.7599 54.8078L11.8378 46.2362C11.7676 45.97 11.7033 45.695 11.6535 45.4112L11.6038 45.1947L11.6184 45.1859C11.5131 44.5394 11.44 43.8578 11.4312 43.1206C11.3434 35.5992 16.5157 26.3928 22.9868 22.5545C25.9503 20.7963 28.3813 20.3809 30.4672 21.2644L30.7597 21.361L30.9177 21.4487C31.1605 21.5628 31.3946 21.6886 31.6198 21.8349L37.0904 24.854L37.3859 25.4566L34.7208 27.4664C34.7969 28.0252 34.8524 28.6015 34.8612 29.2246C34.87 29.9355 34.8729 30.4855 34.7881 31.2227L34.7471 31.3953L34.6945 31.8575C34.6418 32.2642 34.5862 32.4923 34.5073 32.9048L32.3395 46.5667C31.9826 48.9978 30.6895 52.2831 29.0308 54.7112L29.5837 58.4119C30.6047 57.8064 32.4302 56.6099 33.7583 55.8229C36.4995 54.1964 38.5122 54.0969 40.3494 54.995L40.5951 55.0945L41.2329 55.4485C41.2329 55.4485 41.2446 55.4543 41.2504 55.4602L46.0335 58.1223L44.9599 59.8542C45.545 60.9454 46.0306 62.0863 46.4168 63.16C47.2447 65.4565 45.5187 69.3532 43.0116 70.8422L24.0633 82.0789L23.2413 82.5675L8.59933 91.2503C8.40625 93.0056 9.75783 92.555 9.59693 93.7896C9.54427 94.1904 9.10544 94.4068 8.75146 94.2079L3.42128 91.2386C2.4705 90.7061 0.370013 92.1162 0.817609 90.2059L0.81468 90.203Z" fill="#FFF8EE"/>
<path d="M6.79979 94.9124L1.46668 91.943C0.217506 91.2438 -0.256411 89.5149 0.232142 87.4349C2.10736 79.4542 5.80809 69.0688 12.7912 64.9293L16.7025 62.6006L17.0887 58.6249C16.7903 58.464 16.4743 58.2826 16.1291 58.0603L16.0004 57.9667C15.1374 57.3904 14.0989 56.5069 13.739 54.7575L11.2611 43.7636C11.1851 43.4827 11.1207 43.1931 11.071 42.921L10.9393 42.2745L10.9686 42.2569C10.8837 41.6455 10.8399 41.0692 10.834 40.5017C10.7433 32.8019 16.0589 23.3438 22.6821 19.4149C25.8065 17.5602 28.4336 17.1272 30.657 18.0721L31.1718 18.2828C31.441 18.4086 31.7014 18.549 31.9091 18.6894L37.5435 21.8021L38.1374 23.0191L35.3582 25.1167C35.4196 25.6403 35.4518 26.1172 35.4577 26.5999C35.4664 27.3605 35.4664 27.9193 35.3699 28.7413L35.288 29.3118C35.2499 29.6131 35.209 29.8208 35.1593 30.0695L32.93 44.0356C32.5614 46.5574 31.2567 49.8222 29.6564 52.2357L30.0426 54.813C30.3644 54.6141 30.7155 54.3918 31.0782 54.1607C31.8798 53.6546 32.7399 53.1133 33.4537 52.6892C36.1949 51.0655 38.4709 50.7934 40.5772 51.8232L46.8728 55.287L45.647 57.2587C46.1385 58.2124 46.5861 59.2451 46.9781 60.3363C47.9114 62.9253 46.0976 67.0883 43.3154 68.7353L9.15773 88.9912C8.96465 90.7114 8.6838 92.8938 8.52875 94.0611C8.47902 94.4443 8.24497 94.7778 7.89977 94.9504C7.73594 95.0323 7.55459 95.0762 7.37321 95.0762C7.17428 95.0762 6.97825 95.0265 6.79979 94.927V94.9124ZM40.3637 53.0139L40.0857 52.8969C38.3187 52.0338 36.4582 52.2796 34.0622 53.7014C33.3542 54.1197 32.5058 54.6551 31.713 55.1553C31.0139 55.5941 30.3615 56.0066 29.8846 56.2904L29.1211 56.7438L28.4014 51.9315L28.5331 51.7384C30.0982 49.4448 31.3883 46.2736 31.7452 43.8367L33.9159 30.1572L33.9832 29.8179C34.0271 29.5985 34.0622 29.4142 34.0973 29.1509L34.1617 28.6214L34.1909 28.519C34.2699 27.8315 34.2699 27.3342 34.2611 26.5969C34.2553 26.0616 34.2114 25.5291 34.1295 24.9119L34.0797 24.5637L36.6249 22.6446L31.2918 19.6987C31.0899 19.5671 30.8822 19.453 30.6306 19.3359L30.2357 19.178C28.3429 18.3793 26.0669 18.786 23.2936 20.4301C16.995 24.163 11.9457 33.1558 12.0305 40.4753C12.0364 41.1131 12.0949 41.7391 12.209 42.453L12.2441 42.6694C12.2938 42.9386 12.3524 43.196 12.4255 43.471L14.9092 54.4942C15.1286 55.562 15.6376 56.2758 16.6849 56.975L16.8605 57.0949C17.2349 57.3406 17.6211 57.5542 17.9926 57.7356L18.3612 57.9199L17.8405 63.3115L13.4055 65.9503C6.43413 70.084 2.89139 81.3528 1.40233 87.7011C1.04542 89.2165 1.30286 90.4686 2.05763 90.8899L7.34978 93.8855C7.51068 92.6539 7.81786 90.2931 8.00801 88.5436L8.04022 88.2452L42.7128 67.6851C44.9771 66.3423 46.5978 62.7615 45.8606 60.7195C45.4452 59.564 44.9654 58.4786 44.4388 57.4957L44.275 57.1914L45.1994 55.6995L40.3724 53.008L40.3637 53.0139Z" fill="#F6AC1F"/>
<path d="M6.68531 90.8486C8.34112 83.7982 11.9482 72.8804 18.9664 68.7204C20.3121 67.9217 22.1113 66.8451 23.1381 66.2366L23.5886 61.5559C22.2195 60.8713 20.5959 59.8767 20.1863 57.8991L19.6276 55.4563L17.7055 46.8847C17.6353 46.6185 17.5709 46.3435 17.5183 46.0597L17.4686 45.8432L17.4832 45.8344C17.3779 45.1879 17.3047 44.5063 17.2959 43.7691C17.2082 36.2477 22.3804 27.0413 28.8515 23.2031C35.3226 19.3649 40.6382 22.3518 40.726 29.8731C40.7348 30.584 40.7377 31.134 40.6529 31.8712L40.6119 32.0438L40.5592 32.506C40.5066 32.9127 40.451 33.1409 40.372 33.5534L38.2042 47.2153C37.8473 49.6463 36.5543 52.9316 34.8955 55.3598L35.4484 59.0605C36.4694 58.4549 38.2949 57.2584 39.6231 56.4714C46.6588 52.2997 50.4795 58.806 52.2816 63.8056C53.1095 66.1021 51.3835 69.9988 48.8763 71.4878L29.9281 82.7245L29.106 83.2131L10.2222 94.4118C7.71506 95.8979 5.92176 94.087 6.68238 90.8515L6.68531 90.8486Z" fill="#FFD687"/>
<path d="M7.08909 95.0713C6.01544 94.2844 5.64683 92.6549 6.10028 90.7124C7.9755 82.7317 11.6762 72.3492 18.6593 68.2068L22.5707 65.8781L22.9568 61.9024C21.4853 61.1213 20.0196 60.0272 19.6072 58.032L17.1293 47.0381C17.0532 46.7573 16.9889 46.4677 16.9391 46.1897L16.8134 45.5461L16.8397 45.5315C16.7548 44.923 16.7109 44.3467 16.7051 43.7762C16.6144 36.0764 21.93 26.6184 28.5532 22.6895C31.8736 20.7207 35.0477 20.3872 37.4817 21.7592C39.9186 23.1283 41.2848 26.0099 41.3287 29.8686C41.3375 30.5502 41.3434 31.1441 41.241 32.0129L41.1591 32.5805C41.121 32.8818 41.0801 33.0895 41.0303 33.3382L38.8011 47.3043C38.4325 49.8261 37.1278 53.0909 35.5275 55.5044L35.9137 58.0818C36.2384 57.8799 36.5924 57.6576 36.961 57.4235C37.7597 56.9203 38.6139 56.3791 39.3248 55.9579C41.7354 54.5302 43.9997 54.1792 46.0504 54.9164C49.5346 56.1685 51.6732 60.3314 52.8521 63.605C53.7853 66.1941 51.9715 70.3541 49.1865 72.004L10.5294 94.928C9.84487 95.3317 9.16912 95.5365 8.54892 95.5365C8.01064 95.5365 7.51328 95.3814 7.09201 95.0742L7.08909 95.0713ZM39.9303 56.9847C39.2282 57.403 38.3828 57.9355 37.5929 58.4328C36.8908 58.8746 36.2355 59.29 35.7557 59.5737L34.9922 60.0272L34.2725 55.2148L34.4041 55.0217C35.9693 52.7282 37.2594 49.557 37.6163 47.12L39.787 33.4406L39.8543 33.1012C39.8982 32.8818 39.9333 32.6975 39.9684 32.4342L40.0328 31.8989L40.062 31.8023C40.1439 31.0797 40.1381 30.5239 40.1293 29.8803C40.0913 26.4663 38.9415 23.9504 36.8908 22.8007C34.84 21.6539 32.0989 21.9757 29.1588 23.7163C22.8603 27.4492 17.8109 36.4421 17.8958 43.7616C17.9016 44.3935 17.9601 45.04 18.0742 45.7363L18.1064 45.9528C18.1561 46.2219 18.2146 46.4794 18.2878 46.7544L20.7715 57.7775C21.1167 59.4479 22.4566 60.3227 23.8549 61.0189L24.2235 61.2032L23.7028 66.5949L19.2678 69.2336C12.2964 73.3673 8.7537 84.6362 7.26464 90.9844C6.92529 92.4208 7.13006 93.6144 7.79706 94.103C8.30609 94.4774 9.05793 94.4014 9.91509 93.8924L48.5722 70.9684C50.8394 69.6256 52.4572 66.0449 51.7229 64.0029C50.6288 60.9721 48.6892 57.131 45.6409 56.0369C45.0792 55.835 44.4941 55.7355 43.8885 55.7355C42.654 55.7355 41.3287 56.151 39.9303 56.9818V56.9847Z" fill="#F6AC1F"/>
<path d="M18.0676 38.3489L12.284 35.1572L11.4883 41.6401L14.4781 55.1996L16.3299 57.4639L17.7225 58.2772L17.269 62.9579L23.1434 66.2374L23.5939 61.5566L20.4607 59.6872L19.8317 56.323L17.3041 43.7698L18.0676 38.3489Z" fill="#F6AC1F"/>
<path d="M7.79434 86.9083L1.91417 83.6172L0.638672 88.2043L0.717665 89.7987L1.75911 91.4194L6.86699 93.8914L6.51006 91.4925L7.1098 87.903L7.79434 86.9083Z" fill="#F6AC1F"/>
<path d="M42.2314 75.1419C42.2314 68.1003 47.1755 59.5345 53.2751 56.0152C56.259 54.2921 58.9622 54.1048 60.9486 55.1785H60.9602L61.0392 55.2224C61.0685 55.2399 61.0977 55.2546 61.127 55.2721L63.7219 56.7904C63.9179 56.9045 63.9266 57.1883 63.7365 57.3141L62.1889 58.3351C62.4288 59.239 62.5663 60.2483 62.5663 61.3775C62.5663 68.4191 57.6223 76.9849 51.5227 80.5042C50.7006 80.9782 49.9049 81.3263 49.1326 81.5749L48.5534 83.5789C48.489 83.7983 48.2374 83.9007 48.0414 83.7837L45.546 82.3268C45.4933 82.2975 45.4407 82.2654 45.388 82.2332L45.2242 82.1396L45.2154 82.1162C43.3694 80.9021 42.2285 78.5061 42.2285 75.1389L42.2314 75.1419Z" fill="#FFD687"/>
<path d="M42.5967 76.3645C42.5967 69.3229 47.5407 60.7572 53.6403 57.2378C56.6243 55.5147 59.3274 55.3275 61.3138 56.4011H61.3255L61.4045 56.445C61.4337 56.4626 61.463 56.4772 61.4922 56.4948L64.0871 58.0131C64.2831 58.1272 64.2919 58.4109 64.1017 58.5367L62.5542 59.5577C62.7941 60.4617 62.9315 61.471 62.9315 62.6002C62.9315 69.6418 50.2702 82.5519 49.4978 82.8005C49.4978 82.8005 42.5938 79.7346 42.5938 76.3674L42.5967 76.3645Z" fill="#FFF8EE"/>
<path d="M47.8586 84.0998L45.369 82.6488L44.9155 82.365V82.3533C42.9467 80.9989 41.8672 78.4449 41.8672 75.145C41.8672 67.9981 46.9019 59.2744 53.0922 55.7024C56.0177 54.0144 58.8086 53.6897 60.9793 54.7867L60.9997 54.7809L63.9047 56.4776C64.1066 56.5946 64.2324 56.8053 64.2382 57.0393C64.2441 57.2733 64.1329 57.4898 63.9369 57.6186L62.6029 58.4991C62.8194 59.4089 62.9305 60.3743 62.9305 61.3807C62.9305 68.5276 57.8958 77.2513 51.7055 80.8233C50.9595 81.2534 50.196 81.6044 49.4325 81.8648L48.9059 83.6844C48.8444 83.898 48.6923 84.0677 48.4846 84.1496C48.3969 84.1847 48.3062 84.2022 48.2184 84.2022C48.0926 84.2022 47.9697 84.1701 47.8586 84.1057V84.0998ZM60.9178 55.5737H60.9149L60.7774 55.5005C58.8173 54.4444 56.2195 54.7399 53.4579 56.3313C47.4695 59.7892 42.5957 68.2292 42.5957 75.1421C42.5957 78.2489 43.5991 80.6185 45.4158 81.8151L48.2038 83.4796L48.8357 81.2914L49.02 81.2329C49.7952 80.9813 50.5763 80.6332 51.3398 80.1914C57.3283 76.7335 62.2021 68.2965 62.2021 61.3807C62.2021 60.3422 62.0792 59.3504 61.8364 58.4289L61.7691 58.1744L63.46 57.0598L60.9207 55.5737H60.9178Z" fill="#F6AC1F"/>
<path d="M58.1123 100.839L52.709 79.3863L59.2796 73.667L64.6829 95.1194C64.7707 95.4705 64.3553 96 64.089 95.8771L60.8125 94.3617C60.637 94.2798 60.3561 94.5256 60.2772 94.8269L58.8056 100.476C58.6857 100.935 58.2001 101.19 58.1123 100.839Z" fill="#FFD687"/>
<path d="M59.0454 95.4918L57.5739 101.141C57.454 101.6 56.9684 101.855 56.8806 101.504L53.9902 90.0271L60.9324 85.7822L63.4512 95.7844C63.5389 96.1354 63.1235 96.665 62.8573 96.5421L59.5808 95.0267C59.4053 94.9448 59.1244 95.1905 59.0454 95.4918Z" fill="#FFF8EE"/>
<path d="M58.2951 101.368C58.0347 101.368 57.827 101.196 57.7597 100.929L52.3008 79.2605L59.4857 73.0059L65.0324 95.0317C65.1319 95.4178 64.9066 95.8479 64.6345 96.0731C64.4122 96.2604 64.1548 96.3101 63.9324 96.2077L60.7378 94.7304C60.6998 94.7655 60.6501 94.8327 60.6267 94.9176L59.1552 100.567C59.0381 101.014 58.6607 101.365 58.2951 101.365V101.368ZM60.966 94.0312L64.1752 95.5144C64.2542 95.45 64.3478 95.2774 64.3303 95.2101L59.0732 74.334L53.1199 79.5179L58.4062 100.505C58.4267 100.47 58.4443 100.432 58.456 100.385L59.9275 94.7362C60.0065 94.4349 60.2171 94.1657 60.4658 94.0458C60.5564 94.0019 60.65 93.9814 60.7378 93.9814C60.8168 93.9814 60.8929 93.999 60.966 94.0312Z" fill="#F6AC1F"/>
<path d="M45.4389 106.274L50.7018 78.6252L57.2812 76.7031L52.0183 104.352C51.9334 104.802 51.4478 105.112 51.3249 104.793L49.8271 100.87C49.7481 100.66 49.4672 100.742 49.2917 101.025L46.0357 106.338C45.7724 106.771 45.3541 106.724 45.4389 106.274Z" fill="#FFD687"/>
<path d="M44.1049 106.156L47.3229 89.2441L53.4138 89.8936L50.6843 104.231C50.5994 104.682 50.1138 104.992 49.9909 104.673L48.4931 100.75C48.4141 100.539 48.1333 100.621 47.9578 100.905L44.7017 106.218C44.4384 106.651 44.0201 106.604 44.1049 106.153V106.156Z" fill="#FFF8EE"/>
<path d="M45.4245 106.965C45.2139 106.883 45.0003 106.638 45.0793 106.205L50.3832 78.3367L57.7495 76.1836L52.3754 104.417C52.2906 104.871 51.9278 105.251 51.5534 105.283C51.3047 105.31 51.0794 105.163 50.9858 104.92L49.5816 101.246L46.346 106.527C46.1617 106.828 45.8926 107 45.6322 107C45.562 107 45.4918 106.989 45.4245 106.962V106.965ZM49.7162 100.389C49.9239 100.409 50.0906 100.538 50.1667 100.74L51.5855 104.455C51.6177 104.408 51.647 104.35 51.6587 104.283L56.8104 77.2192L51.0151 78.913L45.8809 105.892L48.9789 100.836C49.1515 100.556 49.409 100.389 49.6606 100.389C49.6781 100.389 49.6957 100.389 49.7132 100.389H49.7162Z" fill="#F6AC1F"/>
<path d="M45.0254 76.7712C45.0254 83.8128 49.9694 86.668 56.069 83.1458C62.1686 79.6235 67.1126 71.0607 67.1126 64.0191C67.1126 56.9775 62.1686 54.1223 56.069 57.6445C49.9694 61.1668 45.0254 69.7296 45.0254 76.7712Z" fill="#FFD687"/>
<path d="M48.0732 84.2338C45.8703 82.9612 44.6562 80.3108 44.6562 76.768C44.6562 69.6211 49.691 60.8974 55.8813 57.3254C58.9501 55.5526 61.8521 55.2805 64.055 56.5531C66.2579 57.8257 67.4719 60.4761 67.4719 64.0189C67.4719 71.1658 62.4372 79.8895 56.2469 83.4615C54.4507 84.5 52.7101 85.0237 51.1332 85.0237C50.0186 85.0237 48.986 84.7604 48.0761 84.2338H48.0732ZM56.2469 57.9573C50.2585 61.4152 45.3847 69.8522 45.3847 76.768C45.3847 80.0387 46.4671 82.4668 48.436 83.6019C50.4048 84.7399 53.0494 84.462 55.8813 82.8296C61.8697 79.3717 66.7435 70.9317 66.7435 64.0189C66.7435 60.7482 65.6611 58.3201 63.6923 57.185C62.8936 56.7257 61.9838 56.4946 60.995 56.4946C59.5469 56.4946 57.9291 56.9861 56.2469 57.9573Z" fill="#F6AC1F"/>
<path d="M46.918 77.0577C46.918 82.5576 50.7796 84.7868 55.5393 82.0368C60.302 79.2869 64.1607 72.6022 64.1607 67.1023C64.1607 61.6025 60.2991 59.3733 55.5393 62.1232C50.7767 64.8731 46.918 71.5578 46.918 77.0577Z" fill="#FFF8EE"/>
<path d="M49.7891 81.2705C48.0426 80.2612 47.0801 78.1666 47.0801 75.3727C47.0801 69.7676 51.0294 62.9249 55.8857 60.1223C58.308 58.7239 60.6045 58.5104 62.3481 59.5167C64.0946 60.526 65.057 62.6206 65.057 65.4145C65.057 71.0196 61.1077 77.8623 56.2514 80.6649C54.8355 81.484 53.4634 81.8965 52.2172 81.8965C51.3337 81.8965 50.5146 81.6888 49.7891 81.2705ZM56.2514 60.7513C51.597 63.4398 47.8114 69.9987 47.8114 75.3698C47.8114 77.8945 48.6423 79.7639 50.1547 80.6356C51.6672 81.5074 53.7033 81.2939 55.8886 80.033C60.5431 77.3445 64.3286 70.7856 64.3286 65.4145C64.3286 62.8898 63.4978 61.0204 61.9853 60.1486C61.3739 59.7946 60.6776 59.6191 59.9199 59.6191C58.8053 59.6191 57.5532 59.9994 56.2514 60.7513Z" fill="#F6AC1F"/>
<path d="M46.3417 69.732L43.7 68.0908L42.5942 71.2796L42.2285 76.1827L42.5942 79.114L45.6572 82.528L46.8888 83.0312L45.8824 81.2057L45.0633 78.2042V74.3338L46.3417 70.3932V69.732Z" fill="#F6AC1F"/>
</svg>
