<svg width="61" height="45" viewBox="0 0 61 45" fill="none" xmlns="http://www.w3.org/2000/svg">
<path d="M24.8397 19.8487L24.7859 16.0856L26.4339 16.061C26.4473 16.043 26.4653 16.025 26.4788 16.0071L27.8574 19.9498L28.4187 19.9408L29.831 21.8448L36.0078 24.2877L44.6161 25.1095L50.8783 24.0721L56.6576 19.1886C56.6284 19.027 56.5902 18.8676 56.5453 18.7082L58.2495 15.5288C58.2697 15.5535 58.2921 15.576 58.3123 15.6007L59.9896 15.576L60.0524 19.8375C60.0524 19.8892 60.0524 19.9408 60.0547 19.9947V20.19L60.0323 20.5066C59.8279 22.9136 58.1552 25.3026 55.0006 27.1841C48.1772 31.257 37.0226 31.4187 30.0847 27.5456C26.8784 25.7561 25.1361 23.4165 24.8622 21.0163L24.8397 20.94C24.815 20.4235 24.8127 20.2372 24.8442 19.8532L24.8397 19.8487Z" fill="#FFD687"/>
<path d="M42.1385 30.8006C46.8872 30.8006 51.6585 29.7207 55.2419 27.5832C58.4078 25.6949 60.2758 23.1936 60.5026 20.5419L60.5273 20.2231L60.4555 15.0971L58.5313 15.1263L58.2259 14.7671L57.8353 15.3059L56.0413 18.6537L56.0929 18.8355C56.1086 18.8939 56.1243 18.9523 56.1401 19.0106L50.675 23.6292L44.6016 24.6373L36.1212 23.8268L30.133 21.458L28.6578 19.4687L28.1953 19.4754L26.6528 15.0635L26.2149 15.5956L24.311 15.6226L24.3716 19.8347C24.3379 20.2321 24.3401 20.4364 24.3671 20.9596L24.3828 21.0606C24.6949 23.7123 26.6371 26.1574 29.8545 27.9536C33.2674 29.8576 37.6928 30.8029 42.1362 30.8029L42.1385 30.8006ZM59.526 16.0514L59.5866 20.1917L59.5641 20.4633C59.3643 22.8007 57.6579 25.0437 54.7592 26.7748C48.0773 30.7625 37.1091 30.9219 30.3148 27.1296C27.3668 25.4838 25.5975 23.2924 25.3303 20.9573L25.3056 20.854C25.2854 20.405 25.2832 20.2321 25.3123 19.8863V19.8391L25.2652 16.5453L26.1701 16.5318L27.5285 20.4207L28.1863 20.4117L29.5357 22.2282L35.9639 24.7496L44.6352 25.5781L51.0859 24.5093L57.1729 19.3677L57.1257 19.1005C57.1055 18.986 57.0808 18.8737 57.0517 18.7615L58.4976 16.0626L59.5282 16.0469L59.526 16.0514Z" fill="#F6AC1F"/>
<path d="M58.6602 16.0423C57.9978 16.9606 57.2389 18.0069 56.5945 18.8915C56.1769 17.1537 54.8005 15.4877 52.461 14.1832C46.832 11.042 37.7791 11.1723 32.2445 14.4773C29.9677 15.8357 28.643 17.5197 28.2591 19.2486L26.3326 16.1972C26.519 15.9525 26.721 15.7122 26.9411 15.4765C26.5212 15.6628 26.2316 15.7975 26.1171 15.8559V15.8515C26.6739 15.2991 31.142 8.86189 31.142 8.86189L41.3401 6.32471L50.8421 7.55961L57.0548 12.5778L57.4926 14.5492L58.1819 14.7827C58.7455 15.2789 58.2627 15.5057 58.6579 16.0423H58.6602Z" fill="#F6AC1F"/>
<path d="M28.4712 20.4702L28.7181 19.352C29.0886 17.677 30.3909 16.1323 32.4835 14.8817C37.8834 11.6597 46.7411 11.5317 52.2285 14.5943C54.3795 15.7933 55.7289 17.3178 56.133 19.0017L56.3711 19.9942L56.9705 19.1679C57.6149 18.2833 58.3738 17.237 59.0362 16.3186L59.2383 16.0402L59.0339 15.7641C58.9464 15.6473 58.9464 15.5957 58.9509 15.4542C58.9554 15.1466 58.9239 14.8121 58.4906 14.4304L58.3312 14.3383L57.8934 14.1901L57.4757 12.3153L51.0318 7.11075L41.3097 5.84668L30.8534 8.44668L30.7524 8.59265C29.0347 11.0692 26.1675 15.1377 25.7814 15.5149L25.4917 15.8L25.7589 16.1682H25.7566L28.4667 20.4702H28.4712ZM42.6816 11.4509C38.8107 11.4509 34.9241 12.331 32.003 14.0734C30.09 15.2162 28.7653 16.6083 28.1209 18.1441L26.9107 16.2266C27.0297 16.0807 27.1555 15.937 27.2879 15.7955L28.8641 14.1026L27.6247 14.6549C28.9382 12.8542 30.8893 10.0521 31.4305 9.27298L41.3703 6.80092L50.6523 8.00661L56.6337 12.8385L57.094 14.9086L57.9383 15.196C58.0146 15.2746 58.0146 15.3105 58.0146 15.4385C58.0124 15.5822 58.0101 15.7753 58.1044 16.0088C57.6666 16.6128 57.1973 17.2617 56.755 17.8724C56.0881 16.2962 54.7005 14.8907 52.6933 13.7703C49.9136 12.2188 46.3077 11.4464 42.6861 11.4464L42.6816 11.4509Z" fill="#F6AC1F"/>
<path d="M27.468 29.8541L24.7894 25.2422L27.8878 23.2305C27.9058 23.2193 27.9215 23.2058 27.9395 23.1968C28.2762 23.0037 28.7433 23.0284 29.2597 23.3181C30.3105 23.9041 31.1771 25.3568 31.1951 26.558C31.2018 27.0901 31.0425 27.483 30.773 27.7076C30.7236 27.748 30.6697 27.7816 30.6159 27.8108L27.4702 29.8541H27.468Z" fill="#FFD687"/>
<path d="M32.652 12.7783C27.2992 15.9734 27.3734 21.0253 32.8159 24.0631C38.2585 27.101 47.0105 26.973 52.3633 23.7802C57.716 20.5852 57.642 15.5333 52.1994 12.4954C46.7568 9.45757 38.0047 9.58555 32.652 12.7783Z" fill="#FFD687"/>
<path d="M54.7306 8.36379C61.6685 12.2369 61.7628 18.6764 54.9394 22.7493C48.116 26.8223 36.9614 26.9839 30.0235 23.1108C23.0856 19.2377 22.9913 12.7982 29.8147 8.72525C36.6381 4.65231 47.7927 4.49068 54.7306 8.36379ZM32.3541 21.721C37.983 24.8621 47.036 24.7319 52.5706 21.4268C58.1075 18.1218 58.0312 12.897 52.4022 9.7536C46.7733 6.61246 37.7203 6.7427 32.1857 10.0477C26.6489 13.3528 26.7252 18.5776 32.3564 21.721H32.3541Z" fill="#FFF8EE"/>
<path d="M42.0753 26.3707C46.8241 26.3707 51.5953 25.2907 55.1787 23.151C58.6297 21.092 60.5068 18.364 60.4641 15.4721C60.4237 12.5802 58.4658 9.9083 54.9587 7.95041C47.9018 4.00994 36.5115 4.17612 29.5735 8.31867C26.1225 10.3776 24.2455 13.1056 24.2881 15.9975C24.3308 18.8894 26.2864 21.5613 29.7936 23.5192C33.2064 25.4232 37.6319 26.3685 42.0753 26.3685V26.3707ZM42.6748 6.03068C46.9543 6.03068 51.2136 6.94007 54.5007 8.77447C57.7024 10.5617 59.4874 12.9462 59.5234 15.4878C59.5593 18.0295 57.8462 20.4634 54.6983 22.3449C48.0163 26.3326 37.0481 26.492 30.2539 22.6997C27.0521 20.9125 25.2671 18.5279 25.2312 15.9863C25.1953 13.4446 26.9084 11.0107 30.0563 9.13143C33.5073 7.07251 38.1034 6.03293 42.6748 6.03293V6.03068ZM42.1314 24.4532C46.0001 24.4532 49.8888 23.5753 52.81 21.8308C55.639 20.1423 57.177 17.9015 57.1411 15.5237C57.1074 13.1437 55.5043 10.9501 52.6281 9.34472C46.8757 6.13397 37.5937 6.26871 31.9401 9.64561C29.111 11.3341 27.573 13.5749 27.6089 15.9526C27.6426 18.3326 29.2458 20.5263 32.122 22.1316C34.9039 23.6831 38.5098 24.4532 42.1314 24.4532ZM42.6186 7.94816C46.0764 7.94816 49.5184 8.6824 52.1723 10.1643C54.7432 11.599 56.1734 13.5052 56.2026 15.535C56.2318 17.5647 54.8554 19.5136 52.3295 21.0202C46.9296 24.2399 38.072 24.3701 32.5845 21.3076C30.0137 19.8729 28.5834 17.9666 28.5542 15.9369C28.525 13.9072 29.9013 11.9583 32.4273 10.4517C35.2159 8.78793 38.9274 7.94816 42.6209 7.94816H42.6186Z" fill="#F6AC1F"/>
<path d="M42.1728 15.3731C40.262 16.5137 40.289 18.3167 42.2311 19.4011C44.1733 20.4856 47.2965 20.4407 49.2072 19.3001C51.1179 18.1595 51.091 16.3566 49.1489 15.2721C47.2067 14.1876 44.0835 14.2325 42.1728 15.3731Z" fill="#FFF8EE"/>
<path d="M45.6083 18.2787C46.9914 18.2787 48.379 17.9577 49.4477 17.32C50.521 16.6778 51.107 15.8112 51.0935 14.8749C51.0801 13.9386 50.4715 13.0877 49.3781 12.477C47.272 11.3027 44.0007 11.3498 41.9328 12.5847C40.8573 13.2269 40.2735 14.0958 40.287 15.0321C40.3004 15.9683 40.9089 16.8193 42.0024 17.4278C43.0195 17.9958 44.3128 18.2787 45.6083 18.2787ZM45.7722 12.569C46.9106 12.569 48.0444 12.8115 48.9179 13.2987C49.706 13.7388 50.1438 14.3024 50.1505 14.8884C50.1595 15.4744 49.7374 16.0492 48.965 16.5117C47.1867 17.5715 44.2679 17.6164 42.4604 16.606C41.6746 16.1682 41.2368 15.6024 41.2278 15.0186C41.2188 14.4326 41.6409 13.8555 42.4133 13.3952C43.3316 12.8474 44.5553 12.5712 45.7722 12.5712V12.569Z" fill="#F6AC1F"/>
<path d="M30.584 24.6598L27.5461 26.5571L25.2245 24.9584L28.4869 22.9624L30.584 24.6598Z" fill="#FFF8EE"/>
<path d="M27.3099 30.5179L30.8709 28.2053C30.9293 28.1761 31.0056 28.1267 31.073 28.0706C31.4659 27.745 31.6747 27.2062 31.6657 26.5505C31.6455 25.1764 30.6891 23.5755 29.4901 22.9065C28.8389 22.545 28.208 22.5023 27.7051 22.7897L27.6197 22.8436L24.1553 25.0934L27.3077 30.5202L27.3099 30.5179ZM28.446 23.5463C28.6211 23.5463 28.8187 23.6092 29.032 23.726C29.9346 24.2289 30.7093 25.529 30.725 26.564C30.7295 26.9278 30.6419 27.2039 30.4735 27.3431L30.359 27.415L27.6265 29.1887L25.4216 25.392L28.1452 23.6249C28.235 23.5733 28.336 23.5463 28.4482 23.5463H28.446Z" fill="#F6AC1F"/>
<path d="M24.7883 25.2413C25.1229 25.0639 25.5786 25.0931 26.0838 25.3738C27.1346 25.9598 28.0013 27.4125 28.0193 28.6137C28.0282 29.2244 27.8172 29.6533 27.4692 29.8508L21.8268 34.7298L17.7404 28.2724L24.7905 25.239L24.7883 25.2413Z" fill="#FFD687"/>
<path d="M27.3086 26.5575L20.9252 30.0512L18.2152 27.9989L25.4225 25.0913L27.3086 26.5575Z" fill="#FFF8EE"/>
<path d="M21.7226 35.4439L27.7781 30.2079C28.216 29.9677 28.5011 29.3659 28.4899 28.607C28.4697 27.2329 27.5132 25.632 26.3142 24.9607C25.6923 24.6149 25.0816 24.5611 24.5876 24.8125L17.0457 28.057L21.7204 35.4417L21.7226 35.4439ZM25.2589 25.6006C25.4318 25.6006 25.6384 25.6635 25.854 25.7848C26.7566 26.2877 27.5334 27.5877 27.5469 28.6228C27.5536 29.0269 27.4391 29.3278 27.2348 29.4445L21.9314 34.0182L18.4333 28.488L25.0097 25.6568C25.0816 25.6186 25.1646 25.6006 25.2589 25.6006Z" fill="#F6AC1F"/>
<path d="M7.68622 35.4082C7.7446 35.3656 7.80973 35.3342 7.87709 35.305L17.3319 28.4501C17.8281 28.129 18.5332 28.1493 19.3213 28.5871C20.857 29.4448 22.1212 31.5643 22.1481 33.3224C22.1593 34.1643 21.8854 34.7661 21.4273 35.0759C21.3353 35.1388 21.2388 35.1882 21.1332 35.2264L10.8049 40.3995C10.8049 40.3995 10.6769 40.4736 10.6073 40.5005L6.99915 42.2923L4.38117 37.6513L7.69071 35.4082H7.68622Z" fill="#FFD687"/>
<path d="M20.9258 30.051L7.00279 38.8008L4.9304 37.2763L17.742 28.2749L20.4835 29.4424L20.9258 30.051Z" fill="#FFF8EE"/>
<path d="M6.80915 42.9119L21.3451 35.6484C21.4304 35.6215 21.5651 35.5519 21.6931 35.4666C22.3061 35.0512 22.6361 34.2878 22.6227 33.3156C22.5935 31.3779 21.2463 29.1192 19.5534 28.1761C18.6463 27.6687 17.7437 27.626 17.0791 28.0549L3.7578 37.5053L6.80915 42.9141V42.9119ZM18.1097 28.6971C18.3971 28.6971 18.7338 28.7981 19.0931 28.9979C20.4717 29.7658 21.6549 31.7506 21.6796 33.3291C21.6886 33.9734 21.5067 34.4539 21.1655 34.6852C21.1026 34.7279 21.0397 34.7593 20.9768 34.7817L7.19084 41.6703L5.00618 37.7949L17.6134 28.8295C17.7526 28.7397 17.921 28.6948 18.1119 28.6948L18.1097 28.6971Z" fill="#F6AC1F"/>
<path d="M1.31858 39.652L4.32274 37.6874C4.3407 37.6739 4.35866 37.6626 4.37887 37.6514C4.71566 37.4583 5.18271 37.483 5.69913 37.7727C6.74992 38.3587 7.61657 39.8114 7.63453 41.0148C7.64351 41.675 7.39651 42.1195 6.99685 42.2946L3.9074 44.311L1.31858 39.6564V39.652Z" fill="#FFD687"/>
<path d="M6.83398 38.9178L3.59631 41.0777L1.79109 39.3309L5.00185 37.5347L6.83398 38.9178Z" fill="#FFF8EE"/>
<path d="M4.05263 44.7756L7.2544 42.6875C7.78204 42.463 8.1166 41.8388 8.10312 41.0058C8.08292 39.6317 7.12644 38.0308 5.92746 37.3617C5.27857 36.9979 4.64536 36.9575 4.14467 37.2427L4.05937 37.2988L0.693697 39.5014L4.05263 44.7779V44.7756ZM4.88562 38.0016C5.06075 38.0016 5.25836 38.0645 5.46941 38.1812C6.37202 38.6842 7.14889 39.9842 7.16236 41.017C7.1691 41.4503 7.0411 41.7579 6.80759 41.859L4.07286 43.6373L1.94209 39.8046L4.58029 38.0802C4.67235 38.0263 4.77335 38.0016 4.88562 38.0016Z" fill="#F6AC1F"/>
<path d="M0.950134 39.3126C1.45308 39.0118 2.09524 39.0477 2.75535 39.4181C3.95657 40.0872 4.91305 41.6881 4.93326 43.0622C4.94449 43.8189 4.67283 44.4027 4.16989 44.7035C3.94536 44.8383 3.69162 44.9034 3.42219 44.9034C3.08764 44.9034 2.7284 44.8 2.36242 44.5957C1.1612 43.9266 0.206968 42.3257 0.18676 40.9494C0.175534 40.1927 0.447193 39.609 0.952381 39.3081L0.950134 39.3126Z" fill="#F6AC1F"/>
<path d="M32.4494 13.0454C34.7216 13.0454 37.0028 12.5178 38.7609 11.4692C40.5571 10.396 41.5338 8.93429 41.5113 7.35361C41.4889 5.77069 40.4695 4.3382 38.6419 3.31885C35.1819 1.38791 29.8089 1.46425 26.4073 3.49623C24.6111 4.56948 23.6344 6.03112 23.6569 7.61179C23.6793 9.19472 24.6987 10.6272 26.5263 11.6466C28.1991 12.5806 30.3231 13.0454 32.4516 13.0454H32.4494ZM32.7188 3.82179C34.542 3.82179 36.3539 4.19901 37.7213 4.96241C38.936 5.64048 39.6118 6.49813 39.6253 7.38052C39.6387 8.26067 38.9876 9.13858 37.7931 9.85258C35.009 11.5141 30.2692 11.5815 27.4424 10.0031C26.2277 9.32498 25.5519 8.46728 25.5384 7.58488C25.5249 6.70473 26.1761 5.82682 27.3706 5.11282C28.8075 4.25513 30.7699 3.82179 32.7188 3.82179Z" fill="#F6AC1F"/>
<path d="M32.4494 11.1255C34.7216 11.1255 37.0028 10.5979 38.7609 9.54931C40.5571 8.47606 41.5338 7.01437 41.5113 5.43369C41.4889 3.85076 40.4695 2.41828 38.6419 1.39893C35.1819 -0.532016 29.8089 -0.455668 26.4073 1.57631C24.6111 2.64956 23.6344 4.11125 23.6569 5.69193C23.6793 7.27485 24.6987 8.70733 26.5263 9.72669C28.1991 10.6607 30.3231 11.1255 32.4516 11.1255H32.4494ZM32.7188 1.90187C34.542 1.90187 36.3539 2.27909 37.7213 3.04249C38.936 3.72056 39.6118 4.57826 39.6253 5.46066C39.6387 6.34081 38.9876 7.21872 37.7931 7.93271C35.009 9.59422 30.2692 9.66156 27.4424 8.08313C26.2277 7.40506 25.5519 6.54511 25.5384 5.66496C25.5249 4.78481 26.1761 3.9069 27.3706 3.1929C28.8075 2.3352 30.7699 1.90187 32.7188 1.90187Z" fill="#FFF8EE"/>
</svg>
