<svg width="52" height="66" viewBox="0 0 52 66" fill="none" xmlns="http://www.w3.org/2000/svg">
<path d="M44.8424 40.1269L43.4583 38.7696C43.4656 38.7258 43.4748 38.6848 43.4821 38.6411C43.6094 37.8793 43.6926 37.0985 43.7405 36.3022L45.4435 35.6808C45.4872 35.6739 45.5298 35.6597 45.567 35.6352C45.7435 35.5275 45.8484 35.2682 45.822 34.9161L45.6448 32.4665C45.6051 31.9111 45.2621 31.3452 44.8774 31.1981L43.5079 30.6735C43.3214 29.3129 43.0462 27.9446 42.6893 26.5839L43.5709 26.2629L43.8387 26.1893C43.8882 26.1763 43.9331 26.1483 43.9714 26.1169C44.1982 25.9348 44.2579 25.4788 44.0943 24.9996L43.2442 22.4991C43.0527 21.9325 42.6248 21.5487 42.2903 21.6394L41.1525 21.9508C40.6031 20.5958 39.9738 19.2794 39.2767 18.0156L40.0366 16.9646C40.2642 16.6502 40.1966 16.0073 39.8843 15.5269L38.507 13.4067C38.2904 13.0748 38.0604 12.9086 37.8348 12.9419L37.7923 12.9419L37.7267 12.9664C37.6852 12.9736 37.7002 12.9691 37.6638 12.989L36.28 13.4981C35.6153 12.6632 34.9187 11.8773 34.1875 11.1566L34.4521 9.57333C34.5325 9.09236 34.29 8.44863 33.9161 8.13777L32.2509 6.76424C32.0431 6.59231 31.8375 6.56266 31.6814 6.64774L29.2207 7.55648C28.9181 7.41366 28.6167 7.27811 28.3164 7.16406L28.0522 5.29134C27.9719 4.72439 27.6016 4.19408 27.2257 4.10761L25.5589 3.72022C25.5021 3.70601 25.4523 3.70716 25.4013 3.71519C25.3506 3.72092 25.3073 3.73965 25.2651 3.76572L21.9834 4.97253L21.9398 4.86583C21.7129 4.31224 21.2778 3.98642 20.9643 4.1351L14.7797 6.42033L14.5682 8.59204L10.3562 10.2701L10.7559 11.7279L11.3255 16.0764L8.03502 17.3502C8.01737 17.3568 8.0116 17.3771 8.0185 17.3924L9.1721 19.577L11.0962 25.389L8.31902 26.4222C8.2937 26.4322 8.2887 26.4621 8.30902 26.4821L9.04743 27.1874L10.7973 28.0831L12.0451 30.5815C11.5369 28.6254 11.0757 26.5873 11.2279 25.8605C11.5227 24.4644 11.7289 18.164 11.7289 18.164C11.7289 18.164 13.4135 15.6707 14.3138 14.6148C15.2142 13.5588 16.1438 13.0495 16.1438 13.0495C16.1438 13.0495 16.4648 13.0393 16.8001 13.0432C16.8146 12.9984 16.8293 12.9535 16.8462 12.909L15.6195 11.2752C15.5401 11.1697 15.4746 11.0523 15.4217 10.9299L22.641 13.2814C39.5026 22.3823 34.0843 43.6206 34.0843 43.6206L33.3397 48.0758C32.6623 47.9674 31.9669 47.7826 31.2594 47.5153L30.6381 47.991C30.6383 48.528 30.3237 48.7971 29.9391 48.5933L28.855 49.4884C28.4704 49.2845 28.1565 48.6857 28.1587 48.149L28.1594 46.6589C26.7203 46.4657 25.1857 46.221 24.3401 45.9732C22.4416 45.4147 17.9043 42.9674 17.9043 42.9674C17.9043 42.9674 17.4896 42.3209 16.9077 41.3862L18.3474 47.8459C18.3662 47.9318 18.4578 47.9778 18.5369 47.9437L21.0486 46.8992L21.6308 46.3034C21.6308 46.3034 22.6188 47.9778 22.7216 48.0849C22.8243 48.1919 24.8361 52.6725 24.8361 52.6725L27.9494 51.2981L28.3737 49.4529L30.7994 53.5935C30.827 53.6407 30.888 53.658 30.9352 53.6304L37.3174 51.2386C37.3174 51.2386 41.0092 49.5303 41.1033 49.4349L42.2453 48.2774C42.5043 48.0155 42.4812 47.3895 42.1949 46.8804L41.2069 45.1209L44.439 43.9272C44.5871 43.8904 44.7072 43.7662 44.7641 43.5533L45.2928 41.5789C45.4123 41.1329 45.2115 40.4795 44.8458 40.1203L44.8424 40.1269Z" fill="#FFD687"/>
<path d="M24.6872 53.0565L24.5699 52.7956C23.8303 51.1486 22.6076 48.4581 22.4827 48.2574C22.4156 48.1918 21.982 47.4736 21.5704 46.7803L21.1544 47.1744L18.6427 48.2189C18.5257 48.2679 18.3942 48.2625 18.2833 48.2037C18.1702 48.1446 18.0904 48.0414 18.064 47.9164L16.2592 39.8202L17.1476 41.2414C17.6237 42.0023 17.987 42.5739 18.1032 42.7566C18.6657 43.0564 22.6938 45.1962 24.4185 45.7045C25.1219 45.9119 26.3945 46.1388 28.1968 46.3809L28.4465 46.4155L28.4442 48.1562C28.4444 48.5087 28.6176 48.9161 28.8438 49.1337L29.9032 48.2581L30.0727 48.3479C30.1207 48.3725 30.1874 48.3978 30.2319 48.3721C30.2921 48.3373 30.3516 48.2077 30.3506 48.0017L30.3507 47.8598L31.2105 47.2016L31.3597 47.2572C31.938 47.4769 32.5252 47.6437 33.1032 47.7521L33.8005 43.5799C33.8585 43.3459 38.9725 22.4282 22.5036 13.5395L16.1135 11.4638L17.1681 12.8678L17.0018 13.3391L16.7989 13.336C16.5653 13.3324 16.3397 13.3373 16.2281 13.3399C16.0179 13.4657 15.2624 13.9521 14.5356 14.8052C13.7381 15.7411 12.2918 17.8555 12.0158 18.2612C11.9894 19.0421 11.7905 24.5916 11.5106 25.9263C11.3972 26.4632 11.6716 28.0065 12.3241 30.5142L13.0125 33.1604L10.584 28.3002L8.84953 27.3976L7.99684 26.5833L8.01878 26.3953C8.04184 26.2857 8.11781 26.199 8.22139 26.1596L10.7388 25.2225L8.90095 19.6732L7.70947 17.4185L7.79395 17.1535L7.93247 17.0891L11.0131 15.896L10.4726 11.7701L10.0126 10.1059L14.3006 8.39789L14.5133 6.21933L20.8667 3.87239C21.0136 3.79996 21.2104 3.79739 21.4064 3.87036C21.6909 3.97942 21.9578 4.25108 22.1387 4.61249L25.166 3.49808C25.1936 3.47431 25.2765 3.44554 25.3613 3.43369C25.4487 3.41992 25.5338 3.41998 25.622 3.44418L27.2889 3.83157C27.7875 3.94802 28.2364 4.56002 28.3354 5.25548L28.5755 6.96096C28.7926 7.04928 29.0127 7.14757 29.2324 7.24817L31.5822 6.38004C31.812 6.25049 32.1457 6.30628 32.4348 6.54384L34.1 7.91737C34.5533 8.29118 34.8349 9.04081 34.738 9.62073L34.4976 11.059C35.1317 11.6949 35.7639 12.399 36.3773 13.1592L37.7882 12.657C38.0322 12.6268 38.3893 12.6982 38.7488 13.2504L40.1261 15.3706C40.5101 15.9599 40.5704 16.7175 40.2718 17.1313L39.6193 18.0347C40.2475 19.1876 40.8204 20.388 41.3242 21.6053L42.2169 21.3595C42.7125 21.2247 43.2693 21.6726 43.5187 22.4026L44.3687 24.9031C44.5702 25.4951 44.4832 26.0719 44.1551 26.3364C44.0788 26.397 44.0005 26.4407 43.9165 26.4621L43.6487 26.5357L43.0342 26.7594C43.3493 28.002 43.5981 29.2452 43.7709 30.4616L44.9827 30.9244C45.4763 31.1133 45.8834 31.7633 45.9333 32.441L46.1083 34.8902C46.1399 35.3379 45.9929 35.7083 45.7143 35.8747C45.6487 35.9134 45.5754 35.9413 45.4948 35.9563L44.0152 36.5015C43.9631 37.2663 43.8795 37.9927 43.7691 38.6674L45.0455 39.9192C45.4845 40.3497 45.7139 41.1143 45.5686 41.6577L45.0399 43.6321C44.9588 43.9332 44.7651 44.1445 44.5081 44.2103L41.6211 45.2773L42.4429 46.744C42.7982 47.3782 42.8009 48.1262 42.4478 48.4835L41.3058 49.641C41.2601 49.6878 41.1746 49.7752 37.4367 51.5042L31.0341 53.9044C30.8853 53.9883 30.6571 53.9242 30.5505 53.7408L28.4908 50.2267L28.196 51.5092L24.6895 53.0569L24.6872 53.0565ZM28.9117 49.8169L30.9638 53.3202L37.2125 50.9771C38.5407 50.3617 40.7456 49.3274 40.9305 49.2116L42.0368 48.0836C42.1654 47.9514 42.1929 47.4758 41.941 47.0292L40.7889 44.9773L44.336 43.6683C44.435 43.6422 44.4696 43.5344 44.4819 43.4892L45.0106 41.5148C45.1036 41.1708 44.9308 40.6191 44.6402 40.334L43.1484 38.8711L43.1853 38.6502C43.3161 37.882 43.4008 37.1061 43.4526 36.2868L43.4649 36.0996L45.342 35.4127L45.5648 35.6368L45.4165 35.392C45.4851 35.3491 45.5519 35.19 45.5325 34.9383L45.3575 32.4891C45.3225 32.0054 45.0227 31.5626 44.7735 31.4689L43.246 30.8849L43.2222 30.7153C43.0398 29.3861 42.7663 28.0228 42.4098 26.6598L42.3431 26.4074L43.7591 25.9178C43.8842 25.8204 43.9618 25.5117 43.8208 25.0954L42.9708 22.5949C42.8138 22.1334 42.5013 21.8802 42.3643 21.9211L40.981 22.3002L40.8856 22.0643C40.3442 20.7319 39.7192 19.4187 39.0259 18.1602L38.9389 18.0014L39.8063 16.8027C39.9472 16.611 39.9059 16.0931 39.6445 15.6899L38.2673 13.5696C38.0964 13.3045 37.9518 13.2212 37.8789 13.2327L37.7646 13.2656L36.1867 13.8464L36.0579 13.683C35.3855 12.8373 34.6877 12.0583 33.9895 11.3668L33.8841 11.2616L34.1733 9.5311C34.2364 9.15369 34.0318 8.60857 33.7366 8.36526L32.0714 6.99167C31.9694 6.90839 31.8754 6.87615 31.8206 6.90719L29.208 7.87567L29.1006 7.82463C28.8046 7.68526 28.5096 7.55318 28.2163 7.44027L28.0583 7.38072L27.7722 5.34115C27.7049 4.86626 27.396 4.45031 27.1639 4.39497L25.4972 4.00759L25.4733 4.02256L25.366 4.04244L21.8246 5.34537L21.6771 4.98246C21.5376 4.64217 21.3336 4.46139 21.2025 4.41109C21.1561 4.3915 21.1185 4.38996 21.0924 4.40453L15.049 6.63764L14.8382 8.80474L10.7022 10.453L11.0349 11.6606L11.6435 16.2711L8.41132 17.5216L9.43002 19.4518L11.1116 24.5207C11.3117 22.2336 11.4462 18.2157 11.4478 18.1639L11.4497 18.0814L11.4966 18.0136C11.5657 17.9116 13.1996 15.495 14.1 14.439C15.0241 13.354 15.9702 12.8308 16.0116 12.8093L16.0715 12.7768L16.1405 12.7741C16.1405 12.7741 16.2357 12.7711 16.378 12.7689L15.3928 11.4593C15.3038 11.3403 15.2272 11.2046 15.1617 11.0588L14.9046 10.4741L22.7317 13.0241C39.6439 22.1477 34.4185 43.4916 34.3636 43.7071L33.5759 48.4201L33.2974 48.3736C32.6235 48.2586 31.9723 48.0929 31.3119 47.8548L30.9213 48.1538C30.8904 48.4799 30.7507 48.7357 30.532 48.8694C30.3743 48.9637 30.1833 48.9885 29.9981 48.9363L28.9194 49.8276L28.9117 49.8169ZM21.6821 45.8433L21.8718 46.1659C22.3287 46.9425 22.8518 47.8035 22.9297 47.904C22.9619 47.9378 23.0543 48.036 24.974 52.3026L27.6964 51.1017L28.1445 49.1564C27.972 48.8579 27.8664 48.4996 27.8669 48.1567L27.8682 46.9174C26.1664 46.6826 24.9521 46.4607 24.2529 46.2564C22.3476 45.6966 17.9488 43.3269 17.762 43.2271L17.6968 43.1925L17.6577 43.1292C17.6577 43.1292 17.6167 43.0632 17.5415 42.9466L18.5839 47.6224L20.8792 46.6695L21.684 45.846L21.6821 45.8433ZM9.21181 26.9567L11.0096 27.8769L11.187 28.2306C10.9333 27.0031 10.8573 26.2263 10.9465 25.8059C10.9495 25.7875 10.9526 25.7691 10.9561 25.7484L8.79157 26.5553L9.20989 26.954L9.21181 26.9567Z" fill="#F6AC1F"/>
<path d="M33.3343 48.0823L34.079 43.627L34.2597 42.5454C32.2669 42.8487 29.9482 42.1016 27.6112 40.1758C22.0641 35.6034 18.5272 26.151 19.7122 19.0608C20.1576 16.3959 21.2075 14.4448 22.6376 13.2905L15.4183 10.939C15.4712 11.0614 15.5367 11.1788 15.6161 11.2843L16.8428 12.9181C16.8259 12.9626 16.8136 13.0079 16.7967 13.0524C16.4614 13.0484 16.1404 13.0586 16.1404 13.0586C16.1404 13.0586 15.2108 13.5679 14.3104 14.6239C13.4101 15.6798 11.7254 18.1731 11.7254 18.1731C11.7254 18.1731 11.517 24.4731 11.2245 25.8696C10.9297 27.2657 12.9038 33.5142 13.1272 34.6964C13.3526 35.8814 17.8986 42.9761 17.8986 42.9761C17.8986 42.9761 22.436 45.4234 24.3344 45.982C25.182 46.2325 26.7169 46.4748 28.1537 46.6676L28.153 48.1578C28.1531 48.6948 28.4647 49.2933 28.8493 49.4971L29.7585 48.5728C30.1431 48.7767 30.4577 48.5075 30.4576 47.9705L31.2537 47.524C31.9613 47.7913 32.6566 47.9761 33.334 48.0846L33.3343 48.0823Z" fill="#F6AC1F"/>
<path d="M28.9042 49.8496L28.7152 49.7494C28.237 49.4968 27.8644 48.7958 27.8647 48.1572L27.866 46.9178C26.1642 46.6831 24.9499 46.4612 24.2508 46.2568C22.3454 45.6971 17.9466 43.3274 17.7598 43.2275L17.6946 43.193L17.6556 43.1297C17.1864 42.3984 13.0736 35.9533 12.8443 34.7487C12.7839 34.4311 12.5901 33.7222 12.3431 32.8223C11.4846 29.6935 10.7329 26.8025 10.9416 25.8083C11.2276 24.451 11.4356 18.2242 11.4368 18.1605L11.4388 18.0781L11.4856 18.0102C11.5547 17.9082 13.1886 15.4916 14.089 14.4357C15.0131 13.3506 15.9592 12.8274 16.0006 12.806L16.0605 12.7734L16.1295 12.7708C16.1295 12.7708 16.2247 12.7677 16.367 12.7655L15.3818 11.456C15.2929 11.337 15.2162 11.2012 15.1507 11.0554L14.8936 10.4707L23.2235 13.1828L22.8133 13.5141C21.3859 14.6665 20.4096 16.6015 19.9904 19.1099C18.8224 26.0988 22.3217 35.4504 27.7898 39.9575C29.9918 41.7709 32.212 42.5701 34.212 42.2657L34.603 42.2056L33.5653 48.4144L33.2845 48.3675C32.6218 48.2567 31.9433 48.0842 31.2744 47.8399L30.7292 48.1439C30.6934 48.4573 30.5552 48.7038 30.3419 48.8338C30.1896 48.9242 30.0063 48.9456 29.8283 48.9064L28.9016 49.8515L28.9042 49.8496ZM28.4416 46.4179L28.4393 48.1586C28.4388 48.5015 28.6047 48.8959 28.8205 49.1188L29.7016 48.2205L29.8907 48.3207C29.9386 48.3453 30.0053 48.3706 30.0498 48.3449C30.1101 48.3101 30.1696 48.1805 30.1685 47.9745L30.1682 47.8065L31.2279 47.2124L31.3525 47.2592C31.9309 47.4789 32.5181 47.6457 33.0961 47.7541L33.9111 42.8777C31.8535 43.059 29.6188 42.2053 27.4271 40.4007C21.8175 35.7777 18.2282 26.1864 19.4266 19.0157C19.8308 16.597 20.7396 14.6696 22.067 13.4082L16.1083 11.4685L17.161 12.8698L16.9946 13.3411L16.7917 13.338C16.5581 13.3345 16.3326 13.3393 16.221 13.342C16.0107 13.4677 15.2553 13.9541 14.5284 14.8072C13.7309 15.7431 12.2846 17.8575 12.0086 18.2632C11.9822 19.0442 11.7833 24.5936 11.5035 25.9283C11.3059 26.8699 12.3004 30.5016 12.8959 32.671C13.1456 33.5832 13.3424 34.3021 13.4086 34.642C13.5643 35.4652 16.283 39.9197 18.0987 42.7567C18.6613 43.0565 22.6894 45.1963 24.4141 45.7046C25.1174 45.912 26.39 46.1389 28.1923 46.381L28.442 46.4156L28.4416 46.4179Z" fill="#F6AC1F"/>
<path d="M38.6535 42.4109L37.2694 41.0536C37.2767 41.0099 37.286 40.9688 37.2933 40.9251C37.4833 39.7883 37.5812 38.6077 37.599 37.3972L39.0088 37.9356C39.3911 38.0823 39.6713 37.7506 39.6313 37.1975L39.454 34.7479C39.414 34.1948 39.0713 33.6265 38.6867 33.4795L37.3172 32.9549C37.1276 31.5701 36.847 30.1772 36.4802 28.7912L37.6479 28.4707C37.9824 28.3799 38.0977 27.8457 37.9035 27.281L37.0536 24.7804C36.862 24.2138 36.4341 23.83 36.0996 23.9208L34.9617 24.2322C34.4123 22.8771 33.7831 21.5608 33.0859 20.297L33.8459 19.246C34.0735 18.9315 34.0059 18.2887 33.6935 17.8083L32.3163 15.688C32.0039 15.2077 31.5675 15.0732 31.3422 15.388L30.5918 16.4241C29.781 15.3447 28.9146 14.3436 27.9991 13.4384L28.2637 11.8551C28.3441 11.3741 28.1038 10.7308 27.7277 10.4195L26.0625 9.04594C25.6863 8.73469 25.3153 8.87379 25.2346 9.35706L24.97 10.9403C24.0102 10.2997 23.0591 9.80487 22.128 9.44581L21.8638 7.57304C21.7835 7.00608 21.4132 6.47583 21.0373 6.38936L19.3705 6.00198C18.9923 5.91513 18.7524 6.3032 18.8331 6.86785L19.1 8.767C18.2024 8.71635 17.3386 8.80384 16.5222 9.0317L15.7514 7.1476C15.5246 6.594 15.0893 6.26817 14.7759 6.41685L13.397 7.08059C13.0855 7.23196 13.0162 7.8023 13.2411 8.35321L14.0319 10.2879C13.3489 10.8077 12.7246 11.458 12.1742 12.2318L10.9823 10.644C10.6496 10.2005 10.2208 10.1336 10.0277 10.4963L9.17355 12.0969C8.98045 12.4597 9.09366 13.1126 9.4287 13.5565L10.6554 15.1904C10.3132 16.1338 10.0404 17.1716 9.85082 18.3061C9.84352 18.3499 9.83851 18.394 9.8312 18.4377L8.38365 17.4601C8.00096 17.2021 7.65682 17.4072 7.61632 17.9185L7.43728 20.1784C7.39677 20.6897 7.67576 21.3135 8.05806 21.5738L9.54626 22.5771C9.5614 23.8736 9.67124 25.1977 9.86473 26.5311L8.40721 26.42C8.04052 26.3918 7.83896 26.8336 7.95838 27.4071L8.48426 29.9362C8.60368 30.5097 8.99547 30.9963 9.36445 31.0248L10.8569 31.1394C11.2399 32.4855 11.7034 33.8167 12.2363 35.1146L11.0496 35.9737C10.7618 36.181 10.7393 36.7828 10.9976 37.3181L12.1357 39.6798C12.394 40.215 12.8346 40.4803 13.1223 40.2729L14.3276 39.4027C14.9995 40.5771 15.7304 41.6952 16.5132 42.7439L15.8466 44.4681C15.6887 44.8746 15.8483 45.5329 16.1995 45.937L17.7556 47.7228C18.1068 48.1269 18.521 48.1251 18.6766 47.7182L19.3471 45.9852C19.7708 46.3943 20.2048 46.7838 20.6473 47.1511C21.0901 47.516 21.5337 47.848 21.9751 48.1512L21.9741 50.4362C21.9742 50.9732 22.2858 51.5717 22.6704 51.7755L24.3746 52.6754C24.7593 52.8793 25.0739 52.6101 25.0738 52.0731L25.0748 49.8023C25.9783 50.1426 26.8608 50.354 27.7127 50.4372L28.3706 52.8417C28.528 53.4145 28.9398 53.8523 29.2927 53.8214L30.8493 53.6794C31.2022 53.6485 31.36 53.1569 31.2049 52.5845L30.5578 50.2149C31.3434 50.0008 32.0839 49.6609 32.7691 49.1982L33.9342 51.2712C34.2205 51.7804 34.6623 51.9819 34.9213 51.7201L36.0634 50.5626C36.3224 50.3007 36.2993 49.6747 36.013 49.1656L34.8755 47.1398C35.414 46.409 35.8843 45.5626 36.2786 44.6043L37.7014 45.9988C38.0672 46.358 38.4623 46.2868 38.5818 45.8408L39.1105 43.8664C39.23 43.4204 39.0293 42.7671 38.6635 42.4079L38.6535 42.4109ZM21.4265 42.4603C15.8794 37.8879 12.3425 28.4355 13.5275 21.3453C14.7125 14.2551 20.1705 12.2128 25.7176 16.7852C31.2647 21.3575 34.8016 30.81 33.6166 37.9001C32.4316 44.9903 26.9736 47.0327 21.4265 42.4603Z" fill="#FFD687"/>
<path d="M38.3277 43.2929L36.9436 41.9356C36.9509 41.8919 36.9601 41.8508 36.9674 41.8071C37.1574 40.6703 37.2554 39.4897 37.2732 38.2792L37.5911 38.4009C37.6105 38.0446 37.6252 37.6875 37.6311 37.3265L39.0409 37.8649C39.1322 37.8991 39.2162 37.906 39.2921 37.8903L39.1301 35.6326C39.0901 35.0794 38.7474 34.5112 38.3628 34.3641L36.9933 33.8395C36.8036 32.4548 36.5231 31.0619 36.1563 29.6759L36.7118 29.5227C36.6474 29.2565 36.5835 28.9879 36.5123 28.7205L37.6428 28.4104C37.6279 28.3298 37.6087 28.2462 37.58 28.1633L36.73 25.6628C36.5385 25.0962 36.1106 24.7124 35.776 24.8032L34.6382 25.1145C34.0888 23.7595 33.4596 22.4432 32.7624 21.1794L33.2579 20.4934C33.2112 20.4051 33.1675 20.3127 33.1207 20.2244L33.6473 19.494C33.6233 19.2274 33.5298 18.9374 33.3704 18.6883L31.9931 16.5681C31.6807 16.0877 31.2443 15.9533 31.019 16.2681L30.2686 17.3042C29.4579 16.2248 28.5915 15.2237 27.6759 14.3184L27.9405 12.7351C28.0209 12.2542 27.7807 11.6108 27.4045 11.2996L25.7393 9.92605C25.5353 9.75949 25.3374 9.72639 25.1805 9.80188L25.0028 10.8651C24.9434 10.8244 24.8828 10.7906 24.823 10.7522L24.6445 11.82C23.6847 11.1794 22.7336 10.6845 21.8025 10.3255L21.5383 8.45277C21.458 7.88582 21.0877 7.35551 20.7118 7.26904L19.0451 6.88166C18.9837 6.86668 18.9288 6.86936 18.8751 6.87931L19.1301 8.69371C18.9637 8.68482 18.8006 8.6836 18.6372 8.68468L18.7722 9.64635C17.8747 9.5957 17.0108 9.68313 16.1945 9.91099L15.4236 8.02694C15.1968 7.47335 14.7616 7.14746 14.4481 7.29614L13.1671 7.91235C13.1897 8.03204 13.221 8.15556 13.2712 8.27986L14.0621 10.2146C13.8722 10.3603 13.6876 10.5163 13.5061 10.6823L13.7042 11.1672C13.0212 11.6871 12.3968 12.3373 11.8464 13.1111L10.6546 11.5233C10.3218 11.0798 9.89305 11.0128 9.69995 11.3756L9.11375 12.477C9.11744 12.8088 9.24038 13.1912 9.45889 13.4832L10.6856 15.117C10.3434 16.0605 10.0706 17.0983 9.88101 18.2328C9.8737 18.2765 9.86869 18.3206 9.86138 18.3644L9.70412 18.2576C9.63954 18.5591 9.57614 18.8679 9.52307 19.1854C9.51576 19.2292 9.51075 19.2733 9.50344 19.317L8.05589 18.3394C7.89446 18.2296 7.74181 18.2089 7.61406 18.2514L7.46746 20.1051C7.42695 20.6164 7.70555 21.2425 8.08824 21.5004L9.57644 22.5037C9.59388 23.8006 9.70143 25.1244 9.89491 26.4577L9.40892 26.4215C9.44598 26.7518 9.48802 27.0805 9.53659 27.4127L8.07906 27.3016C8.04646 27.2985 8.01464 27.305 7.98319 27.3092C7.98433 27.3165 7.98511 27.3261 7.98626 27.3334L8.51214 29.8625C8.63156 30.436 9.02565 30.9229 9.39233 30.9511L10.8847 31.0657C11.2677 32.4118 11.7313 33.743 12.2642 35.0409L11.6994 35.448C11.7707 35.6302 11.8323 35.8132 11.9063 35.9935L10.8734 36.7387C10.9001 36.904 10.9427 37.0744 11.0239 37.2393L12.1621 39.6011C12.4204 40.1363 12.8609 40.4016 13.1487 40.1942L14.3539 39.324C15.0258 40.4984 15.7567 41.6165 16.5395 42.6652L16.1758 43.6097C16.1758 43.6097 16.1793 43.6174 16.1835 43.6205L15.8498 44.4849C15.746 44.8933 15.903 45.4826 16.2281 45.8586L17.7843 47.6445C18.1355 48.0485 18.5497 48.0468 18.7052 47.6399L19.3757 45.9068C19.7994 46.3159 20.2334 46.7054 20.6759 47.0727C21.1188 47.4377 21.5624 47.7697 22.0037 48.0729L22.0027 50.3578C22.0029 50.8948 22.3144 51.4934 22.6991 51.6972L24.4033 52.5971C24.5271 52.6627 24.6433 52.675 24.7446 52.6494L24.7451 50.679C24.8652 50.7251 24.9821 50.7612 25.1006 50.8023L25.1007 49.726C26.0043 50.0662 26.8868 50.2776 27.7391 50.3586L28.3969 52.7631C28.5543 53.3358 28.9661 53.7737 29.319 53.7427L30.8756 53.6008C30.8756 53.6008 30.8928 53.5965 30.9005 53.5931C30.8913 53.549 30.8845 53.5052 30.8733 53.4584L30.2262 51.0888C30.4195 51.036 30.6094 50.9755 30.7955 50.9096L30.5841 50.1362C31.3697 49.9221 32.1102 49.5822 32.7978 49.12L33.9629 51.1929C34.2492 51.702 34.691 51.9036 34.95 51.6417L35.8898 50.6894C35.8619 50.4742 35.8002 50.2486 35.6837 50.0399L34.5462 48.0141C34.7147 47.7844 34.8763 47.5394 35.0298 47.2859L34.9022 47.0588C35.4407 46.328 35.9109 45.4816 36.3053 44.5232L37.7281 45.9178C37.9823 46.1661 38.2454 46.2053 38.4258 46.0604L38.7789 44.7403C38.8984 44.2943 38.6977 43.641 38.3319 43.2818L38.3277 43.2929ZM21.101 43.34C15.554 38.7676 12.0171 29.3152 13.2021 22.225C13.3805 21.1572 13.6579 20.2053 14.0173 19.3712C15.7961 13.8516 20.7374 12.5792 25.7527 16.7103C31.2998 21.2827 34.8367 30.7351 33.6517 37.8253C33.4732 38.893 33.1959 39.845 32.8365 40.6791C31.0577 46.1987 26.1163 47.4711 21.1014 43.3377L21.101 43.34Z" fill="#FFF8EE"/>
<path d="M29.1296 54.1019C28.6878 54.028 28.2603 53.5568 28.0876 52.92L27.481 50.7038C26.7852 50.6207 26.0722 50.4565 25.3535 50.2134L25.3519 52.0772C25.3521 52.4723 25.207 52.7887 24.955 52.9381C24.7447 53.0639 24.48 53.0622 24.2323 52.9309L22.5281 52.0311C22.0499 51.7785 21.677 51.0798 21.6777 50.4388L21.6794 48.3054C21.2599 48.0129 20.8484 47.7005 20.4558 47.3747C20.1272 47.1045 19.7914 46.8071 19.4513 46.4924L18.9352 47.8255C18.8315 48.092 18.6396 48.2634 18.3937 48.3051C18.1037 48.356 17.7892 48.2135 17.5293 47.9146L15.9732 46.1288C15.5523 45.6468 15.3742 44.8719 15.5693 44.3699L16.178 42.7945C15.4911 41.8659 14.8344 40.8691 14.2258 39.8259L13.2788 40.5097C13.1173 40.627 12.9105 40.6611 12.7084 40.6107C12.3816 40.5277 12.0673 40.2292 11.8657 39.8075L10.7276 37.4458C10.4026 36.7717 10.4631 36.0414 10.8698 35.7451L11.8736 35.0186C11.3973 33.8343 10.9775 32.624 10.6263 31.4133L9.33488 31.3134C8.84316 31.269 8.34516 30.7103 8.19704 29.9972L7.67384 27.4661C7.5793 27.0127 7.65122 26.6108 7.86767 26.3631C8.01081 26.2001 8.20876 26.1197 8.42624 26.1347L9.52858 26.2196C9.37147 25.0366 9.28106 23.8648 9.25971 22.7328L7.89501 21.8116C7.4272 21.4969 7.09917 20.7702 7.14969 20.1565L7.32872 17.8966C7.35689 17.53 7.51962 17.2496 7.77437 17.1266C8.00609 17.0139 8.28418 17.0486 8.54148 17.2217L9.61939 17.9483C9.7932 16.9933 10.0325 16.0847 10.3306 15.2356L9.19437 13.7258C8.79377 13.1928 8.67293 12.4156 8.91748 11.9574L9.77165 10.3567C9.89257 10.1285 10.0905 9.99128 10.3276 9.97412C10.6321 9.94933 10.9543 10.1309 11.2077 10.4689L12.1695 11.7486C12.6258 11.1554 13.1316 10.6344 13.6807 10.1939L12.9722 8.45982C12.6799 7.74624 12.8071 7.04131 13.2679 6.8179L14.6468 6.15417C14.8191 6.07178 15.0159 6.0692 15.2118 6.14217C15.5363 6.26736 15.8333 6.59849 16.0115 7.03278L16.6885 8.6859C17.3495 8.52433 18.0458 8.4491 18.7626 8.46247L18.5432 6.90234C18.482 6.46159 18.5803 6.08539 18.8148 5.87146C18.9821 5.71964 19.1885 5.65949 19.432 5.71675L21.0989 6.10414C21.5975 6.22059 22.0464 6.83259 22.1454 7.52805L22.3855 9.23353C23.1751 9.54765 23.9701 9.95728 24.7574 10.4555L24.9501 9.30258C25.0058 8.9689 25.1816 8.72389 25.4364 8.62926C25.6888 8.53425 25.9825 8.60226 26.2444 8.81872L27.9097 10.1922C28.3652 10.5664 28.6449 11.3134 28.5476 11.8956L28.3072 13.3339C29.0935 14.1206 29.8584 14.9936 30.5879 15.9363L31.111 15.2123C31.2496 15.0202 31.451 14.9191 31.6773 14.9238C31.9956 14.9297 32.3159 15.1511 32.5585 15.5252L33.9357 17.6455C34.3197 18.2348 34.38 18.9924 34.0814 19.4062L33.4262 20.3115C34.0563 21.4671 34.6296 22.6652 35.1316 23.8798L36.0265 23.6344C36.5195 23.5015 37.0789 23.9475 37.3283 24.6775L38.1783 27.178C38.3289 27.6219 38.3225 28.0703 38.1605 28.3744C38.0607 28.5611 37.9118 28.6876 37.7261 28.737L36.8311 28.9825C37.1531 30.2404 37.4038 31.5005 37.5805 32.7365L38.7924 33.1992C39.2771 33.3843 39.6934 34.05 39.7429 34.7159L39.9179 37.1651C39.9492 37.5867 39.8251 37.9326 39.5792 38.1162C39.3877 38.2569 39.151 38.286 38.9086 38.1934L37.8793 37.799C37.8474 38.896 37.7464 39.9531 37.581 40.9426L38.8578 42.1921C39.2968 42.6227 39.5262 43.3872 39.3809 43.9307L38.8522 45.9051C38.7715 46.2038 38.5828 46.4136 38.3349 46.481C38.0645 46.5564 37.7558 46.4504 37.4935 46.1937L36.3694 45.0927C36.033 45.8455 35.6457 46.5354 35.207 47.1504L36.2552 49.017C36.6105 49.6512 36.6132 50.3992 36.2602 50.7565L35.1182 51.914C34.967 52.0685 34.7636 52.1386 34.5488 52.1074C34.2198 52.0666 33.9057 51.8084 33.6776 51.4036L32.6643 49.5972C32.1099 49.9422 31.5183 50.2124 30.9018 50.405L31.4762 52.5023C31.5999 52.9511 31.5583 53.3841 31.3652 53.6618C31.244 53.8355 31.0679 53.9409 30.8684 53.9596L29.3099 54.0989C29.2497 54.1054 29.1887 54.1023 29.1288 54.0923L29.1296 54.1019ZM27.9312 50.1758L28.64 52.771C28.7733 53.2617 29.0961 53.5522 29.2591 53.5392L30.8176 53.3999C30.8322 53.3976 30.861 53.3953 30.8951 53.3466C30.9727 53.2366 31.01 52.985 30.9234 52.6678L30.1997 50.0204L30.4771 49.9461C31.2305 49.7408 31.9479 49.4113 32.604 48.9674L32.8626 48.793L34.1784 51.1395C34.3278 51.4058 34.5303 51.539 34.6246 51.5547C34.6615 51.5609 34.6845 51.5506 34.7098 51.5264L35.8519 50.3689C35.9804 50.2366 36.0078 49.761 35.7564 49.3121L34.53 47.1248L34.6402 46.9753C35.1694 46.2571 35.6281 45.423 36.0071 44.4999L36.1677 44.1057L37.8953 45.7995C38.0276 45.9281 38.1315 45.9573 38.1833 45.9447C38.2282 45.9309 38.2719 45.8672 38.2973 45.7721L38.826 43.7977C38.9189 43.4537 38.7462 42.9021 38.4555 42.6169L36.9638 41.1541L37.0007 40.9332C37.1945 39.7875 37.2959 38.6146 37.3152 37.3949L37.3223 36.9844L39.1145 37.6695C39.1969 37.6998 39.2268 37.6765 39.2399 37.6692C39.3074 37.619 39.367 37.461 39.3479 37.2213L39.1729 34.772C39.1378 34.2883 38.8381 33.8456 38.5892 33.7496L37.0617 33.1655L37.038 32.9959C36.853 31.6403 36.5717 30.252 36.2071 28.8664L36.1347 28.5917L37.5753 28.1961C37.6048 28.1892 37.6305 28.1628 37.6547 28.1172C37.7203 27.9933 37.7561 27.7225 37.637 27.3738L36.787 24.8733C36.6299 24.4118 36.3178 24.1562 36.1809 24.1972L34.7975 24.5763L34.7021 24.3403C34.1604 23.0102 33.5353 21.697 32.8424 20.4363L32.7554 20.2774L33.6228 19.0788C33.7618 18.8843 33.7225 18.3692 33.4611 17.966L32.0839 15.8457C31.9332 15.6147 31.7664 15.5088 31.6698 15.5068C31.6464 15.5053 31.6172 15.5099 31.583 15.5586L30.6051 16.909L30.3709 16.5979C29.5582 15.5158 28.6952 14.5224 27.8057 13.6452L27.7002 13.54L27.9895 11.8094C28.0526 11.432 27.848 10.8869 27.5527 10.6436L25.8875 9.27C25.7729 9.17751 25.6885 9.15869 25.6456 9.17516C25.6026 9.19164 25.5488 9.25836 25.5242 9.40564L25.1865 11.4262L24.8184 11.1801C23.8928 10.5618 22.9555 10.0692 22.0328 9.7163L21.8748 9.65675L21.5888 7.61719C21.5215 7.14229 21.2125 6.72634 20.9805 6.671L19.3137 6.28362C19.2554 6.26442 19.2327 6.28663 19.2135 6.30234C19.141 6.36829 19.0857 6.55776 19.1228 6.83126L19.4382 9.07684L19.0892 9.05639C18.22 9.00575 17.3846 9.09318 16.6077 9.31108L16.3618 9.38115L15.4936 7.25849C15.3546 6.9159 15.1502 6.73742 15.019 6.68712C14.9726 6.66753 14.935 6.66599 14.9089 6.68056L13.5301 7.34429C13.4016 7.40561 13.3312 7.79831 13.5155 8.25255L14.3883 10.3902L14.2122 10.524C13.5453 11.0323 12.9405 11.6646 12.417 12.405L12.1905 12.7267L10.7626 10.8251C10.6177 10.6306 10.4677 10.5511 10.386 10.5588C10.3718 10.5588 10.3331 10.5641 10.292 10.64L9.43784 12.2406C9.31346 12.4753 9.37843 13.0066 9.66823 13.3957L10.99 15.1542L10.937 15.3015C10.594 16.2495 10.3274 17.2789 10.1455 18.3674L10.0589 18.9419L8.23479 17.7122C8.15388 17.6584 8.07945 17.6365 8.03572 17.6576C7.98929 17.6806 7.92678 17.7718 7.9125 17.9563L7.73308 20.2186C7.70106 20.6225 7.93176 21.153 8.22741 21.3515L9.84096 22.4396L9.84436 22.5893C9.8599 23.8551 9.96591 25.1738 10.1598 26.5049L10.2118 26.8589L8.39721 26.7189C8.36691 26.7162 8.34234 26.7216 8.31318 26.7545C8.23719 26.8412 8.18836 27.0624 8.2496 27.3613L8.7728 29.8923C8.87767 30.3972 9.22119 30.7479 9.39303 30.753L11.0841 30.8819L11.1397 31.0733C11.5165 32.3995 11.9762 33.7253 12.5073 35.0205L12.5931 35.2288L11.2237 36.2182C11.0917 36.3144 11.0409 36.7459 11.2624 37.204L12.4005 39.5658C12.5427 39.8616 12.737 40.0289 12.8667 40.06C12.9234 40.0742 12.9473 40.0593 12.9607 40.0497L14.4241 38.9932L14.5813 39.2702C15.2516 40.4397 15.9807 41.555 16.7481 42.5822L16.8428 42.7092L16.1185 44.5799C16.001 44.8867 16.1407 45.4376 16.421 45.7565L17.9771 47.5424C18.1144 47.6978 18.2402 47.7519 18.3123 47.745C18.3633 47.737 18.3974 47.6741 18.4178 47.6231L19.2431 45.4877L19.5548 45.7882C19.9888 46.2061 20.4209 46.593 20.8388 46.9372C21.2591 47.2819 21.7 47.6158 22.1479 47.9224L22.2733 48.0073L22.2707 50.4433C22.2705 50.8691 22.5242 51.3752 22.8156 51.5279L24.5198 52.4278C24.5677 52.4524 24.6345 52.4777 24.679 52.4521C24.7392 52.4172 24.7987 52.2875 24.7977 52.0816L24.7992 49.397L25.1862 49.5444C26.0564 49.872 26.9182 50.0799 27.7517 50.16L27.9496 50.1789L27.9312 50.1758ZM26.0885 45.0942C24.5167 44.8315 22.8646 44.0161 21.2427 42.6805C15.6331 38.0575 12.0438 28.4662 13.2422 21.2954C13.833 17.7607 15.4808 15.3181 17.885 14.4212C20.2874 13.5217 23.1339 14.2813 25.8992 16.5602C31.5087 21.1832 35.0982 30.7746 33.8997 37.9453C33.3089 41.48 31.6615 43.9203 29.2569 44.8195C28.2652 45.1907 27.1954 45.2792 26.0885 45.0942ZM21.6077 42.2377C24.2089 44.3803 26.8552 45.1065 29.0581 44.2824C31.2609 43.4583 32.7805 41.1741 33.3359 37.851C34.5039 30.8621 31.0046 21.5106 25.5365 17.0034C22.9353 14.8608 20.289 14.1346 18.0885 14.9591C15.8856 15.7832 14.366 18.0674 13.8106 21.3904C12.6426 28.3794 16.1419 37.7309 21.61 42.2381L21.6077 42.2377Z" fill="#F6AC1F"/>
<path d="M21.8557 4.7561L19.0117 5.80371L19.2101 6.34229L22.0541 5.29467L21.8557 4.7561Z" fill="#F6AC1F"/>
<path d="M28.2254 6.86226L22.041 9.14893L22.2401 9.68731L28.4244 7.40065L28.2254 6.86226Z" fill="#F6AC1F"/>
<path d="M29.0904 7.33843L25.4883 8.67676L25.6882 9.21478L29.2903 7.87645L29.0904 7.33843Z" fill="#F6AC1F"/>
<path d="M34.1105 10.8399L27.9258 13.1255L28.1248 13.6639L34.3095 11.3783L34.1105 10.8399Z" fill="#F6AC1F"/>
<path d="M36.1744 13.2365L31.4844 14.9697L31.6833 15.5081L36.3733 13.7749L36.1744 13.2365Z" fill="#F6AC1F"/>
<path d="M39.1711 17.7515L32.9863 20.0371L33.1853 20.5755L39.37 18.2899L39.1711 17.7515Z" fill="#F6AC1F"/>
<path d="M42.2038 21.3315L36.0195 23.6182L36.2186 24.1565L42.4029 21.8699L42.2038 21.3315Z" fill="#F6AC1F"/>
<path d="M42.6088 26.2854L37.8535 27.897L38.0378 28.4406L42.7931 26.829L42.6088 26.2854Z" fill="#F6AC1F"/>
<path d="M43.3953 30.4218L37.2109 32.7085L37.41 33.2468L43.5943 30.9602L43.3953 30.4218Z" fill="#F6AC1F"/>
<path d="M43.6744 35.9658L39.4473 37.4487L39.6373 37.9903L43.8644 36.5074L43.6744 35.9658Z" fill="#F6AC1F"/>
<path d="M43.3508 38.5035L37.166 40.7891L37.365 41.3274L43.5497 39.0418L43.3508 38.5035Z" fill="#F6AC1F"/>
<path d="M41.1292 44.819L38.4023 45.7432L38.5866 46.2868L41.3134 45.3627L41.1292 44.819Z" fill="#F6AC1F"/>
<path d="M37.9881 46.0026L34.7578 46.918L34.9143 47.4702L38.1446 46.5548L37.9881 46.0026Z" fill="#F6AC1F"/>
<path d="M35.2561 55.2754L34.5204 54.554C34.5242 54.531 34.5277 54.5102 34.5319 54.4849C34.5992 54.0822 34.6428 53.666 34.6687 53.2422L35.5706 52.9128C35.5947 52.9097 35.6151 52.9013 35.6362 52.8882C35.7309 52.8307 35.7847 52.6931 35.771 52.5063L35.6784 51.2063C35.6566 50.9117 35.475 50.6117 35.2706 50.5326L34.5434 50.2549C34.444 49.5334 34.2982 48.8064 34.1091 48.0841L34.5775 47.914L34.719 47.8738C34.7463 47.8665 34.7678 47.8512 34.7892 47.8358C34.9094 47.74 34.9405 47.4968 34.8551 47.2436L34.4027 45.9167C34.3016 45.6159 34.0731 45.4121 33.897 45.4607L33.292 45.6269C33.0004 44.9087 32.6655 44.2094 32.2972 43.5399L32.7002 42.9827C32.8203 42.8159 32.7852 42.4741 32.6196 42.2193L31.8898 41.0944C31.7752 40.9167 31.6525 40.83 31.5336 40.848L31.5098 40.8487L31.4745 40.8618C31.4526 40.8652 31.4603 40.8617 31.4415 40.8751L30.708 41.1453C30.3561 40.7032 29.9857 40.2865 29.5981 39.9024L29.7385 39.0624C29.7812 38.807 29.6536 38.4663 29.4542 38.3005L28.5704 37.5732C28.4604 37.4815 28.3518 37.4657 28.2685 37.5109L26.9627 37.9929C26.8028 37.9165 26.6421 37.8447 26.4841 37.7852L26.3449 36.792C26.3028 36.4917 26.1062 36.2104 25.906 36.1628L25.0227 35.956C24.9928 35.951 24.9648 35.9487 24.9402 35.9541C24.9138 35.9567 24.8907 35.9671 24.8673 35.9798L23.1257 36.6207L23.1019 36.5647C22.9808 36.27 22.7496 36.0966 22.5846 36.1778L19.3022 37.3892L19.1901 38.5413L16.955 39.431L17.1664 40.2044L17.4691 42.5117L15.7239 43.1875C15.7239 43.1875 15.712 43.2021 15.7155 43.2098L16.326 44.3692L17.348 47.4543L15.8748 48.003C15.8622 48.008 15.8595 48.024 15.8694 48.0352L16.2609 48.4105L17.1889 48.8873L17.8519 50.214C17.5831 49.1756 17.3381 48.0938 17.4188 47.7098C17.5757 46.9696 17.6853 43.6242 17.6853 43.6242C17.6853 43.6242 18.5785 42.2997 19.0575 41.7411C19.5345 41.1797 20.029 40.9099 20.029 40.9099C20.029 40.9099 20.2001 40.9054 20.3773 40.9066C20.3858 40.8844 20.3923 40.8595 20.4011 40.8349L19.7491 39.9666C19.7065 39.9098 19.6717 39.8496 19.6448 39.7836L23.4765 41.0319C32.425 45.8605 29.5477 57.1316 29.5477 57.1316L29.1524 59.4973C28.793 59.4396 28.4237 59.3424 28.0478 59.1992L27.7194 59.4518C27.7193 59.7357 27.5535 59.8783 27.3491 59.7708L26.7727 60.2469C26.5683 60.1394 26.4016 59.8206 26.4018 59.5368L26.4014 58.7466C25.6377 58.645 24.8246 58.5138 24.3736 58.3816C23.3657 58.0855 20.957 56.7864 20.957 56.7864C20.957 56.7864 20.7378 56.4422 20.4277 55.948L21.1914 59.3756C21.2006 59.4197 21.2504 59.447 21.2915 59.4278L22.6235 58.8745L22.932 58.5571C22.932 58.5571 23.4556 59.4441 23.5097 59.5029C23.5641 59.5593 24.6332 61.9379 24.6332 61.9379L26.2856 61.2087L26.5108 60.2291L27.797 62.4265C27.8116 62.4526 27.8435 62.4603 27.8695 62.4457L31.2563 61.1761C31.2563 61.1761 33.2152 60.2686 33.2663 60.218L33.8726 59.605C34.0092 59.4669 33.9986 59.134 33.8453 58.8623L33.3225 57.9281L35.037 57.2945C35.116 57.2745 35.179 57.2094 35.2097 57.0962L35.489 56.0476C35.5524 55.8099 35.4471 55.4635 35.2519 55.2724L35.2561 55.2754Z" fill="#FFD687"/>
<path d="M24.5062 62.2741L24.4008 62.0413C24.0145 61.1819 23.3731 59.7689 23.2995 59.643C23.3026 59.653 23.2845 59.6476 22.8836 58.975L22.724 59.1092L21.392 59.6625C21.303 59.6996 21.1994 59.6966 21.1124 59.6513C21.0253 59.606 20.9628 59.5269 20.941 59.431L19.8519 54.5392L20.6473 55.8099C20.8826 56.1852 21.0662 56.4737 21.139 56.59C21.5126 56.7896 23.5623 57.8726 24.4459 58.1338C24.8091 58.2395 25.4933 58.3632 26.4349 58.4899L26.657 58.5199L26.6577 59.5348C26.6569 59.6671 26.7113 59.8087 26.7776 59.9073L27.3152 59.4649L27.4544 59.5379C27.4571 59.5218 27.4617 59.4942 27.4617 59.4516L27.4618 59.3238L28.0043 58.9083L28.1378 58.959C28.4047 59.0604 28.6732 59.1384 28.9405 59.1949L29.2928 57.0869C29.3266 56.9554 32.0158 45.9319 23.3519 41.255L20.2914 40.2609L20.6859 40.7881L20.5764 41.0892L20.3708 41.1589C20.2668 41.1581 20.1625 41.1596 20.0985 41.1607C19.9665 41.2427 19.6012 41.4892 19.2508 41.9014C18.8448 42.3776 18.119 43.4366 17.9374 43.702C17.9207 44.2125 17.8143 47.0571 17.669 47.7566C17.631 47.9419 17.674 48.505 18.1002 50.1446L18.7144 52.5134L16.9968 49.0755L16.081 48.5959L15.5857 48.1205L15.6122 47.9617L15.6426 47.8225L15.7895 47.7643L17.0256 47.3038L16.0825 44.4541L15.4329 43.2314L15.5174 42.9948L17.1866 42.3488L16.9099 40.2398L16.6445 39.28L18.9478 38.3639L19.0608 37.2071L22.4947 35.9383C22.5898 35.8927 22.7229 35.8889 22.8541 35.9392C23.0052 35.9976 23.149 36.1281 23.2547 36.3019L24.777 35.7425C24.7835 35.7318 24.8415 35.7107 24.9021 35.7019C24.9604 35.6927 25.0187 35.6978 25.0804 35.7105L25.9637 35.9172C26.269 35.9872 26.542 36.3497 26.599 36.759L26.7178 37.6045C26.8041 37.6402 26.8901 37.6782 26.9756 37.7185L28.1805 37.2741C28.3267 37.1921 28.5461 37.2241 28.7355 37.3787L29.6194 38.106C29.8916 38.3313 30.0517 38.7602 29.9937 39.1077L29.8748 39.8188C30.1823 40.1304 30.4913 40.4753 30.7937 40.8452L31.5092 40.5981C31.6527 40.5748 31.8863 40.621 32.1063 40.9605L32.8361 42.0855C33.0619 42.4331 33.095 42.8857 32.9108 43.1388L32.603 43.5652C32.91 44.1345 33.1943 44.7262 33.4465 45.3266L33.8331 45.2209C34.1457 45.1336 34.4986 45.4006 34.6495 45.8422L35.0995 47.1688C35.2214 47.5298 35.164 47.8727 34.9534 48.0433C34.9039 48.0847 34.8471 48.1131 34.7877 48.1291L34.4171 48.2517C34.5699 48.8663 34.6923 49.4781 34.7795 50.0746L35.3644 50.2977C35.6623 50.4114 35.908 50.7955 35.9362 51.1929L36.0312 52.4932C36.051 52.7709 35.9531 53.003 35.7716 53.1122C35.7244 53.1398 35.6715 53.1593 35.6178 53.1693L34.9142 53.4302C34.8891 53.7926 34.8475 54.1405 34.7952 54.4677L35.4335 55.0924C35.6958 55.3491 35.8279 55.7899 35.7403 56.1159L35.461 57.1645C35.4091 57.3616 35.2771 57.5004 35.1041 57.5448L33.6969 58.0666L34.0744 58.7377C34.286 59.1137 34.2793 59.5644 34.0601 59.7856L33.4538 60.3986C33.4135 60.4416 33.3709 60.4841 31.369 61.408L27.9646 62.6842C27.8522 62.7482 27.6643 62.6978 27.58 62.5513L26.621 60.9149L26.5134 61.389L24.5089 62.2722L24.5062 62.2741ZM26.9365 60.4425L27.938 62.1499L31.1713 60.935C31.8562 60.6165 33.011 60.0763 33.1245 60.0054L33.6929 59.4214C33.7228 59.3838 33.739 59.1878 33.6236 58.9864L32.9529 57.7909L34.9497 57.053L35.2421 55.983C35.2786 55.8495 35.2146 55.5952 35.072 55.4578L34.2408 54.6424L34.2743 54.4421C34.3374 54.0647 34.3843 53.6562 34.4087 53.2274L34.418 53.0587L35.4787 52.6705C35.4983 52.6667 35.5183 52.618 35.5125 52.5248L35.4177 51.2245C35.4028 51.002 35.2606 50.8056 35.1762 50.7725L34.3068 50.4404L34.2869 50.2903C34.1905 49.593 34.0482 48.8737 33.8591 48.1513L33.8001 47.9239L34.6491 47.6281C34.6491 47.6281 34.6702 47.5015 34.6097 47.3258L34.1596 45.9992C34.0941 45.8109 33.9821 45.7165 33.9476 45.7107L33.1416 45.9332L33.0562 45.7226C32.7696 45.0171 32.4385 44.323 32.0736 43.6612L31.9958 43.5181L32.4944 42.8279C32.5343 42.7731 32.5294 42.5475 32.4076 42.3568L31.6754 41.2315C31.6133 41.136 31.5669 41.1022 31.5535 41.0976L30.6247 41.4462L30.5093 41.3016C30.1517 40.8515 29.7848 40.4424 29.4194 40.0809L29.3239 39.9869L29.4862 39.0157C29.5135 38.8524 29.4185 38.6 29.292 38.4937L28.4082 37.7663C28.379 37.7425 28.3633 37.7376 28.3633 37.7376L26.9503 38.2655L26.8541 38.2186C26.7007 38.1457 26.5466 38.0773 26.3932 38.0186L26.2509 37.9641L26.0895 36.8206C26.0585 36.5954 25.9125 36.422 25.8465 36.4062L24.9633 36.1994L22.9779 36.9392L22.8626 36.6527C22.7917 36.4823 22.6924 36.4113 22.6648 36.4067L19.5401 37.5664L19.4283 38.7163L17.2615 39.5795L17.4131 40.1299L17.7477 42.672L16.0657 43.323L16.5505 44.2438L17.2853 46.4577C17.3675 45.2437 17.4219 43.6301 17.4235 43.6067L17.4262 43.5338L17.4673 43.4721C17.5049 43.4168 18.375 42.1311 18.8574 41.5659C19.3606 40.9758 19.8793 40.6888 19.9 40.6781L19.9441 40.6547L19.5397 40.1164C19.4875 40.0462 19.4415 39.9675 19.404 39.8808L19.1791 39.3582L23.5493 40.7818C32.6113 45.6672 29.8202 57.0734 29.7914 57.1892L29.3579 59.7827L29.1071 59.7408C28.7822 59.6889 28.4282 59.5989 28.0884 59.4806L27.9611 59.5776C27.9326 59.7621 27.8443 59.9082 27.71 59.9899C27.6156 60.0451 27.5082 60.0649 27.3997 60.0492L26.9358 60.4329L26.9365 60.4425ZM22.9856 58.1382L23.1551 58.4266C23.3912 58.8257 23.6614 59.2753 23.7101 59.3379C23.7365 59.3636 23.7806 59.4112 24.7657 61.5984L26.0682 61.0236L26.2846 60.0828C26.1965 59.9167 26.1436 59.7233 26.1441 59.5365L26.144 58.9711C25.2841 58.8511 24.6647 58.7357 24.3018 58.6278C23.391 58.3596 21.4252 57.3262 20.9432 57.0682L21.3972 59.1075L21.9031 58.2032L22.9879 58.1385L22.9856 58.1382ZM16.4073 48.201L17.2202 48.616C17.159 48.2604 17.1346 47.9962 17.145 47.8063L16.3175 48.115L16.4073 48.201Z" fill="#F6AC1F"/>
<path d="M29.151 59.4975L29.5464 57.1318L29.6422 56.5588C28.5838 56.7202 27.3539 56.323 26.1146 55.3021C23.1707 52.8751 21.2935 47.8587 21.9223 44.0961C22.1584 42.6831 22.7151 41.6454 23.4748 41.0344L19.6431 39.786C19.6727 39.8501 19.7071 39.9127 19.7473 39.9691L20.3994 40.8374C20.391 40.8596 20.3844 40.8846 20.3756 40.9091C20.1984 40.9079 20.0273 40.9124 20.0273 40.9124C20.0273 40.9124 19.5328 41.1822 19.0558 41.7435C18.5787 42.3049 17.6836 43.6266 17.6836 43.6266C17.6836 43.6266 17.5744 46.9698 17.4171 47.7123C17.2603 48.4525 18.3075 51.769 18.4273 52.397C18.5471 53.0249 20.9599 56.7896 20.9599 56.7896C20.9599 56.7896 23.3686 58.0887 24.3765 58.3849C24.8252 58.5166 25.641 58.6459 26.4043 58.7498L26.4047 59.54C26.4045 59.8239 26.5712 60.1427 26.7756 60.2502L27.2576 59.7582C27.462 59.8657 27.6278 59.7231 27.6279 59.4393L28.0507 59.2024C28.427 59.3434 28.7936 59.4425 29.1553 59.5006L29.151 59.4975Z" fill="#F6AC1F"/>
<path d="M26.818 60.5623L26.6485 60.4725C26.3593 60.3201 26.1405 59.9169 26.1406 59.5337L26.1405 58.9683C25.2806 58.8482 24.6612 58.7329 24.2984 58.625C23.2771 58.3242 20.9332 57.0619 20.8331 57.0097L20.7745 56.9786L20.7388 56.923C20.3318 56.2872 18.2934 53.0842 18.1717 52.4394C18.1399 52.2756 18.0327 51.8839 17.9078 51.4278C17.4318 49.69 17.0462 48.2038 17.1619 47.6531C17.3115 46.9424 17.4223 43.6468 17.4231 43.6138L17.4258 43.541L17.4669 43.4792C17.5045 43.424 18.3746 42.1383 18.857 41.5731C19.3602 40.983 19.8789 40.6959 19.8996 40.6852L19.9437 40.6619L19.5393 40.1235C19.4871 40.0532 19.4411 39.9746 19.4036 39.8879L19.1787 39.3654L23.9999 40.9352L23.6307 41.2331C22.8948 41.8292 22.3888 42.8328 22.1707 44.1376C21.5565 47.8127 23.3954 52.7329 26.2734 55.1016C27.4168 56.0449 28.5681 56.4597 29.5996 56.3033L29.9495 56.2482L29.3579 59.7876L29.1071 59.7456C28.7749 59.6948 28.4118 59.6034 28.0658 59.4793L27.8625 59.592C27.8309 59.7665 27.7442 59.9034 27.6153 59.9813C27.5259 60.0349 27.4281 60.054 27.3237 60.0413L26.816 60.5597L26.818 60.5623ZM26.6554 58.5198L26.6561 59.5347C26.6568 59.6578 26.7036 59.7887 26.763 59.8861L27.202 59.4391L27.3584 59.522C27.3611 59.5059 27.3658 59.4783 27.3658 59.4357L27.3651 59.2842L28.0227 58.9162L28.1339 58.9585C28.4009 59.0598 28.6693 59.1379 28.9367 59.1944L29.3293 56.8447C28.2469 56.8957 27.0845 56.4341 25.9472 55.4965C22.945 53.0219 21.0232 47.8892 21.6648 44.0507C21.8705 42.8195 22.3209 41.8232 22.9748 41.1377L20.2895 40.2631L20.6843 40.7879L20.5749 41.089L20.3692 41.1587C20.2653 41.1579 20.161 41.1594 20.0969 41.1606C19.9649 41.2426 19.5996 41.4891 19.2492 41.9012C18.8432 42.3775 18.1174 43.4365 17.9358 43.7019C17.9191 44.2124 17.8128 47.0569 17.6675 47.7565C17.5668 48.2317 18.1121 50.22 18.4065 51.2887C18.5387 51.7721 18.6451 52.1542 18.678 52.3395C18.7572 52.7572 20.2137 55.1391 21.1383 56.5852C21.5095 56.7845 23.5615 57.8678 24.4474 58.1295C24.8106 58.2351 25.4948 58.3589 26.4365 58.4855L26.6585 58.5156L26.6554 58.5198Z" fill="#F6AC1F"/>
<path d="M31.9687 56.4871L31.2329 55.7657C31.2367 55.7427 31.2402 55.7219 31.2444 55.6966C31.3452 55.0937 31.398 54.4662 31.406 53.8241L32.1531 54.1098C32.3575 54.189 32.5052 54.0125 32.4835 53.7179L32.3909 52.418C32.3691 52.1234 32.1875 51.8234 31.9831 51.7442L31.2559 51.4666C31.1561 50.7332 31.0057 49.9913 30.8116 49.2563L31.4315 49.0855C31.6099 49.0372 31.6691 48.7538 31.568 48.453L31.1179 47.1264C31.0168 46.8257 30.7883 46.6219 30.6122 46.6705L30.0072 46.8367C29.7156 46.1185 29.3807 45.4191 29.0124 44.7496L29.4154 44.1925C29.5355 44.0257 29.5004 43.6839 29.3348 43.4291L28.605 42.3042C28.4394 42.0494 28.2077 41.9775 28.0876 42.1443L27.6904 42.6954C27.261 42.1221 26.801 41.5911 26.3133 41.1121L26.4537 40.2722C26.4964 40.0168 26.3688 39.6761 26.1694 39.5103L25.286 38.7807C25.0866 38.6149 24.8898 38.6885 24.8467 38.9462L24.7063 39.7862C24.1979 39.4457 23.6928 39.1839 23.197 38.9946L23.0578 38.0014C23.0157 37.7011 22.8191 37.4199 22.6189 37.3722L21.7356 37.1654C21.5354 37.1178 21.4083 37.326 21.4504 37.6263L21.5919 38.634C21.1163 38.6066 20.6567 38.6528 20.2248 38.7746L19.8148 37.774C19.6937 37.4794 19.4625 37.3059 19.2975 37.3872L18.5644 37.7401C18.3998 37.8191 18.3609 38.1224 18.482 38.4171L18.9019 39.4429C18.5389 39.7182 18.2093 40.0629 17.9157 40.4751L17.2828 39.6336C17.1045 39.398 16.8786 39.3626 16.7757 39.5536L16.3239 40.403C16.221 40.594 16.2811 40.9423 16.4593 41.1779L17.1114 42.0462C16.9308 42.5459 16.7845 43.0963 16.6837 43.6992C16.6799 43.7222 16.676 43.7453 16.6722 43.7683L15.9026 43.2493C15.6986 43.1111 15.5171 43.2204 15.4951 43.4935L15.3987 44.6933C15.3771 44.9641 15.525 45.2963 15.729 45.4345L16.52 45.9664C16.5282 46.6538 16.5858 47.3565 16.6875 48.0643L15.9142 48.006C15.7205 47.9902 15.6126 48.2252 15.6754 48.5291L15.9548 49.8721C16.0175 50.1759 16.2277 50.4334 16.4214 50.4492L17.213 50.5105C17.4156 51.2233 17.6615 51.9315 17.9439 52.6198L17.3143 53.0751C17.1612 53.1844 17.1503 53.5043 17.2875 53.7874L17.8918 55.0405C18.029 55.3236 18.2633 55.4645 18.4141 55.3549L19.0541 54.8941C19.4113 55.5168 19.7992 56.1115 20.2147 56.6683L19.8607 57.5837C19.7774 57.7992 19.8608 58.1491 20.0475 58.3624L20.8733 59.3094C21.06 59.5228 21.2802 59.5217 21.3635 59.3062L21.7184 58.3862C21.9423 58.6034 22.1727 58.8098 22.4074 59.0052C22.6424 59.1982 22.8778 59.3748 23.111 59.5367L23.1097 60.7477C23.1095 61.0315 23.2762 61.3504 23.4806 61.4578L24.3849 61.9354C24.5893 62.0429 24.755 61.9003 24.7552 61.6165L24.7553 60.4124C25.2336 60.5941 25.7022 60.7055 26.1564 60.7483L26.506 62.025C26.5899 62.33 26.8092 62.5606 26.9941 62.5441L27.8203 62.4694C28.0075 62.4533 28.0913 62.1929 28.0097 61.8883L27.6662 60.6316C28.0824 60.519 28.4768 60.3389 28.8398 60.0921L29.4576 61.1936C29.6086 61.4648 29.8441 61.5704 29.9807 61.4324L30.587 60.8193C30.7236 60.6813 30.713 60.3483 30.5597 60.0767L29.9565 59.0013C30.2412 58.6136 30.4915 58.1635 30.6996 57.6542L31.4557 58.3955C31.6509 58.5866 31.8584 58.548 31.9214 58.3125L32.2008 57.2639C32.2642 57.0261 32.1588 56.6798 31.9637 56.4887L31.9687 56.4871ZM22.8262 56.5133C19.8822 54.0863 18.005 49.0698 18.6338 45.3072C19.2627 41.5447 22.1595 40.4605 25.1035 42.8875C28.0479 45.3123 29.9247 50.331 29.2959 54.0936C28.667 57.8561 25.7702 58.9404 22.8262 56.5133Z" fill="#FFD687"/>
<path d="M31.9342 58.267L32.0356 57.8865C31.9965 57.7239 31.9195 57.562 31.8079 57.4511L31.0722 56.7296C31.0761 56.7066 31.0795 56.6859 31.0837 56.6606C31.1845 56.0576 31.2373 55.4302 31.2453 54.7881L31.3542 54.8299C31.3858 54.4851 31.4086 54.1364 31.4133 53.7824L32.1627 54.0685C32.2049 54.085 32.2433 54.082 32.2816 54.079L32.2324 53.3823C32.2107 53.0877 32.029 52.7877 31.8246 52.7086L31.0975 52.4309C30.9977 51.6975 30.8473 50.9556 30.6532 50.2206L31.0326 50.1161C30.9694 49.8145 30.9013 49.5146 30.8216 49.2127L31.295 49.0836L30.9572 48.0904C30.856 47.7896 30.6275 47.5858 30.4515 47.6345L29.8464 47.8007C29.5549 47.0825 29.22 46.3831 28.8516 45.7136L29.252 45.1584C29.173 45.008 29.1017 44.8541 29.0201 44.7056L29.202 44.4522C29.1913 44.4315 29.1852 44.4115 29.1722 44.3904L28.4423 43.2655C28.2767 43.0107 28.0451 42.9389 27.925 43.1057L27.5277 43.6566C27.0984 43.0834 26.6383 42.5523 26.1506 42.0734L26.291 41.2335C26.3337 40.978 26.2061 40.6374 26.0068 40.4716L25.1233 39.742C24.9239 39.5762 24.7271 39.6498 24.6841 39.9075L24.5437 40.7474C24.0352 40.407 23.5302 40.1452 23.0347 39.9535L22.8955 38.9604C22.8535 38.6601 22.6568 38.3788 22.4566 38.3312L21.5734 38.1244C21.5596 38.1221 21.5469 38.1271 21.5327 38.1271L21.5981 38.5851C21.4926 38.5793 21.3913 38.5907 21.2893 38.5926L21.4296 39.593C20.954 39.5656 20.4945 39.6118 20.0625 39.7336L19.6525 38.733C19.5314 38.4384 19.3002 38.2649 19.1352 38.3461L18.5874 38.6094L18.9081 39.394C18.7592 39.5063 18.6211 39.6393 18.4825 39.7746L18.7396 40.4019C18.3766 40.6772 18.047 41.0218 17.7534 41.434L17.1205 40.5926C16.9445 40.3574 16.7163 40.3216 16.6134 40.5126L16.372 40.9666C16.3981 41.023 16.4287 41.0802 16.4651 41.1312L17.1172 41.9995C17.0165 42.276 16.9316 42.5717 16.854 42.8805L16.9491 43.0052C16.7686 43.5049 16.6222 44.0552 16.5215 44.6582C16.5176 44.6812 16.5138 44.7042 16.5099 44.7272L15.7403 44.2083C15.6233 44.1296 15.5175 44.1403 15.4399 44.2078L15.4049 44.6442C15.3833 44.915 15.5312 45.2473 15.7352 45.3855L16.5262 45.9175C16.5344 46.6048 16.592 47.3076 16.6937 48.0153L16.4087 47.9937C16.4369 48.3343 16.4744 48.6764 16.5252 49.0232L15.7827 48.9654L15.961 49.8231C16.0238 50.1269 16.2335 50.3867 16.4276 50.4002L17.2192 50.4616C17.4218 51.1743 17.6677 51.8826 17.9501 52.5708L17.5196 52.882C17.6062 53.1142 17.6878 53.3478 17.782 53.5764L17.3623 53.88L17.898 54.9915C18.0352 55.2746 18.2695 55.4155 18.4203 55.3059L19.0603 54.8451C19.4175 55.4678 19.8054 56.0625 20.221 56.6192L19.9114 57.4239C19.9593 57.491 20.0046 57.5601 20.0525 57.6272L19.8981 58.0272C19.9353 58.1304 19.9843 58.2332 20.056 58.3138L20.8818 59.2609C21.0685 59.4742 21.2887 59.4731 21.372 59.2576L21.7269 58.3376C21.9508 58.5548 22.1812 58.7612 22.4159 58.9566C22.6509 59.1496 22.8863 59.3262 23.1195 59.4881L23.1182 60.6991C23.118 60.983 23.2848 61.3018 23.4892 61.4093L24.3934 61.8868C24.4693 61.9279 24.5364 61.9226 24.5947 61.8992L24.5958 61.3695C24.6514 61.3906 24.7085 61.4025 24.7645 61.4213L24.7665 60.3619C25.2448 60.5436 25.7134 60.655 26.1676 60.6978L26.5172 61.9745C26.6011 62.2795 26.8204 62.5101 27.0052 62.4936L27.7379 62.4269L27.5093 61.5867C27.6482 61.5484 27.7805 61.4925 27.9121 61.4412L27.6774 60.5811C28.0936 60.4685 28.488 60.2884 28.851 60.0415L29.4688 61.1431C29.6198 61.4143 29.8553 61.5199 29.9919 61.3819L30.3791 60.99L29.7996 59.9564C29.9377 59.7666 30.0686 59.5638 30.1903 59.3452L29.9676 58.9508C30.2524 58.5631 30.5027 58.1129 30.7108 57.6036L31.4669 58.345C31.662 58.5361 31.8696 58.4975 31.9349 58.2624L31.9342 58.267ZM29.1374 55.0579C28.5086 58.8205 25.6118 59.9047 22.6678 57.4777C19.7238 55.0506 17.8465 50.0342 18.4754 46.2716C18.5042 46.099 18.5427 45.9398 18.5815 45.7784C18.5985 45.6062 18.6181 45.432 18.6461 45.264C19.275 41.5015 22.1718 40.4173 25.1158 42.8443C28.0598 45.2713 29.937 50.2878 29.3082 54.0504C29.2793 54.223 29.2409 54.3821 29.2021 54.5436C29.1851 54.7158 29.1655 54.8899 29.1374 55.0579Z" fill="#FFF8EE"/>
<path d="M26.9019 62.7956C26.6281 62.7499 26.3651 62.4693 26.2625 62.0926L25.9603 60.9847C25.6523 60.9451 25.3355 60.8732 25.0187 60.773L25.0195 61.6176C25.0182 61.8658 24.9234 62.0652 24.7577 62.1652C24.613 62.2522 24.4358 62.251 24.2705 62.1642L23.3663 61.6867C23.0772 61.5343 22.8583 61.131 22.8608 60.7482L22.8613 59.6696C22.6519 59.521 22.4483 59.3664 22.2508 59.2033C22.1117 59.0878 21.969 58.9646 21.8275 58.8345L21.6102 59.399C21.5434 59.5723 21.4102 59.6897 21.2445 59.7187C21.0542 59.7532 20.8513 59.6648 20.6888 59.4768L19.863 58.5298C19.6131 58.242 19.5128 57.7947 19.6299 57.4902L19.931 56.7079C19.5978 56.2524 19.2785 55.7709 18.9815 55.2694L18.5725 55.5654C18.4597 55.6459 18.3224 55.6749 18.1847 55.6354C17.9806 55.5823 17.792 55.4089 17.669 55.1541L17.0646 53.9012C16.8696 53.4972 16.9173 53.0556 17.1732 52.869L17.6414 52.5309C17.408 51.9454 17.2023 51.3505 17.0254 50.7532L16.4113 50.7049C16.0949 50.6875 15.802 50.3452 15.7139 49.9236L15.4346 48.5806C15.3783 48.3087 15.4244 48.0609 15.5614 47.9064C15.6605 47.7952 15.7951 47.7396 15.9447 47.7504L16.4023 47.7867C16.3297 47.2163 16.2889 46.6536 16.2761 46.1073L15.5977 45.651C15.317 45.4621 15.127 45.0424 15.1548 44.678L15.2512 43.4783C15.2685 43.247 15.3768 43.0664 15.5468 42.9836C15.7037 42.9081 15.8916 42.93 16.0577 43.0406L16.4975 43.3389C16.5844 42.9039 16.6966 42.4874 16.831 42.0935L16.2621 41.3361C16.0244 41.0172 15.9556 40.5657 16.1065 40.2858L16.5606 39.4368C16.6405 39.2845 16.7794 39.1895 16.9397 39.1784C17.1388 39.162 17.3424 39.2741 17.4992 39.4825L17.9266 40.053C18.135 39.7969 18.3603 39.5672 18.602 39.3664L18.2541 38.5181C18.0775 38.0888 18.1663 37.6566 18.4621 37.5144L19.193 37.1611C19.3088 37.1048 19.4465 37.1017 19.5754 37.1517C19.7733 37.2273 19.9531 37.4253 20.0592 37.682L20.383 38.4765C20.678 38.4099 20.9864 38.3763 21.3013 38.3745L21.2019 37.6672C21.164 37.3983 21.229 37.1654 21.3798 37.0274C21.4941 36.9235 21.6472 36.8852 21.7998 36.9202L22.6854 37.1274C22.9907 37.1973 23.2636 37.5599 23.3202 37.9715L23.4391 38.817C23.8 38.9648 24.1643 39.1487 24.5251 39.3675L24.6017 38.9095C24.6374 38.6955 24.7564 38.5356 24.9256 38.4717C25.0948 38.4077 25.2889 38.4495 25.4572 38.5889L26.341 39.3161C26.6133 39.5414 26.7734 39.9703 26.7153 40.3178L26.5965 41.0289C26.973 41.4088 27.3387 41.8248 27.6922 42.2718L27.8891 41.9995C27.9816 41.8707 28.1235 41.7998 28.2765 41.8041C28.4818 41.8077 28.6816 41.9427 28.8303 42.171L29.5624 43.2964C29.7881 43.644 29.819 44.0963 29.6371 44.3497L29.3293 44.7761C29.6363 45.3454 29.9206 45.9371 30.1727 46.5375L30.5571 46.4314C30.8716 46.3468 31.2248 46.6116 31.3735 47.0528L31.8258 48.3798C31.9147 48.6406 31.91 48.9095 31.8098 49.0985C31.7442 49.2224 31.6398 49.309 31.5159 49.3427L31.1391 49.4454C31.2934 50.0649 31.4175 50.6818 31.5054 51.2879L32.0902 51.5109C32.3882 51.6246 32.6339 52.0087 32.6621 52.4061L32.7548 53.7061C32.7731 53.9646 32.694 54.1832 32.5324 54.3005C32.4027 54.3971 32.2366 54.4143 32.0763 54.3544L31.6648 54.1981C31.645 54.7128 31.5949 55.2107 31.5188 55.6805L32.1571 56.3053C32.4193 56.562 32.5515 57.0028 32.4639 57.3288L32.1846 58.3774C32.1331 58.5722 32.0057 58.7117 31.8373 58.7569C31.6566 58.8048 31.4568 58.7407 31.29 58.5779L30.8 58.0986C30.643 58.4295 30.4683 58.7386 30.2749 59.0186L30.798 59.9505C31.0096 60.3265 31.0028 60.7772 30.7837 60.9984L30.1774 61.6115C30.0723 61.7169 29.9342 61.7648 29.7861 61.7448C29.5709 61.7301 29.3838 61.5617 29.247 61.3188L28.7622 60.4548C28.5182 60.5985 28.2596 60.7161 27.9937 60.8065L28.2732 61.8231C28.3483 62.0959 28.3198 62.3513 28.2009 62.5254C28.1195 62.6443 27.9986 62.7163 27.8621 62.7266L27.0358 62.8014C26.9948 62.8064 26.9549 62.8045 26.9158 62.7979L26.9019 62.7956ZM26.3636 60.5104L26.7581 61.9579C26.8152 62.1685 26.9451 62.2824 26.9843 62.289L27.8032 62.2153C27.7825 62.2118 27.811 62.1125 27.7681 61.9587L27.3575 60.4518L27.6054 60.3844C27.9943 60.2791 28.3634 60.109 28.7022 59.8793L28.9343 59.7218L29.689 61.0662C29.7549 61.1813 29.827 61.2312 29.85 61.2351L30.4115 60.6358C30.4414 60.5982 30.4576 60.4022 30.3422 60.2008L29.6589 58.9818L29.7567 58.8492C30.0323 58.4742 30.2726 58.0412 30.4692 57.5584L30.6136 57.204L31.6423 58.211C31.6787 58.2478 31.7051 58.2593 31.712 58.2605L31.9607 57.1974C31.9972 57.0639 31.9333 56.8095 31.7907 56.6722L30.9594 55.8567L30.9929 55.6565C31.0887 55.0835 31.1441 54.4683 31.1525 53.8239L31.1573 53.4556L32.2334 53.8673C32.2265 53.852 32.2361 53.8086 32.2311 53.7392L32.1363 52.4389C32.1214 52.2164 31.9792 52.0199 31.8948 51.9869L31.0254 51.6547L31.0055 51.5047C30.9072 50.7904 30.7599 50.0585 30.5677 49.3262L30.5022 49.0811L31.3673 48.8448C31.3673 48.8448 31.3884 48.7182 31.3275 48.5448L30.8751 47.2179C30.8119 47.0299 30.6976 46.9351 30.6631 46.9293L29.8567 47.1541L29.7713 46.9435C29.4847 46.238 29.1536 45.5439 28.7888 44.8821L28.7109 44.739L29.2095 44.0488C29.2495 43.9939 29.2446 43.7684 29.1204 43.5773L28.3882 42.452C28.3223 42.3511 28.2633 42.3223 28.2495 42.32L27.6918 43.1375L27.4828 42.859C27.0531 42.288 26.5988 41.765 26.1319 41.3037L26.0364 41.2097L26.1991 40.2362C26.2268 40.0706 26.1336 39.8208 26.0044 39.7165L25.1206 38.9891C25.1206 38.9891 25.1084 38.9777 25.1019 38.9742C25.1007 38.9811 25.0996 38.988 25.098 38.9972L24.8922 40.2284L24.5625 40.0077C24.077 39.6853 23.5881 39.4261 23.1056 39.2414L22.9656 39.1873L22.8043 38.0438C22.7733 37.8186 22.6272 37.6451 22.5613 37.6294L21.6914 37.4272C21.7056 37.4414 21.691 37.5005 21.7032 37.5972L21.8898 38.9152L21.578 38.8986C21.1304 38.8734 20.6973 38.917 20.2953 39.0296L20.0743 39.092L19.5789 37.8809C19.5084 37.7082 19.4087 37.6395 19.3815 37.6326L18.6801 37.979C18.6725 37.9966 18.6482 38.1416 18.7237 38.3269L19.2172 39.5354L19.0603 39.6535C18.7161 39.9153 18.401 40.2435 18.1285 40.6285L17.9243 40.9161L17.0806 39.7933C17.0246 39.7177 16.9763 39.6955 16.9648 39.6935L16.5529 40.5307C16.511 40.6112 16.5343 40.8541 16.6681 41.0302L17.4033 42.0094L17.3553 42.1409C17.1752 42.6383 17.0349 43.1803 16.9399 43.7487L16.8742 44.1422L16.5332 43.9882L15.766 43.4697C15.7683 43.4559 15.7652 43.4459 15.7575 43.5203L15.6611 44.7201C15.6449 44.9161 15.7621 45.1486 15.8768 45.2269L16.7783 45.8341L16.7794 45.9691C16.7887 46.6354 16.8428 47.3304 16.9453 48.0335L16.9916 48.3512L15.9007 48.2682C15.9261 48.2724 15.9049 48.3565 15.9309 48.4838L16.2103 49.8268C16.2578 50.0524 16.3977 50.1917 16.4461 50.1997L17.4153 50.2742L17.4647 50.4457C17.6623 51.1458 17.9071 51.8467 18.1857 52.5296L18.263 52.7176L17.4692 53.2922C17.4508 53.3175 17.4269 53.4885 17.5219 53.6842L18.1263 54.9372C18.1968 55.0815 18.2815 55.1406 18.3069 55.1448L19.1387 54.5269L19.2817 54.7755C19.6331 55.3902 20.0176 55.9772 20.4232 56.5228L20.5082 56.6364L20.1039 57.683C20.059 57.7961 20.1114 58.0485 20.2444 58.2009L21.0702 59.1479C21.1258 59.2116 21.1622 59.22 21.1622 59.22L21.622 57.9414L21.9011 58.2104C22.1292 58.4307 22.3554 58.6341 22.5759 58.8153C22.7963 58.9964 23.0272 59.1722 23.263 59.3322L23.3731 59.4098L23.3724 60.758C23.3716 60.9613 23.4977 61.1835 23.6062 61.2418L24.4975 61.7125C24.5002 61.6963 24.5048 61.6688 24.5048 61.6262L24.5055 60.0509L24.8526 60.1822C25.3066 60.3527 25.7588 60.4638 26.1876 60.5023L26.3644 60.52L26.3636 60.5104ZM25.2881 58.0148C24.4344 57.8721 23.5427 57.4322 22.6651 56.7106C19.6628 54.236 17.7415 49.101 18.3826 45.2648C18.7026 43.3502 19.6004 42.0265 20.9124 41.5361C22.2245 41.0457 23.7716 41.4557 25.2685 42.6899C28.2708 45.1645 30.1921 50.2996 29.551 54.1358C29.231 56.0504 28.3332 57.3741 27.0212 57.8645C26.476 58.0691 25.8907 58.1179 25.2854 58.0167L25.2881 58.0148ZM22.9913 56.3157C24.3406 57.4283 25.7082 57.8082 26.8415 57.3826C27.9743 56.9593 28.7562 55.7771 29.0447 54.0511C29.6589 50.376 27.82 45.4559 24.9423 43.0849C23.5931 41.9723 22.2254 41.5923 21.0921 42.018C19.9593 42.4413 19.177 43.6258 18.8886 45.3517C18.2743 49.0268 20.1132 53.947 22.9913 56.3157Z" fill="#F6AC1F"/>
<path d="M21.4373 37.9575L20.1289 38.5234L20.3327 38.9945L21.6411 38.4286L21.4373 37.9575Z" fill="#F6AC1F"/>
<path d="M23.0282 36.3837L21.4766 36.9639L21.6563 37.4446L23.208 36.8644L23.0282 36.3837Z" fill="#F6AC1F"/>
<path d="M26.3789 37.5673L23.0957 38.7793L23.2735 39.2608L26.5567 38.0488L26.3789 37.5673Z" fill="#F6AC1F"/>
<path d="M26.8903 37.7043L24.9941 38.4092L25.173 38.8903L27.0691 38.1854L26.8903 37.7043Z" fill="#F6AC1F"/>
<path d="M29.5425 39.5954L26.2598 40.8086L26.4377 41.2901L29.7205 40.0769L29.5425 39.5954Z" fill="#F6AC1F"/>
<path d="M30.6183 40.9061L28.1836 41.8228L28.3645 42.3031L30.7991 41.3864L30.6183 40.9061Z" fill="#F6AC1F"/>
<path d="M32.2025 43.3161L28.9199 44.5298L29.0979 45.0112L32.3805 43.7975L32.2025 43.3161Z" fill="#F6AC1F"/>
<path d="M33.7867 45.2693L30.5039 46.4824L30.6818 46.9639L33.9646 45.7507L33.7867 45.2693Z" fill="#F6AC1F"/>
<path d="M34.0162 47.8466L31.3457 48.8521L31.5266 49.3324L34.197 48.327L34.0162 47.8466Z" fill="#F6AC1F"/>
<path d="M34.4879 49.9514L31.2051 51.1646L31.383 51.646L34.6658 50.4329L34.4879 49.9514Z" fill="#F6AC1F"/>
<path d="M34.5526 53.0497L32.248 53.9014L32.426 54.3828L34.7305 53.5312L34.5526 53.0497Z" fill="#F6AC1F"/>
<path d="M34.4058 54.3611L31.123 55.5742L31.301 56.0557L34.5838 54.8425L34.4058 54.3611Z" fill="#F6AC1F"/>
<path d="M33.2334 57.6759L31.6289 58.2612L31.8048 58.7434L33.4093 58.1581L33.2334 57.6759Z" fill="#F6AC1F"/>
<path d="M30.0547 59.2373L29.8647 58.7608L31.364 58.155L31.554 58.6315L30.0547 59.2373Z" fill="#F6AC1F"/>
</svg>
