<svg width="61" height="60" viewBox="0 0 61 60" fill="none" xmlns="http://www.w3.org/2000/svg">
<path d="M0.417969 41.1929C0.417969 41.1581 0.417969 41.1232 0.417969 41.0913V34.2111L6.48462 33.6009V35.8033L22.7815 26.3953C25.6056 24.7653 29.8767 24.5881 32.3231 26.0002L53.1787 37.9533L52.9579 36.7911H60.3785V43.4592C60.425 44.5691 59.6318 45.7517 58.0454 46.6669L38.015 58.2336C35.1908 59.8636 30.9198 60.0408 28.4734 58.6288L2.06828 43.4708C1.01359 42.8636 0.47317 42.0588 0.423777 41.2104V41.1959L0.417969 41.1929Z" fill="#FFD687"/>
<path d="M28.2637 58.9798L1.85861 43.8218C0.870741 43.2524 0.246063 42.4795 0.0630175 41.6137H0.0078125V41.2011C0.0078125 41.172 0.0078125 41.1401 0.0078125 41.0878V33.8386L6.89091 33.1471V35.0938L22.5747 26.0374C25.5064 24.3435 29.9692 24.1691 32.5231 25.6422L41.7568 30.9389L41.6086 30.1632L60.7819 36.3751V43.4325C60.8371 44.7429 59.9102 46.0504 58.2425 47.0121L38.2121 58.5759C36.614 59.4999 34.5599 59.9705 32.6103 59.9705C30.9832 59.9705 29.4259 59.6422 28.2637 58.9711V58.9798ZM53.4484 37.1973L53.7448 38.7489L32.1164 26.3541C29.7862 25.0088 25.6923 25.1861 22.9844 26.7492L6.07447 36.5116V34.0536L0.827158 34.5824V41.1343V41.1837C0.87074 41.9304 1.37049 42.5986 2.26828 43.1158L28.6734 58.2737C31.0036 59.619 35.1003 59.4417 37.8053 57.8786L57.8357 46.3118C59.2304 45.507 60.009 44.4727 59.9654 43.4587V37.2002H53.4484V37.1973Z" fill="#F6AC1F"/>
<path d="M36.3432 58.9746C35.6662 59.2041 34.9515 59.3668 34.2309 59.4656L23.3789 37.7529H25.4912L36.3432 58.9746Z" fill="#F6AC1F"/>
<path d="M22.9688 37.3428H25.9004L36.7524 59.2676L36.4764 59.3606C35.7878 59.593 35.0527 59.7644 34.2856 59.869L33.8207 59.9329L22.9688 37.3428ZM25.081 38.1592H23.7852L34.6372 58.9887C35.0846 58.9102 35.5175 58.8056 35.933 58.6778L25.081 38.1621V38.1592Z" fill="#F6AC1F"/>
<path d="M6.47977 35.8116L22.7766 26.4036C25.6008 24.7736 29.8718 24.5964 32.3183 26.0085L21.3065 36.7384L32.0975 59.5726C30.7348 59.5116 29.4506 59.2036 28.4656 58.6342L2.06052 43.4762C1.00583 42.869 0.465409 42.0642 0.416016 41.2158V41.2012C0.416016 41.1664 0.416016 41.1315 0.416016 41.0996V34.2194L6.48267 33.6092V35.8116H6.47977Z" fill="#F6AC1F"/>
<path d="M32.0786 59.98C30.5881 59.9132 29.269 59.5704 28.2637 58.9893L1.85861 43.8313C0.86784 43.259 0.240254 42.4803 0.0601136 41.6115L0.0078125 41.2251C0.0078125 41.1932 0.0078125 41.1612 0.0078125 41.1002V33.851L6.89091 33.1595V35.1062L22.5747 26.0498C25.5064 24.3588 29.9692 24.1786 32.5231 25.6546L32.9909 25.9248L21.7147 36.9134L32.5028 60.0004L32.0786 59.98ZM22.9815 26.7587L6.07157 36.5211V34.0631L0.824254 34.5919V41.1438V41.1932C0.870742 41.9399 1.37049 42.6081 2.26828 43.1253L28.6734 58.2832C29.4724 58.7452 30.5096 59.0387 31.6922 59.1374L20.9012 36.5676L31.6282 26.1166C29.2486 25.0503 25.5122 25.303 22.9844 26.7616L22.9815 26.7587Z" fill="#F6AC1F"/>
<path d="M2.06012 36.7355L28.4652 51.8934C30.9116 53.3055 35.1827 53.1283 38.0068 51.4983L58.0372 39.9315C60.8614 38.3015 61.1665 35.8348 58.7229 34.4227L32.3179 19.2648C29.8714 17.8527 25.6004 18.03 22.7762 19.6599L2.74582 31.2238C-0.0783151 32.8538 -0.383391 35.3205 2.06012 36.7326V36.7355Z" fill="#FFF8EE"/>
<path d="M28.2617 52.2481L1.85661 37.0902C0.659545 36.3987 0 35.4224 0 34.3445C0 33.0719 0.926852 31.808 2.5394 30.8753L22.5698 19.3115C25.5015 17.6176 29.9643 17.4404 32.5182 18.9163L58.9233 34.0743C60.1203 34.7658 60.7799 35.7391 60.7799 36.82C60.7799 38.0926 59.853 39.3564 58.2405 40.2891L38.2101 51.8558C36.612 52.7798 34.5579 53.2505 32.6083 53.2505C30.9812 53.2505 29.4239 52.9222 28.2617 52.251V52.2481ZM22.9824 20.0175L2.95198 31.5814C1.59802 32.3629 0.819349 33.3711 0.819349 34.3445C0.819349 35.1202 1.33362 35.8437 2.26628 36.3841L28.6713 51.5421C30.9986 52.8873 35.0954 52.7101 37.8033 51.1469L57.8337 39.5802C59.1877 38.7986 59.9663 37.7904 59.9663 36.817C59.9663 36.0413 59.4521 35.3178 58.5194 34.7803L32.1144 19.6224C31.0655 19.0151 29.6563 18.7188 28.1774 18.7188C26.376 18.7188 24.47 19.1604 22.9824 20.0175Z" fill="#F6AC1F"/>
<path d="M3.09769 37.7817H2.28125V43.3545H3.09769V37.7817Z" fill="#FFD687"/>
<path d="M30.0664 52.9053H29.25V58.478H30.0664V52.9053Z" fill="#FFD687"/>
<path d="M5.80768 43.5464C5.15395 43.1687 4.64258 42.2825 4.64258 41.5271C4.64258 41.0855 4.81982 40.7281 5.1278 40.5509C5.43578 40.3736 5.83092 40.3969 6.21445 40.6177C6.86818 40.9954 7.37955 41.8816 7.37955 42.637C7.37955 43.0786 7.20231 43.436 6.89433 43.6133C6.75777 43.6917 6.60378 43.7324 6.44108 43.7324C6.23769 43.7324 6.01978 43.6714 5.80477 43.5464H5.80768ZM5.53747 41.2598C5.51132 41.2743 5.46193 41.3499 5.46193 41.5271C5.46193 41.992 5.8164 42.6051 6.21736 42.8375C6.37135 42.9276 6.46141 42.9217 6.48756 42.9043C6.51371 42.8898 6.56311 42.8142 6.56311 42.637C6.56311 42.1721 6.20864 41.5591 5.80768 41.3266C5.70599 41.2685 5.63045 41.2511 5.58396 41.2511C5.56071 41.2511 5.54619 41.254 5.53747 41.2598Z" fill="#FFD687"/>
<path d="M8.82031 43.7066C8.82031 44.3197 9.25032 45.0635 9.78203 45.3715C10.3137 45.6765 10.7437 45.4296 10.7437 44.8165C10.7437 44.2035 10.3137 43.4596 9.78203 43.1517C9.25032 42.8466 8.82031 43.0936 8.82031 43.7066Z" fill="#FFD687"/>
<path d="M14.1026 48.3482C13.4489 47.9705 12.9375 47.0843 12.9375 46.3289C12.9375 45.8872 13.1147 45.5299 13.4227 45.3526C13.7307 45.1754 14.1288 45.1986 14.5094 45.4195C15.1631 45.7972 15.6745 46.6833 15.6745 47.4388C15.6745 47.8804 15.4972 48.2378 15.1893 48.415C15.0527 48.4935 14.8987 48.5341 14.736 48.5341C14.5326 48.5341 14.3147 48.4702 14.0997 48.3482H14.1026ZM13.8324 46.0616C13.8062 46.0761 13.7568 46.1516 13.7568 46.3289C13.7568 46.7938 14.1113 47.4068 14.5123 47.6392C14.6663 47.7264 14.7563 47.7206 14.7825 47.7061C14.8086 47.6915 14.858 47.616 14.858 47.4359C14.858 46.971 14.5065 46.3579 14.1026 46.1255C14.0009 46.0674 13.9254 46.0499 13.8789 46.0499C13.8556 46.0499 13.8411 46.0529 13.8324 46.0587V46.0616Z" fill="#FFD687"/>
<path d="M8.20997 46.5224L7.80273 47.23L27.9714 58.8369L28.3786 58.1292L8.20997 46.5224Z" fill="#FFD687"/>
<path d="M5.46085 34.65L31.5696 49.6249C32.5226 50.174 34.1845 50.1043 35.2857 49.4709L55.0488 38.0291C56.1471 37.3957 56.2691 36.434 55.3161 35.8848L29.2074 20.91C28.2544 20.3608 26.5925 20.4306 25.4913 21.064L5.72816 32.5058C4.62988 33.1392 4.50785 34.1009 5.46085 34.65Z" fill="#FFD687"/>
<path d="M31.3663 49.9824L5.25761 35.0075C4.71138 34.6908 4.41211 34.2346 4.41211 33.7233C4.41211 33.1363 4.81888 32.564 5.52491 32.1572L25.288 20.7154C26.5171 20.0064 28.3272 19.9367 29.4109 20.5614L55.5196 35.5363C56.0659 35.8501 56.3651 36.3091 56.3651 36.8205C56.3651 37.4074 55.9584 37.9798 55.2523 38.3866L35.4892 49.8284C34.8238 50.2119 33.9871 50.4095 33.1881 50.4095C32.5111 50.4095 31.8632 50.27 31.3663 49.9824ZM25.6948 21.4185L5.93168 32.8603C5.49005 33.116 5.22565 33.4356 5.22565 33.7203C5.22565 33.9876 5.4639 34.1823 5.66438 34.2985L31.7731 49.2734C32.5953 49.747 34.112 49.6773 35.0795 49.1194L54.8427 37.6776C55.2843 37.4219 55.5487 37.1023 55.5487 36.8176C55.5487 36.5503 55.3104 36.3556 55.11 36.2394L29.0013 21.2645C28.6323 21.0524 28.1296 20.9478 27.5979 20.9478C26.9384 20.9478 26.2323 21.1076 25.6977 21.4185H25.6948Z" fill="#F6AC1F"/>
<path d="M55.3848 37.8577C55.3587 37.8402 55.3412 37.8228 55.3151 37.8083L29.2064 22.8334C28.2534 22.2843 26.5915 22.354 25.4903 22.9874L5.72715 34.4292C5.60221 34.5018 5.4918 34.5803 5.39011 34.6587C4.52428 34.1038 4.65793 33.1827 5.72715 32.5639L25.4903 21.1221C26.5885 20.4887 28.2534 20.4189 29.2064 20.9681L55.3151 35.943C56.1577 36.4311 56.1577 37.2359 55.3848 37.8577Z" fill="#F6AC1F"/>
<path d="M46.213 36.1638L46.2013 34.2578L44.3389 34.2491L34.5561 28.5776C33.0976 27.7321 30.5437 27.8338 28.8556 28.8042L19.834 33.9934C19.7614 34.037 19.6888 34.0806 19.6219 34.1242L18.4336 34.1184V35.8849C18.4452 36.4108 18.7677 36.9105 19.4156 37.2854L30.0875 43.4711C31.5461 44.3166 34.1 44.2149 35.7881 43.2445L44.8096 38.0553C45.7481 37.5149 46.2217 36.8205 46.2071 36.1638H46.213Z" fill="#FFD687"/>
<path d="M32.5782 44.0809C31.6368 44.0809 30.739 43.8921 30.0707 43.5027L19.3989 37.317C18.78 36.9567 18.4255 36.4627 18.3965 35.9223V35.8816V34.0773L19.611 34.0831C19.6865 34.0338 19.7504 33.996 19.8144 33.9582L28.8359 28.769C30.5327 27.7928 33.1099 27.6911 34.5771 28.5424L44.3512 34.2081L46.2427 34.2168L46.2543 36.2012C46.2485 36.884 45.7342 37.5697 44.8364 38.0869L35.8149 43.2761C34.8909 43.8078 33.7055 44.0809 32.5811 44.0809H32.5782ZM18.4749 35.8613V35.8845C18.4866 36.4133 18.8294 36.8986 19.4395 37.253L30.1114 43.4388C31.5583 44.2785 34.0977 44.1768 35.7742 43.2122L44.7957 38.023C45.6877 37.5116 46.1875 36.8346 46.1729 36.1664V36.1257L46.1642 34.2982L44.3309 34.2894L44.3221 34.2836L34.5394 28.6121C33.0924 27.7724 30.553 27.8741 28.8766 28.8387L19.855 34.0279C19.7882 34.0657 19.7214 34.1064 19.6458 34.1587L19.6371 34.1645L18.4778 34.1587V35.8613H18.4749Z" fill="#F6AC1F" stroke="#F6AC1F" stroke-width="6.51" stroke-miterlimit="10"/>
<path d="M30.0914 41.705L19.4195 35.5192C17.961 34.6737 18.144 33.2007 19.835 32.2273L28.8566 27.0381C30.5446 26.0677 33.0986 25.966 34.5571 26.8115L45.229 32.9973C46.6875 33.8428 46.5045 35.3159 44.8135 36.2892L35.7919 41.4784C34.1039 42.4488 31.5499 42.5505 30.0914 41.705Z" fill="#FFD687"/>
<path d="M45.0909 33.7089L34.573 27.6132C33.1348 26.7793 30.6187 26.8781 28.9538 27.8369L20.0601 32.9506C19.2989 33.3893 18.8485 33.9297 18.7207 34.4672V35.0948C18.8224 35.5074 19.1304 35.8909 19.6505 36.1931L30.1683 42.2888C31.6065 43.1227 34.1227 43.0239 35.7875 42.0651L44.6812 36.9514C45.4105 36.533 45.8551 36.0188 46.0032 35.5016V34.7404C45.887 34.3539 45.5819 33.9936 45.088 33.7089H45.0909Z" fill="#FFF7EE"/>
<path d="M32.5782 42.3148C31.6368 42.3148 30.739 42.126 30.0708 41.7366L19.3989 35.5508C18.751 35.176 18.3936 34.656 18.3965 34.0865C18.3965 33.4008 18.9137 32.7093 19.8144 32.1921L28.8359 27.0029C30.5327 26.0267 33.1099 25.925 34.5772 26.7763L45.249 32.9621C45.8969 33.3369 46.2543 33.8569 46.2514 34.4264C46.2514 35.1121 45.7342 35.8036 44.8335 36.3208L35.812 41.51C34.888 42.0417 33.7026 42.3148 32.5782 42.3148ZM32.0726 26.2794C30.9627 26.2794 29.7918 26.5496 28.8766 27.0726L19.8551 32.2618C18.9805 32.7645 18.4779 33.4298 18.475 34.0865C18.475 34.6269 18.8178 35.1237 19.4396 35.484L30.1114 41.6698C31.5584 42.5095 34.0978 42.4078 35.7742 41.4432L44.7958 36.254C45.6703 35.7513 46.173 35.086 46.1759 34.4293C46.1759 33.8889 45.833 33.3921 45.2112 33.0318L34.5394 26.846C33.8827 26.4654 32.9995 26.2765 32.0726 26.2765V26.2794Z" fill="#F6AC1F" stroke="#F6AC1F" stroke-width="6.51" stroke-miterlimit="10"/>
<path d="M33.1602 42.2385V44.0196L34.4153 43.7988L35.2637 43.5053L45.061 37.9006L45.4852 37.5752L45.8688 37.151L46.1012 36.7355L46.2494 36.2038L46.1709 34.8237L45.9036 35.338L45.5346 35.7622L45.0436 36.1457L35.7896 41.4773L35.1911 41.7708L34.4763 42.0177L33.8226 42.1659L33.1602 42.2385Z" fill="#F6AC1F"/>
<path d="M32.4781 42.276V44.0425L31.897 44.0077L31.4844 43.9525V42.1743L32.0858 42.2615L32.4781 42.276Z" fill="#F6AC1F"/>
<path d="M33.403 34.0181L32.1159 33.2655C31.8282 33.097 31.3633 33.097 31.0757 33.2597L29.7828 33.9977C29.4951 34.1633 29.4922 34.4306 29.7799 34.5992L31.067 35.3517C31.3546 35.5202 31.8195 35.5202 32.1072 35.3575L32.5197 35.1221L33.1473 35.4882C33.496 35.6916 34.0655 35.6945 34.4141 35.4941L35.9569 34.6137C36.3085 34.4132 36.3085 34.0849 35.9598 33.8815L33.005 32.1556C32.8364 32.0569 32.6127 32.0017 32.3745 32.0017L29.1988 31.9813C28.9605 31.9813 28.7281 32.0336 28.5625 32.1295L25.9853 33.5997C25.6337 33.8002 25.6337 34.1285 25.9824 34.3319L31.7992 37.7284C32.1478 37.9318 32.7173 37.9347 33.066 37.7342L38.6067 34.573C38.9583 34.3725 38.9583 34.0442 38.6096 33.8408L34.0015 31.1503C33.833 31.0516 33.5977 30.9964 33.3594 30.9964L28.4201 31.0022C28.1847 31.0022 27.9639 31.0545 27.7954 31.1503L23.5273 33.5851C23.1757 33.7856 23.1757 34.1139 23.5243 34.3173L31.7149 39.0998C32.0636 39.3031 32.633 39.3061 32.9817 39.1056L40.9863 34.5381C41.3379 34.3377 41.3379 34.0093 40.9892 33.806L34.7947 30.1886C34.6262 30.0898 34.3909 30.0346 34.1526 30.0346L27.7315 30.0463C27.4962 30.0463 27.2753 30.0986 27.1068 30.1944L21.1273 33.6055C20.7758 33.806 20.7758 34.1343 21.1244 34.3377L31.7004 40.5147C32.049 40.7181 32.6185 40.721 32.9672 40.5205L43.4618 34.5323C43.8134 34.3319 43.8134 34.0035 43.4647 33.8002L32.8713 27.6144C32.5343 27.4168 31.9793 27.4139 31.6394 27.6086L30.5992 28.2042C30.3493 28.3466 30.2738 28.5616 30.4074 28.7533C30.544 28.9422 30.8578 29.0671 31.2152 29.0671L34.3415 29.0729L42.9475 34.0994C43.0114 34.1372 43.0114 34.1982 42.9475 34.236L32.4529 40.2242C32.389 40.262 32.2815 40.262 32.2176 40.2242L21.6416 34.0471C21.5777 34.0093 21.5777 33.9483 21.6416 33.9106L27.6211 30.4995C27.653 30.4821 27.6937 30.4705 27.7373 30.4705L34.1584 30.4559C34.202 30.4559 34.2456 30.4676 34.2776 30.485L40.472 34.1023C40.536 34.1401 40.536 34.2011 40.472 34.2389L32.4674 38.8063C32.4035 38.8441 32.296 38.8441 32.2321 38.8063L24.0415 34.0239C23.9776 33.9861 23.9776 33.9251 24.0415 33.8873L28.3097 31.4525C28.3416 31.4351 28.3823 31.4264 28.4259 31.4235L33.3652 31.4177C33.4088 31.4177 33.4524 31.4293 33.4844 31.4467L38.0925 34.1372C38.1564 34.175 38.1564 34.236 38.0925 34.2737L32.5517 37.4349C32.4878 37.4727 32.3803 37.4727 32.3164 37.4349L26.4996 34.0384C26.4356 34.0006 26.4356 33.9396 26.4996 33.9018L29.0767 32.4317C29.1087 32.4142 29.1523 32.4026 29.1959 32.4055L32.3715 32.4259C32.4151 32.4259 32.4587 32.4375 32.4907 32.4549L35.4456 34.1808C35.5095 34.2185 35.5095 34.2796 35.4456 34.3173L33.9027 35.1977C33.8388 35.2355 33.7313 35.2355 33.6674 35.1977L33.0398 34.8316L33.403 34.6224C33.6906 34.4568 33.6936 34.1895 33.4059 34.021L33.403 34.0181Z" fill="#FFD687"/>
<path d="M43.7357 33.9747C43.7706 34.0358 43.788 34.1026 43.788 34.1694C43.788 34.3321 43.6834 34.4803 43.4917 34.5878L32.9971 40.576C32.631 40.7852 32.0324 40.7823 31.6693 40.5702L21.0933 34.3931C20.9044 34.2827 20.8027 34.1345 20.8027 33.9718C20.8027 33.8091 20.9073 33.661 21.0991 33.5535L27.0786 30.1424C27.2558 30.0407 27.4883 29.9855 27.7323 29.9855L34.1534 29.9739C34.4033 29.9739 34.6503 30.032 34.8275 30.1366L41.022 33.7539C41.2109 33.8643 41.3126 34.0125 41.3126 34.1752C41.3126 34.3379 41.208 34.4861 41.0162 34.5936L33.0116 39.161C32.6455 39.3702 32.047 39.3673 31.6838 39.1552L23.4932 34.3728C23.3044 34.2624 23.2027 34.1142 23.2027 33.9515C23.2027 33.7888 23.3073 33.6406 23.499 33.5331L27.7672 31.0983C27.9444 30.9966 28.1769 30.9414 28.4209 30.9414L33.3603 30.9356C33.6101 30.9356 33.8571 30.9937 34.0343 31.0983L38.6424 33.7888C38.8313 33.8992 38.933 34.0474 38.933 34.2101C38.933 34.3728 38.8284 34.521 38.6366 34.6285L33.0958 37.7897C32.7298 37.9988 32.1312 37.9959 31.768 37.7838L25.9513 34.3873C25.7624 34.2769 25.6607 34.1287 25.6607 33.966C25.6607 33.8033 25.7653 33.6551 25.9571 33.5476L28.5342 32.0775C28.7115 31.9758 28.9555 31.9206 29.2025 31.9206L32.3782 31.9438C32.6281 31.9438 32.8634 32.0048 33.0377 32.1065L35.9926 33.8324C36.1815 33.9428 36.2832 34.091 36.2832 34.2537C36.2832 34.4164 36.1786 34.5646 35.9868 34.6721L34.444 35.5524C34.0779 35.7616 33.4794 35.7587 33.1162 35.5466L32.5177 35.198L32.137 35.4159C31.832 35.5902 31.338 35.5873 31.0359 35.4101L29.7487 34.6575C29.5889 34.5646 29.5047 34.4396 29.5047 34.3031C29.5047 34.1665 29.5947 34.0416 29.7516 33.9515L31.0446 33.2135C31.3497 33.0392 31.8436 33.0421 32.1458 33.2193L33.4329 33.9718C33.5927 34.0648 33.6769 34.1898 33.6769 34.3263C33.6769 34.4629 33.5869 34.5878 33.43 34.6779L33.1598 34.8319L33.6944 35.1457C33.7409 35.1718 33.8222 35.1718 33.8687 35.1457L35.4115 34.2653L35.429 34.2508C35.429 34.2508 35.4231 34.245 35.4115 34.2362L32.4566 32.5104C32.4363 32.4988 32.4043 32.49 32.3695 32.49L29.1967 32.4697C29.1647 32.4697 29.1299 32.4755 29.1095 32.49L26.5324 33.9602L26.5149 33.9747C26.5149 33.9747 26.5207 33.9806 26.5324 33.9893L32.3491 37.3858C32.3956 37.4119 32.477 37.4119 32.5235 37.3858L38.0642 34.2246L38.0817 34.2101C38.0817 34.2101 38.0759 34.2043 38.0642 34.1956L33.4561 31.5051C33.4329 31.4935 33.4009 31.4847 33.369 31.4847L28.4296 31.4906C28.3977 31.4906 28.3657 31.4993 28.3425 31.5109L24.0743 33.9457L24.0569 33.9602C24.0569 33.9602 24.0627 33.966 24.0743 33.9747L32.2649 38.7572C32.3114 38.7833 32.3927 38.7833 32.4392 38.7572L40.4438 34.1898L40.4613 34.1752C40.4613 34.1752 40.4555 34.1694 40.4438 34.1607L34.2493 30.5434C34.2261 30.5317 34.1941 30.523 34.1622 30.523L27.741 30.5376C27.7091 30.5376 27.6771 30.5434 27.6568 30.5579L21.6773 33.9689L21.6598 33.9835C21.6598 33.9835 21.6657 33.9893 21.6773 33.998L32.2533 40.1751C32.2997 40.2012 32.3811 40.2012 32.4276 40.1751L42.9222 34.1868L42.9396 34.1723C42.9396 34.1723 42.9338 34.1665 42.9222 34.1578L34.3307 29.14L31.2218 29.1342C30.8499 29.1342 30.5129 29.0006 30.3647 28.7943C30.295 28.6984 30.2717 28.5938 30.295 28.4892C30.324 28.3613 30.4199 28.2451 30.5739 28.1551L31.614 27.5594C31.9714 27.356 32.5525 27.359 32.907 27.5652L43.5004 33.751C43.6079 33.8149 43.6893 33.8905 43.7387 33.9777L43.7357 33.9747ZM20.9654 34.1084C21.0032 34.1752 21.0671 34.2362 21.1572 34.2885L31.7332 40.4656C32.0644 40.6603 32.6048 40.6603 32.939 40.4714L43.4336 34.4832C43.5817 34.3989 43.666 34.2885 43.666 34.1723C43.666 34.0561 43.5847 33.9457 43.4365 33.8585L32.8431 27.6727C32.5206 27.4839 31.9976 27.4839 31.6751 27.6669L30.6349 28.2626C30.5129 28.3323 30.4344 28.4224 30.4141 28.5153C30.3996 28.5851 30.4141 28.6548 30.4635 28.7216C30.5884 28.896 30.8848 29.0093 31.2189 29.0093L34.3626 29.0151L34.3772 29.0238L42.9832 34.0503C43.0326 34.0793 43.0617 34.1229 43.0617 34.1723C43.0617 34.2217 43.0326 34.2653 42.9803 34.2943L32.4857 40.2826C32.4014 40.332 32.2736 40.332 32.1864 40.2826L21.6105 34.1055C21.5611 34.0764 21.532 34.03 21.532 33.9835C21.532 33.9341 21.5611 33.8905 21.6134 33.8614L27.5929 30.4504C27.6335 30.4271 27.6858 30.4155 27.741 30.4155L34.1622 30.401C34.2174 30.401 34.2726 30.4155 34.3132 30.4388L40.5077 34.0561C40.5571 34.0852 40.5862 34.1316 40.5862 34.1781C40.5862 34.2275 40.5571 34.2711 40.5048 34.3002L32.5002 38.8676C32.416 38.917 32.2881 38.9141 32.201 38.8676L24.0104 34.0852C23.961 34.0561 23.9319 34.0125 23.9319 33.9631C23.9319 33.9137 23.961 33.8701 24.0133 33.8411L28.2815 31.4063C28.3221 31.3831 28.3744 31.3714 28.4296 31.3714L33.3719 31.3656C33.4271 31.3656 33.4823 31.3801 33.523 31.4034L38.1311 34.0939C38.1804 34.1229 38.2095 34.1694 38.2095 34.2159C38.2095 34.2653 38.1805 34.3089 38.1282 34.3379L32.5874 37.4991C32.5031 37.5485 32.3753 37.5456 32.2881 37.4991L26.4713 34.1026C26.4219 34.0735 26.3929 34.03 26.3929 33.9806C26.3929 33.9312 26.4219 33.8876 26.4742 33.8585L29.0514 32.3884C29.0921 32.3651 29.1444 32.3535 29.2025 32.3535L32.3782 32.3738C32.4334 32.3738 32.4857 32.3884 32.5264 32.4116L35.4813 34.1375C35.5306 34.1665 35.5597 34.2101 35.5597 34.2595C35.5597 34.3089 35.5306 34.3525 35.4783 34.3815L33.9355 35.2619C33.8513 35.3113 33.7234 35.3084 33.6363 35.2619L32.9157 34.8406L33.3719 34.5791C33.491 34.5123 33.5578 34.4251 33.5578 34.3321C33.5578 34.2421 33.4939 34.1549 33.3748 34.0852L32.0876 33.3326C31.8174 33.1757 31.3787 33.1728 31.1085 33.3268L29.8156 34.0648C29.6964 34.1316 29.6296 34.2188 29.6296 34.3118C29.6296 34.4019 29.6935 34.489 29.8126 34.5588L31.0998 35.3113C31.37 35.4682 31.8087 35.4711 32.0789 35.3171L32.5235 35.0643L33.183 35.4507C33.5142 35.6454 34.0547 35.6483 34.3888 35.4565L35.9316 34.5762C36.0798 34.4919 36.164 34.3815 36.164 34.2653C36.164 34.1491 36.0827 34.0387 35.9345 33.9515L32.9796 32.2256C32.8198 32.1327 32.6077 32.0804 32.3811 32.0804L29.2054 32.0571C28.9788 32.0571 28.758 32.1065 28.5982 32.1966L26.021 33.6668C25.8728 33.751 25.7886 33.8614 25.7886 33.9777C25.7886 34.0939 25.8699 34.2043 26.0181 34.2914L31.8349 37.688C32.1661 37.8826 32.7065 37.8855 33.0406 37.6938L38.5814 34.5326C38.7296 34.4483 38.8138 34.3379 38.8138 34.2217C38.8138 34.1055 38.7325 33.9951 38.5843 33.9079L33.9762 31.2174C33.8164 31.1245 33.5927 31.0722 33.3631 31.0722L28.4238 31.078C28.2001 31.078 27.988 31.1274 27.8311 31.2174L23.5629 33.6522C23.4148 33.7365 23.3305 33.8469 23.3305 33.9631C23.3305 34.0793 23.4119 34.1898 23.56 34.2769L31.7506 39.0593C32.0818 39.254 32.6223 39.2569 32.9564 39.0652L40.961 34.4977C41.1092 34.4135 41.1934 34.3031 41.1934 34.1868C41.1934 34.0706 41.1121 33.9602 40.9639 33.8731L34.7694 30.2557C34.6096 30.1627 34.3859 30.1104 34.1564 30.1104L27.7352 30.1221C27.5115 30.1221 27.2994 30.1715 27.1425 30.2615L21.163 33.6726C21.0148 33.7568 20.9306 33.8672 20.9306 33.9835C20.9306 34.03 20.9422 34.0735 20.9683 34.1171L20.9654 34.1084Z" fill="#F6AC1F"/>
<path d="M39.0273 20.5532L46.2911 16.3606C48.1506 15.2856 49.6091 12.7636 49.6091 10.6165C49.6091 9.41358 49.1617 8.49255 48.3452 8.02186C47.5317 7.55117 46.509 7.62381 45.4688 8.22524L38.2051 12.4179L39.0273 13.8445L46.2911 9.65184C46.7937 9.36129 47.2411 9.28574 47.523 9.44845C47.8019 9.60825 47.9617 10.0354 47.9617 10.6165C47.9617 12.1767 46.8198 14.1553 45.4688 14.9369L38.2051 19.1295L39.0273 20.5561V20.5532Z" fill="#F6AC1F"/>
<path d="M7.94531 27.4405L7.96274 27.4144L31.0875 17.0621L38.3919 12.8434C39.2752 12.332 40.6117 12.2768 41.3787 12.7184L41.5066 12.7911L43.6131 12.0938H43.6218H45.6179C45.6324 12.0938 45.6469 12.1054 45.6469 12.1228V25.2818L45.6382 25.2847C45.6585 25.6362 45.4203 26.0081 44.9176 26.2987L42.079 27.9374C42.079 27.9374 42.0673 27.9374 42.0673 27.9316L42.0732 19.6161C42.0732 19.0088 41.4165 18.6311 40.8935 18.9333L18.6637 31.7988C18.0128 32.1765 17.6119 32.868 17.6119 33.6205V41.9215L15.1974 43.3161C14.3141 43.8275 12.9776 43.8827 12.2106 43.441L8.45958 41.2736C8.11383 41.0731 7.95112 40.8029 7.95112 40.5239L7.94531 27.4405Z" fill="#FFD687"/>
<path d="M12.0323 43.7524L8.28135 41.5849C7.83971 41.3292 7.59566 40.9515 7.59566 40.5244L7.58984 27.441L7.60728 27.3102L7.72059 27.133L30.918 16.7488L38.2166 12.5329C39.2103 11.9605 40.6688 11.9024 41.5463 12.4021L43.4988 11.7542L45.6169 11.7339L46.0033 11.7629V25.2793L45.9946 25.5204L45.9771 25.5291C45.8987 25.9388 45.5907 26.3223 45.0968 26.6071L42.2581 28.2458L42.0722 28.3504L41.7119 28.1383L41.7177 19.6165C41.7177 19.3928 41.5666 19.2823 41.5027 19.2446C41.4388 19.2068 41.2673 19.1313 41.0727 19.2446L18.8428 32.1101C18.3053 32.421 17.9711 33.0021 17.9711 33.6238V42.1311L15.3766 43.6274C14.8361 43.9383 14.1591 44.0981 13.5112 44.0981C12.9621 44.0981 12.4362 43.9848 12.0323 43.7524ZM17.2535 33.6238C17.2535 32.7493 17.7242 31.9328 18.4825 31.4941L40.7124 18.6286C41.0698 18.4223 41.4998 18.4223 41.8572 18.6286C42.2145 18.8349 42.4295 19.2068 42.4295 19.6194V27.3276L44.7394 25.9911C45.091 25.7877 45.2944 25.532 45.2827 25.3054L45.2914 12.4486H43.676L41.4678 13.1808L41.2005 13.0268C40.5468 12.6491 39.341 12.7072 38.5711 13.1518L31.2318 17.388L8.30169 27.653L8.3075 40.5273C8.3075 40.7336 8.48764 40.8817 8.63582 40.9689L12.3868 43.1364C13.0405 43.5141 14.2434 43.456 15.0163 43.0115L17.2535 41.7185V33.6209V33.6238Z" fill="#F6AC1F"/>
<path d="M15.6886 43.0346L15.1947 43.3194C15.1337 43.3542 15.0639 43.3833 15 43.4153V27.9058H15.6886V43.0346Z" fill="#F6AC1F"/>
<path d="M14.6445 43.9789L15.2053 43.7145C15.2634 43.6883 15.3215 43.6622 15.3738 43.6302L16.045 43.2409V27.5483H14.6445V43.976V43.9789Z" fill="#F6AC1F"/>
<path d="M13.3292 43.7332C12.9108 43.7128 12.5156 43.617 12.2106 43.4426L8.45958 41.2751C8.11383 41.0747 7.95112 40.8044 7.95112 40.5255L7.94531 27.4421L7.96274 27.416L9.94428 26.5298H13.3292V43.7361V43.7332Z" fill="#F6AC1F"/>
<path d="M13.3107 44.0881C12.8139 44.0619 12.3723 43.9457 12.0323 43.751L8.28135 41.5835C7.83971 41.3279 7.59566 40.9501 7.59566 40.523L7.58984 27.4396L7.60728 27.3089L7.72059 27.1316L9.86774 26.1699H13.6856V44.1084L13.3107 44.0881ZM10.0188 26.8847L8.30169 27.6546L8.3075 40.5288C8.3075 40.7351 8.48764 40.8833 8.63582 40.9705L12.3868 43.138C12.5466 43.2309 12.7442 43.2978 12.9679 43.3384V26.8876H10.0159L10.0188 26.8847Z" fill="#F6AC1F"/>
<path d="M44.709 12.0664H45.6213C45.6358 12.0664 45.6504 12.078 45.6504 12.0954V25.2544L45.6417 25.2573C45.662 25.6089 45.4237 25.9808 44.9211 26.2713L44.709 26.3933V12.0635V12.0664Z" fill="#F6AC1F"/>
<path d="M44.3516 11.7095H45.6213L46.0077 11.7385V25.2549L45.999 25.496L45.9815 25.5047C45.9031 25.9144 45.5951 26.2979 45.1012 26.5827L44.3545 27.0156V11.7124L44.3516 11.7095ZM45.2929 12.4213H45.0663V25.7226C45.2145 25.5774 45.2929 25.4205 45.2871 25.2781L45.2813 25.0224L45.2958 25.0166V12.4213H45.2929Z" fill="#F6AC1F"/>
<path d="M8.46108 28.1754L12.2121 30.3429C12.9762 30.7845 14.3127 30.7293 15.1989 30.218L44.9191 13.0582C45.8024 12.5468 45.8983 11.7769 45.1341 11.3352L41.3832 9.16772C40.619 8.72609 39.2825 8.78129 38.3963 9.29266L8.67609 26.4525C7.79282 26.9638 7.69694 27.7338 8.46108 28.1754Z" fill="#FFF8EE"/>
<path d="M12.0352 30.648L8.28425 28.4805C7.83681 28.2219 7.58984 27.8471 7.58984 27.4229C7.58984 26.9406 7.92107 26.4728 8.49926 26.1387L38.2195 8.9789C39.2161 8.40361 40.6833 8.34841 41.5608 8.85396L45.3118 11.0215C45.7592 11.28 46.0062 11.6548 46.0062 12.0791C46.0062 12.5614 45.675 13.0291 45.0968 13.3633L15.3766 30.5231C14.8361 30.834 14.1592 30.9938 13.5112 30.9938C12.9621 30.9938 12.4362 30.8805 12.0323 30.648H12.0352ZM38.5769 9.60067L8.85664 26.7605C8.51088 26.961 8.3046 27.2108 8.3046 27.4258C8.3046 27.6292 8.48764 27.7774 8.64163 27.8646L12.3926 30.0321C13.0464 30.4098 14.2521 30.3546 15.0221 29.9071L44.7423 12.7473C45.0881 12.5468 45.2943 12.2999 45.2943 12.082C45.2943 11.8786 45.1113 11.7304 44.9573 11.6432L41.2063 9.47573C40.9158 9.30722 40.5148 9.22586 40.0906 9.22586C39.5647 9.22586 39.004 9.3537 38.5769 9.60067Z" fill="#F6AC1F"/>
<path d="M41.9618 27.8853L35.4941 24.1547L40.8867 18.9393C41.4126 18.6371 42.0664 19.0149 42.0664 19.6221V27.8272C42.0664 27.8824 42.0082 27.9144 41.9618 27.8882V27.8853Z" fill="#F6AC1F"/>
<path d="M41.7826 28.1898L34.7891 24.1483L40.7104 18.6279C41.0678 18.4216 41.4949 18.4216 41.8552 18.6279C42.2126 18.8342 42.4276 19.2061 42.4276 19.6186V27.8092C42.4276 27.8789 42.416 27.9458 42.384 28.0068C42.3026 28.1695 42.1516 28.2508 42.0005 28.2508C41.9249 28.2508 41.8494 28.2305 41.7826 28.1927V28.1898ZM41.0678 19.2467L36.2011 24.1599L41.7128 27.3211V19.6186C41.7128 19.3949 41.5618 19.2845 41.4978 19.2467C41.4572 19.2235 41.3787 19.1886 41.2799 19.1886C41.216 19.1886 41.1434 19.2031 41.0678 19.2467Z" fill="#F6AC1F"/>
<path d="M12.3012 43.8768L12.6527 43.258L9.85183 41.6658C9.54966 41.4943 9.34918 41.1864 9.31431 40.8435C9.3114 40.8057 9.3085 40.768 9.3085 40.7302V29.3843H8.59375V40.7302C8.59375 40.7941 8.59666 40.8551 8.60247 40.9191C8.66348 41.4914 8.99761 42.0028 9.49736 42.2875L12.2982 43.8798L12.3012 43.8768Z" fill="#FFD687"/>
<path d="M41.625 28.0857L41.9794 27.464L35.9941 24.0151L35.6426 24.6369L41.625 28.0857Z" fill="#FFD687"/>
<path d="M23.9573 19.635L17.6016 23.4028L17.966 24.0177L24.3218 20.2499L23.9573 19.635Z" fill="#F6AC1F"/>
<path d="M38.8132 10.9645L37.3086 11.8564L37.6731 12.4713L39.1777 11.5793L38.8132 10.9645Z" fill="#F6AC1F"/>
<path d="M33.9769 33.7186C34.0815 33.7186 34.1687 33.3844 34.1687 32.9719V30.2814C34.1687 29.8688 34.0815 29.5347 33.9769 29.5347C33.8723 29.5347 33.7852 29.8688 33.7852 30.2814V32.9719C33.7852 33.3844 33.8723 33.7186 33.9769 33.7186Z" fill="#FFD687"/>
<path d="M33.9639 31.5079C34.606 31.5079 35.129 30.9849 35.129 30.3428V19.5489C35.129 18.9068 34.606 18.3838 33.9639 18.3838C33.3218 18.3838 32.7988 18.9068 32.7988 19.5489V30.3428C32.7988 30.9849 33.3218 31.5079 33.9639 31.5079Z" fill="#F6AC1F"/>
<path d="M32.4434 30.3427V19.5488C32.4434 18.7092 33.1261 18.0264 33.9658 18.0264C34.8055 18.0264 35.4883 18.7092 35.4883 19.5488V30.3427C35.4883 31.1824 34.8055 31.8652 33.9658 31.8652C33.1261 31.8652 32.4434 31.1824 32.4434 30.3427ZM33.1552 19.5488V30.3427C33.1552 30.7873 33.5184 31.1505 33.9629 31.1505C34.4075 31.1505 34.7707 30.7873 34.7707 30.3427V19.5488C34.7707 19.1043 34.4075 18.7411 33.9629 18.7411C33.5184 18.7411 33.1552 19.1043 33.1552 19.5488Z" fill="#F6AC1F"/>
<path d="M30.6449 8.46708C30.8541 8.40026 31.0895 8.41188 31.3045 8.53681L36.5866 11.5585C38.7861 12.8166 40.1459 15.1584 40.1459 17.692V23.2764C40.1459 23.7587 39.896 24.148 39.5444 24.3833V24.3892L39.5038 24.4124C39.4805 24.4269 34.21 27.4632 33.5155 27.8612C33.472 27.8874 33.4197 27.8728 33.3906 27.8322L32.2284 26.1557C32.2284 26.1557 32.2197 26.1412 32.2168 26.1324L28.6024 15.7599C28.5937 15.7337 28.5733 15.7134 28.5472 15.7017L25.9816 14.679C25.9584 14.6703 25.9409 14.6529 25.9322 14.6325L24.6451 12.0118C24.6219 11.9653 24.6393 11.9101 24.6829 11.8868L30.6449 8.46418V8.46708Z" fill="#FFD687"/>
<path d="M33.0976 28.0353L31.9325 26.3559L28.3035 15.9921L25.8484 15.0129C25.7438 14.9722 25.6595 14.8909 25.6101 14.7921L24.323 12.1713C24.2184 11.9563 24.2998 11.6977 24.5031 11.5786L30.4623 8.15595L30.532 8.12399C30.8516 8.0223 31.1858 8.05717 31.4763 8.22278L36.7585 11.2445C39.0654 12.5636 40.4979 15.0332 40.4979 17.6889V23.2732C40.4979 23.7759 40.2828 24.232 39.9022 24.5545V24.5807L39.6901 24.7143C39.6814 24.7201 39.664 24.7318 33.8617 28.0731L33.6903 28.1719C33.6177 28.2125 33.5421 28.2329 33.4666 28.2329C33.3242 28.2329 33.1847 28.1631 33.0947 28.0353H33.0976ZM39.3502 24.0838C39.6291 23.8979 39.7918 23.6015 39.7918 23.2761V17.6918C39.7918 15.2918 38.496 13.0575 36.4127 11.8663L31.1306 8.84456C30.9998 8.76901 30.8749 8.77482 30.7877 8.79516L25.0755 12.0755L26.2116 14.3853L28.6812 15.3703C28.8033 15.4197 28.8991 15.5185 28.9427 15.6434L32.5455 25.9811L33.5508 27.431C34.6811 26.7801 38.8185 24.3976 39.2804 24.1303L39.3531 24.0838H39.3502Z" fill="#F6AC1F"/>
<path d="M39.1812 14.1294L33.2076 17.552L29.0004 16.9012L28.6024 15.7593C28.5937 15.7332 28.5733 15.7129 28.5472 15.7012L25.9816 14.6785C25.9584 14.6698 25.9409 14.6524 25.9322 14.632L24.6451 12.0113C24.6219 11.9648 24.6393 11.9096 24.6829 11.8863L30.6449 8.46366C30.8541 8.39684 31.0895 8.40846 31.3045 8.53339L36.5866 11.5551C37.682 12.1798 38.5682 13.0747 39.1812 14.1265V14.1294Z" fill="#FFF8EE"/>
<path d="M28.7335 17.224L28.3035 15.9921L25.8484 15.0129C25.7438 14.9722 25.6595 14.8909 25.6101 14.7921L24.323 12.1713C24.2184 11.9563 24.2998 11.6977 24.5031 11.5786L30.4652 8.15595L30.5349 8.12399C30.8545 8.0223 31.1916 8.05717 31.4792 8.22278L36.7614 11.2445C37.8887 11.8895 38.8301 12.8222 39.4867 13.9466L39.6669 14.2575L33.2748 17.9213L28.7306 17.2211L28.7335 17.224ZM36.4098 11.8692L31.1277 8.84746C30.9969 8.77192 30.872 8.77773 30.7848 8.79807L25.0726 12.0784L26.2087 14.3882L28.6783 15.3732C28.8004 15.4226 28.8962 15.5214 28.9398 15.6463L29.2682 16.5848L33.1412 17.1833L38.6848 14.0047C38.1066 13.1243 37.3251 12.3922 36.4098 11.8692Z" fill="#F6AC1F"/>
<path d="M30.6174 24.8743V21.3063L24.0801 17.5495V12.7003C24.0801 12.0611 24.7687 11.663 25.3236 11.9797L30.6552 15.0276C32.8256 16.2682 34.165 18.5781 34.165 21.0797V26.7192C34.165 27.7565 33.0377 28.3986 32.1457 27.8698L28.8364 25.9057L30.6203 24.8743H30.6174Z" fill="#F6AC1F"/>
<path d="M31.9597 28.1756L28.1274 25.9035L30.26 24.6686V21.5133L23.7227 17.7565V12.7009C23.7227 12.2738 23.9435 11.8903 24.3125 11.6753C24.6844 11.4603 25.126 11.4603 25.4979 11.6724L30.8295 14.7202C33.1045 16.0219 34.5194 18.4596 34.5194 21.0804V26.7199C34.5194 27.3359 34.1998 27.8879 33.6623 28.193C33.3979 28.3441 33.1103 28.4167 32.8226 28.4167C32.535 28.4167 32.227 28.3354 31.9597 28.1756ZM24.6698 12.2913C24.5188 12.3784 24.4345 12.5266 24.4345 12.7009V17.3439L30.9719 21.1007V25.0812L29.5365 25.9122L32.3229 27.5654C32.6309 27.7484 32.9999 27.7514 33.3079 27.5741C33.6187 27.3969 33.8047 27.0773 33.8047 26.7228V21.0833C33.8047 18.7182 32.5292 16.5158 30.475 15.342L25.1434 12.2942C25.0679 12.2506 24.9895 12.2302 24.9081 12.2302C24.8267 12.2302 24.7454 12.2535 24.6698 12.2971V12.2913Z" fill="#F6AC1F"/>
<path d="M39.7574 16.1241L33.7832 19.5483L34.1386 20.1685L40.1129 16.7442L39.7574 16.1241Z" fill="#F6AC1F"/>
<path d="M26.6076 17.3313C25.9626 16.9594 25.457 16.0848 25.457 15.341C25.457 14.9139 25.6256 14.574 25.919 14.4026C26.2125 14.2311 26.5931 14.2573 26.9621 14.4694C27.6071 14.8413 28.1127 15.7158 28.1127 16.4596C28.1127 16.8867 27.9441 17.2267 27.6507 17.3981C27.5228 17.4737 27.3747 17.5085 27.2207 17.5085C27.0231 17.5085 26.8139 17.4475 26.6076 17.3284V17.3313ZM26.2764 15.0214C26.2125 15.0592 26.1689 15.1812 26.1689 15.341C26.1689 15.8292 26.5408 16.4713 26.9621 16.7153C27.0986 16.7967 27.2265 16.8199 27.2933 16.7822C27.3601 16.7444 27.4008 16.6223 27.4008 16.4625C27.4008 15.9657 27.0376 15.3381 26.6076 15.0883C26.5117 15.033 26.4217 15.004 26.3519 15.004C26.3229 15.004 26.2967 15.0098 26.2764 15.0214Z" fill="#FFD687"/>
<path d="M24.4394 13.4937H23.7246V14.65H24.4394V13.4937Z" fill="#FFD687"/>
<path d="M32.7633 13.494H34.4107V7.51454C34.4107 4.6352 32.8766 1.92729 30.407 0.448395C29.4307 -0.135608 28.254 -0.150135 27.2661 0.410624C26.2754 0.971383 25.6855 1.9883 25.6855 3.12435V5.13495C25.6855 7.00608 26.3131 8.85687 27.4521 10.3416L28.7596 9.33919C27.8385 8.13922 27.333 6.6458 27.333 5.13495V3.12435C27.333 2.58683 27.6119 2.10743 28.0797 1.84303C28.5475 1.57863 29.1024 1.58444 29.5644 1.86046C31.5401 3.043 32.7691 5.21049 32.7691 7.51163V13.4911L32.7633 13.494Z" fill="#F6AC1F"/>
<path d="M32.8133 28.4137C33.7895 28.3788 34.3793 27.7715 34.4026 27.7454L33.8883 27.2515C33.8883 27.2515 33.4641 27.6757 32.7871 27.6989L32.8133 28.4108V28.4137Z" fill="#FFD687"/>
</svg>
