<svg width="64" height="67" viewBox="0 0 64 67" fill="none" xmlns="http://www.w3.org/2000/svg">
<path d="M13.1567 35.504L5.70312 24.1526L24.4495 13.3262L31.9078 24.6776L13.1567 35.504Z" fill="#FFD687"/>
<path d="M12.7676 37.667L5.31641 26.3132L24.0604 15.4868L31.521 26.8406L12.7676 37.667Z" fill="#FFF8EE"/>
<path d="M13.1173 35.6725L5.52539 24.1077L24.4874 13.1548L32.0863 24.7195L13.1149 35.6725H13.1173ZM5.88401 24.1945L13.1969 35.335L31.73 24.6351L24.4077 13.4947L5.88167 24.1945H5.88401Z" fill="#F6AC1F"/>
<path d="M50.753 35.5675L58.2066 24.2161L39.4626 13.3896L32.002 24.7411L50.753 35.5675Z" fill="#FFD687"/>
<path d="M51.1226 37.6675L58.5738 26.3137L39.8297 15.4873L32.3691 26.8411L51.1226 37.6675Z" fill="#FFF8EE"/>
<path d="M50.7957 35.736L31.8242 24.783L39.4231 13.2183L58.3851 24.1712L58.3125 24.2837L50.7933 35.736H50.7957ZM32.1852 24.6986L50.7183 35.3985L58.0312 24.258L39.5051 13.5582L32.1852 24.6986Z" fill="#F6AC1F"/>
<path d="M13.2539 35.5679V55.6081L32.005 66.4345V46.3943L13.2539 35.5679Z" fill="#FFD687"/>
<path d="M32.0066 46.2487L13.1289 35.3496V55.6805L32.0066 66.5795L50.8209 55.7156L50.8842 55.6805V35.3496L32.0066 46.2487ZM13.3797 55.5351V35.7879L31.8776 46.469V66.2162L13.3797 55.5351Z" fill="#F6AC1F"/>
<path d="M50.7561 35.5671L32.005 46.3935L13.2539 35.5671L32.005 24.7407L50.7561 35.5671Z" fill="#FFD687"/>
<path d="M32.001 46.5434L12.9922 35.5693L32.001 24.5952L32.0643 24.6328L51.01 35.5716L32.001 46.5457V46.5434ZM13.5078 35.5669L32.001 46.2434L50.4943 35.5669L32.001 24.8905L13.5078 35.5669Z" fill="#F6AC1F"/>
<path d="M32.0011 24.8906L12.9922 35.567L31.9378 46.5036L32.1347 46.3981L32.0011 46.2481V24.8906Z" fill="#F6AC1F"/>
<path d="M31.999 46.3938L19.5741 46.8063L0.455078 35.9658L13.248 35.5674L31.999 46.3938Z" fill="#FFD687"/>
<path d="M31.8818 48.0974L19.4546 48.5099L0.337891 37.6671L13.1308 37.271L31.8818 48.0974Z" fill="#FFF8EE"/>
<path d="M19.541 46.9353L19.5105 46.9166L0 35.8534L13.2781 35.4409L13.3086 35.4597L32.4417 46.5064L19.5386 46.9353H19.541ZM0.909457 36.0784L19.6043 46.6822L31.5534 46.2837L13.2148 35.6964L0.907111 36.0784H0.909457Z" fill="#F6AC1F"/>
<path d="M32.002 46.3938L44.4269 46.8063L63.546 35.9658L50.753 35.5674L32.002 46.3938Z" fill="#FFD687"/>
<path d="M31.877 48.0974L44.3019 48.5099L63.421 37.6671L50.628 37.271L31.877 48.0974Z" fill="#FFF8EE"/>
<path d="M44.4578 46.9353H44.4226L31.5547 46.5064L50.7206 35.4409H50.7558L63.9987 35.8534L44.4578 46.9353ZM32.4454 46.2837L44.3945 46.6822L63.0893 36.0784L50.7816 35.6964L32.443 46.2837H32.4454Z" fill="#F6AC1F"/>
<path d="M39.9838 11.9999C39.9838 7.38944 36.1914 3.65332 31.5154 3.65332C26.8393 3.65332 23.0469 7.38944 23.0469 11.9999C23.0469 14.0414 23.7922 15.9118 25.0274 17.3627C25.0556 17.4002 25.0861 17.4353 25.1212 17.4729C25.147 17.4986 25.1681 17.5244 25.1916 17.5502C25.2291 17.59 25.2642 17.6299 25.3017 17.6697C26.4526 18.9237 27.0526 20.112 27.3526 20.848C27.4182 21.0871 27.5026 21.3191 27.6057 21.5395C27.6127 21.5606 27.6198 21.5793 27.6245 21.5887H27.6315C28.3277 23.0161 29.8043 24.0052 31.5177 24.0052C33.5147 24.0052 35.1882 22.6669 35.6804 20.8527C35.9383 20.2035 36.4445 19.1487 37.4055 18.0002C38.997 16.4837 39.9885 14.3578 39.9885 12.0022L39.9838 11.9999Z" fill="#FFD687"/>
<path d="M40.8939 12.8529C40.8939 8.24252 37.1015 4.50635 32.4255 4.50635C27.7494 4.50635 23.957 8.24252 23.957 12.8529C23.957 14.8945 24.7024 16.7649 25.9376 18.2157C25.9657 18.2532 25.9962 18.2884 26.0313 18.3259C26.0571 18.3517 26.0782 18.3775 26.1017 18.4032C26.1392 18.4431 26.1743 18.4829 26.2118 18.5228C27.3627 19.7768 28.3448 21.0893 28.6471 21.8253C28.7128 22.0644 28.4127 22.1699 28.5159 22.3902C28.5229 22.4113 28.53 22.43 28.5346 22.4394H28.5416C29.2378 23.8668 30.7144 24.856 32.4278 24.856C34.4248 24.856 36.0983 23.5176 36.5905 21.7035C36.8484 21.0542 37.3547 19.9994 38.3157 18.8509C39.9072 17.3344 40.8986 15.2085 40.8986 12.8529H40.8939Z" fill="#FFF8EE"/>
<path d="M31.5169 24.2044C29.8293 24.2044 28.2612 23.2528 27.4924 21.7691H27.4877L27.4362 21.6707C27.4291 21.6566 27.4198 21.6332 27.4104 21.6027C27.3096 21.3917 27.2205 21.148 27.1526 20.8995C26.8502 20.1635 26.2502 19.0057 25.1485 17.8056L24.9704 17.6134C24.9306 17.5712 24.8954 17.529 24.8626 17.4868C23.5594 15.9586 22.8398 14.0085 22.8398 12.0021C22.8398 7.28625 26.7307 3.45166 31.5146 3.45166C36.2984 3.45166 40.1893 7.28625 40.1893 12.0021C40.1893 14.3367 39.2494 16.5188 37.5454 18.1455C36.6453 19.226 36.1343 20.255 35.8695 20.9253C35.3491 22.8497 33.5561 24.2091 31.5146 24.2091L31.5169 24.2044ZM27.8018 21.4714L27.8183 21.5019C28.5097 22.92 29.9278 23.8013 31.5193 23.8013C33.3733 23.8013 35.0046 22.566 35.4827 20.7987C35.7663 20.0792 36.2961 19.008 37.2477 17.8712C38.8884 16.3055 39.7814 14.2265 39.7814 12.0021C39.7814 7.51126 36.0758 3.85715 31.5193 3.85715C26.9627 3.85715 23.2547 7.51126 23.2547 12.0021C23.2547 13.9124 23.9415 15.7711 25.1861 17.2337C25.2165 17.2736 25.2423 17.304 25.2728 17.3345L25.4556 17.5314C26.5994 18.776 27.2229 19.9807 27.5463 20.7706C27.6166 21.0214 27.6963 21.2417 27.7948 21.4527L27.8018 21.4714Z" fill="#F6AC1F"/>
<path d="M31.5142 27.4131C30.4595 27.4131 29.6016 28.0858 29.6016 28.9109C29.6016 29.7359 30.4595 30.4086 31.5142 30.4086C32.569 30.4086 33.4268 29.7359 33.4268 28.9109C33.4268 28.0858 32.569 27.4131 31.5142 27.4131ZM30.0141 28.9085C30.0141 28.3061 30.6868 27.8162 31.5142 27.8162C31.7767 27.8162 32.0204 27.8702 32.2337 27.9569C31.4814 28.0928 30.9212 28.6014 30.9212 29.2132C30.9212 29.4991 31.0806 29.7781 31.3736 29.989C30.6141 29.9374 30.0141 29.4757 30.0141 28.9085Z" fill="#F6AC1F"/>
<path d="M34.5914 27.5167C34.5914 28.4871 33.2132 29.2746 31.5115 29.2746C29.8099 29.2746 28.4316 28.4871 28.4316 27.5167C28.4316 26.5463 29.8099 25.7588 31.5115 25.7588C33.2132 25.7588 34.5914 26.5463 34.5914 27.5167Z" fill="#FFD687"/>
<path d="M31.5143 29.4766C29.672 29.4766 28.2305 28.6164 28.2305 27.5171C28.2305 26.4178 29.672 25.5576 31.5143 25.5576C33.3565 25.5576 34.798 26.4178 34.798 27.5171C34.798 28.6164 33.3565 29.4766 31.5143 29.4766ZM31.5143 25.9631C29.9579 25.9631 28.6406 26.6756 28.6406 27.5171C28.6406 28.3585 29.9556 29.0711 31.5143 29.0711C33.0729 29.0711 34.3879 28.3585 34.3879 27.5171C34.3879 26.6756 33.0729 25.9631 31.5143 25.9631Z" fill="#F6AC1F"/>
<path d="M34.5914 26.3668C34.5914 27.3372 33.2132 28.1247 31.5115 28.1247C29.8099 28.1247 28.4316 27.3372 28.4316 26.3668C28.4316 25.3964 29.8099 24.6089 31.5115 24.6089C33.2132 24.6089 34.5914 25.3964 34.5914 26.3668Z" fill="#FFD687"/>
<path d="M31.5143 28.3263C29.672 28.3263 28.2305 27.466 28.2305 26.3667C28.2305 25.2675 29.672 24.4072 31.5143 24.4072C33.3565 24.4072 34.798 25.2675 34.798 26.3667C34.798 27.466 33.3565 28.3263 31.5143 28.3263ZM31.5143 24.8127C29.9579 24.8127 28.6406 25.5253 28.6406 26.3667C28.6406 27.2082 29.9556 27.9207 31.5143 27.9207C33.0729 27.9207 34.3879 27.2082 34.3879 26.3667C34.3879 25.5253 33.0729 24.8127 31.5143 24.8127Z" fill="#F6AC1F"/>
<path d="M34.5914 25.1524C34.5914 26.1228 33.2132 26.9104 31.5115 26.9104C29.8099 26.9104 28.4316 26.1228 28.4316 25.1524C28.4316 24.1821 29.8099 23.3945 31.5115 23.3945C33.2132 23.3945 34.5914 24.1821 34.5914 25.1524Z" fill="#FFD687"/>
<path d="M31.5143 27.1118C29.672 27.1118 28.2305 26.2517 28.2305 25.1524C28.2305 24.0531 29.672 23.1929 31.5143 23.1929C33.3565 23.1929 34.798 24.0531 34.798 25.1524C34.798 26.2517 33.3565 27.1118 31.5143 27.1118ZM31.5143 23.5984C29.9579 23.5984 28.6406 24.3109 28.6406 25.1524C28.6406 25.9938 29.9556 26.7064 31.5143 26.7064C33.0729 26.7064 34.3879 25.9938 34.3879 25.1524C34.3879 24.3109 33.0729 23.5984 31.5143 23.5984Z" fill="#F6AC1F"/>
<path d="M34.5914 24.003C34.5914 24.9734 33.2132 25.7609 31.5115 25.7609C29.8099 25.7609 28.4316 24.9734 28.4316 24.003C28.4316 23.0327 29.8099 22.2451 31.5115 22.2451C33.2132 22.2451 34.5914 23.0327 34.5914 24.003Z" fill="#FFD687"/>
<path d="M31.5143 25.9629C29.672 25.9629 28.2305 25.1027 28.2305 24.0034C28.2305 22.9041 29.672 22.0439 31.5143 22.0439C33.3565 22.0439 34.798 22.9041 34.798 24.0034C34.798 25.1027 33.3565 25.9629 31.5143 25.9629ZM31.5143 22.4494C29.9579 22.4494 28.6406 23.1619 28.6406 24.0034C28.6406 24.8449 29.9556 25.5574 31.5143 25.5574C33.0729 25.5574 34.3879 24.8449 34.3879 24.0034C34.3879 23.1619 33.0729 22.4494 31.5143 22.4494Z" fill="#F6AC1F"/>
<path d="M34.5914 22.7892C34.5914 23.7595 33.2132 24.5471 31.5115 24.5471C29.8099 24.5471 28.4316 23.7595 28.4316 22.7892C28.4316 21.8188 29.8099 21.0312 31.5115 21.0312C33.2132 21.0312 34.5914 21.8188 34.5914 22.7892Z" fill="#FFD687"/>
<path d="M31.5025 22.3833C29.9227 22.3833 28.6406 23.1146 28.6406 24.017C28.6406 24.0639 28.657 24.1061 28.664 24.1529C29.1234 24.7928 30.2251 25.2452 31.5119 25.2452C32.7987 25.2452 33.8581 24.8116 34.3339 24.1904C34.3456 24.1342 34.3644 24.0779 34.3644 24.0193C34.3644 23.1169 33.0823 22.3856 31.5025 22.3856V22.3833Z" fill="#FFF8EE"/>
<path d="M31.5143 24.7486C29.672 24.7486 28.2305 23.8884 28.2305 22.7891C28.2305 21.6898 29.672 20.8296 31.5143 20.8296C33.3565 20.8296 34.798 21.6898 34.798 22.7891C34.798 23.8884 33.3565 24.7486 31.5143 24.7486ZM31.5143 21.2351C29.9579 21.2351 28.6406 21.9476 28.6406 22.7891C28.6406 23.6306 29.9556 24.3431 31.5143 24.3431C33.0729 24.3431 34.3879 23.6306 34.3879 22.7891C34.3879 21.9476 33.0729 21.2351 31.5143 21.2351Z" fill="#F6AC1F"/>
<path d="M32.4505 17.3751L31.8715 17.0142C33.9013 13.8499 34.1733 12.8819 34.1873 12.603C34.1006 12.6311 33.9787 12.6826 33.8732 12.7272C33.4302 12.9147 32.7576 13.1983 31.8552 13.1819C30.9833 13.1678 30.341 12.8772 29.9168 12.685C29.8019 12.6334 29.6683 12.5725 29.584 12.5467C29.509 12.753 29.5019 13.6249 31.7192 16.9672L31.145 17.3376C28.5597 13.4374 28.6768 12.4576 29.1339 12.0123C29.4316 11.7216 29.8066 11.8927 30.2027 12.0709C30.5988 12.249 31.1403 12.4928 31.8669 12.5068C32.6123 12.5232 33.1912 12.2818 33.6037 12.1084C33.9928 11.9443 34.3584 11.7896 34.6561 12.0404C35.0569 12.3779 35.2163 13.0694 32.4505 17.3774V17.3751Z" fill="#FFD687"/>
<path d="M32.1455 17.375L31.3907 16.9039L30.718 17.3375L30.6055 17.1688C27.9476 13.156 28.0812 12.1154 28.6203 11.588C29.0187 11.1989 29.518 11.4263 29.9188 11.6067C30.2985 11.7778 30.8165 12.0122 31.5009 12.024C32.2017 12.038 32.7549 11.8083 33.1533 11.6419C33.5635 11.4684 34.0252 11.2739 34.419 11.6067C34.9253 12.0357 35.1128 12.7529 32.2533 17.2063L32.1431 17.3774L32.1455 17.375ZM31.7845 16.6718L32.0165 16.8172C34.4636 12.9826 34.473 12.1834 34.1518 11.9138C33.962 11.7544 33.7112 11.8482 33.3151 12.0146C32.9072 12.188 32.2978 12.4459 31.4915 12.4295C30.7204 12.4154 30.1579 12.1623 29.7453 11.9771C29.3 11.7755 29.0843 11.7052 28.9062 11.8786C28.5663 12.2091 28.4046 13.0787 30.8329 16.7797L31.0626 16.632C29.5226 14.2858 28.8171 12.7553 29.0187 12.2021L29.0867 12.0193L29.2766 12.0779C29.3609 12.1037 29.4969 12.1646 29.6141 12.2161C30.0406 12.4083 30.6594 12.6873 31.4868 12.7013C32.333 12.7201 32.9939 12.4435 33.4205 12.263C33.5377 12.2138 33.6619 12.1622 33.7486 12.1341L34.0346 12.0403L34.0182 12.338C33.9878 12.9216 33.1932 14.4592 31.7798 16.6742L31.7845 16.6718ZM29.4101 12.5654C29.4734 12.9685 29.825 13.9975 31.44 16.4515C32.865 14.2155 33.3596 13.149 33.5283 12.6591C33.0619 12.856 32.3892 13.1162 31.4821 13.1045C30.568 13.0881 29.9024 12.788 29.4617 12.5888C29.443 12.5818 29.4265 12.5724 29.4101 12.5654Z" fill="#F6AC1F"/>
<path d="M31.5126 23.018C31.011 23.018 30.6055 22.6711 30.6055 22.2398V17.3177C30.6055 16.8887 31.011 16.5396 31.5126 16.5396C32.0142 16.5396 32.4196 16.8864 32.4196 17.3177V22.2398C32.4196 22.6688 32.0142 23.018 31.5126 23.018Z" fill="#FFF8EE"/>
<path d="M32.077 23.1191C31.5754 23.1191 31.1699 22.7722 31.1699 22.341V17.4188C31.1699 16.9899 31.5754 16.6406 32.077 16.6406C32.5786 16.6406 32.9841 16.9875 32.9841 17.4188V22.341C32.9841 22.7699 32.5786 23.1191 32.077 23.1191Z" fill="#FFD687"/>
<path d="M31.5157 23.222C30.9016 23.222 30.4023 22.7813 30.4023 22.2422V17.3201C30.4023 16.7786 30.9016 16.3403 31.5157 16.3403C32.1298 16.3403 32.629 16.781 32.629 17.3201V22.2422C32.629 22.7837 32.1298 23.222 31.5157 23.222ZM31.5157 16.7458C31.1289 16.7458 30.8149 17.0036 30.8149 17.3201V22.2422C30.8149 22.5586 31.1289 22.8165 31.5157 22.8165C31.9024 22.8165 32.2165 22.5586 32.2165 22.2422V17.3201C32.2165 17.0036 31.9024 16.7458 31.5157 16.7458Z" fill="#F6AC1F"/>
<path d="M20.9869 8.03543C20.5064 7.91355 20.2369 7.39786 20.4221 6.93846C20.9752 5.5626 22.3956 2.93044 25.513 1.57802C25.956 1.38582 26.4693 1.62488 26.6193 2.08428C26.7506 2.48977 26.5513 2.9234 26.1646 3.09216C23.577 4.21723 22.4027 6.42282 21.9526 7.54085C21.7979 7.92525 21.3877 8.13622 20.9869 8.03543Z" fill="#FFF8EE"/>
<path d="M20.9788 7.52989C20.8967 7.52989 20.8124 7.52054 20.7304 7.49944C20.4421 7.42678 20.1983 7.23223 20.0623 6.96503C19.9287 6.70252 19.9147 6.39779 20.0249 6.1259C20.6085 4.67035 22.0617 2.02414 25.2236 0.652967C25.4861 0.540461 25.7861 0.542811 26.0463 0.660005C26.3111 0.779544 26.515 1.00688 26.6065 1.28346C26.7705 1.78974 26.5268 2.33115 26.0392 2.54444C23.5477 3.62731 22.3992 5.72509 21.9375 6.88063C21.7781 7.27909 21.3913 7.52989 20.9788 7.52989ZM25.6267 0.981088C25.5447 0.981088 25.465 0.997486 25.3876 1.0303C22.3617 2.34288 20.9671 4.88133 20.4045 6.27829C20.3389 6.44236 20.3483 6.61812 20.428 6.77751C20.51 6.93689 20.6554 7.05411 20.8311 7.09865C21.1335 7.176 21.4382 7.01894 21.5554 6.72595C22.0406 5.51416 23.2477 3.30858 25.8752 2.16711C26.1682 2.04054 26.3158 1.71709 26.2174 1.41473C26.1635 1.24597 26.0393 1.11 25.8799 1.03734C25.7978 0.999837 25.7134 0.981088 25.6267 0.981088Z" fill="#F6AC1F"/>
</svg>
